  0
SECTION
  2
HEADER
  9
$ACADVER
  1
AC1032
  9
$ACADMAINTVER
 90
      174
  9
$DWGCODEPAGE
  3
ANSI_1252
  9
$LASTSAVEDBY
  1
MMAZZARINO
  9
$REQUIREDVERSIONS
160
                 0
  9
$INSBASE
 10
0.0
 20
0.0
 30
0.0
  9
$EXTMIN
 10
10247.37906290654
 20
4989.671552439374
 30
0.0
  9
$EXTMAX
 10
11186.03859423344
 20
5457.790435894029
 30
0.0
  9
$LIMMIN
 10
0.0
 20
0.0
  9
$LIMMAX
 10
420.0
 20
297.0
  9
$ORTHOMODE
 70
     0
  9
$REGENMODE
 70
     1
  9
$FILLMODE
 70
     1
  9
$QTEXTMODE
 70
     0
  9
$MIRRTEXT
 70
     0
  9
$LTSCALE
 40
1.0
  9
$ATTMODE
 70
     1
  9
$TEXTSIZE
 40
2.5
  9
$TRACEWID
 40
1.0
  9
$TEXTSTYLE
  7
Standard
  9
$CLAYER
  8
0
  9
$CELTYPE
  6
ByLayer
  9
$CECOLOR
 62
   256
  9
$CELTSCALE
 40
1.0
  9
$DISPSILH
 70
     0
  9
$DIMSCALE
 40
1.0
  9
$DIMASZ
 40
2.5
  9
$DIMEXO
 40
0.625
  9
$DIMDLI
 40
3.75
  9
$DIMRND
 40
0.0
  9
$DIMDLE
 40
0.0
  9
$DIMEXE
 40
1.25
  9
$DIMTP
 40
0.0
  9
$DIMTM
 40
0.0
  9
$DIMTXT
 40
2.5
  9
$DIMCEN
 40
2.5
  9
$DIMTSZ
 40
0.0
  9
$DIMTOL
 70
     0
  9
$DIMLIM
 70
     0
  9
$DIMTIH
 70
     0
  9
$DIMTOH
 70
     0
  9
$DIMSE1
 70
     0
  9
$DIMSE2
 70
     0
  9
$DIMTAD
 70
     1
  9
$DIMZIN
 70
     8
  9
$DIMBLK
  1

  9
$DIMASO
 70
     1
  9
$DIMSHO
 70
     1
  9
$DIMPOST
  1

  9
$DIMAPOST
  1

  9
$DIMALT
 70
     0
  9
$DIMALTD
 70
     3
  9
$DIMALTF
 40
0.03937007874016
  9
$DIMLFAC
 40
1.0
  9
$DIMTOFL
 70
     1
  9
$DIMTVP
 40
0.0
  9
$DIMTIX
 70
     0
  9
$DIMSOXD
 70
     0
  9
$DIMSAH
 70
     0
  9
$DIMBLK1
  1

  9
$DIMBLK2
  1

  9
$DIMSTYLE
  2
ISO-25
  9
$DIMCLRD
 70
     0
  9
$DIMCLRE
 70
     0
  9
$DIMCLRT
 70
     0
  9
$DIMTFAC
 40
1.0
  9
$DIMGAP
 40
0.625
  9
$DIMJUST
 70
     0
  9
$DIMSD1
 70
     0
  9
$DIMSD2
 70
     0
  9
$DIMTOLJ
 70
     0
  9
$DIMTZIN
 70
     8
  9
$DIMALTZ
 70
     0
  9
$DIMALTTZ
 70
     0
  9
$DIMUPT
 70
     0
  9
$DIMDEC
 70
     2
  9
$DIMTDEC
 70
     2
  9
$DIMALTU
 70
     2
  9
$DIMALTTD
 70
     3
  9
$DIMTXSTY
  7
Standard
  9
$DIMAUNIT
 70
     0
  9
$DIMADEC
 70
     0
  9
$DIMALTRND
 40
0.0
  9
$DIMAZIN
 70
     0
  9
$DIMDSEP
 70
    44
  9
$DIMATFIT
 70
     3
  9
$DIMFRAC
 70
     0
  9
$DIMLDRBLK
  1

  9
$DIMLUNIT
 70
     2
  9
$DIMLWD
 70
    -2
  9
$DIMLWE
 70
    -2
  9
$DIMTMOVE
 70
     0
  9
$DIMFXL
 40
1.0
  9
$DIMFXLON
 70
     0
  9
$DIMJOGANG
 40
0.7853981633974483
  9
$DIMTFILL
 70
     0
  9
$DIMTFILLCLR
 70
     0
  9
$DIMARCSYM
 70
     0
  9
$DIMLTYPE
  6

  9
$DIMLTEX1
  6

  9
$DIMLTEX2
  6

  9
$DIMTXTDIRECTION
 70
     0
  9
$LUNITS
 70
     2
  9
$LUPREC
 70
     4
  9
$SKETCHINC
 40
1.0
  9
$FILLETRAD
 40
0.0
  9
$AUNITS
 70
     0
  9
$AUPREC
 70
     0
  9
$MENU
  1
.
  9
$ELEVATION
 40
0.0
  9
$PELEVATION
 40
0.0
  9
$THICKNESS
 40
0.0
  9
$LIMCHECK
 70
     0
  9
$CHAMFERA
 40
0.0
  9
$CHAMFERB
 40
0.0
  9
$CHAMFERC
 40
0.0
  9
$CHAMFERD
 40
0.0
  9
$SKPOLY
 70
     0
  9
$TDCREATE
 40
2458655.413564815
  9
$TDUCREATE
 40
2458655.538564815
  9
$TDUPDATE
 40
2459206.745185185
  9
$TDUUPDATE
 40
2459206.870185185
  9
$TDINDWG
 40
1.5331134259
  9
$TDUSRTIMER
 40
1.5331134259
  9
$USRTIMER
 70
     1
  9
$ANGBASE
 50
0.0
  9
$ANGDIR
 70
     0
  9
$PDMODE
 70
     0
  9
$PDSIZE
 40
0.0
  9
$PLINEWID
 40
0.0
  9
$SPLFRAME
 70
     0
  9
$SPLINETYPE
 70
     6
  9
$SPLINESEGS
 70
     8
  9
$HANDSEED
  5
1EA5
  9
$SURFTAB1
 70
     6
  9
$SURFTAB2
 70
     6
  9
$SURFTYPE
 70
     6
  9
$SURFU
 70
     6
  9
$SURFV
 70
     6
  9
$UCSBASE
  2

  9
$UCSNAME
  2

  9
$UCSORG
 10
0.0
 20
0.0
 30
0.0
  9
$UCSXDIR
 10
1.0
 20
0.0
 30
0.0
  9
$UCSYDIR
 10
0.0
 20
1.0
 30
0.0
  9
$UCSORTHOREF
  2

  9
$UCSORTHOVIEW
 70
     0
  9
$UCSORGTOP
 10
0.0
 20
0.0
 30
0.0
  9
$UCSORGBOTTOM
 10
0.0
 20
0.0
 30
0.0
  9
$UCSORGLEFT
 10
0.0
 20
0.0
 30
0.0
  9
$UCSORGRIGHT
 10
0.0
 20
0.0
 30
0.0
  9
$UCSORGFRONT
 10
0.0
 20
0.0
 30
0.0
  9
$UCSORGBACK
 10
0.0
 20
0.0
 30
0.0
  9
$PUCSBASE
  2

  9
$PUCSNAME
  2

  9
$PUCSORG
 10
0.0
 20
0.0
 30
0.0
  9
$PUCSXDIR
 10
1.0
 20
0.0
 30
0.0
  9
$PUCSYDIR
 10
0.0
 20
1.0
 30
0.0
  9
$PUCSORTHOREF
  2

  9
$PUCSORTHOVIEW
 70
     0
  9
$PUCSORGTOP
 10
0.0
 20
0.0
 30
0.0
  9
$PUCSORGBOTTOM
 10
0.0
 20
0.0
 30
0.0
  9
$PUCSORGLEFT
 10
0.0
 20
0.0
 30
0.0
  9
$PUCSORGRIGHT
 10
0.0
 20
0.0
 30
0.0
  9
$PUCSORGFRONT
 10
0.0
 20
0.0
 30
0.0
  9
$PUCSORGBACK
 10
0.0
 20
0.0
 30
0.0
  9
$USERI1
 70
     0
  9
$USERI2
 70
     0
  9
$USERI3
 70
     0
  9
$USERI4
 70
     0
  9
$USERI5
 70
     0
  9
$USERR1
 40
0.0
  9
$USERR2
 40
0.0
  9
$USERR3
 40
0.0
  9
$USERR4
 40
0.0
  9
$USERR5
 40
0.0
  9
$WORLDVIEW
 70
     1
  9
$SHADEDGE
 70
     3
  9
$SHADEDIF
 70
    70
  9
$TILEMODE
 70
     1
  9
$MAXACTVP
 70
    64
  9
$PINSBASE
 10
0.0
 20
0.0
 30
0.0
  9
$PLIMCHECK
 70
     0
  9
$PEXTMIN
 10
0.0
 20
0.0
 30
0.0
  9
$PEXTMAX
 10
0.0
 20
0.0
 30
0.0
  9
$PLIMMIN
 10
0.0
 20
0.0
  9
$PLIMMAX
 10
12.0
 20
9.0
  9
$UNITMODE
 70
     0
  9
$VISRETAIN
 70
     1
  9
$PLINEGEN
 70
     0
  9
$PSLTSCALE
 70
     1
  9
$TREEDEPTH
 70
  3020
  9
$CMLSTYLE
  2
Standard
  9
$CMLJUST
 70
     0
  9
$CMLSCALE
 40
20.0
  9
$PROXYGRAPHICS
 70
     1
  9
$MEASUREMENT
 70
     1
  9
$CELWEIGHT
370
    -1
  9
$ENDCAPS
280
     0
  9
$JOINSTYLE
280
     0
  9
$LWDISPLAY
290
     0
  9
$INSUNITS
 70
     4
  9
$HYPERLINKBASE
  1

  9
$STYLESHEET
  1

  9
$XEDIT
290
     1
  9
$CEPSNTYPE
380
     0
  9
$PSTYLEMODE
290
     1
  9
$FINGERPRINTGUID
  2
{BFBEB4D5-F00C-D247-915F-7E4B0713AEAC}
  9
$VERSIONGUID
  2
{8AD39A13-286B-CE40-8DD7-770ADAAC3E8F}
  9
$EXTNAMES
290
     1
  9
$PSVPSCALE
 40
0.0
  9
$OLESTARTUP
290
     0
  9
$SORTENTS
280
   127
  9
$INDEXCTL
280
     0
  9
$HIDETEXT
280
     1
  9
$XCLIPFRAME
280
     2
  9
$HALOGAP
280
     0
  9
$OBSCOLOR
 70
   257
  9
$OBSLTYPE
280
     0
  9
$INTERSECTIONDISPLAY
280
     0
  9
$INTERSECTIONCOLOR
 70
   257
  9
$DIMASSOC
280
     2
  9
$PROJECTNAME
  1

  9
$CAMERADISPLAY
290
     0
  9
$LENSLENGTH
 40
50.0
  9
$CAMERAHEIGHT
 40
0.0
  9
$STEPSPERSEC
 40
2.0
  9
$STEPSIZE
 40
6.0
  9
$3DDWFPREC
 40
2.0
  9
$PSOLWIDTH
 40
5.0
  9
$PSOLHEIGHT
 40
80.0
  9
$LOFTANG1
 40
1.570796326794896
  9
$LOFTANG2
 40
1.570796326794896
  9
$LOFTMAG1
 40
0.0
  9
$LOFTMAG2
 40
0.0
  9
$LOFTPARAM
 70
     7
  9
$LOFTNORMALS
280
     1
  9
$LATITUDE
 40
37.795
  9
$LONGITUDE
 40
-122.394
  9
$NORTHDIRECTION
 40
0.0
  9
$TIMEZONE
 70
 -8000
  9
$LIGHTGLYPHDISPLAY
280
     1
  9
$TILEMODELIGHTSYNCH
280
     1
  9
$CMATERIAL
347
EC
  9
$SOLIDHIST
280
     0
  9
$SHOWHIST
280
     1
  9
$DWFFRAME
280
     2
  9
$DGNFRAME
280
     0
  9
$REALWORLDSCALE
290
     1
  9
$INTERFERECOLOR
 62
     1
  9
$INTERFEREOBJVS
345
F9
  9
$INTERFEREVPVS
346
F6
  9
$CSHADOW
280
     0
  9
$SHADOWPLANELOCATION
 40
0.0
  0
ENDSEC
  0
SECTION
  2
CLASSES
  0
CLASS
  1
ACDBDICTIONARYWDFLT
  2
AcDbDictionaryWithDefault
  3
ObjectDBX Classes
 90
        0
 91
        1
280
     0
281
     0
  0
CLASS
  1
DICTIONARYVAR
  2
AcDbDictionaryVar
  3
ObjectDBX Classes
 90
        0
 91
       11
280
     0
281
     0
  0
CLASS
  1
TABLESTYLE
  2
AcDbTableStyle
  3
ObjectDBX Classes
 90
     4095
 91
        1
280
     0
281
     0
  0
CLASS
  1
MATERIAL
  2
AcDbMaterial
  3
ObjectDBX Classes
 90
     1153
 91
        3
280
     0
281
     0
  0
CLASS
  1
VISUALSTYLE
  2
AcDbVisualStyle
  3
ObjectDBX Classes
 90
     4095
 91
       24
280
     0
281
     0
  0
CLASS
  1
SCALE
  2
AcDbScale
  3
ObjectDBX Classes
 90
     1153
 91
       17
280
     0
281
     0
  0
CLASS
  1
MLEADERSTYLE
  2
AcDbMLeaderStyle
  3
ACDB_MLEADERSTYLE_CLASS
 90
     4095
 91
        2
280
     0
281
     0
  0
CLASS
  1
CELLSTYLEMAP
  2
AcDbCellStyleMap
  3
ObjectDBX Classes
 90
     1152
 91
        2
280
     0
281
     0
  0
CLASS
  1
EXACXREFPANELOBJECT
  2
ExAcXREFPanelObject
  3
EXAC_ESW
 90
     1025
 91
        0
280
     0
281
     0
  0
CLASS
  1
NPOCOLLECTION
  2
AcDbImpNonPersistentObjectsCollection
  3
ObjectDBX Classes
 90
     1153
 91
        1
280
     0
281
     0
  0
CLASS
  1
LAYER_INDEX
  2
AcDbLayerIndex
  3
ObjectDBX Classes
 90
        0
 91
        0
280
     0
281
     0
  0
CLASS
  1
SPATIAL_INDEX
  2
AcDbSpatialIndex
  3
ObjectDBX Classes
 90
        0
 91
        0
280
     0
281
     0
  0
CLASS
  1
IDBUFFER
  2
AcDbIdBuffer
  3
ObjectDBX Classes
 90
        0
 91
        0
280
     0
281
     0
  0
CLASS
  1
ACDBSECTIONVIEWSTYLE
  2
AcDbSectionViewStyle
  3
ObjectDBX Classes
 90
     1025
 91
        1
280
     0
281
     0
  0
CLASS
  1
ACDBDETAILVIEWSTYLE
  2
AcDbDetailViewStyle
  3
ObjectDBX Classes
 90
     1025
 91
        1
280
     0
281
     0
  0
CLASS
  1
SORTENTSTABLE
  2
AcDbSortentsTable
  3
ObjectDBX Classes
 90
        0
 91
        1
280
     0
281
     0
  0
ENDSEC
  0
SECTION
  2
TABLES
  0
TABLE
  2
VPORT
  5
8
330
0
100
AcDbSymbolTable
 70
     1
  0
VPORT
  5
EA
330
8
100
AcDbSymbolTableRecord
100
AcDbViewportTableRecord
  2
*Active
 70
     0
 10
0.0
 20
0.0
 11
1.0
 21
1.0
 12
10818.29936824336
 22
5102.432017808093
 13
0.0
 23
0.0
 14
10.0
 24
10.0
 15
10.0
 25
10.0
 16
0.0
 26
0.0
 36
1.0
 17
0.0
 27
0.0
 37
0.0
 40
1021.65142794127
 41
2.292712066905615
 42
50.0
 43
0.0
 44
0.0
 50
0.0
 51
0.0
 71
     0
 72
  1000
 73
     1
 74
     3
 75
     0
 76
     1
 77
     0
 78
     0
281
     0
 65
     1
110
0.0
120
0.0
130
0.0
111
1.0
121
0.0
131
0.0
112
0.0
122
1.0
132
0.0
 79
     0
146
0.0
348
F5
 60
     3
 61
     5
292
     1
282
     1
141
0.0
142
0.0
 63
   250
421
  3355443
1001
ACAD_NAV_VCDISPLAY
1070
     3
  0
ENDTAB
  0
TABLE
  2
LTYPE
  5
5
330
0
100
AcDbSymbolTable
 70
     3
  0
LTYPE
  5
14
330
5
100
AcDbSymbolTableRecord
100
AcDbLinetypeTableRecord
  2
ByBlock
 70
     0
  3

 72
    65
 73
     0
 40
0.0
  0
LTYPE
  5
15
330
5
100
AcDbSymbolTableRecord
100
AcDbLinetypeTableRecord
  2
ByLayer
 70
     0
  3

 72
    65
 73
     0
 40
0.0
  0
LTYPE
  5
16
330
5
100
AcDbSymbolTableRecord
100
AcDbLinetypeTableRecord
  2
Continuous
 70
     0
  3
Solid line
 72
    65
 73
     0
 40
0.0
  0
ENDTAB
  0
TABLE
  2
LAYER
  5
2
102
{ACAD_XDICTIONARY
360
1FF
102
}
330
0
100
AcDbSymbolTable
 70
     1
  0
LAYER
  5
10
102
{ACAD_XDICTIONARY
360
13C
102
}
330
2
100
AcDbSymbolTableRecord
100
AcDbLayerTableRecord
  2
0
 70
     0
 62
     7
  6
Continuous
370
    -3
390
F
347
EE
348
0
  0
ENDTAB
  0
TABLE
  2
STYLE
  5
3
330
0
100
AcDbSymbolTable
 70
     2
  0
STYLE
  5
11
330
3
100
AcDbSymbolTableRecord
100
AcDbTextStyleTableRecord
  2
Standard
 70
     0
 40
0.0
 41
1.0
 50
0.0
 71
     0
 42
2.5
  3
arial.ttf
  4

1001
ACAD
1000
Arial
1071
       34
  0
STYLE
  5
132
330
3
100
AcDbSymbolTableRecord
100
AcDbTextStyleTableRecord
  2
Anotativo
 70
     0
 40
0.0
 41
1.0
 50
0.0
 71
     0
 42
2.5
  3
arial.ttf
  4

1001
AcadAnnotative
1000
AnnotativeData
1002
{
1070
     1
1070
     1
1002
}
1001
ACAD
1000
Arial
1071
       34
  0
ENDTAB
  0
TABLE
  2
VIEW
  5
6
330
0
100
AcDbSymbolTable
 70
     2
  0
ENDTAB
  0
TABLE
  2
UCS
  5
7
330
0
100
AcDbSymbolTable
 70
     0
  0
ENDTAB
  0
TABLE
  2
APPID
  5
9
330
0
100
AcDbSymbolTable
 70
    10
  0
APPID
  5
12
330
9
100
AcDbSymbolTableRecord
100
AcDbRegAppTableRecord
  2
ACAD
 70
     0
  0
APPID
  5
9E
330
9
100
AcDbSymbolTableRecord
100
AcDbRegAppTableRecord
  2
ACAD_PSEXT
 70
     0
  0
APPID
  5
133
330
9
100
AcDbSymbolTableRecord
100
AcDbRegAppTableRecord
  2
AcadAnnoPO
 70
     0
  0
APPID
  5
134
330
9
100
AcDbSymbolTableRecord
100
AcDbRegAppTableRecord
  2
AcadAnnotative
 70
     0
  0
APPID
  5
135
330
9
100
AcDbSymbolTableRecord
100
AcDbRegAppTableRecord
  2
ACAD_DSTYLE_DIMJAG
 70
     0
  0
APPID
  5
136
330
9
100
AcDbSymbolTableRecord
100
AcDbRegAppTableRecord
  2
ACAD_DSTYLE_DIMTALN
 70
     0
  0
APPID
  5
165
330
9
100
AcDbSymbolTableRecord
100
AcDbRegAppTableRecord
  2
ACAD_MLEADERVER
 70
     0
  0
APPID
  5
217
330
9
100
AcDbSymbolTableRecord
100
AcDbRegAppTableRecord
  2
ACAD_NAV_VCDISPLAY
 70
     0
  0
APPID
  5
278
330
9
100
AcDbSymbolTableRecord
100
AcDbRegAppTableRecord
  2
ACAD_EXEMPT_FROM_CAD_STANDARDS
 70
     0
  0
APPID
  5
112B
330
9
100
AcDbSymbolTableRecord
100
AcDbRegAppTableRecord
  2
ACAD_DSTYLE_DIMRADIAL_EXTENSION
 70
     0
  0
ENDTAB
  0
TABLE
  2
DIMSTYLE
  5
A
330
0
100
AcDbSymbolTable
 70
     5
100
AcDbDimStyleTable
 71
     2
340
27
340
137
  0
DIMSTYLE
105
1B0
330
A
100
AcDbSymbolTableRecord
100
AcDbDimStyleTableRecord
  2
Standard
 70
     0
340
11
  0
DIMSTYLE
105
137
330
A
100
AcDbSymbolTableRecord
100
AcDbDimStyleTableRecord
  2
Anotativo
 70
     0
 40
0.0
 41
2.5
 42
0.625
 43
3.75
 44
1.25
 73
     0
 74
     0
 77
     1
 78
     8
140
2.5
141
2.5
143
0.03937007874016
147
0.625
171
     3
172
     1
271
     2
272
     2
274
     3
278
    44
283
     0
284
     8
340
11
1001
AcadAnnotative
1000
AnnotativeData
1002
{
1070
     1
1070
     1
1002
}
1001
ACAD_DSTYLE_DIMJAG
1070
   388
1040
1.5
1001
ACAD_DSTYLE_DIMTALN
1070
   392
1070
     0
  0
DIMSTYLE
105
27
330
A
100
AcDbSymbolTableRecord
100
AcDbDimStyleTableRecord
  2
ISO-25
 70
     0
 41
2.5
 42
0.625
 43
3.75
 44
1.25
 73
     0
 74
     0
 77
     1
 78
     8
140
2.5
141
2.5
143
0.03937007874016
147
0.625
171
     3
172
     1
271
     2
272
     2
274
     3
278
    44
283
     0
284
     8
340
11
  0
ENDTAB
  0
TABLE
  2
BLOCK_RECORD
  5
1
330
0
100
AcDbSymbolTable
 70
     2
  0
BLOCK_RECORD
  5
1F
102
{ACAD_XDICTIONARY
360
1CE
102
}
330
1
100
AcDbSymbolTableRecord
100
AcDbBlockTableRecord
  2
*Model_Space
340
22
 70
     0
280
     1
281
     0
  0
BLOCK_RECORD
  5
D2
330
1
100
AcDbSymbolTableRecord
100
AcDbBlockTableRecord
  2
*Paper_Space
340
D3
 70
     0
280
     1
281
     0
  0
BLOCK_RECORD
  5
D6
330
1
100
AcDbSymbolTableRecord
100
AcDbBlockTableRecord
  2
*Paper_Space0
340
D7
 70
     0
280
     1
281
     0
  0
ENDTAB
  0
ENDSEC
  0
SECTION
  2
BLOCKS
  0
BLOCK
  5
20
330
1F
100
AcDbEntity
  8
0
100
AcDbBlockBegin
  2
*Model_Space
 70
     0
 10
0.0
 20
0.0
 30
0.0
  3
*Model_Space
  1

  0
ENDBLK
  5
21
330
1F
100
AcDbEntity
  8
0
100
AcDbBlockEnd
  0
BLOCK
  5
D4
330
D2
100
AcDbEntity
 67
     1
  8
0
100
AcDbBlockBegin
  2
*Paper_Space
 70
     0
 10
0.0
 20
0.0
 30
0.0
  3
*Paper_Space
  1

  0
ENDBLK
  5
D5
330
D2
100
AcDbEntity
 67
     1
  8
0
100
AcDbBlockEnd
  0
BLOCK
  5
D8
330
D6
100
AcDbEntity
 67
     1
  8
0
100
AcDbBlockBegin
  2
*Paper_Space0
 70
     0
 10
0.0
 20
0.0
 30
0.0
  3
*Paper_Space0
  1

  0
ENDBLK
  5
D9
330
D6
100
AcDbEntity
 67
     1
  8
0
100
AcDbBlockEnd
  0
ENDSEC
  0
SECTION
  2
ENTITIES
  0
CIRCLE
  5
118B
330
1F
100
AcDbEntity
  8
0
100
AcDbCircle
 10
10933.57875391495
 20
5310.130248036126
 30
0.0
 40
1.5
  0
CIRCLE
  5
118D
330
1F
100
AcDbEntity
  8
0
100
AcDbCircle
 10
10933.57875391495
 20
5285.539548036126
 30
0.0
 40
1.5
  0
CIRCLE
  5
118E
330
1F
100
AcDbEntity
  8
0
100
AcDbCircle
 10
10933.57875391495
 20
5361.233821485967
 30
0.0
 40
1.25
  0
CIRCLE
  5
118F
330
1F
100
AcDbEntity
  8
0
100
AcDbCircle
 10
10933.57875391495
 20
5336.643121485966
 30
0.0
 40
1.25
  0
CIRCLE
  5
1194
330
1F
100
AcDbEntity
  8
0
100
AcDbCircle
 10
10969.37588709825
 20
5308.743406432659
 30
0.0
 40
1.25
  0
CIRCLE
  5
1195
330
1F
100
AcDbEntity
  8
0
100
AcDbCircle
 10
10969.37588709825
 20
5284.152706432659
 30
0.0
 40
1.25
  0
CIRCLE
  5
119A
330
1F
100
AcDbEntity
  8
0
100
AcDbCircle
 10
10969.37588709825
 20
5360.366149726008
 30
0.0
 40
1.25
  0
CIRCLE
  5
119B
330
1F
100
AcDbEntity
  8
0
100
AcDbCircle
 10
10969.37588709825
 20
5335.775449726007
 30
0.0
 40
1.25
  0
LINE
  5
15D2
330
1F
100
AcDbEntity
  8
0
100
AcDbLine
 10
10944.80378296406
 20
5037.485909658022
 30
0.0
 11
10944.80378296406
 21
5037.485909658022
 31
0.0
  0
LINE
  5
169B
330
1F
100
AcDbEntity
  8
0
100
AcDbLine
 10
10925.99669360477
 20
5037.485909658022
 30
0.0
 11
10925.99669360477
 21
5037.485909658022
 31
0.0
  0
CIRCLE
  5
1893
330
1F
100
AcDbEntity
  8
0
100
AcDbCircle
 10
10459.48082959515
 20
5236.22873067493
 30
0.0
 40
1.25
  0
CIRCLE
  5
1894
330
1F
100
AcDbEntity
  8
0
100
AcDbCircle
 10
10489.53082959515
 20
5236.22873067493
 30
0.0
 40
1.25
  0
CIRCLE
  5
1895
330
1F
100
AcDbEntity
  8
0
100
AcDbCircle
 10
10459.48082959515
 20
5206.17873067493
 30
0.0
 40
1.25
  0
CIRCLE
  5
1896
330
1F
100
AcDbEntity
  8
0
100
AcDbCircle
 10
10489.53082959515
 20
5206.17873067493
 30
0.0
 40
1.25
  0
CIRCLE
  5
189F
330
1F
100
AcDbEntity
  8
0
100
AcDbCircle
 10
10548.94578093032
 20
5255.953764690768
 30
0.0
 40
1.25
  0
CIRCLE
  5
18A0
330
1F
100
AcDbEntity
  8
0
100
AcDbCircle
 10
10573.44578093032
 20
5255.953764690768
 30
0.0
 40
1.25
  0
CIRCLE
  5
18A1
330
1F
100
AcDbEntity
  8
0
100
AcDbCircle
 10
10374.49721079133
 20
5268.703764690767
 30
0.0
 40
1.25
  0
CIRCLE
  5
18A2
330
1F
100
AcDbEntity
  8
0
100
AcDbCircle
 10
10374.49721079133
 20
5173.703764690767
 30
0.0
 40
1.25
  0
CIRCLE
  5
18A3
330
1F
100
AcDbEntity
  8
0
100
AcDbCircle
 10
10402.49721079133
 20
5268.703764690767
 30
0.0
 40
1.25
  0
CIRCLE
  5
18A4
330
1F
100
AcDbEntity
  8
0
100
AcDbCircle
 10
10402.49721079133
 20
5173.703764690767
 30
0.0
 40
1.25
  0
CIRCLE
  5
18A5
330
1F
100
AcDbEntity
  8
0
100
AcDbCircle
 10
10609.13098416055
 20
5368.580963651869
 30
0.0
 40
1.324999999999999
  0
CIRCLE
  5
18B0
330
1F
100
AcDbEntity
  8
0
100
AcDbCircle
 10
10604.38538646801
 20
5358.310661308195
 30
0.0
 40
1.324999999999999
  0
CIRCLE
  5
18B1
330
1F
100
AcDbEntity
  8
0
100
AcDbCircle
 10
10619.40128650423
 20
5363.835365959327
 30
0.0
 40
1.324999999999999
  0
CIRCLE
  5
18B2
330
1F
100
AcDbEntity
  8
0
100
AcDbCircle
 10
10614.65568881169
 20
5353.565063615651
 30
0.0
 40
1.324999999999999
  0
CIRCLE
  5
18B8
330
1F
100
AcDbEntity
  8
0
100
AcDbCircle
 10
10548.94578093032
 20
5186.453710550593
 30
0.0
 40
1.25
  0
CIRCLE
  5
18B9
330
1F
100
AcDbEntity
  8
0
100
AcDbCircle
 10
10573.44578093032
 20
5186.453710550593
 30
0.0
 40
1.25
  0
CIRCLE
  5
18BA
330
1F
100
AcDbEntity
  8
0
100
AcDbCircle
 10
10548.94578093032
 20
5186.453666426607
 30
0.0
 40
1.25
  0
CIRCLE
  5
18BB
330
1F
100
AcDbEntity
  8
0
100
AcDbCircle
 10
10573.44578093032
 20
5186.453666426607
 30
0.0
 40
1.25
  0
CIRCLE
  5
18BC
330
1F
100
AcDbEntity
  8
0
100
AcDbCircle
 10
10374.49721079133
 20
5173.703666426606
 30
0.0
 40
1.25
  0
CIRCLE
  5
18BD
330
1F
100
AcDbEntity
  8
0
100
AcDbCircle
 10
10402.49721079133
 20
5173.703666426606
 30
0.0
 40
1.25
  0
LWPOLYLINE
  5
18F4
330
1F
100
AcDbEntity
  8
0
100
AcDbPolyline
 90
       19
 70
     0
 43
0.0
 10
10319.87396770177
 20
5272.402400107109
 42
-0.363445475027317
 10
10369.01650255714
 20
5221.203715558687
 42
-0.3634389052118579
 10
10319.87569221701
 20
5170.005391246818
 42
2.952053951898138
 10
10419.74630875414
 20
5122.093067279003
 42
-0.5162695966089306
 10
10447.32507685615
 20
5192.908300442444
 10
10447.32507685615
 20
5192.908300442444
 10
10501.68656439534
 20
5192.908300442444
 10
10501.68656439534
 20
5192.908300442444
 42
-0.5162695966089306
 10
10529.26533249736
 20
5122.093067279003
 42
2.952053953066841
 10
10629.1359489921
 20
5170.005391251443
 42
-0.3634389049935284
 10
10579.99513869436
 20
5221.203715558687
 42
-0.3634389050011799
 10
10629.13594899242
 20
5272.402039865966
 42
2.952053953057069
 10
10529.26533249736
 20
5320.31436383837
 42
-0.5162695966089306
 10
10501.68656439534
 20
5249.49913067493
 10
10501.68656439534
 20
5249.49913067493
 10
10447.32507685615
 20
5249.49913067493
 10
10447.32507685615
 20
5249.49913067493
 42
-0.5162695966089306
 10
10419.74630875414
 20
5320.31436383837
 42
2.952007001234473
 10
10319.87396770177
 20
5272.402400107109
  0
LINE
  5
1916
330
1F
100
AcDbEntity
  8
0
100
AcDbLine
 10
10533.74688637674
 20
5243.499084490948
 30
0.0
 11
10533.74688637674
 21
5243.499084490948
 31
0.0
  0
LINE
  5
1928
330
1F
100
AcDbEntity
  8
0
100
AcDbLine
 10
10533.74688637674
 20
5195.908384490948
 30
0.0
 11
10533.74688637674
 21
5195.908384490948
 31
0.0
  0
LWPOLYLINE
  5
192D
330
1F
100
AcDbEntity
  8
0
100
AcDbPolyline
 90
        4
 70
     1
 43
0.0
 10
10555.36071532017
 20
5427.430597574741
 10
10557.1271908837
 20
5425.00581633029
 10
10569.25109710595
 20
5433.838194147966
 10
10567.48462154241
 20
5436.262975392416
  0
LWPOLYLINE
  5
192E
330
1F
100
AcDbEntity
  8
0
100
AcDbPolyline
 90
        4
 70
     1
 43
0.0
 10
10696.35467011716
 20
5375.500468171432
 10
10693.36539362187
 20
5375.247039612128
 10
10694.63253641838
 20
5360.300657135649
 10
10697.62181291368
 20
5360.554085694952
  0
LWPOLYLINE
  5
192F
330
1F
100
AcDbEntity
  8
0
100
AcDbPolyline
 90
        4
 70
     1
 43
0.0
 10
10568.10712125047
 20
5288.817723943594
 10
10566.7838284286
 20
5286.125346535508
 10
10580.24571546903
 20
5279.508882426132
 10
10581.5690082909
 20
5282.201259834219
  0
LWPOLYLINE
  5
1930
330
1F
100
AcDbEntity
  8
0
100
AcDbPolyline
 90
        4
 70
     1
 43
0.0
 10
10638.04702940064
 20
5440.2010687479
 10
10651.85537909307
 20
5434.341932397585
 10
10653.02720636313
 20
5437.103602336073
 10
10639.2188566707
 20
5442.962738686387
  0
LWPOLYLINE
  5
1931
330
1F
100
AcDbEntity
  8
0
100
AcDbPolyline
 90
        4
 70
     1
 43
0.0
 10
10657.46216844432
 20
5288.61777572774
 10
10669.58885206161
 20
5297.446339849171
 10
10667.82313923732
 20
5299.871676572629
 10
10655.69645562003
 20
5291.043112451198
  0
LWPOLYLINE
  5
1932
330
1F
100
AcDbEntity
  8
0
100
AcDbPolyline
 90
        4
 70
     1
 43
0.0
 10
10529.88394812399
 20
5342.970706732588
 10
10527.7880621257
 20
5357.823560393828
 10
10524.81749139346
 20
5357.404383194171
 10
10526.91337739174
 20
5342.551529532932
  0
CIRCLE
  5
1933
330
1F
100
AcDbEntity
  8
0
100
AcDbCircle
 10
10339.88065709095
 20
5368.580963651886
 30
0.0
 40
1.324999999999999
  0
CIRCLE
  5
193E
330
1F
100
AcDbEntity
  8
0
100
AcDbCircle
 10
10344.62625478349
 20
5358.310661308212
 30
0.0
 40
1.324999999999999
  0
CIRCLE
  5
193F
330
1F
100
AcDbEntity
  8
0
100
AcDbCircle
 10
10329.61035474728
 20
5363.835365959344
 30
0.0
 40
1.324999999999999
  0
CIRCLE
  5
1940
330
1F
100
AcDbEntity
  8
0
100
AcDbCircle
 10
10334.35595243982
 20
5353.565063615668
 30
0.0
 40
1.324999999999999
  0
LWPOLYLINE
  5
1968
330
1F
100
AcDbEntity
  8
0
100
AcDbPolyline
 90
        4
 70
     1
 43
0.0
 10
10393.65092593134
 20
5427.430597574758
 10
10391.8844503678
 20
5425.005816330308
 10
10379.76054414556
 20
5433.838194147984
 10
10381.52701970909
 20
5436.262975392434
  0
LWPOLYLINE
  5
1969
330
1F
100
AcDbEntity
  8
0
100
AcDbPolyline
 90
        4
 70
     1
 43
0.0
 10
10252.65697113434
 20
5375.500468171448
 10
10255.64624762964
 20
5375.247039612145
 10
10254.37910483312
 20
5360.300657135667
 10
10251.38982833783
 20
5360.554085694969
  0
LWPOLYLINE
  5
196A
330
1F
100
AcDbEntity
  8
0
100
AcDbPolyline
 90
        4
 70
     1
 43
0.0
 10
10380.90452000103
 20
5288.817723943611
 10
10382.22781282291
 20
5286.125346535524
 10
10368.76592578247
 20
5279.508882426149
 10
10367.4426329606
 20
5282.201259834236
  0
LWPOLYLINE
  5
196B
330
1F
100
AcDbEntity
  8
0
100
AcDbPolyline
 90
        4
 70
     1
 43
0.0
 10
10310.96461185086
 20
5440.201068747917
 10
10297.15626215844
 20
5434.341932397602
 10
10295.98443488837
 20
5437.103602336089
 10
10309.7927845808
 20
5442.962738686404
  0
LWPOLYLINE
  5
196C
330
1F
100
AcDbEntity
  8
0
100
AcDbPolyline
 90
        4
 70
     1
 43
0.0
 10
10291.54947280719
 20
5288.617775727757
 10
10279.4227891899
 20
5297.446339849189
 10
10281.18850201418
 20
5299.871676572647
 10
10293.31518563147
 20
5291.043112451215
  0
LWPOLYLINE
  5
196D
330
1F
100
AcDbEntity
  8
0
100
AcDbPolyline
 90
        4
 70
     1
 43
0.0
 10
10419.12769312752
 20
5342.970706732605
 10
10421.2235791258
 20
5357.823560393844
 10
10424.19414985805
 20
5357.404383194188
 10
10422.09826385976
 20
5342.551529532949
  0
CIRCLE
  5
196E
330
1F
100
AcDbEntity
  8
0
100
AcDbCircle
 10
10609.13098416056
 20
5073.826467465495
 30
0.0
 40
1.324999999999999
  0
CIRCLE
  5
1979
330
1F
100
AcDbEntity
  8
0
100
AcDbCircle
 10
10604.38538646802
 20
5084.096769809169
 30
0.0
 40
1.324999999999999
  0
CIRCLE
  5
197A
330
1F
100
AcDbEntity
  8
0
100
AcDbCircle
 10
10619.40128650423
 20
5078.572065158038
 30
0.0
 40
1.324999999999999
  0
CIRCLE
  5
197B
330
1F
100
AcDbEntity
  8
0
100
AcDbCircle
 10
10614.65568881169
 20
5088.842367501713
 30
0.0
 40
1.324999999999999
  0
LWPOLYLINE
  5
19A3
330
1F
100
AcDbEntity
  8
0
100
AcDbPolyline
 90
        4
 70
     1
 43
0.0
 10
10555.36071532017
 20
5014.976833542624
 10
10557.12719088371
 20
5017.401614787074
 10
10569.25109710595
 20
5008.569236969398
 10
10567.48462154242
 20
5006.144455724948
  0
LWPOLYLINE
  5
19A4
330
1F
100
AcDbEntity
  8
0
100
AcDbPolyline
 90
        4
 70
     1
 43
0.0
 10
10568.10712125048
 20
5153.589707173771
 10
10566.7838284286
 20
5156.282084581857
 10
10580.24571546904
 20
5162.898548691233
 10
10581.56900829091
 20
5160.206171283146
  0
LWPOLYLINE
  5
19A5
330
1F
100
AcDbEntity
  8
0
100
AcDbPolyline
 90
        4
 70
     1
 43
0.0
 10
10638.04702940065
 20
5002.206362369464
 10
10651.85537909307
 20
5008.06549871978
 10
10653.02720636314
 20
5005.303828781292
 10
10639.21885667071
 20
4999.444692430977
  0
LWPOLYLINE
  5
19A6
330
1F
100
AcDbEntity
  8
0
100
AcDbPolyline
 90
        4
 70
     1
 43
0.0
 10
10657.46216844432
 20
5153.789655389624
 10
10669.58885206161
 20
5144.961091268193
 10
10667.82313923732
 20
5142.535754544735
 10
10655.69645562004
 20
5151.364318666167
  0
LWPOLYLINE
  5
19A7
330
1F
100
AcDbEntity
  8
0
100
AcDbPolyline
 90
        4
 70
     1
 43
0.0
 10
10529.88394812399
 20
5099.436724384776
 10
10527.78806212571
 20
5084.583870723538
 10
10524.81749139346
 20
5085.003047923194
 10
10526.91337739175
 20
5099.855901584433
  0
CIRCLE
  5
19A8
330
1F
100
AcDbEntity
  8
0
100
AcDbCircle
 10
10339.88065709095
 20
5073.826467465477
 30
0.0
 40
1.324999999999999
  0
CIRCLE
  5
19B3
330
1F
100
AcDbEntity
  8
0
100
AcDbCircle
 10
10344.6262547835
 20
5084.096769809152
 30
0.0
 40
1.324999999999999
  0
CIRCLE
  5
19B4
330
1F
100
AcDbEntity
  8
0
100
AcDbCircle
 10
10329.61035474728
 20
5078.57206515802
 30
0.0
 40
1.324999999999999
  0
CIRCLE
  5
19B5
330
1F
100
AcDbEntity
  8
0
100
AcDbCircle
 10
10334.35595243982
 20
5088.842367501696
 30
0.0
 40
1.324999999999999
  0
LWPOLYLINE
  5
19DD
330
1F
100
AcDbEntity
  8
0
100
AcDbPolyline
 90
        4
 70
     1
 43
0.0
 10
10393.65092593134
 20
5014.976833542606
 10
10391.88445036781
 20
5017.401614787056
 10
10379.76054414556
 20
5008.569236969381
 10
10381.5270197091
 20
5006.144455724931
  0
LWPOLYLINE
  5
19DE
330
1F
100
AcDbEntity
  8
0
100
AcDbPolyline
 90
        4
 70
     1
 43
0.0
 10
10252.65697113435
 20
5066.906962945916
 10
10255.64624762964
 20
5067.160391505219
 10
10254.37910483313
 20
5082.106773981698
 10
10251.38982833783
 20
5081.853345422395
  0
LWPOLYLINE
  5
19DF
330
1F
100
AcDbEntity
  8
0
100
AcDbPolyline
 90
        4
 70
     1
 43
0.0
 10
10380.90452000104
 20
5153.589707173754
 10
10382.22781282291
 20
5156.28208458184
 10
10368.76592578248
 20
5162.898548691215
 10
10367.4426329606
 20
5160.206171283128
  0
LWPOLYLINE
  5
19E0
330
1F
100
AcDbEntity
  8
0
100
AcDbPolyline
 90
        4
 70
     1
 43
0.0
 10
10310.96461185087
 20
5002.206362369446
 10
10297.15626215844
 20
5008.065498719762
 10
10295.98443488838
 20
5005.303828781276
 10
10309.79278458081
 20
4999.444692430961
  0
LWPOLYLINE
  5
19E1
330
1F
100
AcDbEntity
  8
0
100
AcDbPolyline
 90
        4
 70
     1
 43
0.0
 10
10291.54947280719
 20
5153.789655389608
 10
10279.4227891899
 20
5144.961091268175
 10
10281.18850201419
 20
5142.535754544717
 10
10293.31518563148
 20
5151.36431866615
  0
LWPOLYLINE
  5
19E2
330
1F
100
AcDbEntity
  8
0
100
AcDbPolyline
 90
        4
 70
     1
 43
0.0
 10
10419.12769312752
 20
5099.436724384759
 10
10421.22357912581
 20
5084.58387072352
 10
10424.19414985805
 20
5085.003047923176
 10
10422.09826385977
 20
5099.855901584415
  0
LWPOLYLINE
  5
19E5
330
1F
100
AcDbEntity
  8
0
100
AcDbPolyline
 90
        4
 70
     1
 43
0.0
 10
10378.64073283925
 20
5427.489194052084
 42
0.5432817435180414
 10
10260.16959644362
 20
5371.341932533807
 10
10326.18084481731
 20
5369.74346184483
 42
-0.2363922684074359
 10
10337.80423719443
 20
5375.396628108929
  0
LWPOLYLINE
  5
19E6
330
1F
100
AcDbEntity
  8
0
100
AcDbPolyline
 90
        4
 70
     1
 43
0.0
 10
10350.90224130656
 20
5366.55524615881
 10
10385.77853372754
 20
5422.686141042696
 42
-0.5372332675308608
 10
10375.60777370609
 20
5292.559883224761
 10
10350.12115658341
 20
5353.840275550431
 42
0.2331074197927902
  0
LWPOLYLINE
  5
19E7
330
1F
100
AcDbEntity
  8
0
100
AcDbPolyline
 90
        4
 70
     1
 43
0.0
 10
10367.9244540872
 20
5288.68895060312
 42
-0.5446269466416381
 10
10259.24855019763
 20
5363.113863219736
 10
10325.03673580977
 20
5353.970136812534
 42
0.2422445226025518
 10
10336.01850510966
 20
5346.673155371672
  0
LWPOLYLINE
  5
19E8
330
1F
100
AcDbEntity
  8
0
100
AcDbPolyline
 90
        4
 70
     1
 43
0.0
 10
10598.10939994494
 20
5366.555246158793
 10
10563.23310752397
 20
5422.686141042679
 42
0.5372332675300742
 10
10573.40386754532
 20
5292.559883224794
 10
10598.89048466809
 20
5353.840275550413
 42
-0.2331074197930347
  0
LWPOLYLINE
  5
19E9
330
1F
100
AcDbEntity
  8
0
100
AcDbPolyline
 90
        4
 70
     1
 43
0.0
 10
10622.8307964342
 20
5369.743461844813
 10
10688.84204480789
 20
5371.341932533802
 42
0.543281743518344
 10
10570.37090841218
 20
5427.489194052022
 10
10611.20740405706
 20
5375.396628108911
 42
-0.236392268408068
  0
LWPOLYLINE
  5
19EA
330
1F
100
AcDbEntity
  8
0
100
AcDbPolyline
 90
        4
 70
     1
 43
0.0
 10
10612.99313614186
 20
5346.673155371657
 42
0.2422445226022126
 10
10623.97490544174
 20
5353.970136812518
 10
10689.76309105388
 20
5363.113863219719
 42
-0.5446269466413323
 10
10581.08718716437
 20
5288.688950603072
  0
LWPOLYLINE
  5
19EB
330
1F
100
AcDbEntity
  8
0
100
AcDbPolyline
 90
        4
 70
     1
 43
0.0
 10
10598.89048466809
 20
5088.567155566952
 10
10573.40386754534
 20
5149.84754789258
 42
0.5372332675303323
 10
10563.23310752401
 20
5019.721290074659
 10
10598.10939994495
 20
5075.852184958571
 42
-0.2331074197928877
  0
LWPOLYLINE
  5
19EC
330
1F
100
AcDbEntity
  8
0
100
AcDbPolyline
 90
        4
 70
     1
 43
0.0
 10
10570.37090841219
 20
5014.918237065343
 10
10611.20740405706
 20
5067.010803008453
 42
0.2363922684080477
 10
10622.8307964342
 20
5072.663969272549
 10
10688.8420448079
 20
5071.065498583561
 42
-0.5432817435184911
  0
LWPOLYLINE
  5
19ED
330
1F
100
AcDbEntity
  8
0
100
AcDbPolyline
 90
        4
 70
     1
 43
0.0
 10
10689.76309105388
 20
5079.293567897646
 10
10623.97490544175
 20
5088.437294304842
 42
0.2422445226023225
 10
10612.99313614187
 20
5095.734275745709
 10
10581.08718716439
 20
5153.718480514296
 42
-0.5446269466411814
  0
LWPOLYLINE
  5
19EE
330
1F
100
AcDbEntity
  8
0
100
AcDbPolyline
 90
        4
 70
     1
 43
0.0
 10
10375.60777370618
 20
5149.84754789256
 10
10350.12115658342
 20
5088.567155566934
 42
-0.2331074197928363
 10
10350.90224130657
 20
5075.852184958558
 10
10385.77853372754
 20
5019.721290074668
 42
0.5372332675308714
  0
LWPOLYLINE
  5
19EF
330
1F
100
AcDbEntity
  8
0
100
AcDbPolyline
 90
        5
 70
     0
 43
0.0
 10
10378.64073283923
 20
5014.918237065261
 42
-0.5432817435178983
 10
10260.16959644362
 20
5071.065498583545
 10
10326.18084481731
 20
5072.663969272534
 42
0.2363922684075816
 10
10337.80423719443
 20
5067.010803008436
 10
10378.64073283933
 20
5014.918237065325
  0
LWPOLYLINE
  5
19F0
330
1F
100
AcDbEntity
  8
0
100
AcDbPolyline
 90
        5
 70
     0
 43
0.0
 10
10367.92445408724
 20
5153.718480514231
 42
0.5446269466417347
 10
10259.24855019763
 20
5079.293567897629
 10
10325.03673580977
 20
5088.437294304829
 42
-0.2422445226026853
 10
10336.01850510967
 20
5095.734275745692
 10
10367.92445408713
 20
5153.718480514278
  0
LWPOLYLINE
  5
1A12
330
1F
100
AcDbEntity
  8
0
100
AcDbPolyline
 90
       22
 70
     0
 43
0.0
 10
10925.99670364807
 20
5117.965362397896
 10
10928.87052493973
 20
5117.965362397896
 10
10928.99669360477
 20
5155.968005228408
 10
10925.99669360477
 20
5155.968005228408
 10
10925.99669360477
 20
5165.968005228407
 10
10928.99669360477
 20
5165.968005228407
 10
10928.99669360477
 20
5175.304751969308
 10
10937.99669360477
 20
5175.304751969308
 10
10937.99669360477
 20
5018.149198848728
 10
10928.99669360477
 20
5018.149198848728
 10
10928.99669360477
 20
5027.485909658022
 10
10925.99669360477
 20
5027.485909658022
 10
10925.99669360477
 20
5037.485909658022
 10
10928.99669360477
 20
5037.485909658022
 10
10928.99669360477
 20
5075.489366439615
 10
10925.99669360477
 20
5075.489366439615
 10
10925.99669360477
 20
5085.489366439615
 10
10928.99669360477
 20
5085.489366439615
 10
10928.87052493973
 20
5107.965362397895
 10
10925.87052493973
 20
5107.965362397895
 10
10925.99669360477
 20
5117.964566439616
 10
10925.99669360477
 20
5117.964566439616
  0
LWPOLYLINE
  5
1A13
330
1F
100
AcDbEntity
  8
0
100
AcDbPolyline
 90
       22
 70
     0
 43
0.0
 10
10944.80379300736
 20
5117.965362397896
 10
10947.67761429903
 20
5117.965362397896
 10
10947.80378296406
 20
5155.968005228408
 10
10944.80378296406
 20
5155.968005228408
 10
10944.80378296406
 20
5165.968005228407
 10
10947.80378296406
 20
5165.968005228407
 10
10947.80378296406
 20
5175.304751969308
 10
10956.80378296406
 20
5175.304751969308
 10
10956.80378296406
 20
5018.149198848728
 10
10947.80378296406
 20
5018.149198848728
 10
10947.80378296406
 20
5027.485909658022
 10
10944.80378296406
 20
5027.485909658022
 10
10944.80378296406
 20
5037.485909658022
 10
10947.80378296406
 20
5037.485909658022
 10
10947.80378296406
 20
5075.489366439615
 10
10944.80378296406
 20
5075.489366439615
 10
10944.80378296406
 20
5085.489366439615
 10
10947.80378296406
 20
5085.489366439615
 10
10947.67761429903
 20
5107.965362397895
 10
10944.67761429903
 20
5107.965362397895
 10
10944.80378296406
 20
5117.964566439616
 10
10944.80378296406
 20
5117.964566439616
  0
LWPOLYLINE
  5
1A5B
330
1F
100
AcDbEntity
  8
0
100
AcDbPolyline
 90
        3
 70
     1
 43
0.0
 10
10624.51363673649
 20
5065.165405142332
 10
10642.51363673649
 20
5065.165405142331
 10
10624.51363673649
 20
5047.165405142332
  0
LWPOLYLINE
  5
1A5C
330
1F
100
AcDbEntity
  8
0
100
AcDbPolyline
 90
        3
 70
     1
 43
0.0
 10
10646.48301951595
 20
5044.874454976012
 10
10628.48301951595
 20
5044.874454976012
 10
10646.48301951595
 20
5062.874454976012
  0
LWPOLYLINE
  5
1A5D
330
1F
100
AcDbEntity
  8
0
100
AcDbPolyline
 90
        3
 70
     1
 43
0.0
 10
10624.28579950149
 20
5039.899639320596
 10
10642.28579950149
 20
5039.899639320595
 10
10624.28579950149
 20
5021.899639320596
  0
LWPOLYLINE
  5
1A5E
330
1F
100
AcDbEntity
  8
0
100
AcDbPolyline
 90
        3
 70
     1
 43
0.0
 10
10646.25518228095
 20
5019.608689154276
 10
10628.25518228095
 20
5019.608689154276
 10
10646.25518228095
 20
5037.608689154276
  0
LWPOLYLINE
  5
1A5F
330
1F
100
AcDbEntity
  8
0
100
AcDbPolyline
 90
        4
 70
     1
 43
0.0
 10
10964.37588709825
 20
5370.366149726007
 10
10974.37588709825
 20
5370.366149726007
 10
10974.37588709825
 20
5325.775449726006
 10
10964.37588709825
 20
5325.775449726006
  0
LWPOLYLINE
  5
1A60
330
1F
100
AcDbEntity
  8
0
100
AcDbPolyline
 90
        4
 70
     1
 43
0.0
 10
10964.37588709825
 20
5318.743406432659
 10
10974.37588709825
 20
5318.743406432659
 10
10974.37588709825
 20
5274.152706432658
 10
10964.37588709825
 20
5274.152706432658
  0
LWPOLYLINE
  5
1A61
330
1F
100
AcDbEntity
  8
0
100
AcDbPolyline
 90
        4
 70
     1
 43
0.0
 10
10928.57875391495
 20
5371.233821485966
 10
10938.57875391496
 20
5371.233821485966
 10
10938.57875391496
 20
5326.643121485965
 10
10928.57875391495
 20
5326.643121485965
  0
LWPOLYLINE
  5
1A62
330
1F
100
AcDbEntity
  8
0
100
AcDbPolyline
 90
        4
 70
     1
 43
0.0
 10
10928.57875391495
 20
5320.130248036126
 10
10938.57875391496
 20
5320.130248036126
 10
10938.57875391496
 20
5275.539548036126
 10
10928.57875391495
 20
5275.539548036126
  0
LWPOLYLINE
  5
1A6B
330
1F
100
AcDbEntity
  8
0
100
AcDbPolyline
 90
        4
 70
     1
 43
0.0
 10
10696.35467011717
 20
5066.906962945933
 10
10693.36539362187
 20
5067.160391505236
 10
10694.63253641839
 20
5082.106773981715
 10
10697.62181291368
 20
5081.853345422413
  0
LWPOLYLINE
  5
1BA4
330
1F
100
AcDbEntity
  8
0
100
AcDbPolyline
 90
       38
 70
     0
 43
0.0
 10
10780.40833485366
 20
5411.641764909755
 10
10783.40833485366
 20
5411.641764909755
 10
10813.40833485366
 20
5411.641764909755
 10
10820.40833485366
 20
5411.641764909755
 10
10820.40833485366
 20
5398.681779254508
 10
10813.40833485366
 20
5398.681779254508
 10
10808.45858738535
 20
5393.732031786202
 10
10808.45858738535
 20
5376.98034500385
 10
10813.40833485366
 20
5372.030597535545
 10
10820.40833485366
 20
5372.030597535545
 10
10820.40833485366
 20
5363.382589847124
 10
10813.40833485366
 20
5363.382589847124
 10
10808.45858738535
 20
5358.432842378817
 10
10808.45858738535
 20
5341.681155596467
 10
10813.40833485366
 20
5336.73140812816
 10
10820.40833485366
 20
5336.73140812816
 10
10820.40833485366
 20
5323.771422472913
 10
10813.40833485366
 20
5323.771422472913
 10
10783.40833485366
 20
5323.771422472913
 10
10780.40833485366
 20
5323.771422472913
 10
10780.40833485366
 20
5336.73140812816
 10
10780.40833485366
 20
5337.73140812816
 10
10783.40833485366
 20
5337.73140812816
 10
10796.40833485366
 20
5337.73140812816
 10
10798.40833485365
 20
5339.73140812816
 10
10798.40833485365
 20
5363.206579254509
 10
10798.40833485365
 20
5363.206579254509
 10
10798.40833485365
 20
5363.206579254509
 10
10796.40833485365
 20
5365.206579254508
 10
10780.40833485365
 20
5365.206579254508
 10
10780.40833485365
 20
5370.206579254508
 10
10796.40833485365
 20
5370.206579254508
 10
10798.40833485365
 20
5372.206579254508
 10
10798.40833485365
 20
5395.681779254508
 10
10796.40833485365
 20
5397.681779254508
 10
10780.40833485365
 20
5397.681779254508
 10
10780.40833485366
 20
5411.641764909755
 10
10780.40833485366
 20
5398.681779254508
  0
LWPOLYLINE
  5
1BA5
330
1F
100
AcDbEntity
  8
0
100
AcDbPolyline
 90
       38
 70
     0
 43
0.0
 10
10835.06143039775
 20
5407.305731145338
 10
10838.06143039775
 20
5407.305731145338
 10
10868.06143039775
 20
5407.305731145338
 10
10875.06143039775
 20
5407.305731145338
 10
10875.06143039775
 20
5394.345745490091
 10
10868.06143039775
 20
5394.345745490091
 10
10863.11168292945
 20
5389.395998021784
 10
10863.11168292945
 20
5372.644311239433
 10
10868.06143039775
 20
5367.694563771127
 10
10875.06143039775
 20
5367.694563771127
 10
10875.06143039775
 20
5359.046556082707
 10
10868.06143039775
 20
5359.046556082707
 10
10863.11168292945
 20
5354.0968086144
 10
10863.11168292945
 20
5337.34512183205
 10
10868.06143039775
 20
5332.395374363743
 10
10875.06143039775
 20
5332.395374363743
 10
10875.06143039775
 20
5319.435388708496
 10
10868.06143039775
 20
5319.435388708496
 10
10838.06143039775
 20
5319.435388708496
 10
10835.06143039775
 20
5319.435388708496
 10
10835.06143039775
 20
5332.395374363743
 10
10835.06143039775
 20
5333.395374363743
 10
10838.06143039775
 20
5333.395374363743
 10
10851.06143039775
 20
5333.395374363743
 10
10853.06143039775
 20
5335.395374363743
 10
10853.06143039775
 20
5358.870545490091
 10
10853.06143039775
 20
5358.870545490091
 10
10853.06143039775
 20
5358.870545490091
 10
10851.06143039775
 20
5360.870545490091
 10
10835.06143039775
 20
5360.870545490091
 10
10835.06143039775
 20
5365.870545490091
 10
10851.06143039775
 20
5365.870545490091
 10
10853.06143039775
 20
5367.870545490092
 10
10853.06143039775
 20
5391.345745490091
 10
10851.06143039775
 20
5393.345745490091
 10
10835.06143039775
 20
5393.345745490091
 10
10835.06143039775
 20
5407.305731145338
 10
10835.06143039775
 20
5394.345745490091
  0
LINE
  5
1D9B
330
1F
100
AcDbEntity
  8
0
100
AcDbLine
 10
10927.93662196423
 20
5203.962901962881
 30
0.0
 11
10914.97663630899
 21
5203.962901962881
 31
0.0
  0
LINE
  5
1D9C
330
1F
100
AcDbEntity
  8
0
100
AcDbLine
 10
10914.97663630899
 20
5203.962901962881
 30
0.0
 11
10914.97663630899
 21
5200.96290196288
 31
0.0
  0
LINE
  5
1D9D
330
1F
100
AcDbEntity
  8
0
100
AcDbLine
 10
10914.97663630899
 20
5200.96290196288
 30
0.0
 11
10927.93662196423
 21
5200.96290196288
 31
0.0
  0
LINE
  5
1DA0
330
1F
100
AcDbEntity
  8
0
100
AcDbLine
 10
10914.97663630899
 20
5203.962901962881
 30
0.0
 11
10927.93662196423
 21
5203.962901962881
 31
0.0
  0
LINE
  5
1DA5
330
1F
100
AcDbEntity
  8
0
100
AcDbLine
 10
10927.93662196423
 20
5203.962901962881
 30
0.0
 11
10927.93662196423
 21
5200.96290196288
 31
0.0
  0
LWPOLYLINE
  5
1DB4
330
1F
100
AcDbEntity
  8
0
100
AcDbPolyline
 90
        4
 70
     1
 43
0.0
 10
10989.88699309058
 20
5203.962901962881
 10
10989.88699309058
 20
5200.96290196288
 10
11002.84697874583
 20
5200.96290196288
 10
11002.84697874583
 20
5203.962901962881
  0
LWPOLYLINE
  5
1DB5
330
1F
100
AcDbEntity
  8
0
100
AcDbPolyline
 90
        5
 70
     1
 43
0.0
 10
10914.97663630899
 20
5200.96290196288
 10
10927.93662196423
 20
5200.96290196288
 10
10927.93662196423
 20
5200.96290196288
 10
10914.97663630899
 20
5200.96290196288
 10
10914.97663630899
 20
5203.962901962881
  0
LWPOLYLINE
  5
1DB6
330
1F
100
AcDbEntity
  8
0
100
AcDbPolyline
 90
        4
 70
     1
 43
0.0
 10
10954.5878036832
 20
5203.962901962881
 10
10954.5878036832
 20
5200.96290196288
 10
10963.23581137162
 20
5200.96290196288
 10
10963.23581137162
 20
5203.962901962881
  0
LWPOLYLINE
  5
1DB7
330
1F
100
AcDbEntity
  8
0
100
AcDbPolyline
 90
        6
 70
     0
 43
0.0
 10
11002.84696781098
 20
5248.553595703415
 10
10989.88698215573
 20
5248.553595703415
 10
11002.84696781098
 20
5248.553595703415
 10
11002.84696781098
 20
5251.553595703415
 10
10989.88698215573
 20
5251.553595703415
 10
10989.88698215573
 20
5248.553595703415
  0
LWPOLYLINE
  5
1DB8
330
1F
100
AcDbEntity
  8
0
100
AcDbPolyline
 90
        5
 70
     1
 43
0.0
 10
10927.93661102938
 20
5251.553595703415
 10
10927.93661102938
 20
5248.553595703415
 10
10927.93661102938
 20
5248.553595703415
 10
10914.97662537414
 20
5248.553595703415
 10
10914.97662537414
 20
5251.553595703415
  0
LWPOLYLINE
  5
1DB9
330
1F
100
AcDbEntity
  8
0
100
AcDbPolyline
 90
        4
 70
     1
 43
0.0
 10
10954.58779274835
 20
5251.553595703415
 10
10954.58779274835
 20
5248.553595703415
 10
10963.23580043677
 20
5248.553595703415
 10
10963.23580043677
 20
5251.553595703415
  0
LWPOLYLINE
  5
1DBA
330
1F
100
AcDbEntity
  8
0
100
AcDbPolyline
 90
        4
 70
     1
 43
0.0
 10
10987.96095447247
 20
5193.760585161699
 10
10987.96095447247
 20
5190.760585161699
 10
10965.96095447247
 20
5190.760585161699
 10
10965.96095447247
 20
5193.760585161699
  0
LWPOLYLINE
  5
1DBB
330
1F
100
AcDbEntity
  8
0
100
AcDbPolyline
 90
        4
 70
     1
 43
0.0
 10
10951.86269274835
 20
5193.760585161699
 10
10951.86269274835
 20
5190.760585161699
 10
10929.86269274835
 20
5190.760585161699
 10
10929.86269274835
 20
5193.760585161699
  0
LWPOLYLINE
  5
1DBC
330
1F
100
AcDbEntity
  8
0
100
AcDbPolyline
 90
        4
 70
     1
 43
0.0
 10
10987.96095447247
 20
5261.755987891014
 10
10987.96095447247
 20
5258.755987891014
 10
10965.96095447247
 20
5258.755987891014
 10
10965.96095447247
 20
5261.755987891014
  0
LWPOLYLINE
  5
1DBD
330
1F
100
AcDbEntity
  8
0
100
AcDbPolyline
 90
        4
 70
     1
 43
0.0
 10
10951.86269274835
 20
5261.755987891014
 10
10951.86269274835
 20
5258.755987891014
 10
10929.86269274835
 20
5258.755987891014
 10
10929.86269274835
 20
5261.755987891014
  0
LWPOLYLINE
  5
1DBE
330
1F
100
AcDbEntity
  8
0
100
AcDbPolyline
 90
        4
 70
     1
 43
0.0
 10
11177.77140951407
 20
5072.21494872132
 10
11179.03855231058
 20
5087.1613311978
 10
11182.02782880588
 20
5086.907902638497
 10
11180.76068600936
 20
5071.961520162017
  0
LWPOLYLINE
  5
1DBF
330
1F
100
AcDbEntity
  8
0
100
AcDbPolyline
 90
        3
 70
     1
 43
0.0
 10
10852.33046997944
 20
5158.773037730315
 42
0.5446269466417295
 10
10743.65456608983
 20
5084.348125113713
 42
0.6125766460387415
 10
10870.18454961973
 20
5024.775847290753
 42
0.5722258020740869
  0
LWPOLYLINE
  5
1DC0
330
1F
100
AcDbEntity
  8
0
100
AcDbPolyline
 90
        3
 70
     1
 43
0.0
 10
11054.77692430438
 20
5019.972794281427
 42
0.5762299648193022
 10
11174.16910694607
 20
5084.34812511373
 42
0.5446269466411753
 10
11065.49320305658
 20
5158.77303773038
 42
0.6102998013857736
  0
LWPOLYLINE
  5
1DC1
330
1F
100
AcDbEntity
  8
0
100
AcDbPolyline
 90
        3
 70
     1
 43
0.0
 10
11065.49320305656
 20
5293.743507819155
 42
0.5812377691906486
 10
11173.24806070008
 20
5376.396489749886
 42
0.5432817435183497
 10
11054.77692430438
 20
5432.543751268106
 42
0.610299801385742
  0
LWPOLYLINE
  5
1DC2
330
1F
100
AcDbEntity
  8
0
100
AcDbPolyline
 90
        3
 70
     1
 43
0.0
 10
10743.65456608982
 20
5368.168420435821
 42
0.5816747311090273
 10
10860.01378959829
 20
5297.614440440844
 42
0.5372332675308599
 10
10870.18454961973
 20
5427.740698258781
 42
0.6125766460386848
  0
LWPOLYLINE
  5
1DC3
330
1F
100
AcDbEntity
  8
0
100
AcDbPolyline
 90
        4
 70
     1
 43
0.0
 10
10905.629595018
 20
5089.638427939604
 10
10908.60016575025
 20
5090.057605139261
 10
10906.50427975196
 20
5104.9104588005
 10
10903.53370901971
 20
5104.491281600843
  0
LWPOLYLINE
  5
1DC4
330
1F
100
AcDbEntity
  8
0
100
AcDbPolyline
 90
        4
 70
     1
 43
0.0
 10
10763.8288050821
 20
5150.015648484259
 10
10765.59451790638
 20
5147.590311760803
 10
10777.72120152367
 20
5156.418875882234
 10
10775.95548869938
 20
5158.844212605692
  0
LWPOLYLINE
  5
1DC5
330
1F
100
AcDbEntity
  8
0
100
AcDbPolyline
 90
        4
 70
     1
 43
0.0
 10
10781.56227805063
 20
5013.120055935846
 10
10780.39045078057
 20
5010.35838599736
 10
10794.198800473
 20
5004.499249647045
 10
10795.37062774306
 20
5007.260919585531
  0
LWPOLYLINE
  5
1DC6
330
1F
100
AcDbEntity
  8
0
100
AcDbPolyline
 90
        4
 70
     1
 43
0.0
 10
10866.6338287151
 20
5161.336641797924
 10
10853.17194167467
 20
5167.9531059073
 10
10851.8486488528
 20
5165.260728499212
 10
10865.31053589323
 20
5158.644264389838
  0
LWPOLYLINE
  5
1DC7
330
1F
100
AcDbEntity
  8
0
100
AcDbPolyline
 90
        4
 70
     1
 43
0.0
 10
10740.05226352183
 20
5072.214948721303
 10
10738.78512072532
 20
5087.161331197783
 10
10735.79584423002
 20
5086.907902638479
 10
10737.06298702654
 20
5071.961520162
  0
LWPOLYLINE
  5
1DC8
330
1F
100
AcDbEntity
  8
0
100
AcDbPolyline
 90
        4
 70
     1
 43
0.0
 10
10876.29046626
 20
5022.456172003141
 10
10864.16656003776
 20
5013.623794185465
 10
10865.93303560129
 20
5011.199012941015
 10
10878.05694182354
 20
5020.031390758691
  0
LWPOLYLINE
  5
1DC9
330
1F
100
AcDbEntity
  8
0
100
AcDbPolyline
 90
        4
 70
     1
 43
0.0
 10
11012.1940780179
 20
5089.638427939622
 10
11009.22350728565
 20
5090.057605139278
 10
11011.31939328394
 20
5104.910458800517
 10
11014.28996401619
 20
5104.491281600861
  0
LWPOLYLINE
  5
1DCA
330
1F
100
AcDbEntity
  8
0
100
AcDbPolyline
 90
        4
 70
     1
 43
0.0
 10
11153.9948679538
 20
5150.015648484277
 10
11152.22915512952
 20
5147.590311760819
 10
11140.10247151223
 20
5156.418875882251
 10
11141.86818433652
 20
5158.844212605709
  0
LWPOLYLINE
  5
1DCB
330
1F
100
AcDbEntity
  8
0
100
AcDbPolyline
 90
        4
 70
     1
 43
0.0
 10
11136.26139498527
 20
5013.120055935864
 10
11137.43322225533
 20
5010.358385997377
 10
11123.6248725629
 20
5004.499249647063
 10
11122.45304529284
 20
5007.260919585548
  0
LWPOLYLINE
  5
1DCC
330
1F
100
AcDbEntity
  8
0
100
AcDbPolyline
 90
        4
 70
     1
 43
0.0
 10
11051.1898443208
 20
5161.336641797941
 10
11064.65173136123
 20
5167.953105907317
 10
11065.9750241831
 20
5165.26072849923
 10
11052.51313714267
 20
5158.644264389856
  0
LWPOLYLINE
  5
1DCD
330
1F
100
AcDbEntity
  8
0
100
AcDbPolyline
 90
        4
 70
     1
 43
0.0
 10
11041.5332067759
 20
5022.456172003158
 10
11053.65711299814
 20
5013.623794185482
 10
11051.89063743461
 20
5011.199012941032
 10
11039.76673121237
 20
5020.031390758708
  0
LWPOLYLINE
  5
1DCE
330
1F
100
AcDbEntity
  8
0
100
AcDbPolyline
 90
        4
 70
     1
 43
0.0
 10
10905.629595018
 20
5362.87811760993
 10
10908.60016575024
 20
5362.458940410273
 10
10906.50427975195
 20
5347.606086749033
 10
10903.53370901971
 20
5348.02526394869
  0
LWPOLYLINE
  5
1DCF
330
1F
100
AcDbEntity
  8
0
100
AcDbPolyline
 90
        4
 70
     1
 43
0.0
 10
10763.82880508209
 20
5302.500897065273
 10
10765.59451790638
 20
5304.926233788731
 10
10777.72120152366
 20
5296.0976696673
 10
10775.95548869938
 20
5293.672332943842
  0
LWPOLYLINE
  5
1DD0
330
1F
100
AcDbEntity
  8
0
100
AcDbPolyline
 90
        4
 70
     1
 43
0.0
 10
10781.56227805063
 20
5439.396489613687
 10
10780.39045078056
 20
5442.158159552174
 10
10794.19880047299
 20
5448.017295902488
 10
10795.37062774305
 20
5445.255625964002
  0
LWPOLYLINE
  5
1DD1
330
1F
100
AcDbEntity
  8
0
100
AcDbPolyline
 90
        4
 70
     1
 43
0.0
 10
10866.6338287151
 20
5291.17990375161
 10
10853.17194167467
 20
5284.563439642234
 10
10851.84864885279
 20
5287.255817050321
 10
10865.31053589322
 20
5293.872281159695
  0
LWPOLYLINE
  5
1DD2
330
1F
100
AcDbEntity
  8
0
100
AcDbPolyline
 90
        4
 70
     1
 43
0.0
 10
10740.05226352183
 20
5380.301596828229
 10
10738.78512072532
 20
5365.355214351751
 10
10735.79584423002
 20
5365.608642911054
 10
10737.06298702653
 20
5380.555025387534
  0
LWPOLYLINE
  5
1DD3
330
1F
100
AcDbEntity
  8
0
100
AcDbPolyline
 90
        4
 70
     1
 43
0.0
 10
10876.29046626
 20
5430.060373546393
 10
10864.16656003775
 20
5438.892751364068
 10
10865.93303560129
 20
5441.317532608518
 10
10878.05694182353
 20
5432.485154790843
  0
LWPOLYLINE
  5
1DD4
330
1F
100
AcDbEntity
  8
0
100
AcDbPolyline
 90
        4
 70
     1
 43
0.0
 10
11012.1940780179
 20
5362.878117609912
 10
11009.22350728565
 20
5362.458940410255
 10
11011.31939328394
 20
5347.606086749016
 10
11014.28996401618
 20
5348.025263948673
  0
LWPOLYLINE
  5
1DD5
330
1F
100
AcDbEntity
  8
0
100
AcDbPolyline
 90
        4
 70
     1
 43
0.0
 10
11153.9948679538
 20
5302.500897065256
 10
11152.22915512951
 20
5304.926233788714
 10
11140.10247151222
 20
5296.097669667283
 10
11141.86818433651
 20
5293.672332943824
  0
LWPOLYLINE
  5
1DD6
330
1F
100
AcDbEntity
  8
0
100
AcDbPolyline
 90
        4
 70
     1
 43
0.0
 10
11136.26139498526
 20
5439.396489613669
 10
11137.43322225533
 20
5442.158159552157
 10
11123.6248725629
 20
5448.017295902471
 10
11122.45304529283
 20
5445.255625963985
  0
LWPOLYLINE
  5
1DD7
330
1F
100
AcDbEntity
  8
0
100
AcDbPolyline
 90
        4
 70
     1
 43
0.0
 10
11051.18984432079
 20
5291.179903751592
 10
11064.65173136123
 20
5284.563439642216
 10
11065.9750241831
 20
5287.255817050303
 10
11052.51313714267
 20
5293.872281159679
  0
LWPOLYLINE
  5
1DD8
330
1F
100
AcDbEntity
  8
0
100
AcDbPolyline
 90
        4
 70
     1
 43
0.0
 10
11177.77140951406
 20
5380.301596828212
 10
11179.03855231058
 20
5365.355214351733
 10
11182.02782880587
 20
5365.608642911037
 10
11180.76068600936
 20
5380.555025387516
  0
LWPOLYLINE
  5
1DD9
330
1F
100
AcDbEntity
  8
0
100
AcDbPolyline
 90
        4
 70
     1
 43
0.0
 10
11041.53320677589
 20
5430.060373546376
 10
11053.65711299814
 20
5438.892751364051
 10
11051.8906374346
 20
5441.317532608501
 10
11039.76673121236
 20
5432.485154790826
  0
LWPOLYLINE
  5
1DDA
330
1F
100
AcDbEntity
  8
0
100
AcDbPolyline
 90
       16
 70
     1
 43
0.0
 10
10913.49012925395
 20
5188.760585161698
 10
10929.86269274835
 20
5188.760585161698
 10
11004.33354378193
 20
5188.760585161698
 42
-0.3833787276696106
 10
11013.67134838955
 20
5127.147624495087
 42
2.952053953066841
 10
11113.54196488429
 20
5175.059948467527
 42
-0.3634389049935351
 10
11064.40115458655
 20
5226.258272774771
 42
-0.363438905001184
 10
11113.54196488461
 20
5277.45659708205
 42
2.952053953057104
 10
11013.67134838955
 20
5325.368921054455
 42
-0.3833784612684648
 10
11004.33357722843
 20
5263.755987891014
 10
10929.86269274835
 20
5263.755987891014
 10
10913.49009580745
 20
5263.755987891014
 42
-0.3833784612685028
 10
10904.15232464633
 20
5325.368921054455
 42
2.952007001234441
 10
10804.27998359396
 20
5277.456957323195
 42
-0.3634454750273156
 10
10853.42251844933
 20
5226.258272774771
 42
-0.3634389052118581
 10
10804.28170810921
 20
5175.059948462902
 42
2.952053951898154
 10
10904.15232464633
 20
5127.147624495087
 42
-0.3833787276695968
  0
LWPOLYLINE
  5
1DDB
330
1F
100
AcDbEntity
  8
0
100
AcDbPolyline
 90
        4
 70
     1
 43
0.0
 10
10360.87421290121
 20
5125.8103031449
 10
10358.14971955197
 20
5127.150343052834
 10
10353.83431613874
 20
5118.129406661244
 10
10356.55023393224
 20
5116.793474108266
  0
LWPOLYLINE
  5
1DDC
330
1F
100
AcDbEntity
  8
0
100
AcDbPolyline
 90
        4
 70
     1
 43
0.0
 10
10341.71493719303
 20
5092.795008899102
 10
10346.03034060626
 20
5101.815945290694
 10
10348.73075036474
 20
5100.487440478419
 10
10344.40677139577
 20
5091.470611441785
  0
LWPOLYLINE
  5
1DDD
330
1F
100
AcDbEntity
  8
0
100
AcDbPolyline
 90
        4
 70
     1
 43
0.0
 10
10370.27532871154
 20
5152.349427674406
 10
10365.90226771103
 20
5143.356300438245
 10
10368.69427809079
 20
5142.117549636084
 10
10373.01825705977
 20
5151.134378672715
  0
LWPOLYLINE
  5
1DDE
330
1F
100
AcDbEntity
  8
0
100
AcDbPolyline
 90
        4
 70
     1
 43
0.0
 10
10364.81761314179
 20
5039.277744840813
 10
10367.32994855421
 20
5040.982661771466
 10
10361.62476049182
 20
5049.19550714763
 10
10359.12023679619
 20
5047.49601125026
  0
LWPOLYLINE
  5
1DDF
330
1F
100
AcDbEntity
  8
0
100
AcDbPolyline
 90
        4
 70
     1
 43
0.0
 10
10345.60231033741
 20
5072.260462102052
 10
10351.3074983998
 20
5064.047616725886
 10
10348.81710141281
 20
5062.357924225106
 10
10343.11972506722
 20
5070.576190634554
  0
LWPOLYLINE
  5
1DE0
330
1F
100
AcDbEntity
  8
0
100
AcDbPolyline
 90
        4
 70
     1
 43
0.0
 10
10383.23171900455
 20
5017.979228119068
 10
10377.57922098019
 20
5026.228426024589
 10
10375.1215148841
 20
5024.41472641997
 10
10380.81889122969
 20
5016.196460010524
  0
LWPOLYLINE
  5
1DE1
330
1F
100
AcDbEntity
  8
0
100
AcDbPolyline
 90
        4
 70
     1
 43
0.0
 10
10287.53473850586
 20
5078.951625186931
 10
10287.75123805075
 20
5075.923143898893
 10
10297.71741326343
 20
5076.744941702515
 10
10297.50169061512
 20
5079.763946337515
  0
LWPOLYLINE
  5
1DE2
330
1F
100
AcDbEntity
  8
0
100
AcDbPolyline
 90
        4
 70
     1
 43
0.0
 10
10325.70641973074
 20
5079.052878654207
 10
10315.74024451806
 20
5078.231080850585
 10
10315.52592680951
 20
5081.232947906231
 10
10325.49287891877
 20
5082.045269056815
  0
LWPOLYLINE
  5
1DE3
330
1F
100
AcDbEntity
  8
0
100
AcDbPolyline
 90
        4
 70
     1
 43
0.0
 10
10259.87594372945
 20
5073.688814076096
 10
10269.84717534802
 20
5074.446798250636
 10
10269.50916164827
 20
5077.482514352206
 10
10259.54220953901
 20
5076.670193201623
  0
LWPOLYLINE
  5
1DE4
330
1F
100
AcDbEntity
  8
0
100
AcDbPolyline
 90
        4
 70
     1
 43
0.0
 10
10588.1374283503
 20
5125.810303144917
 10
10590.86192169955
 20
5127.150343052851
 10
10595.17732511278
 20
5118.129406661262
 10
10592.46140731928
 20
5116.793474108284
  0
LWPOLYLINE
  5
1DE5
330
1F
100
AcDbEntity
  8
0
100
AcDbPolyline
 90
        4
 70
     1
 43
0.0
 10
10607.29670405848
 20
5092.79500889912
 10
10602.98130064526
 20
5101.815945290711
 10
10600.28089088677
 20
5100.487440478436
 10
10604.60486985574
 20
5091.470611441803
  0
LWPOLYLINE
  5
1DE6
330
1F
100
AcDbEntity
  8
0
100
AcDbPolyline
 90
        4
 70
     1
 43
0.0
 10
10578.73631253997
 20
5152.349427674423
 10
10583.10937354049
 20
5143.356300438263
 10
10580.31736316072
 20
5142.117549636102
 10
10575.99338419175
 20
5151.134378672733
  0
LWPOLYLINE
  5
1DE7
330
1F
100
AcDbEntity
  8
0
100
AcDbPolyline
 90
        4
 70
     1
 43
0.0
 10
10584.19402810973
 20
5039.277744840831
 10
10581.68169269731
 20
5040.982661771483
 10
10587.38688075969
 20
5049.195507147647
 10
10589.89140445533
 20
5047.496011250277
  0
LWPOLYLINE
  5
1DE8
330
1F
100
AcDbEntity
  8
0
100
AcDbPolyline
 90
        4
 70
     1
 43
0.0
 10
10603.40933091411
 20
5072.260462102069
 10
10597.70414285172
 20
5064.047616725904
 10
10600.1945398387
 20
5062.357924225124
 10
10605.8919161843
 20
5070.576190634571
  0
LWPOLYLINE
  5
1DE9
330
1F
100
AcDbEntity
  8
0
100
AcDbPolyline
 90
        4
 70
     1
 43
0.0
 10
10565.77992224696
 20
5017.979228119084
 10
10571.43242027133
 20
5026.228426024606
 10
10573.89012636742
 20
5024.414726419987
 10
10568.19275002182
 20
5016.196460010541
  0
LWPOLYLINE
  5
1DEA
330
1F
100
AcDbEntity
  8
0
100
AcDbPolyline
 90
        4
 70
     1
 43
0.0
 10
10661.47690274566
 20
5078.951625186949
 10
10661.26040320077
 20
5075.92314389891
 10
10651.29422798808
 20
5076.744941702532
 10
10651.50995063639
 20
5079.763946337532
  0
LWPOLYLINE
  5
1DEB
330
1F
100
AcDbEntity
  8
0
100
AcDbPolyline
 90
        4
 70
     1
 43
0.0
 10
10623.30522152077
 20
5079.052878654224
 10
10633.27139673346
 20
5078.231080850603
 10
10633.48571444201
 20
5081.232947906248
 10
10623.51876233274
 20
5082.045269056833
  0
LWPOLYLINE
  5
1DEC
330
1F
100
AcDbEntity
  8
0
100
AcDbPolyline
 90
        4
 70
     1
 43
0.0
 10
10689.13569752206
 20
5073.688814076113
 10
10679.16446590349
 20
5074.446798250654
 10
10679.50247960324
 20
5077.482514352224
 10
10689.46943171251
 20
5076.67019320164
  0
LWPOLYLINE
  5
1DED
330
1F
100
AcDbEntity
  8
0
100
AcDbPolyline
 90
        4
 70
     1
 43
0.0
 10
10360.87421290121
 20
5316.597127972464
 10
10358.14971955196
 20
5315.25708806453
 10
10353.83431613873
 20
5324.27802445612
 10
10356.55023393224
 20
5325.613957009098
  0
LWPOLYLINE
  5
1DEE
330
1F
100
AcDbEntity
  8
0
100
AcDbPolyline
 90
        4
 70
     1
 43
0.0
 10
10341.71493719303
 20
5349.612422218263
 10
10346.03034060626
 20
5340.591485826671
 10
10348.73075036474
 20
5341.919990638945
 10
10344.40677139577
 20
5350.936819675579
  0
LWPOLYLINE
  5
1DEF
330
1F
100
AcDbEntity
  8
0
100
AcDbPolyline
 90
        4
 70
     1
 43
0.0
 10
10370.27532871154
 20
5290.058003442958
 10
10365.90226771102
 20
5299.051130679118
 10
10368.69427809079
 20
5300.28988148128
 10
10373.01825705976
 20
5291.273052444649
  0
LWPOLYLINE
  5
1DF0
330
1F
100
AcDbEntity
  8
0
100
AcDbPolyline
 90
        4
 70
     1
 43
0.0
 10
10364.81761314178
 20
5403.129686276551
 10
10367.3299485542
 20
5401.424769345898
 10
10361.62476049181
 20
5393.211923969734
 10
10359.12023679618
 20
5394.911419867105
  0
LWPOLYLINE
  5
1DF1
330
1F
100
AcDbEntity
  8
0
100
AcDbPolyline
 90
        4
 70
     1
 43
0.0
 10
10345.6023103374
 20
5370.146969015312
 10
10351.30749839979
 20
5378.359814391478
 10
10348.81710141281
 20
5380.049506892259
 10
10343.11972506721
 20
5371.831240482811
  0
LWPOLYLINE
  5
1DF2
330
1F
100
AcDbEntity
  8
0
100
AcDbPolyline
 90
        4
 70
     1
 43
0.0
 10
10383.23171900455
 20
5424.428202998297
 10
10377.57922098018
 20
5416.179005092775
 10
10375.12151488409
 20
5417.992704697394
 10
10380.81889122968
 20
5426.21097110684
  0
LWPOLYLINE
  5
1DF3
330
1F
100
AcDbEntity
  8
0
100
AcDbPolyline
 90
        4
 70
     1
 43
0.0
 10
10287.53473850585
 20
5363.455805930434
 10
10287.75123805074
 20
5366.484287218472
 10
10297.71741326343
 20
5365.662489414849
 10
10297.50169061512
 20
5362.643484779849
  0
LWPOLYLINE
  5
1DF4
330
1F
100
AcDbEntity
  8
0
100
AcDbPolyline
 90
        4
 70
     1
 43
0.0
 10
10325.70641973074
 20
5363.354552463157
 10
10315.74024451805
 20
5364.176350266779
 10
10315.52592680951
 20
5361.174483211133
 10
10325.49287891877
 20
5360.36216206055
  0
LWPOLYLINE
  5
1DF5
330
1F
100
AcDbEntity
  8
0
100
AcDbPolyline
 90
        4
 70
     1
 43
0.0
 10
10259.87594372945
 20
5368.718617041269
 10
10269.84717534801
 20
5367.960632866729
 10
10269.50916164827
 20
5364.924916765158
 10
10259.542209539
 20
5365.737237915741
  0
LWPOLYLINE
  5
1DF6
330
1F
100
AcDbEntity
  8
0
100
AcDbPolyline
 90
        4
 70
     1
 43
0.0
 10
10543.74688637674
 20
5195.908384490948
 10
10543.74688637674
 20
5198.908384490948
 10
10533.74688637674
 20
5198.908384490948
 10
10533.74688637674
 20
5195.908384490948
  0
LWPOLYLINE
  5
1DF7
330
1F
100
AcDbEntity
  8
0
100
AcDbPolyline
 90
        4
 70
     1
 43
0.0
 10
10495.74342959515
 20
5195.908384490948
 10
10495.74342959515
 20
5198.908384490948
 10
10485.74342959515
 20
5198.908384490948
 10
10485.74342959515
 20
5195.908384490948
  0
LWPOLYLINE
  5
1DF8
330
1F
100
AcDbEntity
  8
0
100
AcDbPolyline
 90
        6
 70
     0
 43
0.0
 10
10453.26822959515
 20
5195.908384490948
 10
10453.26822959515
 20
5195.908384490948
 10
10463.26743363687
 20
5195.782215825913
 10
10463.26743363687
 20
5198.782215825914
 10
10453.26743363687
 20
5198.782215825914
 10
10453.26743363687
 20
5195.908394534247
  0
LWPOLYLINE
  5
1DF9
330
1F
100
AcDbEntity
  8
0
100
AcDbPolyline
 90
        4
 70
     1
 43
0.0
 10
10415.26479080636
 20
5195.908384490948
 10
10415.26479080636
 20
5198.908384490948
 10
10405.26479080636
 20
5198.908384490948
 10
10405.26479080636
 20
5195.908384490948
  0
LWPOLYLINE
  5
1DFA
330
1F
100
AcDbEntity
  8
0
100
AcDbPolyline
 90
        4
 70
     1
 43
0.0
 10
10543.74688637674
 20
5243.499084490948
 10
10543.74688637674
 20
5246.499084490948
 10
10533.74688637674
 20
5246.499084490948
 10
10533.74688637674
 20
5243.499084490948
  0
LWPOLYLINE
  5
1DFB
330
1F
100
AcDbEntity
  8
0
100
AcDbPolyline
 90
        4
 70
     1
 43
0.0
 10
10495.74342959515
 20
5243.499084490948
 10
10495.74342959515
 20
5246.499084490948
 10
10485.74342959515
 20
5246.499084490948
 10
10485.74342959515
 20
5243.499084490948
  0
LWPOLYLINE
  5
1DFC
330
1F
100
AcDbEntity
  8
0
100
AcDbPolyline
 90
        6
 70
     0
 43
0.0
 10
10453.26822959515
 20
5243.499084490948
 10
10453.26822959515
 20
5243.499084490948
 10
10463.26743363687
 20
5243.372915825913
 10
10463.26743363687
 20
5246.372915825912
 10
10453.26743363687
 20
5246.372915825912
 10
10453.26743363687
 20
5243.499094534247
  0
LWPOLYLINE
  5
1DFD
330
1F
100
AcDbEntity
  8
0
100
AcDbPolyline
 90
        4
 70
     1
 43
0.0
 10
10415.26479080636
 20
5243.499084490948
 10
10415.26479080636
 20
5246.499084490948
 10
10405.26479080636
 20
5246.499084490948
 10
10405.26479080636
 20
5243.499084490948
  0
LWPOLYLINE
  5
1DFE
330
1F
100
AcDbEntity
  8
0
100
AcDbPolyline
 90
        4
 70
     1
 43
0.0
 10
10397.30574424995
 20
5201.78127619348
 10
10394.5812509007
 20
5203.121316101413
 10
10390.26584748747
 20
5194.100379709825
 10
10392.98176528097
 20
5192.764447156847
  0
LWPOLYLINE
  5
1DFF
330
1F
100
AcDbEntity
  8
0
100
AcDbPolyline
 90
        4
 70
     1
 43
0.0
 10
10378.14646854177
 20
5168.765981947682
 10
10382.46187195499
 20
5177.786918339274
 10
10385.16228171348
 20
5176.458413526999
 10
10380.83830274451
 20
5167.441584490365
  0
LWPOLYLINE
  5
1E00
330
1F
100
AcDbEntity
  8
0
100
AcDbPolyline
 90
        4
 70
     1
 43
0.0
 10
10397.30574424995
 20
5240.626154923893
 10
10394.5812509007
 20
5239.28611501596
 10
10390.26584748747
 20
5248.307051407549
 10
10392.98176528097
 20
5249.642983960526
  0
LWPOLYLINE
  5
1E01
330
1F
100
AcDbEntity
  8
0
100
AcDbPolyline
 90
        4
 70
     1
 43
0.0
 10
10378.14646854177
 20
5273.641449169691
 10
10382.46187195499
 20
5264.620512778099
 10
10385.16228171348
 20
5265.949017590375
 10
10380.83830274451
 20
5274.965846627008
  0
LWPOLYLINE
  5
1E02
330
1F
100
AcDbEntity
  8
0
100
AcDbPolyline
 90
        4
 70
     1
 43
0.0
 10
10551.70589700155
 20
5201.78127619348
 10
10554.43039035079
 20
5203.121316101413
 10
10558.74579376402
 20
5194.100379709825
 10
10556.02987597052
 20
5192.764447156847
  0
LWPOLYLINE
  5
1E03
330
1F
100
AcDbEntity
  8
0
100
AcDbPolyline
 90
        4
 70
     1
 43
0.0
 10
10570.86517270973
 20
5168.765981947682
 10
10566.5497692965
 20
5177.786918339274
 10
10563.84935953802
 20
5176.458413526999
 10
10568.17333850699
 20
5167.441584490365
  0
LWPOLYLINE
  5
1E04
330
1F
100
AcDbEntity
  8
0
100
AcDbPolyline
 90
        4
 70
     1
 43
0.0
 10
10551.70589700155
 20
5240.626154923893
 10
10554.43039035079
 20
5239.28611501596
 10
10558.74579376402
 20
5248.307051407549
 10
10556.02987597052
 20
5249.642983960526
  0
LWPOLYLINE
  5
1E05
330
1F
100
AcDbEntity
  8
0
100
AcDbPolyline
 90
        4
 70
     1
 43
0.0
 10
10570.86517270973
 20
5273.641449169691
 10
10566.5497692965
 20
5264.620512778099
 10
10563.84935953802
 20
5265.949017590375
 10
10568.17333850699
 20
5274.965846627008
  0
LWPOLYLINE
  5
1E06
330
1F
100
AcDbEntity
  8
0
100
AcDbPolyline
 90
        4
 70
     1
 43
0.0
 10
10588.1374283503
 20
5316.597127972447
 10
10590.86192169954
 20
5315.257088064513
 10
10595.17732511277
 20
5324.278024456102
 10
10592.46140731927
 20
5325.613957009081
  0
LWPOLYLINE
  5
1E07
330
1F
100
AcDbEntity
  8
0
100
AcDbPolyline
 90
        4
 70
     1
 43
0.0
 10
10607.29670405848
 20
5349.612422218245
 10
10602.98130064525
 20
5340.591485826653
 10
10600.28089088676
 20
5341.919990638928
 10
10604.60486985574
 20
5350.936819675562
  0
LWPOLYLINE
  5
1E08
330
1F
100
AcDbEntity
  8
0
100
AcDbPolyline
 90
        4
 70
     1
 43
0.0
 10
10578.73631253997
 20
5290.058003442942
 10
10583.10937354048
 20
5299.051130679101
 10
10580.31736316072
 20
5300.289881481262
 10
10575.99338419174
 20
5291.273052444632
  0
LWPOLYLINE
  5
1E09
330
1F
100
AcDbEntity
  8
0
100
AcDbPolyline
 90
        4
 70
     1
 43
0.0
 10
10584.19402810972
 20
5403.129686276534
 10
10581.6816926973
 20
5401.424769345881
 10
10587.38688075969
 20
5393.211923969716
 10
10589.89140445532
 20
5394.911419867088
  0
LWPOLYLINE
  5
1E0A
330
1F
100
AcDbEntity
  8
0
100
AcDbPolyline
 90
        4
 70
     1
 43
0.0
 10
10603.4093309141
 20
5370.146969015295
 10
10597.70414285171
 20
5378.359814391461
 10
10600.1945398387
 20
5380.049506892241
 10
10605.89191618429
 20
5371.831240482794
  0
LWPOLYLINE
  5
1E0B
330
1F
100
AcDbEntity
  8
0
100
AcDbPolyline
 90
        4
 70
     1
 43
0.0
 10
10565.77992224695
 20
5424.42820299828
 10
10571.43242027132
 20
5416.179005092758
 10
10573.89012636741
 20
5417.992704697377
 10
10568.19275002182
 20
5426.210971106823
  0
LWPOLYLINE
  5
1E0C
330
1F
100
AcDbEntity
  8
0
100
AcDbPolyline
 90
        4
 70
     1
 43
0.0
 10
10661.47690274565
 20
5363.455805930416
 10
10661.26040320076
 20
5366.484287218455
 10
10651.29422798808
 20
5365.662489414831
 10
10651.50995063639
 20
5362.643484779832
  0
LWPOLYLINE
  5
1E0D
330
1F
100
AcDbEntity
  8
0
100
AcDbPolyline
 90
        4
 70
     1
 43
0.0
 10
10623.30522152077
 20
5363.35455246314
 10
10633.27139673345
 20
5364.176350266762
 10
10633.485714442
 20
5361.174483211116
 10
10623.51876233274
 20
5360.362162060532
  0
LWPOLYLINE
  5
1E0E
330
1F
100
AcDbEntity
  8
0
100
AcDbPolyline
 90
        4
 70
     1
 43
0.0
 10
10689.13569752206
 20
5368.718617041252
 10
10679.16446590349
 20
5367.960632866711
 10
10679.50247960324
 20
5364.92491676514
 10
10689.4694317125
 20
5365.737237915724
  0
LWPOLYLINE
  5
1E0F
330
1F
100
AcDbEntity
  8
0
100
AcDbPolyline
 90
        4
 70
     1
 43
0.0
 10
10477.00584053
 20
5195.908390750413
 10
10477.00584053
 20
5198.908390750413
 10
10472.00584053
 20
5198.908390750413
 10
10472.00584053
 20
5195.908390750413
  0
LWPOLYLINE
  5
1E10
330
1F
100
AcDbEntity
  8
0
100
AcDbPolyline
 90
        4
 70
     1
 43
0.0
 10
10477.00582959515
 20
5246.499084490948
 10
10477.00582959515
 20
5243.499084490948
 10
10472.00582959515
 20
5243.499084490948
 10
10472.00582959515
 20
5246.499084490948
  0
LWPOLYLINE
  5
1E11
330
1F
100
AcDbEntity
  8
0
100
AcDbPolyline
 90
        5
 70
     1
 43
0.0
 10
10425.57065487475
 20
5198.908390750413
 10
10425.57065487475
 20
5195.908390750413
 10
10444.53064053
 20
5195.908390750413
 10
10444.53064053
 20
5198.908390750413
 10
10438.53064053
 20
5198.908390750413
  0
LWPOLYLINE
  5
1E12
330
1F
100
AcDbEntity
  8
0
100
AcDbPolyline
 90
        5
 70
     1
 43
0.0
 10
10510.48101165635
 20
5198.908390750413
 10
10504.48101165635
 20
5198.908390750413
 10
10504.48101165635
 20
5195.908390750413
 10
10523.44099731159
 20
5195.908390750413
 10
10523.44099731159
 20
5198.908390750413
  0
LWPOLYLINE
  5
1E13
330
1F
100
AcDbEntity
  8
0
100
AcDbPolyline
 90
        5
 70
     1
 43
0.0
 10
10523.44098637674
 20
5243.499084490948
 10
10523.44098637674
 20
5246.499084490948
 10
10504.4810007215
 20
5246.499084490948
 10
10504.4810007215
 20
5243.499084490948
 10
10510.4810007215
 20
5243.499084490948
  0
LWPOLYLINE
  5
1E14
330
1F
100
AcDbEntity
  8
0
100
AcDbPolyline
 90
        5
 70
     1
 43
0.0
 10
10438.53062959515
 20
5243.499084490948
 10
10444.53062959515
 20
5243.499084490948
 10
10444.53062959515
 20
5246.499084490948
 10
10425.5706439399
 20
5246.499084490948
 10
10425.5706439399
 20
5243.499084490948
  0
LWPOLYLINE
  5
1E36
330
1F
100
AcDbEntity
  8
0
100
AcDbPolyline
 90
        4
 70
     1
 43
0.0
 10
10472.19284561182
 20
5257.997693726893
 10
10512.19284561182
 20
5257.997693726893
 10
10512.19284561182
 20
5272.997693726892
 10
10472.19284561182
 20
5272.997693726892
  0
LWPOLYLINE
  5
1E37
330
1F
100
AcDbEntity
  8
0
100
AcDbPolyline
 90
        4
 70
     1
 43
0.0
 10
10487.3185364787
 20
5277.137928480113
 10
10527.3185364787
 20
5277.137928480113
 10
10527.3185364787
 20
5292.137928480113
 10
10487.3185364787
 20
5292.137928480113
  0
LWPOLYLINE
  5
1E38
330
1F
100
AcDbEntity
  8
0
100
AcDbPolyline
 90
        4
 70
     1
 43
0.0
 10
10487.3185364787
 20
5296.978264207548
 10
10527.3185364787
 20
5296.978264207548
 10
10527.3185364787
 20
5311.978264207548
 10
10487.3185364787
 20
5311.978264207548
  0
LWPOLYLINE
  5
1E39
330
1F
100
AcDbEntity
  8
0
100
AcDbPolyline
 90
        4
 70
     1
 43
0.0
 10
10478.62089848205
 20
5316.771973788236
 10
10518.62089848205
 20
5316.771973788236
 10
10518.62089848205
 20
5331.771973788236
 10
10478.62089848205
 20
5331.771973788236
  0
LWPOLYLINE
  5
1E3A
330
1F
100
AcDbEntity
  8
0
100
AcDbPolyline
 90
        4
 70
     1
 43
0.0
 10
10426.84788748665
 20
5264.58130564746
 10
10466.84788748665
 20
5264.58130564746
 10
10466.84788748665
 20
5279.58130564746
 10
10426.84788748665
 20
5279.58130564746
  0
LWPOLYLINE
  5
1E3B
330
1F
100
AcDbEntity
  8
0
100
AcDbPolyline
 90
        4
 70
     1
 43
0.0
 10
10416.85662002875
 20
5283.642255104945
 10
10456.85662002875
 20
5283.642255104945
 10
10456.85662002875
 20
5298.642255104946
 10
10416.85662002875
 20
5298.642255104946
  0
LWPOLYLINE
  5
1E3C
330
1F
100
AcDbEntity
  8
0
100
AcDbPolyline
 90
        4
 70
     1
 43
0.0
 10
10425.03131109732
 20
5304.064688047422
 10
10465.03131109732
 20
5304.064688047422
 10
10465.03131109732
 20
5319.064688047422
 10
10425.03131109732
 20
5319.064688047422
  0
LWPOLYLINE
  5
1E3D
330
1F
100
AcDbEntity
  8
0
100
AcDbPolyline
 90
        4
 70
     1
 43
0.0
 10
10431.84353743503
 20
5325.394781279062
 10
10471.84353743503
 20
5325.394781279062
 10
10471.84353743503
 20
5340.394781279061
 10
10431.84353743503
 20
5340.394781279061
  0
LWPOLYLINE
  5
1E3E
330
1F
100
AcDbEntity
  8
0
100
AcDbPolyline
 90
        4
 70
     1
 43
0.0
 10
10475.13706179483
 20
5341.649934605732
 10
10515.13706179483
 20
5341.649934605732
 10
10515.13706179483
 20
5356.649934605732
 10
10475.13706179483
 20
5356.649934605732
  0
LWPOLYLINE
  5
1E3F
330
1F
100
AcDbEntity
  8
0
100
AcDbPolyline
 90
        4
 70
     1
 43
0.0
 10
10432.22715944182
 20
5344.852588038035
 10
10472.22715944182
 20
5344.852588038035
 10
10472.22715944182
 20
5359.852588038035
 10
10432.22715944182
 20
5359.852588038035
  0
LWPOLYLINE
  5
1E40
330
1F
100
AcDbEntity
  8
0
100
AcDbPolyline
 90
        4
 70
     1
 43
0.0
 10
10432.58327329185
 20
5364.068494734334
 10
10472.58327329186
 20
5364.068494734334
 10
10472.58327329186
 20
5379.068494734334
 10
10432.58327329185
 20
5379.068494734334
  0
LWPOLYLINE
  5
1E41
330
1F
100
AcDbEntity
  8
0
100
AcDbPolyline
 90
        4
 70
     1
 43
0.0
 10
10475.8492894949
 20
5360.865841302032
 10
10515.8492894949
 20
5360.865841302032
 10
10515.8492894949
 20
5375.865841302033
 10
10475.8492894949
 20
5375.865841302033
  0
LWPOLYLINE
  5
1E42
330
1F
100
AcDbEntity
  8
0
100
AcDbPolyline
 90
        4
 70
     1
 43
0.0
 10
10478.62089848205
 20
5380.53427872571
 10
10518.62089848205
 20
5380.53427872571
 10
10518.62089848205
 20
5395.534278725711
 10
10478.62089848205
 20
5395.534278725711
  0
LWPOLYLINE
  5
1E43
330
1F
100
AcDbEntity
  8
0
100
AcDbPolyline
 90
        4
 70
     1
 43
0.0
 10
10429.99692265755
 20
5383.029618376
 10
10469.99692265755
 20
5383.029618376
 10
10469.99692265755
 20
5398.029618376
 10
10429.99692265755
 20
5398.029618376
  0
LWPOLYLINE
  5
1E44
330
1F
100
AcDbEntity
  8
0
100
AcDbPolyline
 90
        4
 70
     1
 43
0.0
 10
10483.68398882889
 20
5399.962191940227
 10
10523.68398882889
 20
5399.962191940227
 10
10523.68398882889
 20
5414.962191940227
 10
10483.68398882889
 20
5414.962191940227
  0
LWPOLYLINE
  5
1E45
330
1F
100
AcDbEntity
  8
0
100
AcDbPolyline
 90
        4
 70
     1
 43
0.0
 10
10422.68406733026
 20
5401.744575419361
 10
10462.68406733026
 20
5401.744575419361
 10
10462.68406733026
 20
5416.744575419361
 10
10422.68406733026
 20
5416.744575419361
  0
LWPOLYLINE
  5
1E46
330
1F
100
AcDbEntity
  8
0
100
AcDbPolyline
 90
        4
 70
     1
 43
0.0
 10
10494.92084379031
 20
5418.320677846764
 10
10534.92084379031
 20
5418.320677846764
 10
10534.92084379031
 20
5433.320677846765
 10
10494.92084379031
 20
5433.320677846765
  0
LWPOLYLINE
  5
1E47
330
1F
100
AcDbEntity
  8
0
100
AcDbPolyline
 90
        4
 70
     1
 43
0.0
 10
10451.57879088983
 20
5418.498913415176
 10
10491.57879088983
 20
5418.498913415176
 10
10491.57879088983
 20
5433.498913415177
 10
10451.57879088983
 20
5433.498913415177
  0
LWPOLYLINE
  5
1E48
330
1F
100
AcDbEntity
  8
0
100
AcDbPolyline
 90
        4
 70
     1
 43
0.0
 10
10408.95016592738
 20
5421.5289597707
 10
10448.95016592738
 20
5421.5289597707
 10
10448.95016592738
 20
5436.5289597707
 10
10408.95016592738
 20
5436.5289597707
  0
LWPOLYLINE
  5
1E49
330
1F
100
AcDbEntity
  8
0
100
AcDbPolyline
 90
        4
 70
     1
 43
0.0
 10
10637.28966589133
 20
5336.048598706633
 10
10677.28966589133
 20
5336.048598706633
 10
10677.28966589133
 20
5351.048598706633
 10
10637.28966589133
 20
5351.048598706633
  0
LWPOLYLINE
  5
1E4A
330
1F
100
AcDbEntity
  8
0
100
AcDbPolyline
 90
        4
 70
     1
 43
0.0
 10
10625.83582736797
 20
5316.771973788236
 10
10665.83582736797
 20
5316.771973788236
 10
10665.83582736797
 20
5331.771973788236
 10
10625.83582736797
 20
5331.771973788236
  0
LWPOLYLINE
  5
1E4B
330
1F
100
AcDbEntity
  8
0
100
AcDbPolyline
 90
        4
 70
     1
 43
0.0
 10
10606.13521862003
 20
5296.217069778462
 10
10646.13521862003
 20
5296.217069778462
 10
10646.13521862003
 20
5311.217069778462
 10
10606.13521862003
 20
5311.217069778462
  0
LWPOLYLINE
  5
1E4C
330
1F
100
AcDbEntity
  8
0
100
AcDbPolyline
 90
        4
 70
     1
 43
0.0
 10
10544.74262467153
 20
5331.470258533911
 10
10584.74262467153
 20
5331.470258533911
 10
10584.74262467153
 20
5346.470258533911
 10
10544.74262467153
 20
5346.470258533911
  0
LWPOLYLINE
  5
1E4D
330
1F
100
AcDbEntity
  8
0
100
AcDbPolyline
 90
        4
 70
     1
 43
0.0
 10
10545.20079118801
 20
5358.940271775231
 10
10585.20079118801
 20
5358.940271775231
 10
10585.20079118801
 20
5373.940271775231
 10
10545.20079118801
 20
5373.940271775231
  0
LWPOLYLINE
  5
1E4E
330
1F
100
AcDbEntity
  8
0
100
AcDbPolyline
 90
        4
 70
     1
 43
0.0
 10
10607.96785224709
 20
5384.578954506466
 10
10647.96785224709
 20
5384.578954506466
 10
10647.96785224709
 20
5399.578954506465
 10
10607.96785224709
 20
5399.578954506465
  0
LWPOLYLINE
  5
1E4F
330
1F
100
AcDbEntity
  8
0
100
AcDbPolyline
 90
        4
 70
     1
 43
0.0
 10
10592.390612392
 20
5409.759797661423
 10
10632.390612392
 20
5409.759797661423
 10
10632.390612392
 20
5424.759797661423
 10
10592.390612392
 20
5424.759797661423
  0
ARC
  5
1E50
330
1F
100
AcDbEntity
  8
0
100
AcDbCircle
 10
10509.64168290909
 20
5164.641276632953
 30
0.0
 40
4.881470853199258
100
AcDbArc
 50
358.5923953886187
 51
91.36484610121611
  0
LWPOLYLINE
  5
1E51
330
1F
100
AcDbEntity
  8
0
100
AcDbPolyline
 90
       24
 70
     0
 43
0.0
 10
10509.75795371372
 20
5169.521362573859
 10
10505.52541210445
 20
5169.521362573859
 10
10502.52560180292
 20
5169.555099123853
 10
10502.513956299
 20
5159.555105904743
 10
10505.523275043
 20
5159.521362802207
 10
10505.51941038108
 20
5141.437363215159
 10
10502.49289656971
 20
5141.471118167304
 10
10502.4812510658
 20
5131.471124948196
 10
10505.51727331963
 20
5131.437363443511
 10
10505.51343412541
 20
5113.472535501195
 10
10502.46018977006
 20
5113.385792103169
 10
10502.44854426614
 20
5103.385798884062
 10
10505.44728379404
 20
5103.472754296908
 10
10505.42729332448
 20
5085.266774597511
 10
10502.42748302295
 20
5085.300511147505
 10
10502.41583751903
 20
5075.300517928394
 10
10505.42515626303
 20
5075.26677482586
 10
10505.4212916011
 20
5057.18277523881
 10
10502.39477778974
 20
5057.216530190956
 10
10502.38313228582
 20
5047.216536971847
 10
10505.41915453965
 20
5047.182775467162
 10
10505.41915453965
 20
5028.637802740774
 10
10514.42027395473
 20
5028.637802740774
 10
10514.52185426126
 20
5164.753905510703
  0
ARC
  5
1E52
330
1F
100
AcDbEntity
  8
0
100
AcDbCircle
 10
10490.35392358448
 20
5170.682482627631
 30
0.0
 40
4.881470853199258
100
AcDbArc
 50
358.5923953886187
 51
91.36484610121611
  0
LWPOLYLINE
  5
1E53
330
1F
100
AcDbEntity
  8
0
100
AcDbPolyline
 90
       24
 70
     0
 43
0.0
 10
10490.47019438911
 20
5175.562568568537
 10
10486.23765277985
 20
5175.562568568537
 10
10483.23784247831
 20
5175.596305118531
 10
10483.2261969744
 20
5165.596311899421
 10
10486.2355157184
 20
5165.562568796885
 10
10486.23165105647
 20
5147.478569209837
 10
10483.20513724511
 20
5147.512324161981
 10
10483.19349174119
 20
5137.512330942874
 10
10486.22951399502
 20
5137.478569438189
 10
10486.22567480081
 20
5119.513741495873
 10
10483.17243044546
 20
5119.426998097846
 10
10483.16078494154
 20
5109.427004878739
 10
10486.15952446944
 20
5109.513960291585
 10
10486.13953399987
 20
5091.307980592189
 10
10483.13972369834
 20
5091.341717142183
 10
10483.12807819442
 20
5081.341723923072
 10
10486.13739693842
 20
5081.307980820537
 10
10486.1335322765
 20
5063.223981233488
 10
10483.10701846514
 20
5063.257736185634
 10
10483.09537296122
 20
5053.257742966525
 10
10486.13139521505
 20
5053.22398146184
 10
10486.13139521505
 20
5034.679008735452
 10
10495.13251463012
 20
5034.679008735452
 10
10495.23409493665
 20
5170.79511150538
  0
ARC
  5
1E54
330
1F
100
AcDbEntity
  8
0
100
AcDbCircle
 10
10470.20251194221
 20
5170.970161088925
 30
0.0
 40
4.881470853199258
100
AcDbArc
 50
358.5923953886187
 51
91.36484610121611
  0
LWPOLYLINE
  5
1E55
330
1F
100
AcDbEntity
  8
0
100
AcDbPolyline
 90
       24
 70
     0
 43
0.0
 10
10470.31878274684
 20
5175.850247029831
 10
10466.08624113757
 20
5175.850247029831
 10
10463.08643083604
 20
5175.883983579826
 10
10463.07478533212
 20
5165.883990360716
 10
10466.08410407612
 20
5165.850247258179
 10
10466.0802394142
 20
5147.766247671132
 10
10463.05372560283
 20
5147.800002623275
 10
10463.04208009892
 20
5137.800009404168
 10
10466.07810235275
 20
5137.766247899484
 10
10466.07426315853
 20
5119.801419957167
 10
10463.02101880318
 20
5119.714676559141
 10
10463.00937329927
 20
5109.714683340033
 10
10466.00811282716
 20
5109.801638752879
 10
10465.9881223576
 20
5091.595659053483
 10
10462.98831205607
 20
5091.629395603478
 10
10462.97666655215
 20
5081.629402384367
 10
10465.98598529615
 20
5081.595659281832
 10
10465.98212063422
 20
5063.511659694782
 10
10462.95560682286
 20
5063.545414646928
 10
10462.94396131895
 20
5053.545421427819
 10
10465.97998357277
 20
5053.511659923135
 10
10465.97998357277
 20
5034.966687196746
 10
10474.98110298785
 20
5034.966687196746
 10
10475.08268329438
 20
5171.082789966675
  0
ARC
  5
1E56
330
1F
100
AcDbEntity
  8
0
100
AcDbCircle
 10
10447.17234574468
 20
5169.244104218662
 30
0.0
 40
4.881470853199258
100
AcDbArc
 50
358.5923953886187
 51
91.36484610121611
  0
LWPOLYLINE
  5
1E57
330
1F
100
AcDbEntity
  8
0
100
AcDbPolyline
 90
       24
 70
     0
 43
0.0
 10
10447.28861654931
 20
5174.124190159568
 10
10443.05607494004
 20
5174.124190159568
 10
10440.05626463851
 20
5174.157926709563
 10
10440.04461913459
 20
5164.157933490454
 10
10443.05393787859
 20
5164.124190387918
 10
10443.05007321667
 20
5146.040190800869
 10
10440.0235594053
 20
5146.073945753014
 10
10440.01191390139
 20
5136.073952533905
 10
10443.04793615522
 20
5136.040191029221
 10
10443.044096961
 20
5118.075363086905
 10
10439.99085260565
 20
5117.98861968888
 10
10439.97920710173
 20
5107.988626469772
 10
10442.97794662963
 20
5108.075581882618
 10
10442.95795616007
 20
5089.869602183221
 10
10439.95814585854
 20
5089.903338733216
 10
10439.94650035462
 20
5079.903345514104
 10
10442.95581909862
 20
5079.869602411569
 10
10442.95195443669
 20
5061.78560282452
 10
10439.92544062533
 20
5061.819357776666
 10
10439.91379512141
 20
5051.819364557556
 10
10442.94981737524
 20
5051.785603052872
 10
10442.94981737524
 20
5033.240630326485
 10
10451.95093679032
 20
5033.240630326485
 10
10452.05251709685
 20
5169.356733096413
  0
LWPOLYLINE
  5
1E58
330
1F
100
AcDbEntity
  8
0
100
AcDbPolyline
 90
       16
 70
     0
 43
0.0
 10
10609.73033104301
 20
5248.701080093896
 42
0.4284582666080078
 10
10604.73406242659
 20
5253.701078701571
 10
10600.73406242659
 20
5253.701078701571
 10
10597.73421684268
 20
5253.731516715365
 10
10597.73356708633
 20
5243.731516736471
 10
10600.74292111416
 20
5243.701082625388
 10
10600.74292111416
 20
5225.617250776905
 10
10597.73239206694
 20
5225.647516774646
 10
10597.7317423106
 20
5215.647516795755
 10
10600.78371433252
 20
5215.617093645037
 10
10600.78371433252
 20
5197.652272341569
 10
10597.73056720382
 20
5197.562171725433
 10
10597.72991744747
 20
5187.562171746543
 10
10600.72855954855
 20
5187.652424445237
 10
10609.72855954855
 20
5187.652424445237
 10
10609.73364584899
 20
5248.701078718926
  0
LWPOLYLINE
  5
1E59
330
1F
100
AcDbEntity
  8
0
100
AcDbPolyline
 90
       16
 70
     0
 43
0.0
 10
10633.50413590197
 20
5249.402662551402
 42
0.4284582666080078
 10
10628.50786728555
 20
5254.402661159077
 10
10624.50786728555
 20
5254.402661159077
 10
10621.50802170164
 20
5254.433099172871
 10
10621.50737194529
 20
5244.433099193977
 10
10624.51672597312
 20
5244.402665082893
 10
10624.51672597312
 20
5226.318833234411
 10
10621.50619692591
 20
5226.349099232152
 10
10621.50554716956
 20
5216.34909925326
 10
10624.55751919148
 20
5216.318676102543
 10
10624.55751919149
 20
5198.353854799075
 10
10621.50437206278
 20
5198.263754182939
 10
10621.50372230643
 20
5188.263754204049
 10
10624.50236440751
 20
5188.354006902742
 10
10633.50236440751
 20
5188.354006902742
 10
10633.50745070795
 20
5249.402661176431
  0
LWPOLYLINE
  5
1E5A
330
1F
100
AcDbEntity
  8
0
100
AcDbPolyline
 90
       16
 70
     0
 43
0.0
 10
10654.86750079648
 20
5250.033111153642
 42
0.4284582666080078
 10
10649.87123218007
 20
5255.033109761318
 10
10645.87123218007
 20
5255.033109761318
 10
10642.87138659615
 20
5255.063547775112
 10
10642.87073683981
 20
5245.063547796218
 10
10645.88009086764
 20
5245.033113685134
 10
10645.88009086764
 20
5226.949281836652
 10
10642.86956182042
 20
5226.979547834393
 10
10642.86891206408
 20
5216.979547855501
 10
10645.920884086
 20
5216.949124704783
 10
10645.920884086
 20
5198.984303401315
 10
10642.86773695729
 20
5198.894202785179
 10
10642.86708720095
 20
5188.89420280629
 10
10645.86572930203
 20
5188.984455504983
 10
10654.86572930203
 20
5188.984455504983
 10
10654.87081560247
 20
5250.033109778672
  0
LWPOLYLINE
  5
1E5B
330
1F
100
AcDbEntity
  8
0
100
AcDbPolyline
 90
       16
 70
     0
 43
0.0
 10
10676.27443563551
 20
5250.664845536974
 42
0.4284582666080078
 10
10671.2781670191
 20
5255.66484414465
 10
10667.2781670191
 20
5255.66484414465
 10
10664.27832143518
 20
5255.695282158443
 10
10664.27767167883
 20
5245.69528217955
 10
10667.28702570667
 20
5245.664848068465
 10
10667.28702570667
 20
5227.581016219983
 10
10664.27649665945
 20
5227.611282217725
 10
10664.27584690311
 20
5217.611282238833
 10
10667.32781892503
 20
5217.580859088116
 10
10667.32781892503
 20
5199.616037784647
 10
10664.27467179632
 20
5199.525937168512
 10
10664.27402203997
 20
5189.525937189621
 10
10667.27266414106
 20
5189.616189888315
 10
10676.27266414105
 20
5189.616189888315
 10
10676.27775044149
 20
5250.664844162003
  0
LWPOLYLINE
  5
1E5C
330
1F
100
AcDbEntity
  8
0
100
AcDbPolyline
 90
       16
 70
     0
 43
0.0
 10
10347.45199390815
 20
5250.664845536974
 42
0.4284582666080078
 10
10342.45572529174
 20
5255.66484414465
 10
10338.45572529174
 20
5255.66484414465
 10
10335.45587970783
 20
5255.695282158443
 10
10335.45522995148
 20
5245.69528217955
 10
10338.46458397931
 20
5245.664848068465
 10
10338.46458397931
 20
5227.581016219983
 10
10335.45405493209
 20
5227.611282217725
 10
10335.45340517575
 20
5217.611282238833
 10
10338.50537719767
 20
5217.580859088116
 10
10338.50537719767
 20
5199.616037784647
 10
10335.45223006897
 20
5199.525937168512
 10
10335.45158031262
 20
5189.525937189621
 10
10338.4502224137
 20
5189.616189888315
 10
10347.4502224137
 20
5189.616189888315
 10
10347.45530871413
 20
5250.664844162003
  0
LWPOLYLINE
  5
1E5D
330
1F
100
AcDbEntity
  8
0
100
AcDbPolyline
 90
       16
 70
     0
 43
0.0
 10
10320.11595776836
 20
5250.664845536974
 42
0.4284582666080078
 10
10315.11968915195
 20
5255.66484414465
 10
10311.11968915194
 20
5255.66484414465
 10
10308.11984356803
 20
5255.695282158443
 10
10308.11919381168
 20
5245.69528217955
 10
10311.12854783952
 20
5245.664848068465
 10
10311.12854783952
 20
5227.581016219983
 10
10308.1180187923
 20
5227.611282217725
 10
10308.11736903595
 20
5217.611282238833
 10
10311.16934105788
 20
5217.580859088116
 10
10311.16934105788
 20
5199.616037784647
 10
10308.11619392917
 20
5199.525937168512
 10
10308.11554417282
 20
5189.525937189621
 10
10311.1141862739
 20
5189.616189888315
 10
10320.1141862739
 20
5189.616189888315
 10
10320.11927257434
 20
5250.664844162003
  0
LWPOLYLINE
  5
1E5E
330
1F
100
AcDbEntity
  8
0
100
AcDbPolyline
 90
       16
 70
     0
 43
0.0
 10
10293.51871675833
 20
5250.664845536974
 42
0.4284582666080078
 10
10288.52244814191
 20
5255.66484414465
 10
10284.52244814191
 20
5255.66484414465
 10
10281.522602558
 20
5255.695282158443
 10
10281.52195280165
 20
5245.69528217955
 10
10284.53130682949
 20
5245.664848068465
 10
10284.53130682949
 20
5227.581016219983
 10
10281.52077778227
 20
5227.611282217725
 10
10281.52012802592
 20
5217.611282238833
 10
10284.57210004785
 20
5217.580859088116
 10
10284.57210004785
 20
5199.616037784647
 10
10281.51895291914
 20
5199.525937168512
 10
10281.51830316279
 20
5189.525937189621
 10
10284.51694526387
 20
5189.616189888315
 10
10293.51694526387
 20
5189.616189888315
 10
10293.52203156431
 20
5250.664844162003
  0
LWPOLYLINE
  5
1E5F
330
1F
100
AcDbEntity
  8
0
100
AcDbPolyline
 90
       16
 70
     0
 43
0.0
 10
10268.3990984467
 20
5250.915967988198
 42
0.4284582666080078
 10
10263.40282983029
 20
5255.915966595875
 10
10259.40282983029
 20
5255.915966595875
 10
10256.40298424637
 20
5255.946404609667
 10
10256.40233449002
 20
5245.946404630775
 10
10259.41168851786
 20
5245.915970519689
 10
10259.41168851786
 20
5227.832138671208
 10
10256.40115947064
 20
5227.862404668949
 10
10256.40050971429
 20
5217.862404690058
 10
10259.45248173622
 20
5217.83198153934
 10
10259.45248173622
 20
5199.867160235871
 10
10256.39933460751
 20
5199.777059619736
 10
10256.39868485116
 20
5189.777059640846
 10
10259.39732695224
 20
5189.867312339539
 10
10268.39732695224
 20
5189.867312339539
 10
10268.40241325268
 20
5250.915966613228
  0
LWPOLYLINE
  5
1E60
330
1F
100
AcDbEntity
  8
0
100
AcDbPolyline
 90
        3
 70
     1
 43
0.0
 10
10547.27414157687
 20
5089.260665496434
 10
10565.27414157687
 20
5089.260665496433
 10
10547.27414157687
 20
5071.260665496434
  0
LWPOLYLINE
  5
1E61
330
1F
100
AcDbEntity
  8
0
100
AcDbPolyline
 90
        3
 70
     1
 43
0.0
 10
10569.24352435633
 20
5068.969715330114
 10
10551.24352435633
 20
5068.969715330114
 10
10569.24352435633
 20
5086.969715330114
  0
LWPOLYLINE
  5
1E62
330
1F
100
AcDbEntity
  8
0
100
AcDbPolyline
 90
        3
 70
     1
 43
0.0
 10
10547.04630434186
 20
5063.994899674698
 10
10565.04630434186
 20
5063.994899674697
 10
10547.04630434186
 20
5045.994899674698
  0
LWPOLYLINE
  5
1E63
330
1F
100
AcDbEntity
  8
0
100
AcDbPolyline
 90
        3
 70
     1
 43
0.0
 10
10569.01568712133
 20
5043.703949508378
 10
10551.01568712133
 20
5043.703949508378
 10
10569.01568712133
 20
5061.703949508378
  0
LWPOLYLINE
  5
1E64
330
1F
100
AcDbEntity
  8
0
100
AcDbPolyline
 90
        3
 70
     1
 43
0.0
 10
10609.55485206232
 20
5151.541375981885
 10
10627.55485206232
 20
5151.541375981885
 10
10609.55485206232
 20
5133.541375981885
  0
LWPOLYLINE
  5
1E65
330
1F
100
AcDbEntity
  8
0
100
AcDbPolyline
 90
        3
 70
     1
 43
0.0
 10
10631.52423484178
 20
5131.250425815566
 10
10613.52423484178
 20
5131.250425815566
 10
10631.52423484178
 20
5149.250425815566
  0
LWPOLYLINE
  5
1E66
330
1F
100
AcDbEntity
  8
0
100
AcDbPolyline
 90
        3
 70
     1
 43
0.0
 10
10609.32701482732
 20
5126.275610160149
 10
10627.32701482732
 20
5126.275610160149
 10
10609.32701482732
 20
5108.275610160149
  0
LWPOLYLINE
  5
1E67
330
1F
100
AcDbEntity
  8
0
100
AcDbPolyline
 90
        3
 70
     1
 43
0.0
 10
10631.29639760678
 20
5105.98465999383
 10
10613.29639760678
 20
5105.98465999383
 10
10631.29639760678
 20
5123.98465999383
  0
LWPOLYLINE
  5
1E68
330
1F
100
AcDbEntity
  8
0
100
AcDbPolyline
 90
        3
 70
     1
 43
0.0
 10
10640.60983646055
 20
5135.895901214326
 10
10658.60983646055
 20
5135.895901214325
 10
10640.60983646055
 20
5117.895901214327
  0
LWPOLYLINE
  5
1E69
330
1F
100
AcDbEntity
  8
0
100
AcDbPolyline
 90
        3
 70
     1
 43
0.0
 10
10662.57921924001
 20
5115.604951048007
 10
10644.57921924001
 20
5115.604951048007
 10
10662.57921924001
 20
5133.604951048007
  0
LWPOLYLINE
  5
1E6A
330
1F
100
AcDbEntity
  8
0
100
AcDbPolyline
 90
        3
 70
     1
 43
0.0
 10
10640.38199922555
 20
5110.630135392591
 10
10658.38199922555
 20
5110.63013539259
 10
10640.38199922555
 20
5092.630135392591
  0
LWPOLYLINE
  5
1E6B
330
1F
100
AcDbEntity
  8
0
100
AcDbPolyline
 90
        3
 70
     1
 43
0.0
 10
10662.35138200501
 20
5090.339185226271
 10
10644.35138200501
 20
5090.339185226271
 10
10662.35138200501
 20
5108.339185226271
  0
LWPOLYLINE
  5
1E6C
330
1F
100
AcDbEntity
  8
0
100
AcDbPolyline
 90
        4
 70
     1
 43
0.0
 10
10843.36410270629
 20
5150.631423988059
 10
10843.36410270629
 20
5128.63142398806
 10
10796.36410270629
 20
5128.63142398806
 10
10796.36410270629
 20
5150.631423988059
  0
LWPOLYLINE
  5
1E6D
330
1F
100
AcDbEntity
  8
0
100
AcDbPolyline
 90
        4
 70
     1
 43
0.0
 10
10876.21610817455
 20
5122.279057823665
 10
10876.21610817455
 20
5100.279057823666
 10
10829.21610817455
 20
5100.279057823666
 10
10829.21610817455
 20
5122.279057823665
  0
LWPOLYLINE
  5
1E6F
330
1F
100
AcDbEntity
  8
0
100
AcDbPolyline
 90
        4
 70
     1
 43
0.0
 10
10882.93581887186
 20
5086.46554925167
 10
10882.93581887186
 20
5064.465549251671
 10
10835.93581887186
 20
5064.465549251671
 10
10835.93581887186
 20
5086.46554925167
  0
LWPOLYLINE
  5
1E70
330
1F
100
AcDbEntity
  8
0
100
AcDbPolyline
 90
        4
 70
     1
 43
0.0
 10
10850.0838134036
 20
5052.144271940697
 10
10850.0838134036
 20
5030.144271940697
 10
10803.0838134036
 20
5030.144271940697
 10
10803.0838134036
 20
5052.144271940697
  0
LWPOLYLINE
  5
1E71
330
1F
100
AcDbEntity
  8
0
100
AcDbPolyline
 90
        4
 70
     1
 43
0.0
 10
10809.01880656828
 20
5115.564031046577
 10
10809.01880656828
 20
5093.564031046577
 10
10762.01880656828
 20
5093.564031046577
 10
10762.01880656828
 20
5115.564031046577
  0
LWPOLYLINE
  5
1E72
330
1F
100
AcDbEntity
  8
0
100
AcDbPolyline
 90
        4
 70
     1
 43
0.0
 10
10809.01880656828
 20
5084.973317990648
 10
10809.01880656828
 20
5062.973317990649
 10
10762.01880656828
 20
5062.973317990649
 10
10762.01880656828
 20
5084.973317990648
  0
ENDSEC
  0
SECTION
  2
OBJECTS
  0
DICTIONARY
  5
C
330
0
100
AcDbDictionary
281
     1
  3
ACAD_CIP_PREVIOUS_PRODUCT_INFO
350
216
  3
ACAD_COLOR
350
6B
  3
ACAD_DETAILVIEWSTYLE
350
21B
  3
ACAD_GROUP
350
D
  3
ACAD_LAYOUT
350
1A
  3
ACAD_MATERIAL
350
6A
  3
ACAD_MLEADERSTYLE
350
12D
  3
ACAD_MLINESTYLE
350
17
  3
ACAD_PLOTSETTINGS
350
19
  3
ACAD_PLOTSTYLENAME
350
E
  3
ACAD_SCALELIST
350
10C
  3
ACAD_SECTIONVIEWSTYLE
350
219
  3
ACAD_TABLESTYLE
350
7E
  3
ACAD_VISUALSTYLE
350
EF
  3
ACDB_RECOMPOSE_DATA
350
1EA4
  3
AcDbVariableDictionary
350
5E
  0
DICTIONARY
  5
1FF
330
2
100
AcDbDictionary
280
     1
281
     1
  3
ACAD_LAYERSTATES
360
200
  0
DICTIONARY
  5
13C
330
10
100
AcDbDictionary
280
     1
281
     1
  0
DICTIONARY
  5
1CE
330
1F
100
AcDbDictionary
280
     1
281
     1
  3
ACAD_SORTENTS
360
1B7E
  0
XRECORD
  5
216
102
{ACAD_REACTORS
330
C
102
}
330
C
100
AcDbXrecord
280
     1
300
ACD
300
2021
300

  0
DICTIONARY
  5
6B
102
{ACAD_REACTORS
330
C
102
}
330
C
100
AcDbDictionary
281
     1
  0
DICTIONARY
  5
21B
102
{ACAD_REACTORS
330
C
102
}
330
C
100
AcDbDictionary
281
     1
  3
Metric50
350
21C
  0
DICTIONARY
  5
D
102
{ACAD_REACTORS
330
C
102
}
330
C
100
AcDbDictionary
281
     1
  0
DICTIONARY
  5
1A
102
{ACAD_REACTORS
330
C
102
}
330
C
100
AcDbDictionary
281
     1
  3
Layout1
350
D3
  3
Layout2
350
D7
  3
Model
350
22
  0
DICTIONARY
  5
6A
102
{ACAD_REACTORS
330
C
102
}
330
C
100
AcDbDictionary
281
     1
  3
ByBlock
350
ED
  3
ByLayer
350
EC
  3
Global
350
EE
  0
DICTIONARY
  5
12D
102
{ACAD_REACTORS
330
C
102
}
330
C
100
AcDbDictionary
281
     1
  3
Anotativo
350
13B
  3
Standard
350
12E
  0
DICTIONARY
  5
17
102
{ACAD_REACTORS
330
C
102
}
330
C
100
AcDbDictionary
281
     1
  3
Standard
350
18
  0
DICTIONARY
  5
19
102
{ACAD_REACTORS
330
C
102
}
330
C
100
AcDbDictionary
281
     1
  0
ACDBDICTIONARYWDFLT
  5
E
102
{ACAD_REACTORS
330
C
102
}
330
C
100
AcDbDictionary
281
     1
  3
Normal
350
F
100
AcDbDictionaryWithDefault
340
F
  0
DICTIONARY
  5
10C
102
{ACAD_REACTORS
330
C
102
}
330
C
100
AcDbDictionary
281
     1
  3
A0
350
10D
  3
A1
350
1BE
  3
A2
350
1BF
  3
A3
350
1C0
  3
A4
350
1C1
  3
A5
350
1C2
  3
A6
350
1C3
  3
A7
350
1C4
  3
A8
350
1C5
  3
A9
350
1C6
  3
B0
350
1C7
  3
B1
350
1C8
  3
B2
350
1C9
  3
B3
350
1CA
  3
B4
350
1CB
  3
B5
350
1CC
  3
B6
350
1CD
  0
DICTIONARY
  5
219
102
{ACAD_REACTORS
330
C
102
}
330
C
100
AcDbDictionary
281
     1
  3
Metric50
350
21A
  0
DICTIONARY
  5
7E
102
{ACAD_REACTORS
330
C
102
}
330
C
100
AcDbDictionary
281
     1
  3
Standard
350
7F
  0
DICTIONARY
  5
EF
102
{ACAD_REACTORS
330
C
102
}
330
C
100
AcDbDictionary
281
     1
  3
2dWireframe
350
F5
  3
Basic
350
F4
  3
Brighten
350
FB
  3
ColorChange
350
FF
  3
Conceptual
350
F8
  3
Dim
350
FA
  3
EdgeColorOff
350
1E6
  3
Facepattern
350
FE
  3
Flat
350
F0
  3
FlatWithEdges
350
F1
  3
Gouraud
350
F2
  3
GouraudWithEdges
350
F3
  3
Hidden
350
F7
  3
JitterOff
350
1E4
  3
Linepattern
350
FD
  3
OverhangOff
350
1E5
  3
Realistic
350
F9
  3
Shaded
350
1F3
  3
Shaded with edges
350
1F2
  3
Shades of Gray
350
1EF
  3
Sketchy
350
1F0
  3
Thicken
350
FC
  3
Wireframe
350
F6
  3
X-Ray
350
1F1
  0
XRECORD
  5
1EA4
102
{ACAD_REACTORS
330
C
102
}
330
C
100
AcDbXrecord
280
     1
 90
        1
330
7F
  0
DICTIONARY
  5
5E
102
{ACAD_REACTORS
330
C
102
}
330
C
100
AcDbDictionary
281
     1
  3
CANNOSCALE
350
146
  3
CENTEREXE
350
259
  3
CENTERLTYPEFILE
350
25A
  3
CMLEADERSTYLE
350
145
  3
CTABLESTYLE
350
84
  3
CVIEWDETAILSTYLE
350
227
  3
CVIEWSECTIONSTYLE
350
228
  3
DIMASSOC
350
5F
  3
HIDETEXT
350
63
  3
LAYEREVAL
350
1AE
  3
LAYERNOTIFY
350
1AF
  0
DICTIONARY
  5
200
102
{ACAD_REACTORS
330
1FF
102
}
330
1FF
100
AcDbDictionary
281
     1
  0
SORTENTSTABLE
  5
1B7E
102
{ACAD_REACTORS
330
1CE
102
}
330
1CE
100
AcDbSortentsTable
330
1F
331
1A5B
  5
1A85
331
1A5C
  5
1A86
331
1A5D
  5
1A87
331
1A5E
  5
1A88
331
1A5F
  5
1A89
331
1A60
  5
1A8A
331
1A61
  5
1A8B
331
1A62
  5
1A8C
331
1A6B
  5
1A94
  0
ACDBDETAILVIEWSTYLE
  5
21C
102
{ACAD_REACTORS
330
21B
102
}
330
21B
100
AcDbModelDocViewStyle
 70
     0
  3
Metric50
290
     0
300
Metric50
 90
        0
100
AcDbDetailViewStyle
 70
     0
 71
     0
 90
        3
 71
     1
340
11
 62
   256
 40
5.0
340
0
 62
   256
 40
5.0
300

 40
0.0
280
     1
 71
     2
340
16
 90
       25
 62
   256
 71
     3
340
11
 62
   256
 40
5.0
 90
        0
 40
15.0
 90
        1
300
%<\AcVar ViewDetailId>% (%<\AcVar ViewScale \f "%sn">%)
 71
     4
340
16
 90
       25
 62
   256
340
16
 90
       25
 62
   256
280
     0
  0
LAYOUT
  5
D3
102
{ACAD_REACTORS
330
1A
102
}
330
1A
100
AcDbPlotSettings
  1

  2
C:\Documents and Settings\basas\Application Data\Autodesk\AutoCAD 2005\R16.1\enu\plotters\Default Windows System Printer.pc3
  4

  6

 40
0.0
 41
0.0
 42
0.0
 43
0.0
 44
0.0
 45
0.0
 46
0.0
 47
0.0
 48
0.0
 49
0.0
140
0.0
141
0.0
142
1.0
143
1.0
 70
   688
 72
     0
 73
     0
 74
     5
  7

 75
    16
147
1.0
 76
     0
 77
     2
 78
   300
148
0.0
149
0.0
100
AcDbLayout
  1
Layout1
 70
     1
 71
     1
 10
0.0
 20
0.0
 11
12.0
 21
9.0
 12
0.0
 22
0.0
 32
0.0
 14
0.0
 24
0.0
 34
0.0
 15
0.0
 25
0.0
 35
0.0
146
0.0
 13
0.0
 23
0.0
 33
0.0
 16
1.0
 26
0.0
 36
0.0
 17
0.0
 27
1.0
 37
0.0
 76
     0
330
D2
  0
LAYOUT
  5
D7
102
{ACAD_REACTORS
330
1A
102
}
330
1A
100
AcDbPlotSettings
  1

  2
C:\Documents and Settings\basas\Application Data\Autodesk\AutoCAD 2005\R16.1\enu\plotters\Default Windows System Printer.pc3
  4

  6

 40
0.0
 41
0.0
 42
0.0
 43
0.0
 44
0.0
 45
0.0
 46
0.0
 47
0.0
 48
0.0
 49
0.0
140
0.0
141
0.0
142
1.0
143
1.0
 70
   688
 72
     0
 73
     0
 74
     5
  7

 75
    16
147
1.0
 76
     0
 77
     2
 78
   300
148
0.0
149
0.0
100
AcDbLayout
  1
Layout2
 70
     1
 71
     2
 10
0.0
 20
0.0
 11
12.0
 21
9.0
 12
0.0
 22
0.0
 32
0.0
 14
0.0
 24
0.0
 34
0.0
 15
0.0
 25
0.0
 35
0.0
146
0.0
 13
0.0
 23
0.0
 33
0.0
 16
1.0
 26
0.0
 36
0.0
 17
0.0
 27
1.0
 37
0.0
 76
     0
330
D6
  0
LAYOUT
  5
22
102
{ACAD_XDICTIONARY
360
205
102
}
102
{ACAD_REACTORS
330
1A
102
}
330
1A
100
AcDbPlotSettings
  1

  2
none_device
  4
ISO_A4_(210.00_x_297.00_MM)
  6

 40
7.5
 41
20.0
 42
7.5
 43
20.0
 44
210.0
 45
297.0
 46
11.54999923706054
 47
-13.65000009536743
 48
0.0
 49
0.0
140
0.0
141
0.0
142
1.0
143
8.704084754739808
 70
 11952
 72
     1
 73
     0
 74
     0
  7

 75
     0
147
0.1148885871608098
 76
     0
 77
     2
 78
   300
148
0.0
149
0.0
100
AcDbLayout
  1
Model
 70
     1
 71
     0
 10
0.0
 20
0.0
 11
12.0
 21
9.0
 12
0.0
 22
0.0
 32
0.0
 14
0.0
 24
0.0
 34
0.0
 15
0.0
 25
0.0
 35
0.0
146
0.0
 13
0.0
 23
0.0
 33
0.0
 16
1.0
 26
0.0
 36
0.0
 17
0.0
 27
1.0
 37
0.0
 76
     0
330
1F
331
EA
1001
ACAD_PSEXT
1000
None
1000
None
1000
Not applicable
1000
The layout will not be plotted unless a new plotter configuration name is selected.
1070
     0
  0
MATERIAL
  5
ED
102
{ACAD_XDICTIONARY
360
1F9
102
}
102
{ACAD_REACTORS
330
6A
102
}
330
6A
100
AcDbMaterial
  1
ByBlock
 94
       63
  0
MATERIAL
  5
EC
102
{ACAD_XDICTIONARY
360
1F7
102
}
102
{ACAD_REACTORS
330
6A
102
}
330
6A
100
AcDbMaterial
  1
ByLayer
 94
       63
  0
MATERIAL
  5
EE
102
{ACAD_XDICTIONARY
360
173
102
}
102
{ACAD_REACTORS
330
6A
102
}
330
6A
100
AcDbMaterial
  1
Global
 43
0.0007999999797903
 43
0.0
 43
0.0
 43
0.0
 43
0.0
 43
0.0007999999797903
 43
0.0
 43
0.0
 43
0.0
 43
0.0
 43
1.0
 43
0.0
 43
0.0
 43
0.0
 43
0.0
 43
1.0
 49
0.0007999999797903
 49
0.0
 49
0.0
 49
0.0
 49
0.0
 49
0.0007999999797903
 49
0.0
 49
0.0
 49
0.0
 49
0.0
 49
1.0
 49
0.0
 49
0.0
 49
0.0
 49
0.0
 49
1.0
142
0.0007999999797903
142
0.0
142
0.0
142
0.0
142
0.0
142
0.0007999999797903
142
0.0
142
0.0
142
0.0
142
0.0
142
1.0
142
0.0
142
0.0
142
0.0
142
0.0
142
1.0
144
0.0007999999797903
144
0.0
144
0.0
144
0.0
144
0.0
144
0.0007999999797903
144
0.0
144
0.0
144
0.0
144
0.0
144
1.0
144
0.0
144
0.0
144
0.0
144
0.0
144
1.0
 94
       63
1001
ACAD
1070
    -1
1070
     3
1070
     0
1000

1071
        0
1070
     0
  0
MLEADERSTYLE
  5
13B
102
{ACAD_REACTORS
330
12D
102
}
330
12D
100
AcDbMLeaderStyle
179
     2
170
     2
171
     1
172
     0
 90
        2
 40
0.0
 41
0.0
173
     1
 91
-1056964608
340
14
 92
       -2
290
     1
 42
2.0
291
     1
 43
8.0
  3
Standard
 44
4.0
300

342
11
174
     1
178
     1
175
     1
176
     0
 93
-1056964608
 45
4.0
292
     0
297
     0
 46
4.0
 94
-1056964608
 47
1.0
 49
1.0
140
1.0
293
     1
141
0.0
294
     1
177
     0
142
1.0
295
     0
296
     1
143
3.75
271
     0
272
     9
273
     9
298
     0
  0
MLEADERSTYLE
  5
12E
102
{ACAD_REACTORS
330
12D
102
}
330
12D
100
AcDbMLeaderStyle
179
     2
170
     2
171
     1
172
     0
 90
        2
 40
0.0
 41
0.0
173
     1
 91
-1056964608
340
14
 92
       -2
290
     1
 42
2.0
291
     1
 43
8.0
  3
Standard
 44
4.0
300

342
11
174
     1
178
     1
175
     1
176
     0
 93
-1056964608
 45
4.0
292
     0
297
     0
 46
4.0
 94
-1056964608
 47
1.0
 49
1.0
140
1.0
293
     1
141
0.0
294
     1
177
     0
142
1.0
295
     0
296
     0
143
3.75
271
     0
272
     9
273
     9
298
     0
  0
MLINESTYLE
  5
18
102
{ACAD_REACTORS
330
17
102
}
330
17
100
AcDbMlineStyle
  2
STANDARD
 70
     0
  3

 62
   256
 51
90.0
 52
90.0
 71
     2
 49
0.5
 62
   256
  6
BYLAYER
 49
-0.5
 62
   256
  6
BYLAYER
  0
ACDBPLACEHOLDER
  5
F
102
{ACAD_REACTORS
330
E
102
}
330
E
  0
SCALE
  5
10D
102
{ACAD_REACTORS
330
10C
102
}
330
10C
100
AcDbScale
 70
     0
300
1:1
140
1.0
141
1.0
290
     1
  0
SCALE
  5
1BE
102
{ACAD_REACTORS
330
10C
102
}
330
10C
100
AcDbScale
 70
     0
300
1:2
140
1.0
141
2.0
290
     0
  0
SCALE
  5
1BF
102
{ACAD_REACTORS
330
10C
102
}
330
10C
100
AcDbScale
 70
     0
300
1:4
140
1.0
141
4.0
290
     0
  0
SCALE
  5
1C0
102
{ACAD_REACTORS
330
10C
102
}
330
10C
100
AcDbScale
 70
     0
300
1:5
140
1.0
141
5.0
290
     0
  0
SCALE
  5
1C1
102
{ACAD_REACTORS
330
10C
102
}
330
10C
100
AcDbScale
 70
     0
300
1:8
140
1.0
141
8.0
290
     0
  0
SCALE
  5
1C2
102
{ACAD_REACTORS
330
10C
102
}
330
10C
100
AcDbScale
 70
     0
300
1:10
140
1.0
141
10.0
290
     0
  0
SCALE
  5
1C3
102
{ACAD_REACTORS
330
10C
102
}
330
10C
100
AcDbScale
 70
     0
300
1:16
140
1.0
141
16.0
290
     0
  0
SCALE
  5
1C4
102
{ACAD_REACTORS
330
10C
102
}
330
10C
100
AcDbScale
 70
     0
300
1:20
140
1.0
141
20.0
290
     0
  0
SCALE
  5
1C5
102
{ACAD_REACTORS
330
10C
102
}
330
10C
100
AcDbScale
 70
     0
300
1:30
140
1.0
141
30.0
290
     0
  0
SCALE
  5
1C6
102
{ACAD_REACTORS
330
10C
102
}
330
10C
100
AcDbScale
 70
     0
300
1:40
140
1.0
141
40.0
290
     0
  0
SCALE
  5
1C7
102
{ACAD_REACTORS
330
10C
102
}
330
10C
100
AcDbScale
 70
     0
300
1:50
140
1.0
141
50.0
290
     0
  0
SCALE
  5
1C8
102
{ACAD_REACTORS
330
10C
102
}
330
10C
100
AcDbScale
 70
     0
300
1:100
140
1.0
141
100.0
290
     0
  0
SCALE
  5
1C9
102
{ACAD_REACTORS
330
10C
102
}
330
10C
100
AcDbScale
 70
     0
300
2:1
140
2.0
141
1.0
290
     0
  0
SCALE
  5
1CA
102
{ACAD_REACTORS
330
10C
102
}
330
10C
100
AcDbScale
 70
     0
300
4:1
140
4.0
141
1.0
290
     0
  0
SCALE
  5
1CB
102
{ACAD_REACTORS
330
10C
102
}
330
10C
100
AcDbScale
 70
     0
300
8:1
140
8.0
141
1.0
290
     0
  0
SCALE
  5
1CC
102
{ACAD_REACTORS
330
10C
102
}
330
10C
100
AcDbScale
 70
     0
300
10:1
140
10.0
141
1.0
290
     0
  0
SCALE
  5
1CD
102
{ACAD_REACTORS
330
10C
102
}
330
10C
100
AcDbScale
 70
     0
300
100:1
140
100.0
141
1.0
290
     0
  0
ACDBSECTIONVIEWSTYLE
  5
21A
102
{ACAD_REACTORS
330
219
102
}
330
219
100
AcDbModelDocViewStyle
 70
     0
  3
Metric50
290
     0
300
Metric50
 90
        0
100
AcDbSectionViewStyle
 70
     0
 71
     0
 90
      102
 71
     1
340
11
 62
   256
 40
5.0
340
0
340
0
 62
   256
 40
5.0
300
I, O, Q, S, X, Z
 40
10.0
 90
        0
 40
2.5
 90
        0
 71
     2
340
16
 90
       25
 62
   256
340
16
 90
       50
 62
   256
 40
5.0
 40
2.5
 40
5.0
 71
     3
340
11
 62
   256
 40
5.0
 90
        0
 40
15.0
 90
        1
300
%<\AcVar ViewSectionStartId>%-%<\AcVar ViewSectionEndId>% (%<\AcVar ViewScale \f "%sn">%)
 71
     4
 62
   256
 62
   257
300
ANSI31
 40
1.0
 90
        0
290
     0
290
     0
 90
        6
 40
0.0
 40
1.570796326794896
 40
0.2617993877991494
 40
1.308996938995747
 40
-0.2617993877991494
 40
1.832595714594045
  0
TABLESTYLE
  5
7F
102
{ACAD_XDICTIONARY
360
162
102
}
102
{ACAD_REACTORS
330
7E
102
}
330
7E
100
AcDbTableStyle
280
     0
  3
Standard
 70
     0
 71
     0
 40
1.5
 41
1.5
280
     0
281
     0
  7
Standard
140
4.5
170
     2
 62
     0
 63
     7
283
     0
 90
      512
 91
        0
  1

274
    -2
284
     1
 64
     0
275
    -2
285
     1
 65
     0
276
    -2
286
     1
 66
     0
277
    -2
287
     1
 67
     0
278
    -2
288
     1
 68
     0
279
    -2
289
     1
 69
     0
  7
Standard
140
6.0
170
     5
 62
     0
 63
     7
283
     0
 90
      512
 91
        0
  1

274
    -2
284
     1
 64
     0
275
    -2
285
     1
 65
     0
276
    -2
286
     1
 66
     0
277
    -2
287
     1
 67
     0
278
    -2
288
     1
 68
     0
279
    -2
289
     1
 69
     0
  7
Standard
140
4.5
170
     5
 62
     0
 63
     7
283
     0
 90
      512
 91
        0
  1

274
    -2
284
     1
 64
     0
275
    -2
285
     1
 65
     0
276
    -2
286
     1
 66
     0
277
    -2
287
     1
 67
     0
278
    -2
288
     1
 68
     0
279
    -2
289
     1
 69
     0
  0
VISUALSTYLE
  5
F5
102
{ACAD_REACTORS
330
EF
102
}
330
EF
100
AcDbVisualStyle
  2
2dWireframe
 70
     4
177
     3
291
     0
 70
    58
 90
        0
176
     1
 90
        2
176
     1
 90
        1
176
     1
 90
        0
176
     1
 40
0.6
176
     1
 40
30.0
176
     1
 62
     7
420
 16777215
176
     1
 90
        1
176
     1
 90
        4
176
     1
 62
     7
176
     1
 62
   257
176
     1
 90
        1
176
     1
 90
        1
176
     1
 40
1.0
176
     1
 90
        0
176
     1
 62
   257
176
     1
 40
1.0
176
     1
 90
        1
176
     1
 90
        6
176
     1
 90
        2
176
     1
 62
     7
176
     1
 90
        5
176
     1
 90
        0
176
     1
 90
        0
176
     1
290
     0
176
     1
 90
        1
176
     1
 40
0.0
176
     1
 90
        0
176
     1
290
     1
176
     1
290
     1
176
     1
290
     0
176
     1
290
     0
176
     1
290
     0
176
     1
290
     0
176
     1
290
     0
176
     1
290
     0
176
     1
290
     0
176
     1
 90
       50
176
     1
 40
0.0
176
     1
 40
1.0
176
     1
 90
        0
176
     1
 62
    18
176
     1
 90
       50
176
     1
 90
        3
176
     1
 62
     5
420
      255
176
     1
290
     0
176
     1
 90
       50
176
     1
 90
       50
176
     1
 90
       50
176
     1
290
     0
176
     1
 90
       50
176
     1
 62
   256
176
     0
 40
1.0
176
     0
 90
        2
176
     1
  1
strokes_ogs.tif
176
     1
290
     0
176
     1
 40
1.0
176
     1
 40
1.0
176
     1
  0
VISUALSTYLE
  5
F4
102
{ACAD_REACTORS
330
EF
102
}
330
EF
100
AcDbVisualStyle
  2
Basic
 70
     7
177
     3
291
     1
 70
    58
 90
        1
176
     1
 90
        0
176
     1
 90
        1
176
     1
 90
        0
176
     1
 40
0.6
176
     1
 40
30.0
176
     1
 62
     7
420
 16777215
176
     1
 90
        0
176
     1
 90
        4
176
     1
 62
     7
176
     1
 62
   257
176
     1
 90
        1
176
     1
 90
        1
176
     1
 40
1.0
176
     1
 90
        8
176
     1
 62
     7
176
     1
 40
1.0
176
     1
 90
        1
176
     1
 90
        6
176
     1
 90
        2
176
     1
 62
     7
176
     1
 90
        5
176
     1
 90
        0
176
     1
 90
        0
176
     1
290
     0
176
     1
 90
        1
176
     1
 40
0.0
176
     1
 90
        0
176
     1
290
     0
176
     1
290
     1
176
     1
290
     1
176
     1
290
     0
176
     1
290
     0
176
     1
290
     0
176
     1
290
     0
176
     1
290
     0
176
     1
290
     0
176
     1
 90
       50
176
     1
 40
0.0
176
     1
 40
1.0
176
     1
 90
        0
176
     1
 62
    18
176
     1
 90
       50
176
     1
 90
        3
176
     1
 62
     5
420
      255
176
     1
290
     0
176
     1
 90
       50
176
     1
 90
       50
176
     1
 90
       50
176
     1
290
     0
176
     1
 90
       50
176
     1
 62
   256
176
     0
 40
1.0
176
     0
 90
        2
176
     1
  1
strokes_ogs.tif
176
     1
290
     0
176
     1
 40
1.0
176
     1
 40
1.0
176
     1
  0
VISUALSTYLE
  5
FB
102
{ACAD_REACTORS
330
EF
102
}
330
EF
100
AcDbVisualStyle
  2
Brighten
 70
    12
177
     3
291
     1
 70
    58
 90
        2
176
     1
 90
        2
176
     1
 90
        1
176
     1
 90
        0
176
     1
 40
0.6
176
     1
 40
30.0
176
     1
 62
     7
420
 16777215
176
     1
 90
        1
176
     1
 90
        4
176
     1
 62
     7
176
     1
 62
   257
176
     1
 90
        1
176
     1
 90
        1
176
     1
 40
1.0
176
     1
 90
        8
176
     1
 62
     7
176
     1
 40
1.0
176
     1
 90
        1
176
     1
 90
        6
176
     1
 90
        2
176
     1
 62
     7
176
     1
 90
        5
176
     1
 90
        0
176
     1
 90
        0
176
     1
290
     0
176
     1
 90
        1
176
     1
 40
50.0
176
     1
 90
        0
176
     1
290
     0
176
     1
290
     1
176
     1
290
     1
176
     1
290
     0
176
     1
290
     0
176
     1
290
     0
176
     1
290
     0
176
     1
290
     0
176
     1
290
     0
176
     1
 90
       50
176
     1
 40
0.0
176
     1
 40
1.0
176
     1
 90
        0
176
     1
 62
    18
176
     1
 90
       50
176
     1
 90
        3
176
     1
 62
     5
420
      255
176
     1
290
     0
176
     1
 90
       50
176
     1
 90
       50
176
     1
 90
       50
176
     1
290
     0
176
     1
 90
       50
176
     1
 62
   256
176
     0
 40
1.0
176
     0
 90
        2
176
     1
  1
strokes_ogs.tif
176
     1
290
     0
176
     1
 40
1.0
176
     1
 40
1.0
176
     1
  0
VISUALSTYLE
  5
FF
102
{ACAD_REACTORS
330
EF
102
}
330
EF
100
AcDbVisualStyle
  2
ColorChange
 70
    16
177
     3
291
     1
 70
    58
 90
        2
176
     1
 90
        2
176
     1
 90
        3
176
     1
 90
        0
176
     1
 40
0.6
176
     1
 40
30.0
176
     1
 62
     8
420
  8421504
176
     1
 90
        1
176
     1
 90
        4
176
     1
 62
     7
176
     1
 62
   257
176
     1
 90
        1
176
     1
 90
        1
176
     1
 40
1.0
176
     1
 90
        8
176
     1
 62
     8
420
  8421504
176
     1
 40
1.0
176
     1
 90
        1
176
     1
 90
        6
176
     1
 90
        2
176
     1
 62
     7
176
     1
 90
        5
176
     1
 90
        0
176
     1
 90
        0
176
     1
290
     0
176
     1
 90
        1
176
     1
 40
0.0
176
     1
 90
        0
176
     1
290
     0
176
     1
290
     1
176
     1
290
     1
176
     1
290
     0
176
     1
290
     0
176
     1
290
     0
176
     1
290
     0
176
     1
290
     0
176
     1
290
     0
176
     1
 90
       50
176
     1
 40
0.0
176
     1
 40
1.0
176
     1
 90
        0
176
     1
 62
    18
176
     1
 90
       50
176
     1
 90
        3
176
     1
 62
     5
420
      255
176
     1
290
     0
176
     1
 90
       50
176
     1
 90
       50
176
     1
 90
       50
176
     1
290
     0
176
     1
 90
       50
176
     1
 62
   256
176
     0
 40
1.0
176
     0
 90
        2
176
     1
  1
strokes_ogs.tif
176
     1
290
     0
176
     1
 40
1.0
176
     1
 40
1.0
176
     1
  0
VISUALSTYLE
  5
F8
102
{ACAD_REACTORS
330
EF
102
}
330
EF
100
AcDbVisualStyle
  2
Conceptual
 70
     9
177
     3
291
     0
 70
    58
 90
        3
176
     1
 90
        2
176
     1
 90
        1
176
     1
 90
        0
176
     1
 40
0.6
176
     1
 40
30.0
176
     1
 62
     7
420
 16777215
176
     1
 90
        2
176
     1
 90
        2
176
     1
 62
     7
176
     1
 62
   257
176
     1
 90
        1
176
     1
 90
        1
176
     1
 40
40.0
176
     1
 90
        8
176
     1
 62
     7
176
     1
 40
1.0
176
     1
 90
        1
176
     1
 90
        6
176
     1
 90
        2
176
     1
 62
     7
176
     1
 90
        3
176
     1
 90
        0
176
     1
 90
        0
176
     1
290
     0
176
     1
 90
        1
176
     1
 40
0.0
176
     1
 90
        0
176
     1
290
     0
176
     1
290
     1
176
     1
290
     1
176
     1
290
     0
176
     1
290
     0
176
     1
290
     0
176
     1
290
     0
176
     1
290
     0
176
     1
290
     0
176
     1
 90
       50
176
     1
 40
0.0
176
     1
 40
1.0
176
     1
 90
        0
176
     1
 62
    18
176
     1
 90
       50
176
     1
 90
        3
176
     1
 62
     5
420
      255
176
     1
290
     0
176
     1
 90
       50
176
     1
 90
       50
176
     1
 90
       50
176
     1
290
     0
176
     1
 90
       50
176
     1
 62
   256
176
     0
 40
1.0
176
     0
 90
        2
176
     1
  1
strokes_ogs.tif
176
     1
290
     0
176
     1
 40
1.0
176
     1
 40
1.0
176
     1
  0
VISUALSTYLE
  5
FA
102
{ACAD_REACTORS
330
EF
102
}
330
EF
100
AcDbVisualStyle
  2
Dim
 70
    11
177
     3
291
     1
 70
    58
 90
        2
176
     1
 90
        2
176
     1
 90
        1
176
     1
 90
        0
176
     1
 40
0.6
176
     1
 40
30.0
176
     1
 62
     7
420
 16777215
176
     1
 90
        1
176
     1
 90
        4
176
     1
 62
     7
176
     1
 62
   257
176
     1
 90
        1
176
     1
 90
        1
176
     1
 40
1.0
176
     1
 90
        8
176
     1
 62
     7
176
     1
 40
1.0
176
     1
 90
        1
176
     1
 90
        6
176
     1
 90
        2
176
     1
 62
     7
176
     1
 90
        5
176
     1
 90
        0
176
     1
 90
        0
176
     1
290
     0
176
     1
 90
        1
176
     1
 40
-50.0
176
     1
 90
        0
176
     1
290
     0
176
     1
290
     1
176
     1
290
     1
176
     1
290
     0
176
     1
290
     0
176
     1
290
     0
176
     1
290
     0
176
     1
290
     0
176
     1
290
     0
176
     1
 90
       50
176
     1
 40
0.0
176
     1
 40
1.0
176
     1
 90
        0
176
     1
 62
    18
176
     1
 90
       50
176
     1
 90
        3
176
     1
 62
     5
420
      255
176
     1
290
     0
176
     1
 90
       50
176
     1
 90
       50
176
     1
 90
       50
176
     1
290
     0
176
     1
 90
       50
176
     1
 62
   256
176
     0
 40
1.0
176
     0
 90
        2
176
     1
  1
strokes_ogs.tif
176
     1
290
     0
176
     1
 40
1.0
176
     1
 40
1.0
176
     1
  0
VISUALSTYLE
  5
1E6
102
{ACAD_REACTORS
330
EF
102
}
330
EF
100
AcDbVisualStyle
  2
EdgeColorOff
 70
    22
177
     3
291
     1
 70
    58
 90
        2
176
     0
 90
        2
176
     0
 90
        0
176
     0
 90
        0
176
     0
 40
0.6
176
     0
 40
30.0
176
     0
 62
     7
420
 16777215
176
     0
 90
        1
176
     0
 90
        4
176
     0
 62
     7
176
     0
 62
   257
176
     0
 90
        1
176
     0
 90
        1
176
     0
 40
1.0
176
     0
 90
        8
176
     2
 62
     7
176
     0
 40
1.0
176
     0
 90
        1
176
     0
 90
        6
176
     0
 90
        2
176
     0
 62
     7
176
     0
 90
        5
176
     0
 90
        0
176
     0
 90
        0
176
     0
290
     0
176
     0
 90
        1
176
     0
 40
0.0
176
     0
 90
        0
176
     0
290
     0
176
     1
290
     1
176
     1
290
     1
176
     1
290
     0
176
     1
290
     0
176
     1
290
     0
176
     1
290
     0
176
     1
290
     0
176
     1
290
     0
176
     1
 90
       50
176
     1
 40
0.0
176
     1
 40
1.0
176
     1
 90
        0
176
     1
 62
    18
176
     1
 90
       50
176
     1
 90
        3
176
     1
 62
     5
420
      255
176
     1
290
     0
176
     1
 90
       50
176
     1
 90
       50
176
     1
 90
       50
176
     1
290
     0
176
     1
 90
       50
176
     1
 62
   256
176
     0
 40
1.0
176
     0
 90
        2
176
     1
  1
strokes_ogs.tif
176
     1
290
     0
176
     1
 40
1.0
176
     1
 40
1.0
176
     1
  0
VISUALSTYLE
  5
FE
102
{ACAD_REACTORS
330
EF
102
}
330
EF
100
AcDbVisualStyle
  2
Facepattern
 70
    15
177
     3
291
     1
 70
    58
 90
        2
176
     1
 90
        2
176
     1
 90
        1
176
     1
 90
        0
176
     1
 40
0.6
176
     1
 40
30.0
176
     1
 62
     7
420
 16777215
176
     1
 90
        1
176
     1
 90
        4
176
     1
 62
     7
176
     1
 62
   257
176
     1
 90
        1
176
     1
 90
        1
176
     1
 40
1.0
176
     1
 90
        8
176
     1
 62
     7
176
     1
 40
1.0
176
     1
 90
        1
176
     1
 90
        6
176
     1
 90
        2
176
     1
 62
     7
176
     1
 90
        5
176
     1
 90
        0
176
     1
 90
        0
176
     1
290
     0
176
     1
 90
        1
176
     1
 40
0.0
176
     1
 90
        0
176
     1
290
     0
176
     1
290
     1
176
     1
290
     1
176
     1
290
     0
176
     1
290
     0
176
     1
290
     0
176
     1
290
     0
176
     1
290
     0
176
     1
290
     0
176
     1
 90
       50
176
     1
 40
0.0
176
     1
 40
1.0
176
     1
 90
        0
176
     1
 62
    18
176
     1
 90
       50
176
     1
 90
        3
176
     1
 62
     5
420
      255
176
     1
290
     0
176
     1
 90
       50
176
     1
 90
       50
176
     1
 90
       50
176
     1
290
     0
176
     1
 90
       50
176
     1
 62
   256
176
     0
 40
1.0
176
     0
 90
        2
176
     1
  1
strokes_ogs.tif
176
     1
290
     0
176
     1
 40
1.0
176
     1
 40
1.0
176
     1
  0
VISUALSTYLE
  5
F0
102
{ACAD_REACTORS
330
EF
102
}
330
EF
100
AcDbVisualStyle
  2
Flat
 70
     0
177
     3
291
     1
 70
    58
 90
        2
176
     1
 90
        1
176
     1
 90
        1
176
     1
 90
        2
176
     1
 40
0.6
176
     1
 40
30.0
176
     1
 62
     7
420
 16777215
176
     1
 90
        0
176
     1
 90
        0
176
     1
 62
     7
176
     1
 62
   257
176
     1
 90
        1
176
     1
 90
        1
176
     1
 40
1.0
176
     1
 90
        8
176
     1
 62
     7
176
     1
 40
1.0
176
     1
 90
        1
176
     1
 90
        6
176
     1
 90
        2
176
     1
 62
     7
176
     1
 90
        5
176
     1
 90
        0
176
     1
 90
        0
176
     1
290
     0
176
     1
 90
       13
176
     1
 40
0.0
176
     1
 90
        0
176
     1
290
     0
176
     1
290
     1
176
     1
290
     1
176
     1
290
     0
176
     1
290
     0
176
     1
290
     0
176
     1
290
     0
176
     1
290
     0
176
     1
290
     0
176
     1
 90
       50
176
     1
 40
0.0
176
     1
 40
1.0
176
     1
 90
        0
176
     1
 62
    18
176
     1
 90
       50
176
     1
 90
        3
176
     1
 62
     5
420
      255
176
     1
290
     0
176
     1
 90
       50
176
     1
 90
       50
176
     1
 90
       50
176
     1
290
     0
176
     1
 90
       50
176
     1
 62
   256
176
     0
 40
1.0
176
     0
 90
        2
176
     1
  1
strokes_ogs.tif
176
     1
290
     0
176
     1
 40
1.0
176
     1
 40
1.0
176
     1
  0
VISUALSTYLE
  5
F1
102
{ACAD_REACTORS
330
EF
102
}
330
EF
100
AcDbVisualStyle
  2
FlatWithEdges
 70
     1
177
     3
291
     1
 70
    58
 90
        2
176
     1
 90
        1
176
     1
 90
        1
176
     1
 90
        2
176
     1
 40
0.6
176
     1
 40
30.0
176
     1
 62
     7
420
 16777215
176
     1
 90
        1
176
     1
 90
        0
176
     1
 62
     7
176
     1
 62
   257
176
     1
 90
        1
176
     1
 90
        1
176
     1
 40
1.0
176
     1
 90
        0
176
     1
 62
   257
176
     1
 40
1.0
176
     1
 90
        1
176
     1
 90
        6
176
     1
 90
        2
176
     1
 62
     7
176
     1
 90
        5
176
     1
 90
        0
176
     1
 90
        0
176
     1
290
     0
176
     1
 90
       13
176
     1
 40
0.0
176
     1
 90
        0
176
     1
290
     0
176
     1
290
     1
176
     1
290
     1
176
     1
290
     0
176
     1
290
     0
176
     1
290
     0
176
     1
290
     0
176
     1
290
     0
176
     1
290
     0
176
     1
 90
       50
176
     1
 40
0.0
176
     1
 40
1.0
176
     1
 90
        0
176
     1
 62
    18
176
     1
 90
       50
176
     1
 90
        3
176
     1
 62
     5
420
      255
176
     1
290
     0
176
     1
 90
       50
176
     1
 90
       50
176
     1
 90
       50
176
     1
290
     0
176
     1
 90
       50
176
     1
 62
   256
176
     0
 40
1.0
176
     0
 90
        2
176
     1
  1
strokes_ogs.tif
176
     1
290
     0
176
     1
 40
1.0
176
     1
 40
1.0
176
     1
  0
VISUALSTYLE
  5
F2
102
{ACAD_REACTORS
330
EF
102
}
330
EF
100
AcDbVisualStyle
  2
Gouraud
 70
     2
177
     3
291
     1
 70
    58
 90
        2
176
     1
 90
        2
176
     1
 90
        1
176
     1
 90
        2
176
     1
 40
0.6
176
     1
 40
30.0
176
     1
 62
     7
420
 16777215
176
     1
 90
        0
176
     1
 90
        0
176
     1
 62
     7
176
     1
 62
   257
176
     1
 90
        1
176
     1
 90
        1
176
     1
 40
1.0
176
     1
 90
        0
176
     1
 62
     7
176
     1
 40
1.0
176
     1
 90
        1
176
     1
 90
        6
176
     1
 90
        2
176
     1
 62
     7
176
     1
 90
        5
176
     1
 90
        0
176
     1
 90
        0
176
     1
290
     0
176
     1
 90
       13
176
     1
 40
0.0
176
     1
 90
        0
176
     1
290
     0
176
     1
290
     1
176
     1
290
     1
176
     1
290
     0
176
     1
290
     0
176
     1
290
     0
176
     1
290
     0
176
     1
290
     0
176
     1
290
     0
176
     1
 90
       50
176
     1
 40
0.0
176
     1
 40
1.0
176
     1
 90
        0
176
     1
 62
    18
176
     1
 90
       50
176
     1
 90
        3
176
     1
 62
     5
420
      255
176
     1
290
     0
176
     1
 90
       50
176
     1
 90
       50
176
     1
 90
       50
176
     1
290
     0
176
     1
 90
       50
176
     1
 62
   256
176
     0
 40
1.0
176
     0
 90
        2
176
     1
  1
strokes_ogs.tif
176
     1
290
     0
176
     1
 40
1.0
176
     1
 40
1.0
176
     1
  0
VISUALSTYLE
  5
F3
102
{ACAD_REACTORS
330
EF
102
}
330
EF
100
AcDbVisualStyle
  2
GouraudWithEdges
 70
     3
177
     3
291
     1
 70
    58
 90
        2
176
     1
 90
        2
176
     1
 90
        1
176
     1
 90
        2
176
     1
 40
0.6
176
     1
 40
30.0
176
     1
 62
     7
420
 16777215
176
     1
 90
        1
176
     1
 90
        0
176
     1
 62
     7
176
     1
 62
   257
176
     1
 90
        1
176
     1
 90
        1
176
     1
 40
1.0
176
     1
 90
        0
176
     1
 62
   257
176
     1
 40
1.0
176
     1
 90
        1
176
     1
 90
        6
176
     1
 90
        2
176
     1
 62
     7
176
     1
 90
        5
176
     1
 90
        0
176
     1
 90
        0
176
     1
290
     0
176
     1
 90
       13
176
     1
 40
0.0
176
     1
 90
        0
176
     1
290
     0
176
     1
290
     1
176
     1
290
     1
176
     1
290
     0
176
     1
290
     0
176
     1
290
     0
176
     1
290
     0
176
     1
290
     0
176
     1
290
     0
176
     1
 90
       50
176
     1
 40
0.0
176
     1
 40
1.0
176
     1
 90
        0
176
     1
 62
    18
176
     1
 90
       50
176
     1
 90
        3
176
     1
 62
     5
420
      255
176
     1
290
     0
176
     1
 90
       50
176
     1
 90
       50
176
     1
 90
       50
176
     1
290
     0
176
     1
 90
       50
176
     1
 62
   256
176
     0
 40
1.0
176
     0
 90
        2
176
     1
  1
strokes_ogs.tif
176
     1
290
     0
176
     1
 40
1.0
176
     1
 40
1.0
176
     1
  0
VISUALSTYLE
  5
F7
102
{ACAD_REACTORS
330
EF
102
}
330
EF
100
AcDbVisualStyle
  2
Hidden
 70
     6
177
     3
291
     0
 70
    58
 90
        1
176
     1
 90
        2
176
     1
 90
        2
176
     1
 90
        0
176
     1
 40
0.6
176
     1
 40
30.0
176
     1
 62
     7
420
 16777215
176
     1
 90
        2
176
     1
 90
        2
176
     1
 62
     7
176
     1
 62
   257
176
     1
 90
        2
176
     1
 90
        1
176
     1
 40
40.0
176
     1
 90
        0
176
     1
 62
   257
176
     1
 40
1.0
176
     1
 90
        1
176
     1
 90
        6
176
     1
 90
        2
176
     1
 62
     7
176
     1
 90
        3
176
     1
 90
        0
176
     1
 90
        0
176
     1
290
     0
176
     1
 90
        1
176
     1
 40
0.0
176
     1
 90
        0
176
     1
290
     0
176
     1
290
     1
176
     1
290
     1
176
     1
290
     0
176
     1
290
     0
176
     1
290
     0
176
     1
290
     0
176
     1
290
     0
176
     1
290
     0
176
     1
 90
       50
176
     1
 40
0.0
176
     1
 40
1.0
176
     1
 90
        0
176
     1
 62
    18
176
     1
 90
       50
176
     1
 90
        3
176
     1
 62
     5
420
      255
176
     1
290
     0
176
     1
 90
       50
176
     1
 90
       50
176
     1
 90
       50
176
     1
290
     0
176
     1
 90
       50
176
     1
 62
   256
176
     0
 40
1.0
176
     0
 90
        2
176
     1
  1
strokes_ogs.tif
176
     1
290
     0
176
     1
 40
1.0
176
     1
 40
1.0
176
     1
  0
VISUALSTYLE
  5
1E4
102
{ACAD_REACTORS
330
EF
102
}
330
EF
100
AcDbVisualStyle
  2
JitterOff
 70
    20
177
     3
291
     1
 70
    58
 90
        2
176
     0
 90
        2
176
     0
 90
        0
176
     0
 90
        0
176
     0
 40
0.6
176
     0
 40
30.0
176
     0
 62
     7
420
 16777215
176
     0
 90
        1
176
     0
 90
        4
176
     0
 62
     7
176
     0
 62
   257
176
     0
 90
        1
176
     0
 90
        1
176
     0
 40
1.0
176
     0
 90
       10
176
     2
 62
     7
176
     0
 40
1.0
176
     0
 90
        1
176
     0
 90
        6
176
     0
 90
        2
176
     0
 62
     7
176
     0
 90
        5
176
     0
 90
        0
176
     0
 90
        0
176
     0
290
     0
176
     0
 90
        1
176
     0
 40
0.0
176
     0
 90
        0
176
     0
290
     0
176
     1
290
     1
176
     1
290
     1
176
     1
290
     0
176
     1
290
     0
176
     1
290
     0
176
     1
290
     0
176
     1
290
     0
176
     1
290
     0
176
     1
 90
       50
176
     1
 40
0.0
176
     1
 40
1.0
176
     1
 90
        0
176
     1
 62
    18
176
     1
 90
       50
176
     1
 90
        3
176
     1
 62
     5
420
      255
176
     1
290
     0
176
     1
 90
       50
176
     1
 90
       50
176
     1
 90
       50
176
     1
290
     0
176
     1
 90
       50
176
     1
 62
   256
176
     0
 40
1.0
176
     0
 90
        2
176
     1
  1
strokes_ogs.tif
176
     1
290
     0
176
     1
 40
1.0
176
     1
 40
1.0
176
     1
  0
VISUALSTYLE
  5
FD
102
{ACAD_REACTORS
330
EF
102
}
330
EF
100
AcDbVisualStyle
  2
Linepattern
 70
    14
177
     3
291
     1
 70
    58
 90
        2
176
     1
 90
        2
176
     1
 90
        1
176
     1
 90
        0
176
     1
 40
0.6
176
     1
 40
30.0
176
     1
 62
     7
420
 16777215
176
     1
 90
        1
176
     1
 90
        4
176
     1
 62
     7
176
     1
 62
   257
176
     1
 90
        7
176
     1
 90
        7
176
     1
 40
1.0
176
     1
 90
        8
176
     1
 62
     7
176
     1
 40
1.0
176
     1
 90
        1
176
     1
 90
        6
176
     1
 90
        2
176
     1
 62
     7
176
     1
 90
        5
176
     1
 90
        0
176
     1
 90
        0
176
     1
290
     0
176
     1
 90
        1
176
     1
 40
0.0
176
     1
 90
        0
176
     1
290
     0
176
     1
290
     1
176
     1
290
     1
176
     1
290
     0
176
     1
290
     0
176
     1
290
     0
176
     1
290
     0
176
     1
290
     0
176
     1
290
     0
176
     1
 90
       50
176
     1
 40
0.0
176
     1
 40
1.0
176
     1
 90
        0
176
     1
 62
    18
176
     1
 90
       50
176
     1
 90
        3
176
     1
 62
     5
420
      255
176
     1
290
     0
176
     1
 90
       50
176
     1
 90
       50
176
     1
 90
       50
176
     1
290
     0
176
     1
 90
       50
176
     1
 62
   256
176
     0
 40
1.0
176
     0
 90
        2
176
     1
  1
strokes_ogs.tif
176
     1
290
     0
176
     1
 40
1.0
176
     1
 40
1.0
176
     1
  0
VISUALSTYLE
  5
1E5
102
{ACAD_REACTORS
330
EF
102
}
330
EF
100
AcDbVisualStyle
  2
OverhangOff
 70
    21
177
     3
291
     1
 70
    58
 90
        2
176
     0
 90
        2
176
     0
 90
        0
176
     0
 90
        0
176
     0
 40
0.6
176
     0
 40
30.0
176
     0
 62
     7
420
 16777215
176
     0
 90
        1
176
     0
 90
        4
176
     0
 62
     7
176
     0
 62
   257
176
     0
 90
        1
176
     0
 90
        1
176
     0
 40
1.0
176
     0
 90
        9
176
     2
 62
     7
176
     0
 40
1.0
176
     0
 90
        1
176
     0
 90
        6
176
     0
 90
        2
176
     0
 62
     7
176
     0
 90
        5
176
     0
 90
        0
176
     0
 90
        0
176
     0
290
     0
176
     0
 90
        1
176
     0
 40
0.0
176
     0
 90
        0
176
     0
290
     0
176
     1
290
     1
176
     1
290
     1
176
     1
290
     0
176
     1
290
     0
176
     1
290
     0
176
     1
290
     0
176
     1
290
     0
176
     1
290
     0
176
     1
 90
       50
176
     1
 40
0.0
176
     1
 40
1.0
176
     1
 90
        0
176
     1
 62
    18
176
     1
 90
       50
176
     1
 90
        3
176
     1
 62
     5
420
      255
176
     1
290
     0
176
     1
 90
       50
176
     1
 90
       50
176
     1
 90
       50
176
     1
290
     0
176
     1
 90
       50
176
     1
 62
   256
176
     0
 40
1.0
176
     0
 90
        2
176
     1
  1
strokes_ogs.tif
176
     1
290
     0
176
     1
 40
1.0
176
     1
 40
1.0
176
     1
  0
VISUALSTYLE
  5
F9
102
{ACAD_REACTORS
330
EF
102
}
330
EF
100
AcDbVisualStyle
  2
Realistic
 70
     8
177
     3
291
     0
 70
    58
 90
        2
176
     1
 90
        3
176
     1
 90
        0
176
     1
 90
        2
176
     1
 40
0.6
176
     1
 40
30.0
176
     1
 62
     7
420
 16777215
176
     1
 90
        0
176
     1
 90
        0
176
     1
 62
     7
176
     1
 62
   257
176
     1
 90
        1
176
     1
 90
        1
176
     1
 40
1.0
176
     1
 90
        8
176
     1
 62
   257
176
     1
 40
1.0
176
     1
 90
        1
176
     1
 90
        6
176
     1
 90
        2
176
     1
 62
     7
176
     1
 90
        3
176
     1
 90
        0
176
     1
 90
        0
176
     1
290
     0
176
     1
 90
       13
176
     1
 40
0.0
176
     1
 90
        0
176
     1
290
     0
176
     1
290
     1
176
     1
290
     1
176
     1
290
     0
176
     1
290
     0
176
     1
290
     0
176
     1
290
     0
176
     1
290
     0
176
     1
290
     0
176
     1
 90
       50
176
     1
 40
0.0
176
     1
 40
1.0
176
     1
 90
        0
176
     1
 62
    18
176
     1
 90
       50
176
     1
 90
        3
176
     1
 62
     5
420
      255
176
     1
290
     0
176
     1
 90
       50
176
     1
 90
       50
176
     1
 90
       50
176
     1
290
     0
176
     1
 90
       50
176
     1
 62
   256
176
     0
 40
1.0
176
     0
 90
        2
176
     1
  1
strokes_ogs.tif
176
     1
290
     0
176
     1
 40
1.0
176
     1
 40
1.0
176
     1
  0
VISUALSTYLE
  5
1F3
102
{ACAD_REACTORS
330
EF
102
}
330
EF
100
AcDbVisualStyle
  2
Shaded
 70
    27
177
     3
291
     0
 70
    58
 90
        2
176
     1
 90
        2
176
     1
 90
        1
176
     1
 90
        2
176
     1
 40
0.6
176
     1
 40
30.0
176
     1
 62
     7
420
 16777215
176
     1
 90
        0
176
     1
 90
        4
176
     1
 62
     7
176
     1
 62
   257
176
     1
 90
        1
176
     1
 90
        1
176
     1
 40
1.0
176
     1
 90
        8
176
     1
 62
   257
176
     1
 40
1.0
176
     1
 90
        1
176
     1
 90
        6
176
     1
 90
        2
176
     1
 62
     8
420
  7895160
176
     1
 90
        3
176
     1
 90
        0
176
     1
 90
        0
176
     1
290
     0
176
     1
 90
        5
176
     1
 40
0.0
176
     1
 90
        0
176
     1
290
     0
176
     1
290
     1
176
     1
290
     1
176
     1
290
     0
176
     1
290
     0
176
     1
290
     0
176
     1
290
     0
176
     1
290
     0
176
     1
290
     0
176
     1
 90
       50
176
     1
 40
0.0
176
     1
 40
1.0
176
     1
 90
        0
176
     1
 62
    18
176
     1
 90
       50
176
     1
 90
        3
176
     1
 62
     5
420
      255
176
     1
290
     0
176
     1
 90
       50
176
     1
 90
       50
176
     1
 90
       50
176
     1
290
     0
176
     1
 90
       50
176
     1
 62
   256
176
     0
 40
1.0
176
     0
 90
        2
176
     1
  1
strokes_ogs.tif
176
     1
290
     0
176
     1
 40
1.0
176
     1
 40
1.0
176
     1
  0
VISUALSTYLE
  5
1F2
102
{ACAD_REACTORS
330
EF
102
}
330
EF
100
AcDbVisualStyle
  2
Shaded with edges
 70
    26
177
     3
291
     0
 70
    58
 90
        2
176
     1
 90
        2
176
     1
 90
        1
176
     1
 90
        2
176
     1
 40
0.6
176
     1
 40
30.0
176
     1
 62
     7
420
 16777215
176
     1
 90
        1
176
     1
 90
        2
176
     1
 62
     7
176
     1
 62
   257
176
     1
 90
        2
176
     1
 90
        1
176
     1
 40
1.0
176
     1
 90
        8
176
     1
 62
   257
176
     1
 40
1.0
176
     1
 90
        1
176
     1
 90
        6
176
     1
 90
        2
176
     1
 62
     7
176
     1
 90
        3
176
     1
 90
        0
176
     1
 90
        0
176
     1
290
     0
176
     1
 90
        5
176
     1
 40
0.0
176
     1
 90
        0
176
     1
290
     0
176
     1
290
     1
176
     1
290
     1
176
     1
290
     0
176
     1
290
     0
176
     1
290
     0
176
     1
290
     0
176
     1
290
     0
176
     1
290
     0
176
     1
 90
       50
176
     1
 40
0.0
176
     1
 40
1.0
176
     1
 90
        0
176
     1
 62
    18
176
     1
 90
       50
176
     1
 90
        3
176
     1
 62
     5
420
      255
176
     1
290
     0
176
     1
 90
       50
176
     1
 90
       50
176
     1
 90
       50
176
     1
290
     0
176
     1
 90
       50
176
     1
 62
   256
176
     0
 40
1.0
176
     0
 90
        2
176
     1
  1
strokes_ogs.tif
176
     1
290
     0
176
     1
 40
1.0
176
     1
 40
1.0
176
     1
  0
VISUALSTYLE
  5
1EF
102
{ACAD_REACTORS
330
EF
102
}
330
EF
100
AcDbVisualStyle
  2
Shades of Gray
 70
    23
177
     3
291
     0
 70
    58
 90
        2
176
     1
 90
        2
176
     1
 90
        3
176
     1
 90
        0
176
     1
 40
0.6
176
     1
 40
30.0
176
     1
 62
     7
420
 16777215
176
     1
 90
        2
176
     1
 90
        2
176
     1
 62
     7
176
     1
 62
     7
176
     1
 90
        1
176
     1
 90
        1
176
     1
 40
40.0
176
     1
 90
        8
176
     1
 62
     7
176
     1
 40
1.0
176
     1
 90
        1
176
     1
 90
        6
176
     1
 90
        2
176
     1
 62
     7
176
     1
 90
        3
176
     1
 90
        0
176
     1
 90
        0
176
     1
290
     0
176
     1
 90
        1
176
     1
 40
0.0
176
     1
 90
        0
176
     1
290
     0
176
     1
290
     1
176
     1
290
     1
176
     1
290
     0
176
     1
290
     0
176
     1
290
     0
176
     1
290
     0
176
     1
290
     0
176
     1
290
     0
176
     1
 90
       50
176
     1
 40
0.0
176
     1
 40
1.0
176
     1
 90
        0
176
     1
 62
    18
176
     1
 90
       50
176
     1
 90
        3
176
     1
 62
     5
420
      255
176
     1
290
     0
176
     1
 90
       50
176
     1
 90
       50
176
     1
 90
       50
176
     1
290
     0
176
     1
 90
       50
176
     1
 62
   256
176
     0
 40
1.0
176
     0
 90
        2
176
     1
  1
strokes_ogs.tif
176
     1
290
     0
176
     1
 40
1.0
176
     1
 40
1.0
176
     1
  0
VISUALSTYLE
  5
1F0
102
{ACAD_REACTORS
330
EF
102
}
330
EF
100
AcDbVisualStyle
  2
Sketchy
 70
    24
177
     3
291
     0
 70
    58
 90
        1
176
     1
 90
        2
176
     1
 90
        2
176
     1
 90
        0
176
     1
 40
0.6
176
     1
 40
30.0
176
     1
 62
     7
420
 16777215
176
     1
 90
        2
176
     1
 90
        2
176
     1
 62
     7
176
     1
 62
     7
176
     1
 90
        1
176
     1
 90
        1
176
     1
 40
40.0
176
     1
 90
       11
176
     1
 62
     7
176
     1
 40
1.0
176
     1
 90
        1
176
     1
 90
        6
176
     1
 90
        2
176
     1
 62
     7
176
     1
 90
        6
176
     1
 90
        0
176
     1
 90
        0
176
     1
290
     0
176
     1
 90
        1
176
     1
 40
0.0
176
     1
 90
        0
176
     1
290
     0
176
     1
290
     1
176
     1
290
     1
176
     1
290
     0
176
     1
290
     0
176
     1
290
     0
176
     1
290
     0
176
     1
290
     0
176
     1
290
     0
176
     1
 90
       50
176
     1
 40
0.0
176
     1
 40
1.0
176
     1
 90
        0
176
     1
 62
    18
176
     1
 90
       50
176
     1
 90
        3
176
     1
 62
     5
420
      255
176
     1
290
     0
176
     1
 90
       50
176
     1
 90
       50
176
     1
 90
       50
176
     1
290
     0
176
     1
 90
       50
176
     1
 62
   256
176
     0
 40
1.0
176
     0
 90
        2
176
     1
  1
strokes_ogs.tif
176
     1
290
     0
176
     1
 40
1.0
176
     1
 40
1.0
176
     1
  0
VISUALSTYLE
  5
FC
102
{ACAD_REACTORS
330
EF
102
}
330
EF
100
AcDbVisualStyle
  2
Thicken
 70
    13
177
     3
291
     1
 70
    58
 90
        2
176
     1
 90
        2
176
     1
 90
        1
176
     1
 90
        0
176
     1
 40
0.6
176
     1
 40
30.0
176
     1
 62
     7
420
 16777215
176
     1
 90
        1
176
     1
 90
        4
176
     1
 62
     7
176
     1
 62
   257
176
     1
 90
        1
176
     1
 90
        1
176
     1
 40
1.0
176
     1
 90
       12
176
     1
 62
     7
176
     1
 40
1.0
176
     1
 90
        1
176
     1
 90
        6
176
     1
 90
        2
176
     1
 62
     7
176
     1
 90
        5
176
     1
 90
        0
176
     1
 90
        0
176
     1
290
     0
176
     1
 90
        1
176
     1
 40
0.0
176
     1
 90
        0
176
     1
290
     0
176
     1
290
     1
176
     1
290
     1
176
     1
290
     0
176
     1
290
     0
176
     1
290
     0
176
     1
290
     0
176
     1
290
     0
176
     1
290
     0
176
     1
 90
       50
176
     1
 40
0.0
176
     1
 40
1.0
176
     1
 90
        0
176
     1
 62
    18
176
     1
 90
       50
176
     1
 90
        3
176
     1
 62
     5
420
      255
176
     1
290
     0
176
     1
 90
       50
176
     1
 90
       50
176
     1
 90
       50
176
     1
290
     0
176
     1
 90
       50
176
     1
 62
   256
176
     0
 40
1.0
176
     0
 90
        2
176
     1
  1
strokes_ogs.tif
176
     1
290
     0
176
     1
 40
1.0
176
     1
 40
1.0
176
     1
  0
VISUALSTYLE
  5
F6
102
{ACAD_REACTORS
330
EF
102
}
330
EF
100
AcDbVisualStyle
  2
Wireframe
 70
     5
177
     3
291
     0
 70
    58
 90
        0
176
     1
 90
        2
176
     1
 90
        0
176
     1
 90
        0
176
     1
 40
0.6
176
     1
 40
30.0
176
     1
 62
     7
420
 16777215
176
     1
 90
        1
176
     1
 90
        4
176
     1
 62
     7
176
     1
 62
   257
176
     1
 90
        1
176
     1
 90
        1
176
     1
 40
1.0
176
     1
 90
        0
176
     1
 62
   257
176
     1
 40
1.0
176
     1
 90
        1
176
     1
 90
        6
176
     1
 90
        2
176
     1
 62
     7
176
     1
 90
        3
176
     1
 90
        0
176
     1
 90
        0
176
     1
290
     0
176
     1
 90
        1
176
     1
 40
0.0
176
     1
 90
        0
176
     1
290
     0
176
     1
290
     1
176
     1
290
     1
176
     1
290
     0
176
     1
290
     0
176
     1
290
     0
176
     1
290
     0
176
     1
290
     0
176
     1
290
     0
176
     1
 90
       50
176
     1
 40
0.0
176
     1
 40
1.0
176
     1
 90
        0
176
     1
 62
    18
176
     1
 90
       50
176
     1
 90
        3
176
     1
 62
     5
420
      255
176
     1
290
     0
176
     1
 90
       50
176
     1
 90
       50
176
     1
 90
       50
176
     1
290
     0
176
     1
 90
       50
176
     1
 62
   256
176
     0
 40
1.0
176
     0
 90
        2
176
     1
  1
strokes_ogs.tif
176
     1
290
     0
176
     1
 40
1.0
176
     1
 40
1.0
176
     1
  0
VISUALSTYLE
  5
1F1
102
{ACAD_REACTORS
330
EF
102
}
330
EF
100
AcDbVisualStyle
  2
X-Ray
 70
    25
177
     3
291
     0
 70
    58
 90
        2
176
     1
 90
        2
176
     1
 90
        1
176
     1
 90
        1
176
     1
 40
0.5
176
     1
 40
30.0
176
     1
 62
     7
420
 16777215
176
     1
 90
        1
176
     1
 90
        0
176
     1
 62
     7
176
     1
 62
   257
176
     1
 90
        1
176
     1
 90
        1
176
     1
 40
1.0
176
     1
 90
        8
176
     1
 62
     7
176
     1
 40
1.0
176
     1
 90
        1
176
     1
 90
        6
176
     1
 90
        2
176
     1
 62
     7
176
     1
 90
        3
176
     1
 90
        0
176
     1
 90
        0
176
     1
290
     0
176
     1
 90
       13
176
     1
 40
0.0
176
     1
 90
        0
176
     1
290
     0
176
     1
290
     1
176
     1
290
     1
176
     1
290
     0
176
     1
290
     0
176
     1
290
     0
176
     1
290
     0
176
     1
290
     0
176
     1
290
     0
176
     1
 90
       50
176
     1
 40
0.0
176
     1
 40
1.0
176
     1
 90
        0
176
     1
 62
    18
176
     1
 90
       50
176
     1
 90
        3
176
     1
 62
     5
420
      255
176
     1
290
     0
176
     1
 90
       50
176
     1
 90
       50
176
     1
 90
       50
176
     1
290
     0
176
     1
 90
       50
176
     1
 62
   256
176
     0
 40
1.0
176
     0
 90
        2
176
     1
  1
strokes_ogs.tif
176
     1
290
     0
176
     1
 40
1.0
176
     1
 40
1.0
176
     1
  0
DICTIONARYVAR
  5
146
102
{ACAD_REACTORS
330
5E
102
}
330
5E
100
DictionaryVariables
280
     0
  1
1:1
  0
DICTIONARYVAR
  5
259
102
{ACAD_REACTORS
330
5E
102
}
330
5E
100
DictionaryVariables
280
     0
  1
3.500000
  0
DICTIONARYVAR
  5
25A
102
{ACAD_REACTORS
330
5E
102
}
330
5E
100
DictionaryVariables
280
     0
  1
acadiso.lin
  0
DICTIONARYVAR
  5
145
102
{ACAD_REACTORS
330
5E
102
}
330
5E
100
DictionaryVariables
280
     0
  1
STANDARD
  0
DICTIONARYVAR
  5
84
102
{ACAD_REACTORS
330
5E
102
}
330
5E
100
DictionaryVariables
280
     0
  1
STANDARD
  0
DICTIONARYVAR
  5
227
102
{ACAD_REACTORS
330
5E
102
}
330
5E
100
DictionaryVariables
280
     0
  1
Metric50
  0
DICTIONARYVAR
  5
228
102
{ACAD_REACTORS
330
5E
102
}
330
5E
100
DictionaryVariables
280
     0
  1
Metric50
  0
DICTIONARYVAR
  5
5F
102
{ACAD_REACTORS
330
5E
102
}
330
5E
100
DictionaryVariables
280
     0
  1
2
  0
DICTIONARYVAR
  5
63
102
{ACAD_REACTORS
330
5E
102
}
330
5E
100
DictionaryVariables
280
     0
  1
1
  0
DICTIONARYVAR
  5
1AE
102
{ACAD_REACTORS
330
5E
102
}
330
5E
100
DictionaryVariables
280
     0
  1
0
  0
DICTIONARYVAR
  5
1AF
102
{ACAD_REACTORS
330
5E
102
}
330
5E
100
DictionaryVariables
280
     0
  1
0
  0
DICTIONARY
  5
205
330
22
100
AcDbDictionary
280
     1
281
     1
  0
DICTIONARY
  5
1F9
330
ED
100
AcDbDictionary
280
     1
281
     1
  3
FBXASSET
360
1FA
  0
DICTIONARY
  5
1F7
330
EC
100
AcDbDictionary
280
     1
281
     1
  3
FBXASSET
360
1F8
  0
DICTIONARY
  5
173
330
EE
100
AcDbDictionary
280
     1
281
     1
  3
BUMPTILE
360
175
  3
DIFFUSETILE
360
174
  3
FBXASSET
360
1FB
  3
OPACITYTILE
360
176
  3
REFLECTIONTILE
360
177
  0
DICTIONARY
  5
162
330
7F
100
AcDbDictionary
280
     1
281
     1
  3
ACAD_ROUNDTRIP_2008_TABLESTYLE_CELLSTYLEMAP
360
1EA3
  0
XRECORD
  5
1FA
102
{ACAD_REACTORS
330
1F9
102
}
330
1F9
100
AcDbXrecord
280
     1
 70
     1
 90
429727718
  1
D62C5603-E3A1-4AEA-B7FB-FE5D8D0755AF
310
504B03040A0000080000CC70623B3DEE336E79000000790000001B0000006175746F6465736B2D64657369676E2D7061636B6167652E786D6C3C3F786D6C2076657273696F6E3D22312E302220656E636F64696E673D227574662D3822203F3E3C666F726D6174733E3C666F726D61743E687474703A2F2F736368656D612E
310
6175746F6465736B2E636F6D2F64657369676E2D7061636B6167652F323030393C2F666F726D61743E3C2F666F726D6174733E504B0304140006080800CC70623BD486FD9CA0000000F4000000130000005B436F6E74656E745F54797065735D2E786D6C7D8EC10E82300C865F65E91D8A1E8C310C0EEA1BF002731658846E
310
D98AC1B77784ABF1D8FE5FBFBF75BBCE937A534CCEB38643598122B6FEE978D0B0485F9C41B54DDD7D022595594E1A469170414C76A4D9A4D207E29CF43ECE46F218070CC6BECC4078ACAA135ACF422C856C0E68EA1BF5669944DDD7BCDE7B1F8E415D77AECB980613C2E4AC91FC167A2B244592486606FC29C8FD7F045B9A
310
EF7053A7E60B504B0304140006080800CC70623B853B8169EB0000007C01000008000000636F72652E786D6C8D90416EC3201045AF62CDB6C206821CC7C244919D9CA01740401C94182C03558F5F9C3852BBEB6A467FFE9B197D7EFC9E1EC5975982F5AE035262288C535E5B377690E21535501C055FBC8FBF6C503839990E
310
5619041F179FE64D52DE45E362569DD7661365082642A11EB9E920A89B99642953CC8E702F67A9EE7234257977194EC9EAE275C4EABCCF5EAD5940D4AC6F0E35A568B8F43562CD7046CD199FD07E60174276A7BE677B5EADB0E0D14EEFFB6A31321A0D82627C4084204C3F096B71DD52F6819B16635EADF63F509AF53FA164
310
5DDCD1EDDD17164090FCC8732078B56691CB33A85CD7DCC40F504B0304140006080800CC70623B55019EA25F0000007C00000007000000636E782E786D6C4DCB3B0E80201045D1AD90E915ED2CF8AC45050C11660C8261F98AB1B07AC9C97D42D718D865D3E909258CFD00CCE24AC6E326A164D74DC0B4128928FF32603847
310
2BA13128B1252AC747C6BAB984FC68F0B87FE8960A5C09FE86CFB69FBA01504B0304140006080800CC70623BDBABAAF470010000D40300000C0000006662782F636F72652E786D6CC553D16E823014FD95A6AF4B694182CC941A83FA05FB810A9511A125A5257EFE2E82712ECEB8A7F100CD39F7F69E734AF9FADC366850B6
310
AF8DCE7018308C942E4C59EB2AC3DE1D498AD15A706B8CFB56869196ADCAF00863C12B6B7C374385D14E6907A836A59A41D9F7CA615434B0C8705F7CAA5606D23BA8E84F41278B93AC54100640439DE0BDB320004D43C63716C7C399D30917DCFBBA9CD9BA8469F5B156168B24CED3F7248AC8769F27244EB73B92EED8862C
310
B7F13E0C179B3C8F979C8ECD82BBBABDAA2BAC924E9558448CBD9330242CFA08E3154B5651FCC6D215639C8EE5774DBE2B5F6CF2B5768B68963BB5F5588420E442FC700B1139D4CB01F450C1E918227C2E09DF070D8140C84E1E9AAB8F1340832A9CB13130A5F1376A908D57309505ECF2A0DF179C4E9D30F5B239B87E3823
310
7A79C6F31DE1A8A5AEC08474B03C7837EAE4938639B44E5932B833D2C6B6B279CDC613877FA26EE21F4A2A4C63EC7F29A2F301D1F9F7A0E37D145F504B0304140006080800CC70623B9C113CC27E0000009D0000000B0000006662782F636E782E786D6C4DCCDF0A83201C86E15B91DFB94BFB330DD428C8FB886521330DA7
310
6397BF1A1DECE883878F57749FCDA1B7892F1BBC047A23808C7F84D9FA55424E0BE6803A256208E9EF06C84F9B91703228B1C690F78B66B34CD9A5439DF5CF0BFBF65E35BCA1B8D6A5C6F540381E886698B5741C695F9503EBA150A2F8958E3DC3EA0B504B0304140006080800CC70623B7DF2F77C2A010000120200003100
310
00006662782F41393633353835312D344632462D344230382D423046372D3739314545314133324237412F636F72652E786D6C8D51DB8EC22014FC15C2939B0D2DB4B45643319AE817EC0F6041255A68B86CFCFC856D4D76DF7CE190393373060EDB3DC707F856CE6B6B7A480A0C81328395DA5C7B18C3057510EC3873D686
310
3F34088C18550F330C39BB3A1BA7051AAC09CA84841A2BD5020AEF55806078A44B0FFD7053A328440C89E1EFC52486BBB8AA8214A99D789CF9E05200300FC927E4FB4D5B375D43103D5527440FB843077C5AA3F5861C8F645F5787F59E95B390B318B55CE45AA638FAA2957BD7248B390B7A7CC51F9C124149C82B8C378810
310
84AB2F42B7B8DD56F413775B8C5999E9FF4471926F8AA236A1AE96B8B3CC434E5839373893369E1FAF30EA395917409EB7F26AF8801C171837A4A6AC9C89E9F9C9B1A58BA30FD6A5EF5DDDCF894B9AD9B6A59C957943A9FCAE2FD5BC4DFE03504B0304140006080800CC70623BAD7543B64E01000033030000300000006662
310
782F41393633353835312D344632462D344230382D423046372D3739314545314133324237412F636E782E786D6CD593CD6EC32010845F0571AD6CE3D48AD20813A9873E410FBD12D82434182C7EAAE6EDBB2424CD25871E7B41D6EC30B3FA84F9E67BB2E40B4234DE8DB46F1925E094D7C6ED479AD3AE5951B2113C789FEE
310
6C943839C1488B4C05DF079FE72A69D8C96C13AAD6B8631503449F83828872B949AC57D26200B826A308D316B4064D6E46FCDA41C05550DC9E483A00797BFD207EFB092A45DE9514C1BBD22178396BD39D891265658C238DEA00936C654E5E433CB65A26D9F6EDB5EBC14EBF49A45CB856E66048291F6939A9A81BB5C89177
310
38143CA680F4AA299D66A042CEB3354A2684DC9D8D178FE0D9B8B41CAAD720F880EE7EF93C0C18769E099ECC04D5A102C8049A8A05632F4DDF376CF1DE0F6BB65C2F8627B65A33C6BB62177CEBBDAD973006829F89F22E814B54F4BC2BE347F8AA8F681390B50FA73F804400B5F542E796F19FF974E7F78DB802FE05E20750
310
4B0304140006080800CC70623BE75B7789680500003C100000340000006662782F41393633353835312D344632462D344230382D423046372D3739314545314133324237412F6F626A656374732E786D6CAD575B8F9B3818FD2B887D06C22499CB8AA1CA655245D5B455A356FB305264C061D8018C6C3393D95FBFC7600890
310
A4CD5EF210B0B1BFEBF98E3F7B1FF6596ABC522E1296DF9BAE3D320D9A872C4AF2F8DE2CE5CEBA358D0FBEC719939D65A691938CDE9B6ADAF4BD98B3B2D05311DD91329583D9D5FC0F438434A7A611A644887B5384CF34233629258BA878B12322891DEFF6B66BD70BFB62634E8AE781D082709A4B588AF91C528CDA28B73F
310
1C998EEF39EABBEFA97FBD6A7C7E9553F9D3D79FE442923C3C523610337627CB87ABE99D359D4CC6D6E4FACAB5E6ABF9D2726FC6A3C5F56271377BB88362213924694B38DD99FE47C48627A1E7D49F5A8BB5E1A74C0A599ED3B0F21F1E56366B89112D681E218F0915D0D6F17AD41FBA2A369DCF6335D62ABBD39779D5DDD1
310
11D4D8DE3CBB96B2E04FB8202E41051754A1AA8E8F76B4C6DFE810B580B1547F4B84911149794252234D024EF8BBE963A95AE27B3D310A9D5C215C7960FAEE415ED75694C6AFB17BCACA5D99A60A9AA65F217B0BFC53292ACB92BF283FAD0D3621576592CB5BED907C2FA8E9DF794E35E97BEA31BED21FEB401ABB94C44839
310
DCACBF0E1C5DA8DA5B2F4DFFD32AD86F543D9E565E7056502E157C00AD2671CD534549AB752FCA9CDA00677A313F04E51B22FF19E57B300579E3C97EB29F682D92935CEC18CF901B7B54FD8C51F362B56FC72FE0B3C1EAE335EDCCBF5AEC39ADB17DC238973F804BA5E6F6BFE7AF1FB32E523BE9F3BD571418E3631DCA4D48
310
5250CF639223210A9446CA30052EDF057BD35F8329C1ECD84552BF0DC8D18BE7BCE23BFE6BD960AB4A7DE79923A103BEBD80F911CBAA2C60DB19B01CF164A5583B772EE6D3FFA56666CBCDA74DC97724A48F9A58967497E489C4D979006FD7A05E227A1EBDD0F737C623387A9C844D3709995625106D157315F8B8392CD4E0
310
A0B9A720C4BE9829CEF37EA1E13111214D53925356365ADA634861B52519DD27A00AEB808EAF0628E6F435519D446F45CF2C9CF5214F0A15B2F6D06B79DA3EE3CBF7F56780D2F4E7EF73A0F5E5B02A38D07DC852C6B7C1FBB6664213E0C39E3EBA7FF4E1AD23EA2829407C85E586727488B751B2DB9502BC7B228A3FD68B6E
310
A65A22397E690AA8D158D7E404EC8CDA235CC3B7D1898680131CEC2CDF2638C65196279577750F15884AEE19F94199155B92B13297978469D4F8D358DF0AEF7631E28DC8F0D9F437D5D39A83B2231A1D52D543813A824EF8D44BCFF2FA6A31BD1E8DAD87F1CCB526B3879935BF59CDADD5C37479BB1CDD4CA7B3556B516589
310
EF352754B706114D9C885EC9131DE6EFEB43D99AFE2391C2F958179413D7CFEF6B1B6DB1E7600F00DE6E5C67454A339A4BA2E0FBA85ED26F045D454F463DBFCE484C2F90F2E5E3666003662ED8F755951A7D1BECD5B30B550B2785C8E7320B7292A4838DDA71BBC863ED7613CAF659337A3354231D4FF4A182A54904C2898C
310
98B28C4AD0CE056CCF332A80986E571EE9DBC305BB5FEB7E509220A58D25CF042D712A806AC0AD0C657FDEF80D2D9CEAA2EE4D1C76F60BFE74219A06527D6F82DF6412526107381E55E353090704D085B52408A8913C4ED159D79BDA71BB4BC506F4831350EB6F975CD22D69BF7AC49B91A2C0A9DDA3D5CA36AD20FC478E37
310
E61844E2352865EBCB61A275A65283CAAA9DD27703B4102F5AF51EF5F573B75CBB5AD38BC845F7A49F82A0966A49C2E3EA5EA0ECD326CD965F1DB402C6FA8B51A4658C5C5E2EC9E214602E55810345408596591009A82E7E7FFACA19EEA299B14A0081A705CB3296EBC14CDF658DCD336EA6D1136881AAEB87B81AB9EE53D5
310
F5EB8BC8362082DA24122F98680A4E7930C01A0079749CEA14382A0783E5EBA5A10F8C098456A03D6A4AEB6BB881E2513747552A5DB22C7EDAF83BD5528081A365F7FF06504B0304140006080000CC70623B000000000000000000000000350000006662782F41393633353835312D344632462D344230382D423046372D37
310
39314545314133324237412F76657274696365732E62696E504B0304140006080800CC70623BF270F1330600000004000000360000006662782F41393633353835312D344632462D344230382D423046372D3739314545314133324237412F747269616E676C65732E62696E636660600000504B0304140006080000CC7062
310
3B000000000000000000000000370000006662782F41393633353835312D344632462D344230382D423046372D3739314545314133324237412F617474726962757465732E62696E504B0304140006080800CC70623B08DA0BD19000000041010000360000006662782F41393633353835312D344632462D344230382D4230
310
46372D3739314545314133324237412F6469726563746F72792E786D6C858F410AC3201045AF22B36F53E9A60B35CBEEBAE80D244E44489C6234F4F835464A48035D0DF398FF9F8AF63D0E6CC63039F212F8F9020C7D47C6792B21C5FE7403D62A1188E2E60C98D7234A5830286103A55745067B9D86B8A3CF9C7F90C11DE6
310
07FB144396D7B6A82D282E9A152AD114D5EF2CB866EEE831B8EEA07A7BB5A8D7D61A2BAAEB7FD5F70921FF497D00504B0304140006080800CC70623BEDD1DC58FD000000A00100003B0000006662782F41393633353835312D344632462D344230382D423046372D3739314545314133324237412F7265736F75726365732F
310
636F72652E786D6C8D504B6E833010BD0A9A6D65B00922041947112427E8052C33A156828DFCA97AFC9A40A576D7CDCCE87D344F8F9FBFE667F689CE6B6B3A6039850C8DB2A336530731DC4903D95970676DF82583CCC8193B5861107C72362E3BA4AC096842428D1D7107A5F7182053CF7474E0D507CE32973124857FE48B
310
540F3961CEF244279DE03EB81420DB9EAC1384436FA353E879B1B182C7A8C75DA3C7F453DF353A1075D537A7BA6464B8F535A99AE14A9A2BBD90E350DD183B5CFABE3AF262350B1EF4FC9351399401471025A527C218A1E53BAB5A5AB765F5469B96525EACF23FA6B88CFF34456DC2A1DCE36E360F82A5202F42F062ED2BAD
310
579969AFDD8A6F504B010214000A0000080000CC70623B3DEE336E79000000790000001B00000000000000000000000000000000006175746F6465736B2D64657369676E2D7061636B6167652E786D6C504B01021400140006080800CC70623BD486FD9CA0000000F40000001300000000000000000000000000B20000005B
310
436F6E74656E745F54797065735D2E786D6C504B01021400140006080800CC70623B853B8169EB0000007C010000080000000000000000000000000083010000636F72652E786D6C504B01021400140006080800CC70623B55019EA25F0000007C000000070000000000000000000000000094020000636E782E786D6C504B
310
01021400140006080800CC70623BDBABAAF470010000D40300000C00000000000000000000000000180300006662782F636F72652E786D6C504B01021400140006080800CC70623B9C113CC27E0000009D0000000B00000000000000000000000000B20400006662782F636E782E786D6C504B01021400140006080800CC70
310
623B7DF2F77C2A010000120200003100000000000000000000000000590500006662782F41393633353835312D344632462D344230382D423046372D3739314545314133324237412F636F72652E786D6C504B01021400140006080800CC70623BAD7543B64E010000330300003000000000000000000000000000D2060000
310
6662782F41393633353835312D344632462D344230382D423046372D3739314545314133324237412F636E782E786D6C504B01021400140006080800CC70623BE75B7789680500003C10000034000000000000000000000000006E0800006662782F41393633353835312D344632462D344230382D423046372D3739314545
310
314133324237412F6F626A656374732E786D6C504B01021400140006080000CC70623B0000000000000000000000003500000000000000000000000000280E00006662782F41393633353835312D344632462D344230382D423046372D3739314545314133324237412F76657274696365732E62696E504B01021400140006
310
080800CC70623BF270F133060000000400000036000000000000000000000000007B0E00006662782F41393633353835312D344632462D344230382D423046372D3739314545314133324237412F747269616E676C65732E62696E504B01021400140006080000CC70623B0000000000000000000000003700000000000000
310
000000000000D50E00006662782F41393633353835312D344632462D344230382D423046372D3739314545314133324237412F617474726962757465732E62696E504B01021400140006080800CC70623B08DA0BD1900000004101000036000000000000000000000000002A0F00006662782F41393633353835312D344632
310
462D344230382D423046372D3739314545314133324237412F6469726563746F72792E786D6C504B01021400140006080800CC70623BEDD1DC58FD000000A00100003B000000000000000000000000000E1000006662782F41393633353835312D344632462D344230382D423046372D3739314545314133324237412F7265
310
736F75726365732F636F72652E786D6C504B0506000000000E000E0080040000641100000000
  0
XRECORD
  5
1F8
102
{ACAD_REACTORS
330
1F7
102
}
330
1F7
100
AcDbXrecord
280
     1
 70
     1
 90
429727718
  1
30362254-06B7-45E0-A893-8CFA70E3D6BC
310
504B03040A0000080000CC70623B3DEE336E79000000790000001B0000006175746F6465736B2D64657369676E2D7061636B6167652E786D6C3C3F786D6C2076657273696F6E3D22312E302220656E636F64696E673D227574662D3822203F3E3C666F726D6174733E3C666F726D61743E687474703A2F2F736368656D612E
310
6175746F6465736B2E636F6D2F64657369676E2D7061636B6167652F323030393C2F666F726D61743E3C2F666F726D6174733E504B0304140006080800CC70623BD486FD9CA0000000F4000000130000005B436F6E74656E745F54797065735D2E786D6C7D8EC10E82300C865F65E91D8A1E8C310C0EEA1BF002731658846E
310
D98AC1B77784ABF1D8FE5FBFBF75BBCE937A534CCEB38643598122B6FEE978D0B0485F9C41B54DDD7D022595594E1A469170414C76A4D9A4D207E29CF43ECE46F218070CC6BECC4078ACAA135ACF422C856C0E68EA1BF5669944DDD7BCDE7B1F8E415D77AECB980613C2E4AC91FC167A2B244592486606FC29C8FD7F045B9A
310
EF7053A7E60B504B0304140006080800CC70623B1EC5D7A3EB0000007C01000008000000636F72652E786D6C8D90416EC3201045AF82665B6103C6756C6122AB4D4ED00B204C5C94182C03558F5F9C3852BBEB6A467FFE9B197D71FC9E6FE8CBACC17AD7032D0820E3B41FAD9B7A48F1820F808E52ACDEC75F36404ECDA687
310
4D0629A6D5A76597B477D1B89855E747B38B2A041301E95B6E7A08FAD3CCAA50296647B8168BD2573599823EBB0CA76447F43862C7BCCF5EAC59410E4DDD9C7973C2755553CCCFA4C603E3040F1565ED3B1FDE4E432BCA0D9622DAF9795FAF464533826484B498524CD807E51D79ED187F21878E10516EF63F505AC67F42C9
310
BA58B1FDDD071640D2FCC87D2045B96591CB3DA85CB7DCE40F504B0304140006080800CC70623B55019EA25F0000007C00000007000000636E782E786D6C4DCB3B0E80201045D1AD90E915ED2CF8AC45050C11660C8261F98AB1B07AC9C97D42D718D865D3E909258CFD00CCE24AC6E326A164D74DC0B4128928FF32603847
310
2BA13128B1252AC747C6BAB984FC68F0B87FE8960A5C09FE86CFB69FBA01504B0304140006080800CC70623B8C9102E971010000D40300000C0000006662782F636F72652E786D6CC5535B6E833010BC8AE5DF0A6C08340F1947A84D4ED00B38C6A128602363A31CBFCB234A53A551FA553EC09AD9F5CE8C31DB9E9B1AF5CA
310
7695D1198E428A91D2D214952E33ECDD315861B4E5CC1AE3BE9561A445A3323CC098B3D21ADFCE9034DA29ED00D5A6503328BA4E398C640D8B0C77F253352214DE4145770A5B214FA2546114020D759C75CE8200340D19DE981F0F6746269C33EFAB6266AB02A655C74A59CCF365BADC27CB5D902ED22848F6340DF238A141
310
BE88E2F57B92BFEDF23523433367AE6A2EEAA455C2A902F398D2751045018D3FA264435F3771F242571B4A1919CA6F9A7C5B3CD9E42BED16F12C776AEB308F40C848FC700B1139D4891EF410CEC810227CC6846F8386402064270EF5C5C709A05E49676C024C61FC95EA45ED154CA5211D1FF4FB8291A913A68E9B83EBBB33
310
E2A7673CDE118E5AE8124C0807CB8377834E366998436B950D7A7746DAD846D4CFD978E0F04FD455FC5D49D2D4C6FE9722321F10997F0F32DC47FE05504B0304140006080800CC70623BFFEA85907E0000009D0000000B0000006662782F636E782E786D6C4DCCD10A83201886E15B91FFDC95D95A811AB6F23E625948A6C3
310
E9D8E5AF46073BFAE0E1E365ED67B3E8ADC3CB78C7815C7240DA3DFC64DCC221C519D7805AC182F7F1EF06C88D9BE6703008B6049F9E274D7A1E938DBB5AE3D6131B2589BA0D3D965551E0B2EA732C9B9A624AAEB41E3A557677029960D9AFB4EF11165F504B0304140006080800CC70623B4FEEA4082C0100001202000031
310
0000006662782F39464131463745442D413632322D343644302D413938332D3331353338454246344243312F636F72652E786D6C8D515B6EC32010BC0AE2AB55850DD871ED0813254D72825EC00192A2C460F1A872FC42ED48ED5F7E00CDCECCCEB26C731F6FE05B39AFADE921293004CA082BB5B9F43086336A21D870E6AC
310
0D7F68109861543DCC30E4ECE26C9C164858139409093556AA051CBC570102714B8F1E7AF1A5C6A11862480C7F2DA6415C878B2A4891CA89C7990F2E050073937C42DE1DB7E4F87ED8A36D4329AA9B3D46DBAEAD504556557BD81DEBDD0761E52CE42C462D17B996298E3E6BE59E35C962CE821E1FF18553435012728A7187
310
0841987E927A8D9B35ADDF70BBC6989599FE4F1427F9A4286A132ABAC49D651EF234CD5CE04CDA78BA3DC2A8FB645D00B9DF8B57E215725C60BCA2A463E54C4CE327C7A65E1C7DB02E7DEFCBF594B864C5CA6CDBD49C957943E9FA5D5FBAF336F90F504B0304140006080800CC70623BAD7543B64E01000033030000300000
310
006662782F39464131463745442D413632322D343644302D413938332D3331353338454246344243312F636E782E786D6CD593CD6EC32010845F0571AD6CE3D48AD20813A9873E410FBD12D82434182C7EAAE6EDBB2424CD25871E7B41D6EC30B3FA84F9E67BB2E40B4234DE8DB46F1925E094D7C6ED479AD3AE5951B2113C
310
789FEE6C943839C1488B4C05DF079FE72A69D8C96C13AAD6B8631503449F83828872B949AC57D26200B826A308D316B4064D6E46FCDA41C05550DC9E483A00797BFD207EFB092A45DE9514C1BBD22178396BD39D891265658C238DEA00936C654E5E433CB65A26D9F6EDB5EBC14EBF49A45CB856E66048291F6939A9A81BB5
310
C8917738143CA680F4AA299D66A042CEB3354A2684DC9D8D178FE0D9B8B41CAAD720F880EE7EF93C0C18769E099ECC04D5A102C8049A8A05632F4DDF376CF1DE0F6BB65C2F8627B65A33C6BB62177CEBBDAD973006829F89F22E814B54F4BC2BE347F8AA8F681390B50FA73F804400B5F542E796F19FF974E7F78DB802FE05
310
E207504B0304140006080800CC70623B16AB87BA640500003C100000340000006662782F39464131463745442D413632322D343644302D413938332D3331353338454246344243312F6F626A656374732E786D6CAD575B6FA33818FD2B887DE6924B3BED8A326A92B68A663B534DD4D13E548A0C38942D60649B369D5FBFC7
310
600890A493BDE42160637FD7F31D7FF63E6FB3D478A55C242CBF3247B66B1A340F5994E4F19559CA8D75611A9F7D8F33263BCB4C232719BD32D5B4E97B316765A1A722BA21652A07B3B7B33F0D11D29C9A46981221AE4C113ED38CD8A4942CA2E2C58E882476BCD9DA23BB5ED8171B73523C0F841684D35CC252CCE79062D4
310
468DFA43D7747CCF51DF7D4FFDEB5593E3AB9CCA9FBEFE241792E4E19EB28198C968BAB8199F5D5A67D3E9C49A9E8F47D6EC76B6B0469F26EEFC7C3EBFBCBEB98462213924694B38DD98FE1D62C393D073EA4FADC5DAF04326852CCF6958F90F0F2B9BB5C48816348F90C7840A68EB78EDF68723159BCEE7891A6B95DDE9D3
310
BCEAEEE8086A6C6F9E5D4B59F0175C10A7A0820BAA5055C7473B5AE3CFDD452D602CD5DF12616444529E90D448938013FE6EFA58AA96F85E4F8C42275708571E98FE6827AF6B2B4AE3D7D83D64E5A64C53054DD3AF90BD06FEA9149565C94FCA0F6B834DC85599E4F2423B24DF0B6AFA979E534DFA9E7A4CC6FA631D486393
310
921829879BF5D781A373557BCB85E97FB90DB62B558F8795179C15944B051F40AB495CF35451D26A4727654E6D8033BD98EF82F21D91FF8AF2DD9982BCF1643BDD4EB516C9492E368C67C88DED563FC36D5EACF66DFF057C3658BDBFA69DF9578B3DA735B64F18C7F20770A9D45CFCF7FCF563D6456A277DBEF78A02637CA2
310
43B90A490AEAB94F72244481D24819A6C0E59B606BFA4B3025981DBB48EAB701D97BF19C577CC77F2D1B6C55A9EF3C732474C0B727303F625995056C3B02963D9EAC146BE78EC5FCEC7FA999EBC5EACBAAE41B12D27B4D2C0BBA49F244E2ECDC81B76B502F113D8F5EE8FB1BE3111CDD4FC2AA9B844CAB1288B68AB90A7CDC
310
1C166AB0D3DC5310625FCC14E779BFD0709F8890A629C9292B1B2DED31A4B0DA928CEE135085754027E3018A397D4D5427D15BD1330B677DC8934285AC3DF45A9EB68FF8F2B8FC0A509AFEECFD0FF2DE25CC6047F7214B195F07EFEB9A094D800F7BFAE8FED187B78EA8A3A400F115961BCAD1215E47C966530AF0EE8128FE
310
58CEBB996A8964FFA529A046635D9353B0336A8F700DDF46271A024E70B0B37C9DE01847591E54DED53D54202AB947E4076556AC49C6CA5C9E1226B7F1A7B1BE15DEED62C41B91E1B3E9AFAAA735036547343A925075041DF0A9979E893B391F8FCFA6967B3EFB644DCF6E5CEBFAE272625DCC6FAF3FB93793C5F90CE1EF57
310
407342756B10D1C489E8953CD1617E5CEECAD6F4EF8914CE5D5D504E5C3F1F9736DA62CFC11E00BCDDB8CC8A9466349744C1F75EBDA4DF09BA8A9E8C7A7E9991989E20E5DBDD6A6003664ED8F7A04A8DBE0DF6EAD9B9AA858342E47399053949D2C146EDB85DE4B176BB0965FBAC19BD19AA918E27FA50C1D22402E144464C
310
59462568E704B6E71915404CB72B8FF4EDE184DDAF753F284990D2C6926782963815403548A70C657FDEF80D2D9CEAA2AE4C1C76F60BFE74219A06527D6582DF6412526107381E55E353090704D085B52408D0933C4ED159D79BDA71BB4BC506F4831350EB6F979CD22D69BF7AC49B91A2C0A9DDA3D5CA36AD20FC478E37E6
310
1844E2352865EBCB6EA275A652E3836BE04EFB400BF1A2556F515F1FBB35B2AB35BD889C744FFA1004B5544B121E57F70215746DD2F5E2C1412B602CBF19455AC6C8E5E9922C4E01E65215385004546899059180EAFCF7A707CE7017CD8CDB0410789AB32C63B91E5CEBBBACB17AC6CD347A022D5075FD106377347AAABA7E
310
7D11590744509B44E205134DC1290F06580320F78E537D3D73540E06CB970B431F185308AD40BBD794D6D77003C5A36E8EAA54BA64597CD8F83BD552A080A365F7FF06504B0304140006080000CC70623B000000000000000000000000350000006662782F39464131463745442D413632322D343644302D413938332D3331
310
353338454246344243312F76657274696365732E62696E504B0304140006080800CC70623BF270F1330600000004000000360000006662782F39464131463745442D413632322D343644302D413938332D3331353338454246344243312F747269616E676C65732E62696E636660600000504B0304140006080000CC70623B
310
000000000000000000000000370000006662782F39464131463745442D413632322D343644302D413938332D3331353338454246344243312F617474726962757465732E62696E504B0304140006080800CC70623B08DA0BD19000000041010000360000006662782F39464131463745442D413632322D343644302D413938
310
332D3331353338454246344243312F6469726563746F72792E786D6C858F410AC3201045AF22B36F53E9A60B35CBEEBAE80D244E44489C6234F4F835464A48035D0DF398FF9F8AF63D0E6CC63039F212F8F9020C7D47C6792B21C5FE7403D62A1188E2E60C98D7234A5830286103A55745067B9D86B8A3CF9C7F90C11DE607
310
FB144396D7B6A82D282E9A152AD114D5EF2CB866EEE831B8EEA07A7BB5A8D7D61A2BAAEB7FD5F70921FF497D00504B0304140006080800CC70623B0D6EF93BFE000000A00100003B0000006662782F39464131463745442D413632322D343644302D413938332D3331353338454246344243312F7265736F75726365732F63
310
6F72652E786D6C8D50596E833010BD0A9ADFCA60B334011947A8694ED00B586642AC041B79A97AFC9A40A5F6AF3F33A3B7689E1E3F7DCD8FEC139DD7D6F4C0720A191A65476DA61E62B892236427C19DB5E1970C322367EC618541F0C9D9B8EC90B226A009093576C41D94DE63804C3DD2D18357379C652E63480A7FCF17A9
310
EE72C29CE5894E3AC17D702940B63D59270887DE46A7D0F36263058F518FBB468FE9A7BE6A7420864373B8D4873369AA8691FA421B3294352543C5CAF65C0F6FEF43CB8BD52C78D0F34F46E550061C419494B6843142CB0F5677F4B52BEB177AEC28E5C52AFF638ACBF84F53D42654E51E77B379102C05791282176B5F693D
310
CB4C7BED567C03504B010214000A0000080000CC70623B3DEE336E79000000790000001B00000000000000000000000000000000006175746F6465736B2D64657369676E2D7061636B6167652E786D6C504B01021400140006080800CC70623BD486FD9CA0000000F40000001300000000000000000000000000B20000005B
310
436F6E74656E745F54797065735D2E786D6C504B01021400140006080800CC70623B1EC5D7A3EB0000007C010000080000000000000000000000000083010000636F72652E786D6C504B01021400140006080800CC70623B55019EA25F0000007C000000070000000000000000000000000094020000636E782E786D6C504B
310
01021400140006080800CC70623B8C9102E971010000D40300000C00000000000000000000000000180300006662782F636F72652E786D6C504B01021400140006080800CC70623BFFEA85907E0000009D0000000B00000000000000000000000000B30400006662782F636E782E786D6C504B01021400140006080800CC70
310
623B4FEEA4082C0100001202000031000000000000000000000000005A0500006662782F39464131463745442D413632322D343644302D413938332D3331353338454246344243312F636F72652E786D6C504B01021400140006080800CC70623BAD7543B64E010000330300003000000000000000000000000000D5060000
310
6662782F39464131463745442D413632322D343644302D413938332D3331353338454246344243312F636E782E786D6C504B01021400140006080800CC70623B16AB87BA640500003C1000003400000000000000000000000000710800006662782F39464131463745442D413632322D343644302D413938332D3331353338
310
454246344243312F6F626A656374732E786D6C504B01021400140006080000CC70623B0000000000000000000000003500000000000000000000000000270E00006662782F39464131463745442D413632322D343644302D413938332D3331353338454246344243312F76657274696365732E62696E504B01021400140006
310
080800CC70623BF270F133060000000400000036000000000000000000000000007A0E00006662782F39464131463745442D413632322D343644302D413938332D3331353338454246344243312F747269616E676C65732E62696E504B01021400140006080000CC70623B0000000000000000000000003700000000000000
310
000000000000D40E00006662782F39464131463745442D413632322D343644302D413938332D3331353338454246344243312F617474726962757465732E62696E504B01021400140006080800CC70623B08DA0BD190000000410100003600000000000000000000000000290F00006662782F39464131463745442D413632
310
322D343644302D413938332D3331353338454246344243312F6469726563746F72792E786D6C504B01021400140006080800CC70623B0D6EF93BFE000000A00100003B000000000000000000000000000D1000006662782F39464131463745442D413632322D343644302D413938332D3331353338454246344243312F7265
310
736F75726365732F636F72652E786D6C504B0506000000000E000E0080040000641100000000
  0
XRECORD
  5
175
102
{ACAD_REACTORS
330
173
102
}
330
173
100
AcDbXrecord
280
     1
270
     1
271
     1
  0
XRECORD
  5
174
102
{ACAD_REACTORS
330
173
102
}
330
173
100
AcDbXrecord
280
     1
270
     1
271
     1
  0
XRECORD
  5
1FB
102
{ACAD_REACTORS
330
173
102
}
330
173
100
AcDbXrecord
280
     1
 70
     0
 90
1673772943
  1
ECE7A1D2-D628-4531-984C-D00F80459256
310
504B03040A0000080000CC70623B3DEE336E79000000790000001B0000006175746F6465736B2D64657369676E2D7061636B6167652E786D6C3C3F786D6C2076657273696F6E3D22312E302220656E636F64696E673D227574662D3822203F3E3C666F726D6174733E3C666F726D61743E687474703A2F2F736368656D612E
310
6175746F6465736B2E636F6D2F64657369676E2D7061636B6167652F323030393C2F666F726D61743E3C2F666F726D6174733E504B0304140006080800CC70623BD486FD9CA0000000F4000000130000005B436F6E74656E745F54797065735D2E786D6C7D8EC10E82300C865F65E91D8A1E8C310C0EEA1BF002731658846E
310
D98AC1B77784ABF1D8FE5FBFBF75BBCE937A534CCEB38643598122B6FEE978D0B0485F9C41B54DDD7D022595594E1A469170414C76A4D9A4D207E29CF43ECE46F218070CC6BECC4078ACAA135ACF422C856C0E68EA1BF5669944DDD7BCDE7B1F8E415D77AECB980613C2E4AC91FC167A2B244592486606FC29C8FD7F045B9A
310
EF7053A7E60B504B0304140006080800CC70623BD9DDAED0EC0000007C01000008000000636F72652E786D6C8D90416EC3201045AF82665B61836D9CD8C2444DD39CA01740405C94182C03558F5F9C3852BBEB6A467FFE9B197D7EF89E6EE8CB2CC17A37002D0820E394D7D68D03A478C17B4007C117EFE32F1B20272733C0
310
2A83E0E3E2D3BC49CABB685CCCAAF3DA6CA20CC14440EA969B0182FA34932C648AD911AEC52CD5558EA6A0CF2EC329598D1E47ACCEFBECC59A050463A7EA5833865FEBDD0E37353BE3EE8DBDE3F6786A48D375FBF6CC78B9C282473B3DEFABC5C86834888A900E538A49F5419B9EB47DD5BC907D4F082F57FB1F28CDFA9F50
310
B22ED6D5F6EE030B20687EE43E10BC5CB3C8E51E54AE6B6EE207504B0304140006080800CC70623B55019EA25F0000007C00000007000000636E782E786D6C4DCB3B0E80201045D1AD90E915ED2CF8AC45050C11660C8261F98AB1B07AC9C97D42D718D865D3E909258CFD00CCE24AC6E326A164D74DC0B4128928FF326038
310
472BA13128B1252AC747C6BAB984FC68F0B87FE8960A5C09FE86CFB69FBA01504B0304140006080800CC70623BA24EB22D72010000D40300000C0000006662782F636F72652E786D6CC5535B6E833010BC8AE5DF0A6C5E49888CA3A6694ED00B38E05014B091B1518EDFE511A5A9D228FD2A1F60CDEC7A67C6986DCE4D8D7A
310
69BA4AAB0C073EC548AA5C17952A33ECECD15B61B4E1CC686DBF9561A44423333CC098B3D268D7CE50AE9595CA02AA74216750749DB418E5352C32DCE59FB211BE70162ABA93DF8AFC244AE9073ED050C759670D0840D390E18DF9F1706664C23973AE2A66B62A605A75ACA4C13C4976E1364A12EF355A2EBD384AF65EFA96
310
BC7B8BED2EA6719AAE16FB8491A199335B351775B991C2CA02F390D2D40B028F861F41BCA68B7518BFD0D59A524686F29B26D7164F36B94AD9289CE54E6D1DE6010819891F6E21228B3AD1831EC219194284CF98F06DD01008846CC5A1BEF83801D4CBDC6A1303536877A57A513B0953A94FC707FDBE6064EA84A9E3E6E0FA
310
EE8CF0E9198F7784A316AA0413C2C2F2E0ECA0934D1AE6D05A69BCDE9E91D2A611F573361E38FC1375157F5752AE6B6DFE4B11990F88CCBF0719EE23FF02504B0304140006080800CC70623B408A7D3B7C0000009D0000000B0000006662782F636E782E786D6C4DCCD10A83201886E15B91FFDC552A92A0064DBC8F581632
310
D3703A76F9ABD1C18E3E78F878E5F0D9027ABBFCF2292AE86E2D20171F69F6715550CB827B40839639A5F2770314A7CD293819B45C73AAFB45B35BA61ACAA1C1C7E7855C58C15BC331339661262CC762340413D68D77DA5B42298546CBE6573AF60CEB2F504B0304140006080800CC70623B449FB9BD290100001202000031
310
0000006662782F36394639363044362D344446342D343946362D394244322D3234314243333846323333332F636F72652E786D6C8D515B6EC32010BC0AE22B55850D98B871848994463E412FE002495162B07854397EA176A4F62F3F2C9A9D991D587EB84F37F0AD7D30CEF6905418026DA553C65E7A98E219ED203808EE9D
310
8B7F6810D871D23D2C3014FCE25D9A57483A1BB58D19B54EE9151C43D0110279CB971E06F9A5A7B11A53CC8C70ADE6515EC78BAE4895DB992778883E0700CB907242D17643D7E2538BD869608875438BBAE38922CAC8F1BDD90DB4691A5E2F42C153326A951B95E398B3D1FE599322163C9AE9115F7A3D46ADA0A018778810
310
84E907617BDCEE297BC5BB3DC6BC2EF47FA234AB2745C9D8D8D035EE220B50105E2F0DC1954B9FB747187D9F9D8FA0CCDB042D5FA0C015C65B42DF78BD10F3F3B363CB56C7109DCFDFBBB97E662ED92EB62D13BC2E1BCAE5777DB9966D8A1F504B0304140006080800CC70623BAD7543B64E01000033030000300000006662
310
782F36394639363044362D344446342D343946362D394244322D3234314243333846323333332F636E782E786D6CD593CD6EC32010845F0571AD6CE3D48AD20813A9873E410FBD12D82434182C7EAAE6EDBB2424CD25871E7B41D6EC30B3FA84F9E67BB2E40B4234DE8DB46F1925E094D7C6ED479AD3AE5951B2113C789FEE
310
6C943839C1488B4C05DF079FE72A69D8C96C13AAD6B8631503449F83828872B949AC57D26200B826A308D316B4064D6E46FCDA41C05550DC9E483A00797BFD207EFB092A45DE9514C1BBD22178396BD39D891265658C238DEA00936C654E5E433CB65A26D9F6EDB5EBC14EBF49A45CB856E66048291F6939A9A81BB5C89177
310
38143CA680F4AA299D66A042CEB3354A2684DC9D8D178FE0D9B8B41CAAD720F880EE7EF93C0C18769E099ECC04D5A102C8049A8A05632F4DDF376CF1DE0F6BB65C2F8627B65A33C6BB62177CEBBDAD973006829F89F22E814B54F4BC2BE347F8AA8F681390B50FA73F804400B5F542E796F19FF974E7F78DB802FE05E20750
310
4B0304140006080800CC70623B8D05915C650500003B100000340000006662782F36394639363044362D344446342D343946362D394244322D3234314243333846323333332F6F626A656374732E786D6CAD575B6FA33814FE2B887D06429276DA1565D4266D158D3A339A6846FB502932E050B66023DB74D2FDF5FB190C01
310
9276B2973C046C8ECFF53B17071F77456EBD502133CEAE6CDF9DD81665314F32965ED995DA3A17B6F5310C04E7AA47665B8C14F4CAD6DB7618A48257A5D94AE89654B91AEDDEDDFC61C998326A5B714EA4BCB265FC440BE2924AF184CA6737218AB8E976E7FA6E4338649B0A523E8D98964450A6A029F619B8588D52FE7039
310
B1BD30F0F4F730D0FF866AF6369557DB33949F31A9088B0F848DD8CCFCF9F2767A76E99CCDE733677E3EF59D9BBB9BA5E37F984D16E78BC5E5F5ED25044B25C0C96822E8D60EEFE11B91C581D77CEA34368A1F5329E68CD1B8B61F16D63A1B8E092D294B10C78C4A48EB593D192E7DED9BDEE7995E1B91FDEDD3ACEA9FE831
310
6A756F9F7D4D79F4274C90A7A04248AA51D5F8C718DAE06FB2F75AC4796EBE65D22A88A22223B995679120E2D50E41AA49C260C046A35368846B0BECD0DFF3EBEB8AD4F835768F69B9ADF25C43D30E6B646F807FAA64AD59F61715C7A54127C4AACA98BA3006A9D792DAE165E0D59B61A01FB3A9F9D838D2DAE62445C86166
310
F37564E842E7DE6A69879FEEA2DD5AE7E371E1A5E025154AC307D06A03D73EB5978C58FFA4C8E9033066E0F3BD53BEC1F39F91BE7B55103791EDE6BBB991A2046172CB4581D8B893FA674DDA17A77B3B7C413D1B511FD2743BFF8A38F03A658705E3ADF8015C3A3417FF3D7E439FF591DA0B5F18BC20C1B8981957AE6392A3
310
F43C640C01D1A0B4728E2DD4F26DB4B3C3152A252A3B4E913CEC1C72F012782FF88EFF8637AA552DBEF76408E8A8DE9E50F9E1CB3A2DA0DB1B6039A893B56063DC5B3E3FFB5F72E67AB9FEB4AEC496C4F4C1149625DD662C53E89D7BF0F6151A046260D1337DFDC94502430F83B0EE07A130A224BCAD7DAE1D9FB6CD422FF6
310
920702629C4BB9AE79C12F243C6432A6794E18E5552BA56B431AAB5D91317302B2B071E86C3A42B1A02F999E24061403B5D0EB639195DA655DD3EBEAB4FB862DDF579F014AD0E73C22F99E28DA57FB98E75C6CA2D74D53086D600F4786E0FE3144B771A8A7B900F03594DB8A633CBC49B2EDB69228BB479CF863B5E807AAAB
310
23872F6DFEB4129B949CA33823F58830E86D65621E10047D9DB34D862E8EAC3C2ABC2F7B2C40D67CDFE01F5545B92105AF983AC54D93D69E56FB8E797F88913F898A9FEC705D3F9D1B54EC8426FB500D40A03BD0119B06E1B95DDC7EB8F6975367793EBD70E66733DFB9BC982F9CE564727731999F5D4ECFCE3B8D6A4DC2A0
310
6D50FD148437D110834A64C6CDDF57FBACB5C307A2A477DFE4939736CFEF2B175371E0E10CF0DD1D5C15654E0BCA14D1E87DD02FF93782A162C0A3D95F1524A52770F972BF1EE9809D13CE7DD599467F8ECE9ADD85CE85A34CD45355448C64F9E8A031DC2D596ACC6E5DD93D9B82DE2EF5CAF81363A8E47996A0DE24564A79
310
4115AACE09C55E14540231FDA13C319787134EBF34E3A022514E5B4D9E0826E25C02D5805B15ABE1BEF51B26383D445DD9E875EE33FE4C22DA16427D65A3BCA92CA6D28DD01DF5DC53330704308475351050232CCD31583787BA75774AFB06E5070DD0C8EF484E19968C5D83BA5B90B244D31E54D55A372320FE4786B7EA58
310
44E135AA5467CB7EA333A61683CC6A8C3257034C10CF46F40EF9F5BE59BE5BD30C3C72D235E95D10345C1D45445A5F0BB47E46A5EBE5570F9380B5FA629579952296A773720405982B9DE04011506178964401AA8BDF1FBF0A8EAB6861DD6580C0E38217056766716DAEB2D6FA0917D3E4116581EADB879C4E7CFFB11EFACD
310
3D641311495D92C8676CB409A72D18610D803CE8A626049E8EC1887CB5B44CC39883690DDA8399B4B9855B481E7D71D4A9D22F96E5BB73BF5793020C02137BF837504B0304140006080000CC70623B000000000000000000000000350000006662782F36394639363044362D344446342D343946362D394244322D32343142
310
43333846323333332F76657274696365732E62696E504B0304140006080800CC70623BF270F1330600000004000000360000006662782F36394639363044362D344446342D343946362D394244322D3234314243333846323333332F747269616E676C65732E62696E636660600000504B0304140006080000CC70623B0000
310
00000000000000000000370000006662782F36394639363044362D344446342D343946362D394244322D3234314243333846323333332F617474726962757465732E62696E504B0304140006080800CC70623B08DA0BD19000000041010000360000006662782F36394639363044362D344446342D343946362D394244322D
310
3234314243333846323333332F6469726563746F72792E786D6C858F410AC3201045AF22B36F53E9A60B35CBEEBAE80D244E44489C6234F4F835464A48035D0DF398FF9F8AF63D0E6CC63039F212F8F9020C7D47C6792B21C5FE7403D62A1188E2E60C98D7234A5830286103A55745067B9D86B8A3CF9C7F90C11DE607FB14
310
4396D7B6A82D282E9A152AD114D5EF2CB866EEE831B8EEA07A7BB5A8D7D61A2BAAEB7FD5F70921FF497D00504B0304140006080800CC70623BCA768048FE000000A00100003B0000006662782F36394639363044362D344446342D343946362D394244322D3234314243333846323333332F7265736F75726365732F636F72
310
652E786D6C8D50596E833010BD0A9ADFCA60D600328E9AA639412F609909B1126CE4A5EAF16B0295DABFFECC8CDEA2797AECF8353F924FB44E193D409E5248504B332A3D0D10FC95B4901C39B3C6F85F3248B49871801506CE266BC2B243D2688FDA47549B11775038871E12F988C7004EDE7016A9083E2ADC3D5D84BC8B09
310
D33C8D74D471E6BC8D0192EDC93A815B742658898E651BCB59086ADC356A8C3FD555A1055ED7E7E254D615792D0F075295F585746FF53B694EE78A565DD736979A65AB9933AFE69F8CD2A2F038022F28ED489E135A7CE4554F9BBEA85E68DB53CAB255FEC71496F19FA6A0B42F8B3DEE6673C0F318E4497096AD7DC5F52C33
310
EEB55BFE0D504B010214000A0000080000CC70623B3DEE336E79000000790000001B00000000000000000000000000000000006175746F6465736B2D64657369676E2D7061636B6167652E786D6C504B01021400140006080800CC70623BD486FD9CA0000000F40000001300000000000000000000000000B20000005B436F
310
6E74656E745F54797065735D2E786D6C504B01021400140006080800CC70623BD9DDAED0EC0000007C010000080000000000000000000000000083010000636F72652E786D6C504B01021400140006080800CC70623B55019EA25F0000007C000000070000000000000000000000000095020000636E782E786D6C504B0102
310
1400140006080800CC70623BA24EB22D72010000D40300000C00000000000000000000000000190300006662782F636F72652E786D6C504B01021400140006080800CC70623B408A7D3B7C0000009D0000000B00000000000000000000000000B50400006662782F636E782E786D6C504B01021400140006080800CC70623B
310
449FB9BD290100001202000031000000000000000000000000005A0500006662782F36394639363044362D344446342D343946362D394244322D3234314243333846323333332F636F72652E786D6C504B01021400140006080800CC70623BAD7543B64E010000330300003000000000000000000000000000D20600006662
310
782F36394639363044362D344446342D343946362D394244322D3234314243333846323333332F636E782E786D6C504B01021400140006080800CC70623B8D05915C650500003B10000034000000000000000000000000006E0800006662782F36394639363044362D344446342D343946362D394244322D32343142433338
310
46323333332F6F626A656374732E786D6C504B01021400140006080000CC70623B0000000000000000000000003500000000000000000000000000250E00006662782F36394639363044362D344446342D343946362D394244322D3234314243333846323333332F76657274696365732E62696E504B010214001400060808
310
00CC70623BF270F13306000000040000003600000000000000000000000000780E00006662782F36394639363044362D344446342D343946362D394244322D3234314243333846323333332F747269616E676C65732E62696E504B01021400140006080000CC70623B00000000000000000000000037000000000000000000
310
00000000D20E00006662782F36394639363044362D344446342D343946362D394244322D3234314243333846323333332F617474726962757465732E62696E504B01021400140006080800CC70623B08DA0BD190000000410100003600000000000000000000000000270F00006662782F36394639363044362D344446342D
310
343946362D394244322D3234314243333846323333332F6469726563746F72792E786D6C504B01021400140006080800CC70623BCA768048FE000000A00100003B000000000000000000000000000B1000006662782F36394639363044362D344446342D343946362D394244322D3234314243333846323333332F7265736F
310
75726365732F636F72652E786D6C504B0506000000000E000E0080040000621100000000
  0
XRECORD
  5
176
102
{ACAD_REACTORS
330
173
102
}
330
173
100
AcDbXrecord
280
     1
270
     1
271
     1
  0
XRECORD
  5
177
102
{ACAD_REACTORS
330
173
102
}
330
173
100
AcDbXrecord
280
     1
270
     1
271
     1
  0
CELLSTYLEMAP
  5
1EA3
102
{ACAD_REACTORS
330
162
102
}
330
162
100
AcDbCellStyleMap
 90
        3
300
CELLSTYLE
  1
TABLEFORMAT_BEGIN
 90
        5
170
     1
 91
        0
 92
    32768
 62
   257
 93
        1
300
CONTENTFORMAT
  1
CONTENTFORMAT_BEGIN
 90
        0
 91
        0
 92
      512
 93
        0
300

 40
0.0
140
1.0
 94
        5
 62
     0
340
11
144
6.0
309
CONTENTFORMAT_END
171
     1
301
MARGIN
  1
CELLMARGIN_BEGIN
 40
1.5
 40
1.5
 40
1.5
 40
1.5
 40
0.18
 40
0.18
309
CELLMARGIN_END
 94
        6
 95
        1
302
GRIDFORMAT
  1
GRIDFORMAT_BEGIN
 90
        0
 91
        1
 62
     0
 92
       -2
340
14
 93
        0
 40
1.125
309
GRIDFORMAT_END
 95
        2
302
GRIDFORMAT
  1
GRIDFORMAT_BEGIN
 90
        0
 91
        1
 62
     0
 92
       -2
340
14
 93
        0
 40
1.125
309
GRIDFORMAT_END
 95
        4
302
GRIDFORMAT
  1
GRIDFORMAT_BEGIN
 90
        0
 91
        1
 62
     0
 92
       -2
340
14
 93
        0
 40
1.125
309
GRIDFORMAT_END
 95
        8
302
GRIDFORMAT
  1
GRIDFORMAT_BEGIN
 90
        0
 91
        1
 62
     0
 92
       -2
340
14
 93
        0
 40
1.125
309
GRIDFORMAT_END
 95
       16
302
GRIDFORMAT
  1
GRIDFORMAT_BEGIN
 90
        0
 91
        1
 62
     0
 92
       -2
340
14
 93
        0
 40
1.125
309
GRIDFORMAT_END
 95
       32
302
GRIDFORMAT
  1
GRIDFORMAT_BEGIN
 90
        0
 91
        1
 62
     0
 92
       -2
340
14
 93
        0
 40
1.125
309
GRIDFORMAT_END
309
TABLEFORMAT_END
  1
CELLSTYLE_BEGIN
 90
        1
 91
        1
300
_TITLE
309
CELLSTYLE_END
300
CELLSTYLE
  1
TABLEFORMAT_BEGIN
 90
        5
170
     1
 91
        0
 92
        0
 62
   257
 93
        1
300
CONTENTFORMAT
  1
CONTENTFORMAT_BEGIN
 90
        0
 91
        0
 92
      512
 93
        0
300

 40
0.0
140
1.0
 94
        5
 62
     0
340
11
144
4.5
309
CONTENTFORMAT_END
171
     1
301
MARGIN
  1
CELLMARGIN_BEGIN
 40
1.5
 40
1.5
 40
1.5
 40
1.5
 40
0.18
 40
0.18
309
CELLMARGIN_END
 94
        6
 95
        1
302
GRIDFORMAT
  1
GRIDFORMAT_BEGIN
 90
        0
 91
        1
 62
     0
 92
       -2
340
14
 93
        0
 40
1.125
309
GRIDFORMAT_END
 95
        2
302
GRIDFORMAT
  1
GRIDFORMAT_BEGIN
 90
        0
 91
        1
 62
     0
 92
       -2
340
14
 93
        0
 40
1.125
309
GRIDFORMAT_END
 95
        4
302
GRIDFORMAT
  1
GRIDFORMAT_BEGIN
 90
        0
 91
        1
 62
     0
 92
       -2
340
14
 93
        0
 40
1.125
309
GRIDFORMAT_END
 95
        8
302
GRIDFORMAT
  1
GRIDFORMAT_BEGIN
 90
        0
 91
        1
 62
     0
 92
       -2
340
14
 93
        0
 40
1.125
309
GRIDFORMAT_END
 95
       16
302
GRIDFORMAT
  1
GRIDFORMAT_BEGIN
 90
        0
 91
        1
 62
     0
 92
       -2
340
14
 93
        0
 40
1.125
309
GRIDFORMAT_END
 95
       32
302
GRIDFORMAT
  1
GRIDFORMAT_BEGIN
 90
        0
 91
        1
 62
     0
 92
       -2
340
14
 93
        0
 40
1.125
309
GRIDFORMAT_END
309
TABLEFORMAT_END
  1
CELLSTYLE_BEGIN
 90
        2
 91
        1
300
_HEADER
309
CELLSTYLE_END
300
CELLSTYLE
  1
TABLEFORMAT_BEGIN
 90
        5
170
     1
 91
        0
 92
        0
 62
   257
 93
        1
300
CONTENTFORMAT
  1
CONTENTFORMAT_BEGIN
 90
        0
 91
        0
 92
      512
 93
        0
300

 40
0.0
140
1.0
 94
        2
 62
     0
340
11
144
4.5
309
CONTENTFORMAT_END
171
     1
301
MARGIN
  1
CELLMARGIN_BEGIN
 40
1.5
 40
1.5
 40
1.5
 40
1.5
 40
0.18
 40
0.18
309
CELLMARGIN_END
 94
        6
 95
        1
302
GRIDFORMAT
  1
GRIDFORMAT_BEGIN
 90
        0
 91
        1
 62
     0
 92
       -2
340
14
 93
        0
 40
1.125
309
GRIDFORMAT_END
 95
        2
302
GRIDFORMAT
  1
GRIDFORMAT_BEGIN
 90
        0
 91
        1
 62
     0
 92
       -2
340
14
 93
        0
 40
1.125
309
GRIDFORMAT_END
 95
        4
302
GRIDFORMAT
  1
GRIDFORMAT_BEGIN
 90
        0
 91
        1
 62
     0
 92
       -2
340
14
 93
        0
 40
1.125
309
GRIDFORMAT_END
 95
        8
302
GRIDFORMAT
  1
GRIDFORMAT_BEGIN
 90
        0
 91
        1
 62
     0
 92
       -2
340
14
 93
        0
 40
1.125
309
GRIDFORMAT_END
 95
       16
302
GRIDFORMAT
  1
GRIDFORMAT_BEGIN
 90
        0
 91
        1
 62
     0
 92
       -2
340
14
 93
        0
 40
1.125
309
GRIDFORMAT_END
 95
       32
302
GRIDFORMAT
  1
GRIDFORMAT_BEGIN
 90
        0
 91
        1
 62
     0
 92
       -2
340
14
 93
        0
 40
1.125
309
GRIDFORMAT_END
309
TABLEFORMAT_END
  1
CELLSTYLE_BEGIN
 90
        3
 91
        2
300
_DATA
309
CELLSTYLE_END
  0
ENDSEC
  0
SECTION
  2
ACDSDATA
 70
     2
 71
     8
  0
ACDSSCHEMA
 90
        0
  1
AcDb_Thumbnail_Schema
  2
AcDbDs::ID
280
    10
 91
        8
  2
Thumbnail_Data
280
    15
 91
        0
101
ACDSRECORD
 95
        0
 90
        1
  2
AcDbDs::TreatedAsObjectData
280
     1
291
     1
101
ACDSRECORD
 95
        0
 90
        2
  2
AcDbDs::Legacy
280
     1
291
     1
101
ACDSRECORD
  1
AcDbDs::ID
 90
        3
  2
AcDs:Indexable
280
     1
291
     1
101
ACDSRECORD
  1
AcDbDs::ID
 90
        4
  2
AcDbDs::HandleAttribute
280
     7
282
     1
  0
ACDSSCHEMA
 90
        1
  1
AcDbDs::TreatedAsObjectDataSchema
  2
AcDbDs::TreatedAsObjectData
280
     1
 91
        0
  0
ACDSSCHEMA
 90
        2
  1
AcDbDs::LegacySchema
  2
AcDbDs::Legacy
280
     1
 91
        0
  0
ACDSSCHEMA
 90
        3
  1
AcDbDs::IndexedPropertySchema
  2
AcDs:Indexable
280
     1
 91
        0
  0
ACDSSCHEMA
 90
        4
  1
AcDbDs::HandleAttributeSchema
  2
AcDbDs::HandleAttribute
280
     7
 91
        1
284
     1
  0
ACDSRECORD
 90
        0
  2
AcDbDs::ID
280
    10
320
22
  2
Thumbnail_Data
280
    15
 94
     2076
310
89504E470D0A1A0A0000000D49484452000001000000006F08030000003479EE6F00000300504C5445212830FFFFFF2128300000000000000000000000000000000000000000000000000000330000660000990000CC0000FF0033000033330033660033990033CC0033FF0066000066330066660066990066CC0066FF0099
310
000099330099660099990099CC0099FF00CC0000CC3300CC6600CC9900CCCC00CCFF00FF0000FF3300FF6600FF9900FFCC00FFFF3300003300333300663300993300CC3300FF3333003333333333663333993333CC3333FF3366003366333366663366993366CC3366FF3399003399333399663399993399CC3399FF33CC00
310
33CC3333CC6633CC9933CCCC33CCFF33FF0033FF3333FF6633FF9933FFCC33FFFF6600006600336600666600996600CC6600FF6633006633336633666633996633CC6633FF6666006666336666666666996666CC6666FF6699006699336699666699996699CC6699FF66CC0066CC3366CC6666CC9966CCCC66CCFF66FF0066
310
FF3366FF6666FF9966FFCC66FFFF9900009900339900669900999900CC9900FF9933009933339933669933999933CC9933FF9966009966339966669966999966CC9966FF9999009999339999669999999999CC9999FF99CC0099CC3399CC6699CC9999CCCC99CCFF99FF0099FF3399FF6699FF9999FFCC99FFFFCC0000CC00
310
33CC0066CC0099CC00CCCC00FFCC3300CC3333CC3366CC3399CC33CCCC33FFCC6600CC6633CC6666CC6699CC66CCCC66FFCC9900CC9933CC9966CC9999CC99CCCC99FFCCCC00CCCC33CCCC66CCCC99CCCCCCCCCCFFCCFF00CCFF33CCFF66CCFF99CCFFCCCCFFFFFF0000FF0033FF0066FF0099FF00CCFF00FFFF3300FF3333
310
FF3366FF3399FF33CCFF33FFFF6600FF6633FF6666FF6699FF66CCFF66FFFF9900FF9933FF9966FF9999FF99CCFF99FFFFCC00FFCC33FFCC66FFCC99FFCCCCFFCCFFFFFF00FFFF33FFFF66FFFF99FFFFCCFFFFFF0000000D0D0D1A1A1A2828283535354343435050505D5D5D6B6B6B787878868686939393A1A1A1AEAEAEBB
310
BBBBC9C9C9D6D6D6E4E4E4F1F1F1FFFFFF0000000000000000000000000000000000000000000000000000000000002E4550F1000003584944415478DAED5ACB72DC300CC3FFFF2FEF9DA45E0920296F92F6606680CBDA5E6BC6A4F8040518866118866118866118866118C68F101F78F77F348FBEB9E8D1F27F7C6CECEB25
310
60806E9A459D90B1170D117F5D7DE8009FF79FCFE2EFB32ACDBA3B282070FEF779F2F365B68097E051DEA4ED6E2CA07BF399F223E8F23281EB69B031B360594F67F97B053DCB0064AF54B4B5F1AFBB601F47520B29758E02D8002E53DF42C5F5B39D40EC6385CC7B89F3DF8F368064028894F222298003E6C1001E6E0245DA
310
95080EC0DEFB6503D7054E1EF17C05ECAF6F2547EC6008317E5A1BDB6166292055754BC6D84A416301EA02932D20E5EB5A04BC7698B573AF8018A400D2C02BB285B8C6F6018E8AB96802C48B662A2034F8A5D238B4C2D5F2E8D6029E5E0821E843A3D9FBAB42E284BF2FB85E5A162089F0D96540DED65507EC72881ABB432F
310
00241718D50B48F8E33D6547686A7E59951500F28E397400993A2B20D4E19B12AA55C028420488DC0D810991AEBED5471204CF45F1F34D81FB1F6647DEF41100570643C23F2534663D92CFC70A841ADBF20E378162081D98323F0A1F744BFFC96E87B04631C5EA573FD334815D7584DBD6779CFB734327A91D515F8AF8B2A0
310
83C23F77B4EF3983DFA780F837058C7701A80BEC520691F882D6057E5F10C4778260A98DD3EC649C0B94E40E44C994BD95B76E32A910DC84E8AA8CF674E40BC290874CAB7FE9A385111036E0DC0B08994E8FC7C5016DEC7430D43980BE2313765D37427E8A5AC278F30408653ACC15B40C99C143B418247FDEF31503CB76D2
310
14155115302919544E50CD9B26C4504E90F73F920206718295154E431F084F5A17A57304F358E132171017480C419E961293D4A86782093493213E3394C645CAFC3387AE8766063546E5304F7F3E66D546A129503A8113113C633C8E3A0765AA2C0D4713779C62C048059C5CA0E3C4C805B80F1AAA00A80FE4209887244C24
310
8A33682134270842B3C041014833029E20D74A705216A8A7C490F715A2097007C4DC499CB89031D36174519E2766724E901440AC5147948C990EE70CC6C37F34BD00726D10DD4C2830A11B8A6CC48933AC93CEBA28E9E7E624F1737361BB5987D3E2B75C39469D167F7DEF1B3789FFB2C8300CC3300CC3300CC3300CC3300C
310
C3300CC3300CC3300CC3300CC3300CC3300CE33DFE006500A95F607B789F0000000049454E44AE426082454E44AE4260820000000076C71F292F561C1177AB5D0000000049454E44AE426082E9ECCF9C194A322F70DDDAC29635DD991BF44C2DAF9F17003C06BE010087182400007E069B0AD8F5AF57012C2EB0D808961B1B
310
BBAF11425D08D60280ABADEABA4A8CAAABC49602A010D77B9D202A31E63200B499ECDE2B45EDF0585C288889FC4B5DC22188003068ADF040FEADEDADF1D5E2BAFCDE5B2D3E0C80C7EC1718C5BFCA4DB61D2373F94FB867683200F9768D2DE33FC9BEC121003C69E7E81A0BE8A679FCDEE1790024DD3DBE5200FECFF303BE27
310
487CCF1079F72932AF3F474830DBB34E92CA77945691B97BD75962A79D8D6F3B4DEEF5E7099E28A3B1274AE604E0BD678ABEFE5459632C202941D3B9C278E458E048ECDE1A0C81F21FACFCF2B3C55F7FBAFCF7F902F6132682003CF10913239F31622C0C42654FACFF1A2B02F79E3283C6A7CC0417180F15015AF19CA14BEC
310
B8FF27BC4D731098FCA4A9CBDA12586FF700E055CF1AFB079BF1BE8E5596F0110000000049454E44AE426082
  0
ENDSEC
  0
EOF
