  0
SECTION
  2
HEADER
  9
$ACADVER
  1
AC1009
  9
$INSBASE
 10
0.0
 20
0.0
 30
0.0
  9
$EXTMIN
 10
10247.3790629065406392
 20
4989.6715524393739543
 30
0.0
  9
$EXTMAX
 10
11186.0385942334396532
 20
5457.7904358940286329
 30
0.0
  9
$LIMMIN
 10
0.0
 20
0.0
  9
$LIMMAX
 10
420.0
 20
297.0
  9
$ORTHOMODE
 70
     0
  9
$REGENMODE
 70
     1
  9
$FILLMODE
 70
     1
  9
$QTEXTMODE
 70
     0
  9
$MIRRTEXT
 70
     0
  9
$DRAGMODE
 70
     2
  9
$LTSCALE
 40
1.0
  9
$OSMODE
 70
    37
  9
$ATTMODE
 70
     1
  9
$TEXTSIZE
 40
2.5
  9
$TRACEWID
 40
1.0
  9
$TEXTSTYLE
  7
STANDARD
  9
$CLAYER
  8
0
  9
$CELTYPE
  6
BYLAYER
  9
$CECOLOR
 62
   256
  9
$DIMSCALE
 40
1.0
  9
$DIMASZ
 40
2.5
  9
$DIMEXO
 40
0.625
  9
$DIMDLI
 40
3.75
  9
$DIMRND
 40
0.0
  9
$DIMDLE
 40
0.0
  9
$DIMEXE
 40
1.25
  9
$DIMTP
 40
0.0
  9
$DIMTM
 40
0.0
  9
$DIMTXT
 40
2.5
  9
$DIMCEN
 40
2.5
  9
$DIMTSZ
 40
0.0
  9
$DIMTOL
 70
     0
  9
$DIMLIM
 70
     0
  9
$DIMTIH
 70
     0
  9
$DIMTOH
 70
     0
  9
$DIMSE1
 70
     0
  9
$DIMSE2
 70
     0
  9
$DIMTAD
 70
     1
  9
$DIMZIN
 70
     8
  9
$DIMBLK
  1

  9
$DIMASO
 70
     1
  9
$DIMSHO
 70
     1
  9
$DIMPOST
  1

  9
$DIMAPOST
  1

  9
$DIMALT
 70
     0
  9
$DIMALTD
 70
     3
  9
$DIMALTF
 40
0.03937007874016
  9
$DIMLFAC
 40
1.0
  9
$DIMTOFL
 70
     1
  9
$DIMTVP
 40
0.0
  9
$DIMTIX
 70
     0
  9
$DIMSOXD
 70
     0
  9
$DIMSAH
 70
     0
  9
$DIMBLK1
  1

  9
$DIMBLK2
  1

  9
$DIMSTYLE
  2
ISO-25
  9
$DIMCLRD
 70
     0
  9
$DIMCLRE
 70
     0
  9
$DIMCLRT
 70
     0
  9
$DIMTFAC
 40
1.0
  9
$DIMGAP
 40
0.625
  9
$LUNITS
 70
     2
  9
$LUPREC
 70
     4
  9
$SKETCHINC
 40
1.0
  9
$FILLETRAD
 40
0.0
  9
$AUNITS
 70
     0
  9
$AUPREC
 70
     0
  9
$MENU
  1
.
  9
$ELEVATION
 40
0.0
  9
$PELEVATION
 40
0.0
  9
$THICKNESS
 40
0.0
  9
$LIMCHECK
 70
     0
  9
$BLIPMODE
 70
     0
  9
$CHAMFERA
 40
0.0
  9
$CHAMFERB
 40
0.0
  9
$SKPOLY
 70
     0
  9
$TDCREATE
 40
2458655.4135648151859641
  9
$TDUPDATE
 40
2459206.7482638889923692
  9
$TDINDWG
 40
1.5332175926
  9
$TDUSRTIMER
 40
1.5332175926
  9
$USRTIMER
 70
     1
  9
$ANGBASE
 50
0.0
  9
$ANGDIR
 70
     0
  9
$PDMODE
 70
     0
  9
$PDSIZE
 40
0.0
  9
$PLINEWID
 40
0.0
  9
$COORDS
 70
     1
  9
$SPLFRAME
 70
     0
  9
$SPLINETYPE
 70
     6
  9
$SPLINESEGS
 70
     8
  9
$ATTDIA
 70
     1
  9
$ATTREQ
 70
     1
  9
$HANDLING
 70
     1
  9
$HANDSEED
  5
2414
  9
$SURFTAB1
 70
     6
  9
$SURFTAB2
 70
     6
  9
$SURFTYPE
 70
     6
  9
$SURFU
 70
     6
  9
$SURFV
 70
     6
  9
$UCSNAME
  2

  9
$UCSORG
 10
0.0
 20
0.0
 30
0.0
  9
$UCSXDIR
 10
1.0
 20
0.0
 30
0.0
  9
$UCSYDIR
 10
0.0
 20
1.0
 30
0.0
  9
$PUCSNAME
  2

  9
$PUCSORG
 10
0.0
 20
0.0
 30
0.0
  9
$PUCSXDIR
 10
1.0
 20
0.0
 30
0.0
  9
$PUCSYDIR
 10
0.0
 20
1.0
 30
0.0
  9
$USERI1
 70
     0
  9
$USERI2
 70
     0
  9
$USERI3
 70
     0
  9
$USERI4
 70
     0
  9
$USERI5
 70
     0
  9
$USERR1
 40
0.0
  9
$USERR2
 40
0.0
  9
$USERR3
 40
0.0
  9
$USERR4
 40
0.0
  9
$USERR5
 40
0.0
  9
$WORLDVIEW
 70
     1
  9
$SHADEDGE
 70
     3
  9
$SHADEDIF
 70
    70
  9
$TILEMODE
 70
     1
  9
$MAXACTVP
 70
    64
  9
$PLIMCHECK
 70
     0
  9
$PEXTMIN
 10
0.0
 20
0.0
 30
0.0
  9
$PEXTMAX
 10
0.0
 20
0.0
 30
0.0
  9
$PLIMMIN
 10
0.0
 20
0.0
  9
$PLIMMAX
 10
12.0
 20
9.0
  9
$UNITMODE
 70
     0
  9
$VISRETAIN
 70
     1
  9
$PLINEGEN
 70
     0
  9
$PSLTSCALE
 70
     1
  0
ENDSEC
  0
SECTION
  2
TABLES
  0
TABLE
  2
VPORT
 70
     1
  0
VPORT
  2
*ACTIVE
 70
     0
 10
0.0
 20
0.0
 11
1.0
 21
1.0
 12
10779.1791764542995224
 22
5162.5289467437150961
 13
0.0
 23
0.0
 14
10.0
 24
10.0
 15
10.0
 25
10.0
 16
0.0
 26
0.0
 36
1.0
 17
0.0
 27
0.0
 37
0.0
 40
640.0980174618107412
 41
2.2927120669056151
 42
50.0
 43
0.0
 44
0.0
 50
0.0
 51
0.0
 71
     0
 72
  1000
 73
     1
 74
     3
 75
     0
 76
     1
 77
     0
 78
     0
  0
ENDTAB
  0
TABLE
  2
LTYPE
 70
     1
  0
LTYPE
  2
CONTINUOUS
 70
     0
  3
Solid line
 72
    65
 73
     0
 40
0.0
  0
ENDTAB
  0
TABLE
  2
LAYER
 70
     1
  0
LAYER
  2
0
 70
     0
 62
     7
  6
CONTINUOUS
  0
ENDTAB
  0
TABLE
  2
STYLE
 70
     2
  0
STYLE
  2
STANDARD
 70
     0
 40
0.0
 41
1.0
 50
0.0
 71
     0
 42
2.5
  3
txt
  4

  0
STYLE
  2
ANOTATIVO
 70
     0
 40
0.0
 41
1.0
 50
0.0
 71
     0
 42
2.5
  3
txt
  4

  0
ENDTAB
  0
TABLE
  2
VIEW
 70
     0
  0
ENDTAB
  0
TABLE
  2
UCS
 70
     0
  0
ENDTAB
  0
TABLE
  2
APPID
 70
    10
  0
APPID
  2
ACAD
 70
     0
  0
APPID
  2
ACAD_PSEXT
 70
     0
  0
APPID
  2
ACADANNOPO
 70
     0
  0
APPID
  2
ACADANNOTATIVE
 70
     0
  0
APPID
  2
ACAD_DSTYLE_DIMJAG
 70
     0
  0
APPID
  2
ACAD_DSTYLE_DIMTALN
 70
     0
  0
APPID
  2
ACAD_MLEADERVER
 70
     0
  0
APPID
  2
ACAD_NAV_VCDISPLAY
 70
     0
  0
APPID
  2
ACAD_EXEMPT_FROM_CAD_STANDARDS
 70
     0
  0
APPID
  2
ACAD_DSTYLE_DIMRADIAL_EXTENSION
 70
     0
  0
ENDTAB
  0
TABLE
  2
DIMSTYLE
 70
     3
  0
DIMSTYLE
  2
STANDARD
 70
     0
  3

  4

  5

  6

  7

 40
1.0
 41
0.18
 42
0.0625
 43
0.38
 44
0.18
 45
0.0
 46
0.0
 47
0.0
 48
0.0
140
0.18
141
0.09
142
0.0
143
25.3999999999999986
144
1.0
145
0.0
146
1.0
147
0.09
 71
     0
 72
     0
 73
     1
 74
     1
 75
     0
 76
     0
 77
     0
 78
     0
170
     0
171
     2
172
     0
173
     0
174
     0
175
     0
176
     0
177
     0
178
     0
  0
DIMSTYLE
  2
ANOTATIVO
 70
     0
  3

  4

  5

  6

  7

 40
0.0
 41
2.5
 42
0.625
 43
3.75
 44
1.25
 45
0.0
 46
0.0
 47
0.0
 48
0.0
140
2.5
141
2.5
142
0.0
143
0.03937007874016
144
1.0
145
0.0
146
1.0
147
0.625
 71
     0
 72
     0
 73
     0
 74
     0
 75
     0
 76
     0
 77
     1
 78
     8
170
     0
171
     3
172
     1
173
     0
174
     0
175
     0
176
     0
177
     0
178
     0
  0
DIMSTYLE
  2
ISO-25
 70
     0
  3

  4

  5

  6

  7

 40
1.0
 41
2.5
 42
0.625
 43
3.75
 44
1.25
 45
0.0
 46
0.0
 47
0.0
 48
0.0
140
2.5
141
2.5
142
0.0
143
0.03937007874016
144
1.0
145
0.0
146
1.0
147
0.625
 71
     0
 72
     0
 73
     0
 74
     0
 75
     0
 76
     0
 77
     1
 78
     8
170
     0
171
     3
172
     1
173
     0
174
     0
175
     0
176
     0
177
     0
178
     0
  0
ENDTAB
  0
ENDSEC
  0
SECTION
  2
BLOCKS
  0
BLOCK
  8
0
  2
$MODEL_SPACE
 70
     0
 10
0.0
 20
0.0
 30
0.0
  3
$MODEL_SPACE
  1

  0
ENDBLK
  5
21
  8
0
  0
BLOCK
 67
     1
  8
0
  2
$PAPER_SPACE
 70
     0
 10
0.0
 20
0.0
 30
0.0
  3
$PAPER_SPACE
  1

  0
ENDBLK
  5
D5
 67
     1
  8
0
  0
ENDSEC
  0
SECTION
  2
ENTITIES
  0
CIRCLE
  5
118B
  8
0
 10
10933.5787539149496297
 20
5310.1302480361264315
 30
0.0
 40
1.5
  0
CIRCLE
  5
118D
  8
0
 10
10933.5787539149496297
 20
5285.5395480361257796
 30
0.0
 40
1.5
  0
CIRCLE
  5
118E
  8
0
 10
10933.5787539149496297
 20
5361.2338214859673826
 30
0.0
 40
1.25
  0
CIRCLE
  5
118F
  8
0
 10
10933.5787539149496297
 20
5336.6431214859658212
 30
0.0
 40
1.25
  0
CIRCLE
  5
1194
  8
0
 10
10969.3758870982492226
 20
5308.7434064326589578
 30
0.0
 40
1.25
  0
CIRCLE
  5
1195
  8
0
 10
10969.3758870982492226
 20
5284.1527064326592154
 30
0.0
 40
1.25
  0
CIRCLE
  5
119A
  8
0
 10
10969.3758870982492226
 20
5360.3661497260081887
 30
0.0
 40
1.25
  0
CIRCLE
  5
119B
  8
0
 10
10969.3758870982492226
 20
5335.7754497260066273
 30
0.0
 40
1.25
  0
LINE
  5
15D2
  8
0
 10
10944.803782964059792
 20
5037.4859096580221376
 30
0.0
 11
10944.803782964059792
 21
5037.4859096580221376
 31
0.0
  0
LINE
  5
169B
  8
0
 10
10925.9966936047694617
 20
5037.4859096580221376
 30
0.0
 11
10925.9966936047694617
 21
5037.4859096580221376
 31
0.0
  0
CIRCLE
  5
1893
  8
0
 10
10459.4808295951497712
 20
5236.2287306749303752
 30
0.0
 40
1.25
  0
CIRCLE
  5
1894
  8
0
 10
10489.5308295951508626
 20
5236.2287306749303752
 30
0.0
 40
1.25
  0
CIRCLE
  5
1895
  8
0
 10
10459.4808295951497712
 20
5206.1787306749301933
 30
0.0
 40
1.25
  0
CIRCLE
  5
1896
  8
0
 10
10489.5308295951508626
 20
5206.1787306749301933
 30
0.0
 40
1.25
  0
CIRCLE
  5
189F
  8
0
 10
10548.9457809303203248
 20
5255.9537646907683666
 30
0.0
 40
1.25
  0
CIRCLE
  5
18A0
  8
0
 10
10573.4457809303203248
 20
5255.9537646907683666
 30
0.0
 40
1.25
  0
CIRCLE
  5
18A1
  8
0
 10
10374.4972107913308719
 20
5268.7037646907665476
 30
0.0
 40
1.25
  0
CIRCLE
  5
18A2
  8
0
 10
10374.4972107913308719
 20
5173.7037646907665476
 30
0.0
 40
1.25
  0
CIRCLE
  5
18A3
  8
0
 10
10402.4972107913308719
 20
5268.7037646907665476
 30
0.0
 40
1.25
  0
CIRCLE
  5
18A4
  8
0
 10
10402.4972107913308719
 20
5173.7037646907665476
 30
0.0
 40
1.25
  0
CIRCLE
  5
18A5
  8
0
 10
10609.1309841605507245
 20
5368.5809636518688421
 30
0.0
 40
1.3249999999999991
  0
CIRCLE
  5
18B0
  8
0
 10
10604.3853864680095285
 20
5358.3106613081954492
 30
0.0
 40
1.3249999999999991
  0
CIRCLE
  5
18B1
  8
0
 10
10619.4012865042295743
 20
5363.8353659593267366
 30
0.0
 40
1.3249999999999991
  0
CIRCLE
  5
18B2
  8
0
 10
10614.6556888116901973
 20
5353.5650636156506152
 30
0.0
 40
1.3249999999999991
  0
CIRCLE
  5
18B8
  8
0
 10
10548.9457809303203248
 20
5186.4537105505933141
 30
0.0
 40
1.25
  0
CIRCLE
  5
18B9
  8
0
 10
10573.4457809303203248
 20
5186.4537105505933141
 30
0.0
 40
1.25
  0
CIRCLE
  5
18BA
  8
0
 10
10548.9457809303203248
 20
5186.4536664266070147
 30
0.0
 40
1.25
  0
CIRCLE
  5
18BB
  8
0
 10
10573.4457809303203248
 20
5186.4536664266070147
 30
0.0
 40
1.25
  0
CIRCLE
  5
18BC
  8
0
 10
10374.4972107913308719
 20
5173.7036664266061052
 30
0.0
 40
1.25
  0
CIRCLE
  5
18BD
  8
0
 10
10402.4972107913308719
 20
5173.7036664266061052
 30
0.0
 40
1.25
  0
POLYLINE
  5
18F4
  8
0
 66
     1
 10
0.0
 20
0.0
 30
0.0
  0
VERTEX
  5
1EF5
  8
0
 10
10319.8739677017692884
 20
5272.4024001071093153
 30
0.0
 42
-0.363445475027317
  0
VERTEX
  5
1EF6
  8
0
 10
10369.016502557140484
 20
5221.2037155586867812
 30
0.0
 42
-0.3634389052118579
  0
VERTEX
  5
1EF7
  8
0
 10
10319.8756922170105099
 20
5170.0053912468183626
 30
0.0
 42
2.9520539518981379
  0
VERTEX
  5
1EF8
  8
0
 10
10419.7463087541400455
 20
5122.0930672790027529
 30
0.0
 42
-0.5162695966089306
  0
VERTEX
  5
1EF9
  8
0
 10
10447.32507685615019
 20
5192.9083004424437604
 30
0.0
  0
VERTEX
  5
1EFA
  8
0
 10
10447.32507685615019
 20
5192.9083004424437604
 30
0.0
  0
VERTEX
  5
1EFB
  8
0
 10
10501.6865643953406106
 20
5192.9083004424437604
 30
0.0
  0
VERTEX
  5
1EFC
  8
0
 10
10501.6865643953406106
 20
5192.9083004424437604
 30
0.0
 42
-0.5162695966089306
  0
VERTEX
  5
1EFD
  8
0
 10
10529.2653324973598501
 20
5122.0930672790027529
 30
0.0
 42
2.9520539530668408
  0
VERTEX
  5
1EFE
  8
0
 10
10629.1359489920996566
 20
5170.0053912514431431
 30
0.0
 42
-0.3634389049935284
  0
VERTEX
  5
1EFF
  8
0
 10
10579.9951386943594116
 20
5221.2037155586867812
 30
0.0
 42
-0.3634389050011799
  0
VERTEX
  5
1F00
  8
0
 10
10629.1359489924197987
 20
5272.4020398659658895
 30
0.0
 42
2.9520539530570691
  0
VERTEX
  5
1F01
  8
0
 10
10529.2653324973598501
 20
5320.3143638383698999
 30
0.0
 42
-0.5162695966089306
  0
VERTEX
  5
1F02
  8
0
 10
10501.6865643953406106
 20
5249.4991306749298019
 30
0.0
  0
VERTEX
  5
1F03
  8
0
 10
10501.6865643953406106
 20
5249.4991306749298019
 30
0.0
  0
VERTEX
  5
1F04
  8
0
 10
10447.32507685615019
 20
5249.4991306749298019
 30
0.0
  0
VERTEX
  5
1F05
  8
0
 10
10447.32507685615019
 20
5249.4991306749298019
 30
0.0
 42
-0.5162695966089306
  0
VERTEX
  5
1F06
  8
0
 10
10419.7463087541400455
 20
5320.3143638383698999
 30
0.0
 42
2.952007001234473
  0
VERTEX
  5
1F07
  8
0
 10
10319.8739677017692884
 20
5272.4024001071093153
 30
0.0
  0
SEQEND
  5
1F08
  8
0
  0
LINE
  5
1916
  8
0
 10
10533.7468863767408038
 20
5243.4990844909480074
 30
0.0
 11
10533.7468863767408038
 21
5243.4990844909480074
 31
0.0
  0
LINE
  5
1928
  8
0
 10
10533.7468863767408038
 20
5195.908384490948265
 30
0.0
 11
10533.7468863767408038
 21
5195.908384490948265
 31
0.0
  0
POLYLINE
  5
192D
  8
0
 66
     1
 10
0.0
 20
0.0
 30
0.0
 70
     1
  0
VERTEX
  5
1F09
  8
0
 10
10555.3607153201701294
 20
5427.4305975747411139
 30
0.0
  0
VERTEX
  5
1F0A
  8
0
 10
10557.1271908837006777
 20
5425.0058163302901448
 30
0.0
  0
VERTEX
  5
1F0B
  8
0
 10
10569.2510971059491567
 20
5433.8381941479656234
 30
0.0
  0
VERTEX
  5
1F0C
  8
0
 10
10567.4846215424095135
 20
5436.262975392415683
 30
0.0
  0
SEQEND
  5
1F0D
  8
0
  0
POLYLINE
  5
192E
  8
0
 66
     1
 10
0.0
 20
0.0
 30
0.0
 70
     1
  0
VERTEX
  5
1F0E
  8
0
 10
10696.3546701171599125
 20
5375.5004681714317485
 30
0.0
  0
VERTEX
  5
1F0F
  8
0
 10
10693.3653936218706804
 20
5375.2470396121279919
 30
0.0
  0
VERTEX
  5
1F10
  8
0
 10
10694.6325364183794591
 20
5360.3006571356490895
 30
0.0
  0
VERTEX
  5
1F11
  8
0
 10
10697.6218129136796051
 20
5360.5540856949519366
 30
0.0
  0
SEQEND
  5
1F12
  8
0
  0
POLYLINE
  5
192F
  8
0
 66
     1
 10
0.0
 20
0.0
 30
0.0
 70
     1
  0
VERTEX
  5
1F13
  8
0
 10
10568.1071212504702999
 20
5288.8177239435935917
 30
0.0
  0
VERTEX
  5
1F14
  8
0
 10
10566.7838284286008275
 20
5286.1253465355075605
 30
0.0
  0
VERTEX
  5
1F15
  8
0
 10
10580.2457154690291645
 20
5279.5088824261320042
 30
0.0
  0
VERTEX
  5
1F16
  8
0
 10
10581.5690082909004559
 20
5282.2012598342189449
 30
0.0
  0
SEQEND
  5
1F17
  8
0
  0
POLYLINE
  5
1930
  8
0
 66
     1
 10
0.0
 20
0.0
 30
0.0
 70
     1
  0
VERTEX
  5
1F18
  8
0
 10
10638.0470294006408949
 20
5440.201068747899626
 30
0.0
  0
VERTEX
  5
1F19
  8
0
 10
10651.8553790930691321
 20
5434.3419323975849693
 30
0.0
  0
VERTEX
  5
1F1A
  8
0
 10
10653.027206363129153
 20
5437.1036023360729814
 30
0.0
  0
VERTEX
  5
1F1B
  8
0
 10
10639.2188566706990969
 20
5442.9627386863867287
 30
0.0
  0
SEQEND
  5
1F1C
  8
0
  0
POLYLINE
  5
1931
  8
0
 66
     1
 10
0.0
 20
0.0
 30
0.0
 70
     1
  0
VERTEX
  5
1F1D
  8
0
 10
10657.4621684443191043
 20
5288.6177757277400815
 30
0.0
  0
VERTEX
  5
1F1E
  8
0
 10
10669.5888520616099413
 20
5297.4463398491707267
 30
0.0
  0
VERTEX
  5
1F1F
  8
0
 10
10667.8231392373199924
 20
5299.8716765726294398
 30
0.0
  0
VERTEX
  5
1F20
  8
0
 10
10655.6964556200291554
 20
5291.0431124511978851
 30
0.0
  0
SEQEND
  5
1F21
  8
0
  0
POLYLINE
  5
1932
  8
0
 66
     1
 10
0.0
 20
0.0
 30
0.0
 70
     1
  0
VERTEX
  5
1F22
  8
0
 10
10529.8839481239901943
 20
5342.9707067325880416
 30
0.0
  0
VERTEX
  5
1F23
  8
0
 10
10527.7880621257008897
 20
5357.823560393828302
 30
0.0
  0
VERTEX
  5
1F24
  8
0
 10
10524.8174913934599317
 20
5357.4043831941708049
 30
0.0
  0
VERTEX
  5
1F25
  8
0
 10
10526.9133773917401413
 20
5342.5515295329323635
 30
0.0
  0
SEQEND
  5
1F26
  8
0
  0
CIRCLE
  5
1933
  8
0
 10
10339.8806570909491711
 20
5368.5809636518861225
 30
0.0
 40
1.3249999999999991
  0
CIRCLE
  5
193E
  8
0
 10
10344.6262547834903671
 20
5358.3106613082118201
 30
0.0
 40
1.3249999999999991
  0
CIRCLE
  5
193F
  8
0
 10
10329.6103547472794162
 20
5363.835365959344017
 30
0.0
 40
1.3249999999999991
  0
CIRCLE
  5
1940
  8
0
 10
10334.3559524398206122
 20
5353.5650636156678956
 30
0.0
 40
1.3249999999999991
  0
POLYLINE
  5
1968
  8
0
 66
     1
 10
0.0
 20
0.0
 30
0.0
 70
     1
  0
VERTEX
  5
1F27
  8
0
 10
10393.6509259313406801
 20
5427.4305975747583943
 30
0.0
  0
VERTEX
  5
1F28
  8
0
 10
10391.8844503677992179
 20
5425.0058163303083347
 30
0.0
  0
VERTEX
  5
1F29
  8
0
 10
10379.7605441455598339
 20
5433.8381941479838133
 30
0.0
  0
VERTEX
  5
1F2A
  8
0
 10
10381.5270197090903821
 20
5436.2629753924338729
 30
0.0
  0
SEQEND
  5
1F2B
  8
0
  0
POLYLINE
  5
1969
  8
0
 66
     1
 10
0.0
 20
0.0
 30
0.0
 70
     1
  0
VERTEX
  5
1F2C
  8
0
 10
10252.6569711343399831
 20
5375.5004681714481194
 30
0.0
  0
VERTEX
  5
1F2D
  8
0
 10
10255.6462476296401292
 20
5375.2470396121452723
 30
0.0
  0
VERTEX
  5
1F2E
  8
0
 10
10254.3791048331204365
 20
5360.3006571356672794
 30
0.0
  0
VERTEX
  5
1F2F
  8
0
 10
10251.3898283378293854
 20
5360.554085694969217
 30
0.0
  0
SEQEND
  5
1F30
  8
0
  0
POLYLINE
  5
196A
  8
0
 66
     1
 10
0.0
 20
0.0
 30
0.0
 70
     1
  0
VERTEX
  5
1F31
  8
0
 10
10380.9045200010295957
 20
5288.8177239436108721
 30
0.0
  0
VERTEX
  5
1F32
  8
0
 10
10382.2278128229099821
 20
5286.1253465355239314
 30
0.0
  0
VERTEX
  5
1F33
  8
0
 10
10368.7659257824707311
 20
5279.5088824261492846
 30
0.0
  0
VERTEX
  5
1F34
  8
0
 10
10367.4426329605994397
 20
5282.2012598342362253
 30
0.0
  0
SEQEND
  5
1F35
  8
0
  0
POLYLINE
  5
196B
  8
0
 66
     1
 10
0.0
 20
0.0
 30
0.0
 70
     1
  0
VERTEX
  5
1F36
  8
0
 10
10310.9646118508608197
 20
5440.2010687479169064
 30
0.0
  0
VERTEX
  5
1F37
  8
0
 10
10297.1562621584398585
 20
5434.3419323976022497
 30
0.0
  0
VERTEX
  5
1F38
  8
0
 10
10295.9844348883707426
 20
5437.1036023360893523
 30
0.0
  0
VERTEX
  5
1F39
  8
0
 10
10309.7927845808007987
 20
5442.9627386864040091
 30
0.0
  0
SEQEND
  5
1F3A
  8
0
  0
POLYLINE
  5
196C
  8
0
 66
     1
 10
0.0
 20
0.0
 30
0.0
 70
     1
  0
VERTEX
  5
1F3B
  8
0
 10
10291.5494728071898862
 20
5288.6177757277573619
 30
0.0
  0
VERTEX
  5
1F3C
  8
0
 10
10279.4227891899008682
 20
5297.4463398491889166
 30
0.0
  0
VERTEX
  5
1F3D
  8
0
 10
10281.1885020141799032
 20
5299.8716765726467202
 30
0.0
  0
VERTEX
  5
1F3E
  8
0
 10
10293.3151856314707402
 20
5291.0431124512151655
 30
0.0
  0
SEQEND
  5
1F3F
  8
0
  0
POLYLINE
  5
196D
  8
0
 66
     1
 10
0.0
 20
0.0
 30
0.0
 70
     1
  0
VERTEX
  5
1F40
  8
0
 10
10419.1276931275206152
 20
5342.970706732605322
 30
0.0
  0
VERTEX
  5
1F41
  8
0
 10
10421.2235791258008248
 20
5357.8235603938437634
 30
0.0
  0
VERTEX
  5
1F42
  8
0
 10
10424.1941498580508778
 20
5357.4043831941880853
 30
0.0
  0
VERTEX
  5
1F43
  8
0
 10
10422.0982638597597543
 20
5342.5515295329487344
 30
0.0
  0
SEQEND
  5
1F44
  8
0
  0
CIRCLE
  5
196E
  8
0
 10
10609.1309841605598194
 20
5073.8264674654947157
 30
0.0
 40
1.3249999999999991
  0
CIRCLE
  5
1979
  8
0
 10
10604.3853864680204424
 20
5084.0967698091690181
 30
0.0
 40
1.3249999999999991
  0
CIRCLE
  5
197A
  8
0
 10
10619.4012865042295743
 20
5078.5720651580377307
 30
0.0
 40
1.3249999999999991
  0
CIRCLE
  5
197B
  8
0
 10
10614.6556888116901973
 20
5088.8423675017129426
 30
0.0
 40
1.3249999999999991
  0
POLYLINE
  5
19A3
  8
0
 66
     1
 10
0.0
 20
0.0
 30
0.0
 70
     1
  0
VERTEX
  5
1F45
  8
0
 10
10555.3607153201701294
 20
5014.9768335426242629
 30
0.0
  0
VERTEX
  5
1F46
  8
0
 10
10557.1271908837097726
 20
5017.4016147870743225
 30
0.0
  0
VERTEX
  5
1F47
  8
0
 10
10569.2510971059491567
 20
5008.5692369693979344
 30
0.0
  0
VERTEX
  5
1F48
  8
0
 10
10567.4846215424204274
 20
5006.1444557249478748
 30
0.0
  0
SEQEND
  5
1F49
  8
0
  0
POLYLINE
  5
19A4
  8
0
 66
     1
 10
0.0
 20
0.0
 30
0.0
 70
     1
  0
VERTEX
  5
1F4A
  8
0
 10
10568.1071212504793948
 20
5153.5897071737708757
 30
0.0
  0
VERTEX
  5
1F4B
  8
0
 10
10566.7838284286008275
 20
5156.2820845818569069
 30
0.0
  0
VERTEX
  5
1F4C
  8
0
 10
10580.2457154690400785
 20
5162.8985486912333727
 30
0.0
  0
VERTEX
  5
1F4D
  8
0
 10
10581.5690082909095509
 20
5160.206171283146432
 30
0.0
  0
SEQEND
  5
1F4E
  8
0
  0
POLYLINE
  5
19A5
  8
0
 66
     1
 10
0.0
 20
0.0
 30
0.0
 70
     1
  0
VERTEX
  5
1F4F
  8
0
 10
10638.0470294006499898
 20
5002.2063623694639318
 30
0.0
  0
VERTEX
  5
1F50
  8
0
 10
10651.8553790930691321
 20
5008.0654987197804076
 30
0.0
  0
VERTEX
  5
1F51
  8
0
 10
10653.027206363140067
 20
5005.3038287812923954
 30
0.0
  0
VERTEX
  5
1F52
  8
0
 10
10639.2188566707100108
 20
4999.4446924309768292
 30
0.0
  0
SEQEND
  5
1F53
  8
0
  0
POLYLINE
  5
19A6
  8
0
 66
     1
 10
0.0
 20
0.0
 30
0.0
 70
     1
  0
VERTEX
  5
1F54
  8
0
 10
10657.4621684443191043
 20
5153.7896553896243859
 30
0.0
  0
VERTEX
  5
1F55
  8
0
 10
10669.5888520616099413
 20
5144.9610912681928312
 30
0.0
  0
VERTEX
  5
1F56
  8
0
 10
10667.8231392373199924
 20
5142.5357545447350276
 30
0.0
  0
VERTEX
  5
1F57
  8
0
 10
10655.6964556200400693
 20
5151.3643186661665823
 30
0.0
  0
SEQEND
  5
1F58
  8
0
  0
POLYLINE
  5
19A7
  8
0
 66
     1
 10
0.0
 20
0.0
 30
0.0
 70
     1
  0
VERTEX
  5
1F59
  8
0
 10
10529.8839481239901943
 20
5099.4367243847764257
 30
0.0
  0
VERTEX
  5
1F5A
  8
0
 10
10527.7880621257099847
 20
5084.5838707235379843
 30
0.0
  0
VERTEX
  5
1F5B
  8
0
 10
10524.8174913934599317
 20
5085.0030479231936624
 30
0.0
  0
VERTEX
  5
1F5C
  8
0
 10
10526.9133773917492363
 20
5099.8559015844330133
 30
0.0
  0
SEQEND
  5
1F5D
  8
0
  0
CIRCLE
  5
19A8
  8
0
 10
10339.8806570909491711
 20
5073.8264674654774353
 30
0.0
 40
1.3249999999999991
  0
CIRCLE
  5
19B3
  8
0
 10
10344.6262547834994621
 20
5084.0967698091517377
 30
0.0
 40
1.3249999999999991
  0
CIRCLE
  5
19B4
  8
0
 10
10329.6103547472794162
 20
5078.5720651580204503
 30
0.0
 40
1.3249999999999991
  0
CIRCLE
  5
19B5
  8
0
 10
10334.3559524398206122
 20
5088.8423675016956622
 30
0.0
 40
1.3249999999999991
  0
POLYLINE
  5
19DD
  8
0
 66
     1
 10
0.0
 20
0.0
 30
0.0
 70
     1
  0
VERTEX
  5
1F5E
  8
0
 10
10393.6509259313406801
 20
5014.976833542606073
 30
0.0
  0
VERTEX
  5
1F5F
  8
0
 10
10391.8844503678101319
 20
5017.4016147870561326
 30
0.0
  0
VERTEX
  5
1F60
  8
0
 10
10379.7605441455598339
 20
5008.569236969380654
 30
0.0
  0
VERTEX
  5
1F61
  8
0
 10
10381.527019709099477
 20
5006.1444557249305944
 30
0.0
  0
SEQEND
  5
1F62
  8
0
  0
POLYLINE
  5
19DE
  8
0
 66
     1
 10
0.0
 20
0.0
 30
0.0
 70
     1
  0
VERTEX
  5
1F63
  8
0
 10
10252.656971134350897
 20
5066.906962945916348
 30
0.0
  0
VERTEX
  5
1F64
  8
0
 10
10255.6462476296401292
 20
5067.1603915052191951
 30
0.0
  0
VERTEX
  5
1F65
  8
0
 10
10254.3791048331295315
 20
5082.1067739816980975
 30
0.0
  0
VERTEX
  5
1F66
  8
0
 10
10251.3898283378293854
 20
5081.8533454223952504
 30
0.0
  0
SEQEND
  5
1F67
  8
0
  0
POLYLINE
  5
19DF
  8
0
 66
     1
 10
0.0
 20
0.0
 30
0.0
 70
     1
  0
VERTEX
  5
1F68
  8
0
 10
10380.9045200010405097
 20
5153.5897071737535953
 30
0.0
  0
VERTEX
  5
1F69
  8
0
 10
10382.2278128229099821
 20
5156.2820845818396265
 30
0.0
  0
VERTEX
  5
1F6A
  8
0
 10
10368.765925782479826
 20
5162.8985486912151828
 30
0.0
  0
VERTEX
  5
1F6B
  8
0
 10
10367.4426329605994397
 20
5160.2061712831282421
 30
0.0
  0
SEQEND
  5
1F6C
  8
0
  0
POLYLINE
  5
19E0
  8
0
 66
     1
 10
0.0
 20
0.0
 30
0.0
 70
     1
  0
VERTEX
  5
1F6D
  8
0
 10
10310.9646118508699146
 20
5002.2063623694457419
 30
0.0
  0
VERTEX
  5
1F6E
  8
0
 10
10297.1562621584398585
 20
5008.0654987197622177
 30
0.0
  0
VERTEX
  5
1F6F
  8
0
 10
10295.9844348883798375
 20
5005.3038287812760245
 30
0.0
  0
VERTEX
  5
1F70
  8
0
 10
10309.7927845808098937
 20
4999.4446924309613678
 30
0.0
  0
SEQEND
  5
1F71
  8
0
  0
POLYLINE
  5
19E1
  8
0
 66
     1
 10
0.0
 20
0.0
 30
0.0
 70
     1
  0
VERTEX
  5
1F72
  8
0
 10
10291.5494728071898862
 20
5153.789655389608015
 30
0.0
  0
VERTEX
  5
1F73
  8
0
 10
10279.4227891899008682
 20
5144.9610912681746413
 30
0.0
  0
VERTEX
  5
1F74
  8
0
 10
10281.1885020141908171
 20
5142.5357545447168377
 30
0.0
  0
VERTEX
  5
1F75
  8
0
 10
10293.3151856314798351
 20
5151.3643186661502114
 30
0.0
  0
SEQEND
  5
1F76
  8
0
  0
POLYLINE
  5
19E2
  8
0
 66
     1
 10
0.0
 20
0.0
 30
0.0
 70
     1
  0
VERTEX
  5
1F77
  8
0
 10
10419.1276931275206152
 20
5099.4367243847591453
 30
0.0
  0
VERTEX
  5
1F78
  8
0
 10
10421.2235791258099198
 20
5084.5838707235197944
 30
0.0
  0
VERTEX
  5
1F79
  8
0
 10
10424.1941498580508778
 20
5085.003047923176382
 30
0.0
  0
VERTEX
  5
1F7A
  8
0
 10
10422.0982638597706682
 20
5099.8559015844148234
 30
0.0
  0
SEQEND
  5
1F7B
  8
0
  0
POLYLINE
  5
19E5
  8
0
 66
     1
 10
0.0
 20
0.0
 30
0.0
 70
     1
  0
VERTEX
  5
1F7C
  8
0
 10
10378.6407328392506315
 20
5427.4891940520838034
 30
0.0
 42
0.5432817435180414
  0
VERTEX
  5
1F7D
  8
0
 10
10260.1695964436203212
 20
5371.3419325338072667
 30
0.0
  0
VERTEX
  5
1F7E
  8
0
 10
10326.1808448173105717
 20
5369.7434618448296533
 30
0.0
 42
-0.2363922684074359
  0
VERTEX
  5
1F7F
  8
0
 10
10337.8042371944302431
 20
5375.3966281089287804
 30
0.0
  0
SEQEND
  5
1F80
  8
0
  0
POLYLINE
  5
19E6
  8
0
 66
     1
 10
0.0
 20
0.0
 30
0.0
 70
     1
  0
VERTEX
  5
1F81
  8
0
 10
10350.9022413065595174
 20
5366.5552461588104052
 30
0.0
  0
VERTEX
  5
1F82
  8
0
 10
10385.7785337275399797
 20
5422.686141042696363
 30
0.0
 42
-0.5372332675308608
  0
VERTEX
  5
1F83
  8
0
 10
10375.6077737060895743
 20
5292.5598832247605969
 30
0.0
  0
VERTEX
  5
1F84
  8
0
 10
10350.1211565834091743
 20
5353.8402755504312154
 30
0.0
 42
0.2331074197927902
  0
SEQEND
  5
1F85
  8
0
  0
POLYLINE
  5
19E7
  8
0
 66
     1
 10
0.0
 20
0.0
 30
0.0
 70
     1
  0
VERTEX
  5
1F86
  8
0
 10
10367.9244540872005018
 20
5288.6889506031202473
 30
0.0
 42
-0.5446269466416381
  0
VERTEX
  5
1F87
  8
0
 10
10259.248550197629811
 20
5363.1138632197362313
 30
0.0
  0
VERTEX
  5
1F88
  8
0
 10
10325.0367358097701072
 20
5353.9701368125342924
 30
0.0
 42
0.2422445226025518
  0
VERTEX
  5
1F89
  8
0
 10
10336.0185051096595998
 20
5346.6731553716717826
 30
0.0
  0
SEQEND
  5
1F8A
  8
0
  0
POLYLINE
  5
19E8
  8
0
 66
     1
 10
0.0
 20
0.0
 30
0.0
 70
     1
  0
VERTEX
  5
1F8B
  8
0
 10
10598.1093999449403782
 20
5366.5552461587931248
 30
0.0
  0
VERTEX
  5
1F8C
  8
0
 10
10563.2331075239708298
 20
5422.6861410426790826
 30
0.0
 42
0.5372332675300742
  0
VERTEX
  5
1F8D
  8
0
 10
10573.4038675453193719
 20
5292.5598832247942482
 30
0.0
  0
VERTEX
  5
1F8E
  8
0
 10
10598.8904846680907212
 20
5353.8402755504130255
 30
0.0
 42
-0.2331074197930347
  0
SEQEND
  5
1F8F
  8
0
  0
POLYLINE
  5
19E9
  8
0
 66
     1
 10
0.0
 20
0.0
 30
0.0
 70
     1
  0
VERTEX
  5
1F90
  8
0
 10
10622.8307964342002379
 20
5369.7434618448132824
 30
0.0
  0
VERTEX
  5
1F91
  8
0
 10
10688.8420448078904883
 20
5371.3419325338018098
 30
0.0
 42
0.543281743518344
  0
VERTEX
  5
1F92
  8
0
 10
10570.3709084121801425
 20
5427.4891940520219578
 30
0.0
  0
VERTEX
  5
1F93
  8
0
 10
10611.2074040570605575
 20
5375.3966281089105905
 30
0.0
 42
-0.236392268408068
  0
SEQEND
  5
1F94
  8
0
  0
POLYLINE
  5
19EA
  8
0
 66
     1
 10
0.0
 20
0.0
 30
0.0
 70
     1
  0
VERTEX
  5
1F95
  8
0
 10
10612.9931361418603046
 20
5346.6731553716572307
 30
0.0
 42
0.2422445226022126
  0
VERTEX
  5
1F96
  8
0
 10
10623.9749054417407024
 20
5353.9701368125179215
 30
0.0
  0
VERTEX
  5
1F97
  8
0
 10
10689.7630910538791795
 20
5363.1138632197189509
 30
0.0
 42
-0.5446269466413323
  0
VERTEX
  5
1F98
  8
0
 10
10581.0871871643703344
 20
5288.688950603072044
 30
0.0
  0
SEQEND
  5
1F99
  8
0
  0
POLYLINE
  5
19EB
  8
0
 66
     1
 10
0.0
 20
0.0
 30
0.0
 70
     1
  0
VERTEX
  5
1F9A
  8
0
 10
10598.8904846680907212
 20
5088.5671555669523514
 30
0.0
  0
VERTEX
  5
1F9B
  8
0
 10
10573.4038675453393807
 20
5149.8475478925802236
 30
0.0
 42
0.5372332675303323
  0
VERTEX
  5
1F9C
  8
0
 10
10563.2331075240108476
 20
5019.7212900746590094
 30
0.0
  0
VERTEX
  5
1F9D
  8
0
 10
10598.1093999449494731
 20
5075.8521849585713426
 30
0.0
 42
-0.2331074197928877
  0
SEQEND
  5
1F9E
  8
0
  0
POLYLINE
  5
19EC
  8
0
 66
     1
 10
0.0
 20
0.0
 30
0.0
 70
     1
  0
VERTEX
  5
1F9F
  8
0
 10
10570.3709084121892374
 20
5014.9182370653434191
 30
0.0
  0
VERTEX
  5
1FA0
  8
0
 10
10611.2074040570605575
 20
5067.0108030084529673
 30
0.0
 42
0.2363922684080477
  0
VERTEX
  5
1FA1
  8
0
 10
10622.8307964342002379
 20
5072.663969272549366
 30
0.0
  0
VERTEX
  5
1FA2
  8
0
 10
10688.8420448078995832
 20
5071.0654985835608386
 30
0.0
 42
-0.5432817435184911
  0
SEQEND
  5
1FA3
  8
0
  0
POLYLINE
  5
19ED
  8
0
 66
     1
 10
0.0
 20
0.0
 30
0.0
 70
     1
  0
VERTEX
  5
1FA4
  8
0
 10
10689.7630910538791795
 20
5079.293567897646426
 30
0.0
  0
VERTEX
  5
1FA5
  8
0
 10
10623.9749054417497973
 20
5088.4372943048419984
 30
0.0
 42
0.2422445226023225
  0
VERTEX
  5
1FA6
  8
0
 10
10612.9931361418693996
 20
5095.7342757457090556
 30
0.0
  0
VERTEX
  5
1FA7
  8
0
 10
10581.0871871643903432
 20
5153.7184805142960613
 30
0.0
 42
-0.5446269466411814
  0
SEQEND
  5
1FA8
  8
0
  0
POLYLINE
  5
19EE
  8
0
 66
     1
 10
0.0
 20
0.0
 30
0.0
 70
     1
  0
VERTEX
  5
1FA9
  8
0
 10
10375.6077737061805237
 20
5149.8475478925602147
 30
0.0
  0
VERTEX
  5
1FAA
  8
0
 10
10350.1211565834200883
 20
5088.5671555669341615
 30
0.0
 42
-0.2331074197928363
  0
VERTEX
  5
1FAB
  8
0
 10
10350.9022413065704313
 20
5075.8521849585577002
 30
0.0
  0
VERTEX
  5
1FAC
  8
0
 10
10385.7785337275399797
 20
5019.7212900746681044
 30
0.0
 42
0.5372332675308714
  0
SEQEND
  5
1FAD
  8
0
  0
POLYLINE
  5
19EF
  8
0
 66
     1
 10
0.0
 20
0.0
 30
0.0
  0
VERTEX
  5
1FAE
  8
0
 10
10378.6407328392306226
 20
5014.9182370652606551
 30
0.0
 42
-0.5432817435178983
  0
VERTEX
  5
1FAF
  8
0
 10
10260.1695964436203212
 20
5071.0654985835453772
 30
0.0
  0
VERTEX
  5
1FB0
  8
0
 10
10326.1808448173105717
 20
5072.6639692725339046
 30
0.0
 42
0.2363922684075816
  0
VERTEX
  5
1FB1
  8
0
 10
10337.8042371944302431
 20
5067.0108030084356869
 30
0.0
  0
VERTEX
  5
1FB2
  8
0
 10
10378.640732839330667
 20
5014.9182370653252292
 30
0.0
  0
SEQEND
  5
1FB3
  8
0
  0
POLYLINE
  5
19F0
  8
0
 66
     1
 10
0.0
 20
0.0
 30
0.0
  0
VERTEX
  5
1FB4
  8
0
 10
10367.9244540872405196
 20
5153.7184805142305777
 30
0.0
 42
0.5446269466417347
  0
VERTEX
  5
1FB5
  8
0
 10
10259.248550197629811
 20
5079.2935678976291456
 30
0.0
  0
VERTEX
  5
1FB6
  8
0
 10
10325.0367358097701072
 20
5088.4372943048292655
 30
0.0
 42
-0.2422445226026853
  0
VERTEX
  5
1FB7
  8
0
 10
10336.0185051096705138
 20
5095.7342757456917752
 30
0.0
  0
VERTEX
  5
1FB8
  8
0
 10
10367.9244540871295612
 20
5153.7184805142778714
 30
0.0
  0
SEQEND
  5
1FB9
  8
0
  0
POLYLINE
  5
1A12
  8
0
 66
     1
 10
0.0
 20
0.0
 30
0.0
  0
VERTEX
  5
1FBA
  8
0
 10
10925.9967036480702518
 20
5117.9653623978956603
 30
0.0
  0
VERTEX
  5
1FBB
  8
0
 10
10928.8705249397298758
 20
5117.9653623978956603
 30
0.0
  0
VERTEX
  5
1FBC
  8
0
 10
10928.9966936047694617
 20
5155.9680052284084013
 30
0.0
  0
VERTEX
  5
1FBD
  8
0
 10
10925.9966936047694617
 20
5155.9680052284084013
 30
0.0
  0
VERTEX
  5
1FBE
  8
0
 10
10925.9966936047694617
 20
5165.9680052284065823
 30
0.0
  0
VERTEX
  5
1FBF
  8
0
 10
10928.9966936047694617
 20
5165.9680052284065823
 30
0.0
  0
VERTEX
  5
1FC0
  8
0
 10
10928.9966936047694617
 20
5175.3047519693081995
 30
0.0
  0
VERTEX
  5
1FC1
  8
0
 10
10937.9966936047694617
 20
5175.3047519693081995
 30
0.0
  0
VERTEX
  5
1FC2
  8
0
 10
10937.9966936047694617
 20
5018.1491988487277922
 30
0.0
  0
VERTEX
  5
1FC3
  8
0
 10
10928.9966936047694617
 20
5018.1491988487277922
 30
0.0
  0
VERTEX
  5
1FC4
  8
0
 10
10928.9966936047694617
 20
5027.4859096580221376
 30
0.0
  0
VERTEX
  5
1FC5
  8
0
 10
10925.9966936047694617
 20
5027.4859096580221376
 30
0.0
  0
VERTEX
  5
1FC6
  8
0
 10
10925.9966936047694617
 20
5037.4859096580221376
 30
0.0
  0
VERTEX
  5
1FC7
  8
0
 10
10928.9966936047694617
 20
5037.4859096580221376
 30
0.0
  0
VERTEX
  5
1FC8
  8
0
 10
10928.9966936047694617
 20
5075.4893664396149688
 30
0.0
  0
VERTEX
  5
1FC9
  8
0
 10
10925.9966936047694617
 20
5075.4893664396149688
 30
0.0
  0
VERTEX
  5
1FCA
  8
0
 10
10925.9966936047694617
 20
5085.4893664396149688
 30
0.0
  0
VERTEX
  5
1FCB
  8
0
 10
10928.9966936047694617
 20
5085.4893664396149688
 30
0.0
  0
VERTEX
  5
1FCC
  8
0
 10
10928.8705249397298758
 20
5107.9653623978947508
 30
0.0
  0
VERTEX
  5
1FCD
  8
0
 10
10925.8705249397298758
 20
5107.9653623978947508
 30
0.0
  0
VERTEX
  5
1FCE
  8
0
 10
10925.9966936047694617
 20
5117.9645664396157372
 30
0.0
  0
VERTEX
  5
1FCF
  8
0
 10
10925.9966936047694617
 20
5117.9645664396157372
 30
0.0
  0
SEQEND
  5
1FD0
  8
0
  0
POLYLINE
  5
1A13
  8
0
 66
     1
 10
0.0
 20
0.0
 30
0.0
  0
VERTEX
  5
1FD1
  8
0
 10
10944.8037930073605821
 20
5117.9653623978956603
 30
0.0
  0
VERTEX
  5
1FD2
  8
0
 10
10947.677614299029301
 20
5117.9653623978956603
 30
0.0
  0
VERTEX
  5
1FD3
  8
0
 10
10947.803782964059792
 20
5155.9680052284084013
 30
0.0
  0
VERTEX
  5
1FD4
  8
0
 10
10944.803782964059792
 20
5155.9680052284084013
 30
0.0
  0
VERTEX
  5
1FD5
  8
0
 10
10944.803782964059792
 20
5165.9680052284065823
 30
0.0
  0
VERTEX
  5
1FD6
  8
0
 10
10947.803782964059792
 20
5165.9680052284065823
 30
0.0
  0
VERTEX
  5
1FD7
  8
0
 10
10947.803782964059792
 20
5175.3047519693081995
 30
0.0
  0
VERTEX
  5
1FD8
  8
0
 10
10956.803782964059792
 20
5175.3047519693081995
 30
0.0
  0
VERTEX
  5
1FD9
  8
0
 10
10956.803782964059792
 20
5018.1491988487277922
 30
0.0
  0
VERTEX
  5
1FDA
  8
0
 10
10947.803782964059792
 20
5018.1491988487277922
 30
0.0
  0
VERTEX
  5
1FDB
  8
0
 10
10947.803782964059792
 20
5027.4859096580221376
 30
0.0
  0
VERTEX
  5
1FDC
  8
0
 10
10944.803782964059792
 20
5027.4859096580221376
 30
0.0
  0
VERTEX
  5
1FDD
  8
0
 10
10944.803782964059792
 20
5037.4859096580221376
 30
0.0
  0
VERTEX
  5
1FDE
  8
0
 10
10947.803782964059792
 20
5037.4859096580221376
 30
0.0
  0
VERTEX
  5
1FDF
  8
0
 10
10947.803782964059792
 20
5075.4893664396149688
 30
0.0
  0
VERTEX
  5
1FE0
  8
0
 10
10944.803782964059792
 20
5075.4893664396149688
 30
0.0
  0
VERTEX
  5
1FE1
  8
0
 10
10944.803782964059792
 20
5085.4893664396149688
 30
0.0
  0
VERTEX
  5
1FE2
  8
0
 10
10947.803782964059792
 20
5085.4893664396149688
 30
0.0
  0
VERTEX
  5
1FE3
  8
0
 10
10947.677614299029301
 20
5107.9653623978947508
 30
0.0
  0
VERTEX
  5
1FE4
  8
0
 10
10944.677614299029301
 20
5107.9653623978947508
 30
0.0
  0
VERTEX
  5
1FE5
  8
0
 10
10944.803782964059792
 20
5117.9645664396157372
 30
0.0
  0
VERTEX
  5
1FE6
  8
0
 10
10944.803782964059792
 20
5117.9645664396157372
 30
0.0
  0
SEQEND
  5
1FE7
  8
0
  0
POLYLINE
  5
1A5B
  8
0
 66
     1
 10
0.0
 20
0.0
 30
0.0
 70
     1
  0
VERTEX
  5
1FE8
  8
0
 10
10624.5136367364902981
 20
5065.1654051423320198
 30
0.0
  0
VERTEX
  5
1FE9
  8
0
 10
10642.5136367364902981
 20
5065.1654051423311103
 30
0.0
  0
VERTEX
  5
1FEA
  8
0
 10
10624.5136367364902981
 20
5047.1654051423320198
 30
0.0
  0
SEQEND
  5
1FEB
  8
0
  0
POLYLINE
  5
1A5C
  8
0
 66
     1
 10
0.0
 20
0.0
 30
0.0
 70
     1
  0
VERTEX
  5
1FEC
  8
0
 10
10646.4830195159502182
 20
5044.8744549760122027
 30
0.0
  0
VERTEX
  5
1FED
  8
0
 10
10628.4830195159502182
 20
5044.8744549760122027
 30
0.0
  0
VERTEX
  5
1FEE
  8
0
 10
10646.4830195159502182
 20
5062.8744549760122027
 30
0.0
  0
SEQEND
  5
1FEF
  8
0
  0
POLYLINE
  5
1A5D
  8
0
 66
     1
 10
0.0
 20
0.0
 30
0.0
 70
     1
  0
VERTEX
  5
1FF0
  8
0
 10
10624.2857995014892367
 20
5039.8996393205961795
 30
0.0
  0
VERTEX
  5
1FF1
  8
0
 10
10642.2857995014892367
 20
5039.89963932059527
 30
0.0
  0
VERTEX
  5
1FF2
  8
0
 10
10624.2857995014892367
 20
5021.8996393205961795
 30
0.0
  0
SEQEND
  5
1FF3
  8
0
  0
POLYLINE
  5
1A5E
  8
0
 66
     1
 10
0.0
 20
0.0
 30
0.0
 70
     1
  0
VERTEX
  5
1FF4
  8
0
 10
10646.2551822809491568
 20
5019.6086891542763624
 30
0.0
  0
VERTEX
  5
1FF5
  8
0
 10
10628.2551822809491568
 20
5019.6086891542763624
 30
0.0
  0
VERTEX
  5
1FF6
  8
0
 10
10646.2551822809491568
 20
5037.6086891542763624
 30
0.0
  0
SEQEND
  5
1FF7
  8
0
  0
POLYLINE
  5
1A5F
  8
0
 66
     1
 10
0.0
 20
0.0
 30
0.0
 70
     1
  0
VERTEX
  5
1FF8
  8
0
 10
10964.3758870982492226
 20
5370.3661497260072792
 30
0.0
  0
VERTEX
  5
1FF9
  8
0
 10
10974.3758870982492226
 20
5370.3661497260072792
 30
0.0
  0
VERTEX
  5
1FFA
  8
0
 10
10974.3758870982492226
 20
5325.7754497260057178
 30
0.0
  0
VERTEX
  5
1FFB
  8
0
 10
10964.3758870982492226
 20
5325.7754497260057178
 30
0.0
  0
SEQEND
  5
1FFC
  8
0
  0
POLYLINE
  5
1A60
  8
0
 66
     1
 10
0.0
 20
0.0
 30
0.0
 70
     1
  0
VERTEX
  5
1FFD
  8
0
 10
10964.3758870982492226
 20
5318.7434064326589578
 30
0.0
  0
VERTEX
  5
1FFE
  8
0
 10
10974.3758870982492226
 20
5318.7434064326589578
 30
0.0
  0
VERTEX
  5
1FFF
  8
0
 10
10974.3758870982492226
 20
5274.1527064326583059
 30
0.0
  0
VERTEX
  5
2000
  8
0
 10
10964.3758870982492226
 20
5274.1527064326583059
 30
0.0
  0
SEQEND
  5
2001
  8
0
  0
POLYLINE
  5
1A61
  8
0
 66
     1
 10
0.0
 20
0.0
 30
0.0
 70
     1
  0
VERTEX
  5
2002
  8
0
 10
10928.5787539149496297
 20
5371.2338214859655636
 30
0.0
  0
VERTEX
  5
2003
  8
0
 10
10938.5787539149605436
 20
5371.2338214859655636
 30
0.0
  0
VERTEX
  5
2004
  8
0
 10
10938.5787539149605436
 20
5326.6431214859649117
 30
0.0
  0
VERTEX
  5
2005
  8
0
 10
10928.5787539149496297
 20
5326.6431214859649117
 30
0.0
  0
SEQEND
  5
2006
  8
0
  0
POLYLINE
  5
1A62
  8
0
 66
     1
 10
0.0
 20
0.0
 30
0.0
 70
     1
  0
VERTEX
  5
2007
  8
0
 10
10928.5787539149496297
 20
5320.1302480361264315
 30
0.0
  0
VERTEX
  5
2008
  8
0
 10
10938.5787539149605436
 20
5320.1302480361264315
 30
0.0
  0
VERTEX
  5
2009
  8
0
 10
10938.5787539149605436
 20
5275.5395480361257796
 30
0.0
  0
VERTEX
  5
200A
  8
0
 10
10928.5787539149496297
 20
5275.5395480361257796
 30
0.0
  0
SEQEND
  5
200B
  8
0
  0
POLYLINE
  5
1A6B
  8
0
 66
     1
 10
0.0
 20
0.0
 30
0.0
 70
     1
  0
VERTEX
  5
200C
  8
0
 10
10696.3546701171708264
 20
5066.9069629459327189
 30
0.0
  0
VERTEX
  5
200D
  8
0
 10
10693.3653936218706804
 20
5067.160391505235566
 30
0.0
  0
VERTEX
  5
200E
  8
0
 10
10694.632536418390373
 20
5082.1067739817153779
 30
0.0
  0
VERTEX
  5
200F
  8
0
 10
10697.6218129136796051
 20
5081.8533454224134402
 30
0.0
  0
SEQEND
  5
2010
  8
0
  0
POLYLINE
  5
1BA4
  8
0
 66
     1
 10
0.0
 20
0.0
 30
0.0
  0
VERTEX
  5
2011
  8
0
 10
10780.4083348536605627
 20
5411.6417649097547837
 30
0.0
  0
VERTEX
  5
2012
  8
0
 10
10783.4083348536605627
 20
5411.6417649097547837
 30
0.0
  0
VERTEX
  5
2013
  8
0
 10
10813.4083348536605627
 20
5411.6417649097547837
 30
0.0
  0
VERTEX
  5
2014
  8
0
 10
10820.4083348536605627
 20
5411.6417649097547837
 30
0.0
  0
VERTEX
  5
2015
  8
0
 10
10820.4083348536605627
 20
5398.681779254508001
 30
0.0
  0
VERTEX
  5
2016
  8
0
 10
10813.4083348536605627
 20
5398.681779254508001
 30
0.0
  0
VERTEX
  5
2017
  8
0
 10
10808.4585873853502562
 20
5393.7320317862022421
 30
0.0
  0
VERTEX
  5
2018
  8
0
 10
10808.4585873853502562
 20
5376.980345003849834
 30
0.0
  0
VERTEX
  5
2019
  8
0
 10
10813.4083348536605627
 20
5372.0305975355449846
 30
0.0
  0
VERTEX
  5
201A
  8
0
 10
10820.4083348536605627
 20
5372.0305975355449846
 30
0.0
  0
VERTEX
  5
201B
  8
0
 10
10820.4083348536605627
 20
5363.3825898471241089
 30
0.0
  0
VERTEX
  5
201C
  8
0
 10
10813.4083348536605627
 20
5363.3825898471241089
 30
0.0
  0
VERTEX
  5
201D
  8
0
 10
10808.4585873853502562
 20
5358.4328423788174405
 30
0.0
  0
VERTEX
  5
201E
  8
0
 10
10808.4585873853502562
 20
5341.6811555964668514
 30
0.0
  0
VERTEX
  5
201F
  8
0
 10
10813.4083348536605627
 20
5336.731408128160183
 30
0.0
  0
VERTEX
  5
2020
  8
0
 10
10820.4083348536605627
 20
5336.731408128160183
 30
0.0
  0
VERTEX
  5
2021
  8
0
 10
10820.4083348536605627
 20
5323.7714224729134003
 30
0.0
  0
VERTEX
  5
2022
  8
0
 10
10813.4083348536605627
 20
5323.7714224729134003
 30
0.0
  0
VERTEX
  5
2023
  8
0
 10
10783.4083348536605627
 20
5323.7714224729134003
 30
0.0
  0
VERTEX
  5
2024
  8
0
 10
10780.4083348536605627
 20
5323.7714224729134003
 30
0.0
  0
VERTEX
  5
2025
  8
0
 10
10780.4083348536605627
 20
5336.731408128160183
 30
0.0
  0
VERTEX
  5
2026
  8
0
 10
10780.4083348536605627
 20
5337.731408128160183
 30
0.0
  0
VERTEX
  5
2027
  8
0
 10
10783.4083348536605627
 20
5337.731408128160183
 30
0.0
  0
VERTEX
  5
2028
  8
0
 10
10796.4083348536605627
 20
5337.731408128160183
 30
0.0
  0
VERTEX
  5
2029
  8
0
 10
10798.4083348536496487
 20
5339.731408128160183
 30
0.0
  0
VERTEX
  5
202A
  8
0
 10
10798.4083348536496487
 20
5363.2065792545090517
 30
0.0
  0
VERTEX
  5
202B
  8
0
 10
10798.4083348536496487
 20
5363.2065792545090517
 30
0.0
  0
VERTEX
  5
202C
  8
0
 10
10798.4083348536496487
 20
5363.2065792545090517
 30
0.0
  0
VERTEX
  5
202D
  8
0
 10
10796.4083348536496487
 20
5365.2065792545081422
 30
0.0
  0
VERTEX
  5
202E
  8
0
 10
10780.4083348536496487
 20
5365.2065792545081422
 30
0.0
  0
VERTEX
  5
202F
  8
0
 10
10780.4083348536496487
 20
5370.2065792545081422
 30
0.0
  0
VERTEX
  5
2030
  8
0
 10
10796.4083348536496487
 20
5370.2065792545081422
 30
0.0
  0
VERTEX
  5
2031
  8
0
 10
10798.4083348536496487
 20
5372.2065792545081422
 30
0.0
  0
VERTEX
  5
2032
  8
0
 10
10798.4083348536496487
 20
5395.681779254508001
 30
0.0
  0
VERTEX
  5
2033
  8
0
 10
10796.4083348536496487
 20
5397.681779254508001
 30
0.0
  0
VERTEX
  5
2034
  8
0
 10
10780.4083348536496487
 20
5397.681779254508001
 30
0.0
  0
VERTEX
  5
2035
  8
0
 10
10780.4083348536605627
 20
5411.6417649097547837
 30
0.0
  0
VERTEX
  5
2036
  8
0
 10
10780.4083348536605627
 20
5398.681779254508001
 30
0.0
  0
SEQEND
  5
2037
  8
0
  0
POLYLINE
  5
1BA5
  8
0
 66
     1
 10
0.0
 20
0.0
 30
0.0
  0
VERTEX
  5
2038
  8
0
 10
10835.0614303977508825
 20
5407.3057311453376315
 30
0.0
  0
VERTEX
  5
2039
  8
0
 10
10838.0614303977508825
 20
5407.3057311453376315
 30
0.0
  0
VERTEX
  5
203A
  8
0
 10
10868.0614303977508825
 20
5407.3057311453376315
 30
0.0
  0
VERTEX
  5
203B
  8
0
 10
10875.0614303977508825
 20
5407.3057311453376315
 30
0.0
  0
VERTEX
  5
203C
  8
0
 10
10875.0614303977508825
 20
5394.3457454900908488
 30
0.0
  0
VERTEX
  5
203D
  8
0
 10
10868.0614303977508825
 20
5394.3457454900908488
 30
0.0
  0
VERTEX
  5
203E
  8
0
 10
10863.1116829294496711
 20
5389.3959980217841803
 30
0.0
  0
VERTEX
  5
203F
  8
0
 10
10863.1116829294496711
 20
5372.6443112394326818
 30
0.0
  0
VERTEX
  5
2040
  8
0
 10
10868.0614303977508825
 20
5367.6945637711269228
 30
0.0
  0
VERTEX
  5
2041
  8
0
 10
10875.0614303977508825
 20
5367.6945637711269228
 30
0.0
  0
VERTEX
  5
2042
  8
0
 10
10875.0614303977508825
 20
5359.0465560827069567
 30
0.0
  0
VERTEX
  5
2043
  8
0
 10
10868.0614303977508825
 20
5359.0465560827069567
 30
0.0
  0
VERTEX
  5
2044
  8
0
 10
10863.1116829294496711
 20
5354.0968086144002882
 30
0.0
  0
VERTEX
  5
2045
  8
0
 10
10863.1116829294496711
 20
5337.3451218320496992
 30
0.0
  0
VERTEX
  5
2046
  8
0
 10
10868.0614303977508825
 20
5332.3953743637430307
 30
0.0
  0
VERTEX
  5
2047
  8
0
 10
10875.0614303977508825
 20
5332.3953743637430307
 30
0.0
  0
VERTEX
  5
2048
  8
0
 10
10875.0614303977508825
 20
5319.435388708496248
 30
0.0
  0
VERTEX
  5
2049
  8
0
 10
10868.0614303977508825
 20
5319.435388708496248
 30
0.0
  0
VERTEX
  5
204A
  8
0
 10
10838.0614303977508825
 20
5319.435388708496248
 30
0.0
  0
VERTEX
  5
204B
  8
0
 10
10835.0614303977508825
 20
5319.435388708496248
 30
0.0
  0
VERTEX
  5
204C
  8
0
 10
10835.0614303977508825
 20
5332.3953743637430307
 30
0.0
  0
VERTEX
  5
204D
  8
0
 10
10835.0614303977508825
 20
5333.3953743637430307
 30
0.0
  0
VERTEX
  5
204E
  8
0
 10
10838.0614303977508825
 20
5333.3953743637430307
 30
0.0
  0
VERTEX
  5
204F
  8
0
 10
10851.0614303977508825
 20
5333.3953743637430307
 30
0.0
  0
VERTEX
  5
2050
  8
0
 10
10853.0614303977508825
 20
5335.3953743637430307
 30
0.0
  0
VERTEX
  5
2051
  8
0
 10
10853.0614303977508825
 20
5358.8705454900909899
 30
0.0
  0
VERTEX
  5
2052
  8
0
 10
10853.0614303977508825
 20
5358.8705454900909899
 30
0.0
  0
VERTEX
  5
2053
  8
0
 10
10853.0614303977508825
 20
5358.8705454900909899
 30
0.0
  0
VERTEX
  5
2054
  8
0
 10
10851.0614303977508825
 20
5360.8705454900909899
 30
0.0
  0
VERTEX
  5
2055
  8
0
 10
10835.0614303977508825
 20
5360.8705454900909899
 30
0.0
  0
VERTEX
  5
2056
  8
0
 10
10835.0614303977508825
 20
5365.8705454900909899
 30
0.0
  0
VERTEX
  5
2057
  8
0
 10
10851.0614303977508825
 20
5365.8705454900909899
 30
0.0
  0
VERTEX
  5
2058
  8
0
 10
10853.0614303977508825
 20
5367.8705454900918994
 30
0.0
  0
VERTEX
  5
2059
  8
0
 10
10853.0614303977508825
 20
5391.3457454900908488
 30
0.0
  0
VERTEX
  5
205A
  8
0
 10
10851.0614303977508825
 20
5393.3457454900908488
 30
0.0
  0
VERTEX
  5
205B
  8
0
 10
10835.0614303977508825
 20
5393.3457454900908488
 30
0.0
  0
VERTEX
  5
205C
  8
0
 10
10835.0614303977508825
 20
5407.3057311453376315
 30
0.0
  0
VERTEX
  5
205D
  8
0
 10
10835.0614303977508825
 20
5394.3457454900908488
 30
0.0
  0
SEQEND
  5
205E
  8
0
  0
LINE
  5
1D9B
  8
0
 10
10927.9366219642306532
 20
5203.9629019628810056
 30
0.0
 11
10914.9766363089893275
 21
5203.9629019628810056
 31
0.0
  0
LINE
  5
1D9C
  8
0
 10
10914.9766363089893275
 20
5203.9629019628810056
 30
0.0
 11
10914.9766363089893275
 21
5200.9629019628800961
 31
0.0
  0
LINE
  5
1D9D
  8
0
 10
10914.9766363089893275
 20
5200.9629019628800961
 30
0.0
 11
10927.9366219642306532
 21
5200.9629019628800961
 31
0.0
  0
LINE
  5
1DA0
  8
0
 10
10914.9766363089893275
 20
5203.9629019628810056
 30
0.0
 11
10927.9366219642306532
 21
5203.9629019628810056
 31
0.0
  0
LINE
  5
1DA5
  8
0
 10
10927.9366219642306532
 20
5203.9629019628810056
 30
0.0
 11
10927.9366219642306532
 21
5200.9629019628800961
 31
0.0
  0
POLYLINE
  5
1DB4
  8
0
 66
     1
 10
0.0
 20
0.0
 30
0.0
 70
     1
  0
VERTEX
  5
205F
  8
0
 10
10989.8869930905802903
 20
5203.9629019628810056
 30
0.0
  0
VERTEX
  5
2060
  8
0
 10
10989.8869930905802903
 20
5200.9629019628800961
 30
0.0
  0
VERTEX
  5
2061
  8
0
 10
11002.846978745830711
 20
5200.9629019628800961
 30
0.0
  0
VERTEX
  5
2062
  8
0
 10
11002.846978745830711
 20
5203.9629019628810056
 30
0.0
  0
SEQEND
  5
2063
  8
0
  0
POLYLINE
  5
1DB5
  8
0
 66
     1
 10
0.0
 20
0.0
 30
0.0
 70
     1
  0
VERTEX
  5
2064
  8
0
 10
10914.9766363089893275
 20
5200.9629019628800961
 30
0.0
  0
VERTEX
  5
2065
  8
0
 10
10927.9366219642306532
 20
5200.9629019628800961
 30
0.0
  0
VERTEX
  5
2066
  8
0
 10
10927.9366219642306532
 20
5200.9629019628800961
 30
0.0
  0
VERTEX
  5
2067
  8
0
 10
10914.9766363089893275
 20
5200.9629019628800961
 30
0.0
  0
VERTEX
  5
2068
  8
0
 10
10914.9766363089893275
 20
5203.9629019628810056
 30
0.0
  0
SEQEND
  5
2069
  8
0
  0
POLYLINE
  5
1DB6
  8
0
 66
     1
 10
0.0
 20
0.0
 30
0.0
 70
     1
  0
VERTEX
  5
206A
  8
0
 10
10954.5878036832000362
 20
5203.9629019628810056
 30
0.0
  0
VERTEX
  5
206B
  8
0
 10
10954.5878036832000362
 20
5200.9629019628800961
 30
0.0
  0
VERTEX
  5
206C
  8
0
 10
10963.2358113716200023
 20
5200.9629019628800961
 30
0.0
  0
VERTEX
  5
206D
  8
0
 10
10963.2358113716200023
 20
5203.9629019628810056
 30
0.0
  0
SEQEND
  5
206E
  8
0
  0
POLYLINE
  5
1DB7
  8
0
 66
     1
 10
0.0
 20
0.0
 30
0.0
  0
VERTEX
  5
206F
  8
0
 10
11002.8469678109795495
 20
5248.5535957034153398
 30
0.0
  0
VERTEX
  5
2070
  8
0
 10
10989.8869821557291289
 20
5248.5535957034153398
 30
0.0
  0
VERTEX
  5
2071
  8
0
 10
11002.8469678109795495
 20
5248.5535957034153398
 30
0.0
  0
VERTEX
  5
2072
  8
0
 10
11002.8469678109795495
 20
5251.5535957034153398
 30
0.0
  0
VERTEX
  5
2073
  8
0
 10
10989.8869821557291289
 20
5251.5535957034153398
 30
0.0
  0
VERTEX
  5
2074
  8
0
 10
10989.8869821557291289
 20
5248.5535957034153398
 30
0.0
  0
SEQEND
  5
2075
  8
0
  0
POLYLINE
  5
1DB8
  8
0
 66
     1
 10
0.0
 20
0.0
 30
0.0
 70
     1
  0
VERTEX
  5
2076
  8
0
 10
10927.9366110293794918
 20
5251.5535957034153398
 30
0.0
  0
VERTEX
  5
2077
  8
0
 10
10927.9366110293794918
 20
5248.5535957034153398
 30
0.0
  0
VERTEX
  5
2078
  8
0
 10
10927.9366110293794918
 20
5248.5535957034153398
 30
0.0
  0
VERTEX
  5
2079
  8
0
 10
10914.9766253741399851
 20
5248.5535957034153398
 30
0.0
  0
VERTEX
  5
207A
  8
0
 10
10914.9766253741399851
 20
5251.5535957034153398
 30
0.0
  0
SEQEND
  5
207B
  8
0
  0
POLYLINE
  5
1DB9
  8
0
 66
     1
 10
0.0
 20
0.0
 30
0.0
 70
     1
  0
VERTEX
  5
207C
  8
0
 10
10954.5877927483506937
 20
5251.5535957034153398
 30
0.0
  0
VERTEX
  5
207D
  8
0
 10
10954.5877927483506937
 20
5248.5535957034153398
 30
0.0
  0
VERTEX
  5
207E
  8
0
 10
10963.2358004367706599
 20
5248.5535957034153398
 30
0.0
  0
VERTEX
  5
207F
  8
0
 10
10963.2358004367706599
 20
5251.5535957034153398
 30
0.0
  0
SEQEND
  5
2080
  8
0
  0
POLYLINE
  5
1DBA
  8
0
 66
     1
 10
0.0
 20
0.0
 30
0.0
 70
     1
  0
VERTEX
  5
2081
  8
0
 10
10987.9609544724698935
 20
5193.7605851616990549
 30
0.0
  0
VERTEX
  5
2082
  8
0
 10
10987.9609544724698935
 20
5190.7605851616990549
 30
0.0
  0
VERTEX
  5
2083
  8
0
 10
10965.9609544724698935
 20
5190.7605851616990549
 30
0.0
  0
VERTEX
  5
2084
  8
0
 10
10965.9609544724698935
 20
5193.7605851616990549
 30
0.0
  0
SEQEND
  5
2085
  8
0
  0
POLYLINE
  5
1DBB
  8
0
 66
     1
 10
0.0
 20
0.0
 30
0.0
 70
     1
  0
VERTEX
  5
2086
  8
0
 10
10951.8626927483492182
 20
5193.7605851616990549
 30
0.0
  0
VERTEX
  5
2087
  8
0
 10
10951.8626927483492182
 20
5190.7605851616990549
 30
0.0
  0
VERTEX
  5
2088
  8
0
 10
10929.8626927483492182
 20
5190.7605851616990549
 30
0.0
  0
VERTEX
  5
2089
  8
0
 10
10929.8626927483492182
 20
5193.7605851616990549
 30
0.0
  0
SEQEND
  5
208A
  8
0
  0
POLYLINE
  5
1DBC
  8
0
 66
     1
 10
0.0
 20
0.0
 30
0.0
 70
     1
  0
VERTEX
  5
208B
  8
0
 10
10987.9609544724698935
 20
5261.7559878910142288
 30
0.0
  0
VERTEX
  5
208C
  8
0
 10
10987.9609544724698935
 20
5258.7559878910142288
 30
0.0
  0
VERTEX
  5
208D
  8
0
 10
10965.9609544724698935
 20
5258.7559878910142288
 30
0.0
  0
VERTEX
  5
208E
  8
0
 10
10965.9609544724698935
 20
5261.7559878910142288
 30
0.0
  0
SEQEND
  5
208F
  8
0
  0
POLYLINE
  5
1DBD
  8
0
 66
     1
 10
0.0
 20
0.0
 30
0.0
 70
     1
  0
VERTEX
  5
2090
  8
0
 10
10951.8626927483492182
 20
5261.7559878910142288
 30
0.0
  0
VERTEX
  5
2091
  8
0
 10
10951.8626927483492182
 20
5258.7559878910142288
 30
0.0
  0
VERTEX
  5
2092
  8
0
 10
10929.8626927483492182
 20
5258.7559878910142288
 30
0.0
  0
VERTEX
  5
2093
  8
0
 10
10929.8626927483492182
 20
5261.7559878910142288
 30
0.0
  0
SEQEND
  5
2094
  8
0
  0
POLYLINE
  5
1DBE
  8
0
 66
     1
 10
0.0
 20
0.0
 30
0.0
 70
     1
  0
VERTEX
  5
2095
  8
0
 10
11177.7714095140690915
 20
5072.21494872132007
 30
0.0
  0
VERTEX
  5
2096
  8
0
 10
11179.0385523105796892
 20
5087.1613311977998819
 30
0.0
  0
VERTEX
  5
2097
  8
0
 10
11182.0278288058798353
 20
5086.9079026384970348
 30
0.0
  0
VERTEX
  5
2098
  8
0
 10
11180.7606860093601426
 20
5071.9615201620172229
 30
0.0
  0
SEQEND
  5
2099
  8
0
  0
POLYLINE
  5
1DBF
  8
0
 66
     1
 10
0.0
 20
0.0
 30
0.0
 70
     1
  0
VERTEX
  5
209A
  8
0
 10
10852.3304699794407497
 20
5158.7730377303150817
 30
0.0
 42
0.5446269466417295
  0
VERTEX
  5
209B
  8
0
 10
10743.6545660898300412
 20
5084.3481251137127401
 30
0.0
 42
0.6125766460387415
  0
VERTEX
  5
209C
  8
0
 10
10870.184549619729296
 20
5024.7758472907526084
 30
0.0
 42
0.5722258020740869
  0
SEQEND
  5
209D
  8
0
  0
POLYLINE
  5
1DC0
  8
0
 66
     1
 10
0.0
 20
0.0
 30
0.0
 70
     1
  0
VERTEX
  5
209E
  8
0
 10
11054.7769243043803726
 20
5019.9727942814270136
 30
0.0
 42
0.5762299648193022
  0
VERTEX
  5
209F
  8
0
 10
11174.1691069460703147
 20
5084.3481251137300205
 30
0.0
 42
0.5446269466411753
  0
VERTEX
  5
20A0
  8
0
 10
11065.4932030565796595
 20
5158.7730377303796558
 30
0.0
 42
0.6102998013857736
  0
SEQEND
  5
20A1
  8
0
  0
POLYLINE
  5
1DC1
  8
0
 66
     1
 10
0.0
 20
0.0
 30
0.0
 70
     1
  0
VERTEX
  5
20A2
  8
0
 10
11065.4932030565596506
 20
5293.7435078191547291
 30
0.0
 42
0.5812377691906486
  0
VERTEX
  5
20A3
  8
0
 10
11173.2480607000798045
 20
5376.3964897498863138
 30
0.0
 42
0.5432817435183497
  0
VERTEX
  5
20A4
  8
0
 10
11054.7769243043803726
 20
5432.5437512681055523
 30
0.0
 42
0.610299801385742
  0
SEQEND
  5
20A5
  8
0
  0
POLYLINE
  5
1DC2
  8
0
 66
     1
 10
0.0
 20
0.0
 30
0.0
 70
     1
  0
VERTEX
  5
20A6
  8
0
 10
10743.6545660898191272
 20
5368.1684204358207353
 30
0.0
 42
0.5816747311090273
  0
VERTEX
  5
20A7
  8
0
 10
10860.0137895982898044
 20
5297.6144404408441915
 30
0.0
 42
0.5372332675308599
  0
VERTEX
  5
20A8
  8
0
 10
10870.184549619729296
 20
5427.740698258780867
 30
0.0
 42
0.6125766460386848
  0
SEQEND
  5
20A9
  8
0
  0
POLYLINE
  5
1DC3
  8
0
 66
     1
 10
0.0
 20
0.0
 30
0.0
 70
     1
  0
VERTEX
  5
20AA
  8
0
 10
10905.629595017999236
 20
5089.6384279396042984
 30
0.0
  0
VERTEX
  5
20AB
  8
0
 10
10908.600165750249289
 20
5090.0576051392608861
 30
0.0
  0
VERTEX
  5
20AC
  8
0
 10
10906.5042797519599844
 20
5104.910458800500237
 30
0.0
  0
VERTEX
  5
20AD
  8
0
 10
10903.5337090197099315
 20
5104.4912816008427399
 30
0.0
  0
SEQEND
  5
20AE
  8
0
  0
POLYLINE
  5
1DC4
  8
0
 66
     1
 10
0.0
 20
0.0
 30
0.0
 70
     1
  0
VERTEX
  5
20AF
  8
0
 10
10763.8288050820992794
 20
5150.0156484842591453
 30
0.0
  0
VERTEX
  5
20B0
  8
0
 10
10765.5945179063801334
 20
5147.5903117608031607
 30
0.0
  0
VERTEX
  5
20B1
  8
0
 10
10777.7212015236691514
 20
5156.4188758822338059
 30
0.0
  0
VERTEX
  5
20B2
  8
0
 10
10775.9554886993792024
 20
5158.8442126056916095
 30
0.0
  0
SEQEND
  5
20B3
  8
0
  0
POLYLINE
  5
1DC5
  8
0
 66
     1
 10
0.0
 20
0.0
 30
0.0
 70
     1
  0
VERTEX
  5
20B4
  8
0
 10
10781.5622780506291747
 20
5013.1200559358458122
 30
0.0
  0
VERTEX
  5
20B5
  8
0
 10
10780.3904507805691537
 20
5010.3583859973596191
 30
0.0
  0
VERTEX
  5
20B6
  8
0
 10
10794.1988004729992099
 20
5004.4992496470449623
 30
0.0
  0
VERTEX
  5
20B7
  8
0
 10
10795.3706277430592309
 20
5007.2609195855311555
 30
0.0
  0
SEQEND
  5
20B8
  8
0
  0
POLYLINE
  5
1DC6
  8
0
 66
     1
 10
0.0
 20
0.0
 30
0.0
 70
     1
  0
VERTEX
  5
20B9
  8
0
 10
10866.6338287150992983
 20
5161.3366417979241305
 30
0.0
  0
VERTEX
  5
20BA
  8
0
 10
10853.1719416746691422
 20
5167.9531059072996868
 30
0.0
  0
VERTEX
  5
20BB
  8
0
 10
10851.8486488527996698
 20
5165.2607284992118366
 30
0.0
  0
VERTEX
  5
20BC
  8
0
 10
10865.3105358932298259
 20
5158.6442643898380993
 30
0.0
  0
SEQEND
  5
20BD
  8
0
  0
POLYLINE
  5
1DC7
  8
0
 66
     1
 10
0.0
 20
0.0
 30
0.0
 70
     1
  0
VERTEX
  5
20BE
  8
0
 10
10740.0522635218294454
 20
5072.2149487213027896
 30
0.0
  0
VERTEX
  5
20BF
  8
0
 10
10738.7851207253206667
 20
5087.1613311977826015
 30
0.0
  0
VERTEX
  5
20C0
  8
0
 10
10735.7958442300205206
 20
5086.9079026384788449
 30
0.0
  0
VERTEX
  5
20C1
  8
0
 10
10737.0629870265402133
 20
5071.9615201619999425
 30
0.0
  0
SEQEND
  5
20C2
  8
0
  0
POLYLINE
  5
1DC8
  8
0
 66
     1
 10
0.0
 20
0.0
 30
0.0
 70
     1
  0
VERTEX
  5
20C3
  8
0
 10
10876.2904662599994481
 20
5022.4561720031406367
 30
0.0
  0
VERTEX
  5
20C4
  8
0
 10
10864.166560037760064
 20
5013.6237941854651581
 30
0.0
  0
VERTEX
  5
20C5
  8
0
 10
10865.9330356012906122
 20
5011.1990129410150985
 30
0.0
  0
VERTEX
  5
20C6
  8
0
 10
10878.0569418235390913
 20
5020.0313907586905771
 30
0.0
  0
SEQEND
  5
20C7
  8
0
  0
POLYLINE
  5
1DC9
  8
0
 66
     1
 10
0.0
 20
0.0
 30
0.0
 70
     1
  0
VERTEX
  5
20C8
  8
0
 10
11012.1940780178993009
 20
5089.6384279396215788
 30
0.0
  0
VERTEX
  5
20C9
  8
0
 10
11009.2235072856492479
 20
5090.0576051392781665
 30
0.0
  0
VERTEX
  5
20CA
  8
0
 10
11011.3193932839403715
 20
5104.9104588005166079
 30
0.0
  0
VERTEX
  5
20CB
  8
0
 10
11014.2899640161904244
 20
5104.4912816008609298
 30
0.0
  0
SEQEND
  5
20CC
  8
0
  0
POLYLINE
  5
1DCA
  8
0
 66
     1
 10
0.0
 20
0.0
 30
0.0
 70
     1
  0
VERTEX
  5
20CD
  8
0
 10
11153.9948679537992575
 20
5150.0156484842773352
 30
0.0
  0
VERTEX
  5
20CE
  8
0
 10
11152.2291551295202225
 20
5147.5903117608186221
 30
0.0
  0
VERTEX
  5
20CF
  8
0
 10
11140.1024715122293856
 20
5156.4188758822510863
 30
0.0
  0
VERTEX
  5
20D0
  8
0
 10
11141.8681843365193345
 20
5158.8442126057088899
 30
0.0
  0
SEQEND
  5
20D1
  8
0
  0
POLYLINE
  5
1DCB
  8
0
 66
     1
 10
0.0
 20
0.0
 30
0.0
 70
     1
  0
VERTEX
  5
20D2
  8
0
 10
11136.2613949852693622
 20
5013.1200559358640021
 30
0.0
  0
VERTEX
  5
20D3
  8
0
 10
11137.4332222553293832
 20
5010.3583859973768995
 30
0.0
  0
VERTEX
  5
20D4
  8
0
 10
11123.624872562899327
 20
5004.4992496470631522
 30
0.0
  0
VERTEX
  5
20D5
  8
0
 10
11122.4530452928393061
 20
5007.2609195855484359
 30
0.0
  0
SEQEND
  5
20D6
  8
0
  0
POLYLINE
  5
1DCC
  8
0
 66
     1
 10
0.0
 20
0.0
 30
0.0
 70
     1
  0
VERTEX
  5
20D7
  8
0
 10
11051.1898443207992386
 20
5161.3366417979414109
 30
0.0
  0
VERTEX
  5
20D8
  8
0
 10
11064.6517313612293947
 20
5167.9531059073169672
 30
0.0
  0
VERTEX
  5
20D9
  8
0
 10
11065.9750241831006861
 20
5165.2607284992300265
 30
0.0
  0
VERTEX
  5
20DA
  8
0
 10
11052.51313714267053
 20
5158.6442643898562892
 30
0.0
  0
SEQEND
  5
20DB
  8
0
  0
POLYLINE
  5
1DCD
  8
0
 66
     1
 10
0.0
 20
0.0
 30
0.0
 70
     1
  0
VERTEX
  5
20DC
  8
0
 10
11041.5332067759009078
 20
5022.4561720031579171
 30
0.0
  0
VERTEX
  5
20DD
  8
0
 10
11053.6571129981402919
 20
5013.6237941854824385
 30
0.0
  0
VERTEX
  5
20DE
  8
0
 10
11051.8906374346097437
 20
5011.1990129410323789
 30
0.0
  0
VERTEX
  5
20DF
  8
0
 10
11039.7667312123703596
 20
5020.0313907587078575
 30
0.0
  0
SEQEND
  5
20E0
  8
0
  0
POLYLINE
  5
1DCE
  8
0
 66
     1
 10
0.0
 20
0.0
 30
0.0
 70
     1
  0
VERTEX
  5
20E1
  8
0
 10
10905.629595017999236
 20
5362.8781176099300865
 30
0.0
  0
VERTEX
  5
20E2
  8
0
 10
10908.600165750240194
 20
5362.4589404102725894
 30
0.0
  0
VERTEX
  5
20E3
  8
0
 10
10906.5042797519508895
 20
5347.6060867490332384
 30
0.0
  0
VERTEX
  5
20E4
  8
0
 10
10903.5337090197099315
 20
5348.0252639486898261
 30
0.0
  0
SEQEND
  5
20E5
  8
0
  0
POLYLINE
  5
1DCF
  8
0
 66
     1
 10
0.0
 20
0.0
 30
0.0
 70
     1
  0
VERTEX
  5
20E6
  8
0
 10
10763.8288050820901844
 20
5302.5008970652734206
 30
0.0
  0
VERTEX
  5
20E7
  8
0
 10
10765.5945179063801334
 20
5304.9262337887312242
 30
0.0
  0
VERTEX
  5
20E8
  8
0
 10
10777.7212015236600564
 20
5296.0976696672996695
 30
0.0
  0
VERTEX
  5
20E9
  8
0
 10
10775.9554886993792024
 20
5293.6723329438418659
 30
0.0
  0
SEQEND
  5
20EA
  8
0
  0
POLYLINE
  5
1DD0
  8
0
 66
     1
 10
0.0
 20
0.0
 30
0.0
 70
     1
  0
VERTEX
  5
20EB
  8
0
 10
10781.5622780506291747
 20
5439.3964896136867537
 30
0.0
  0
VERTEX
  5
20EC
  8
0
 10
10780.3904507805600588
 20
5442.1581595521738564
 30
0.0
  0
VERTEX
  5
20ED
  8
0
 10
10794.1988004729901149
 20
5448.0172959024876036
 30
0.0
  0
VERTEX
  5
20EE
  8
0
 10
10795.3706277430501359
 20
5445.25562596400232
 30
0.0
  0
SEQEND
  5
20EF
  8
0
  0
POLYLINE
  5
1DD1
  8
0
 66
     1
 10
0.0
 20
0.0
 30
0.0
 70
     1
  0
VERTEX
  5
20F0
  8
0
 10
10866.6338287150992983
 20
5291.1799037516102544
 30
0.0
  0
VERTEX
  5
20F1
  8
0
 10
10853.1719416746691422
 20
5284.5634396422337886
 30
0.0
  0
VERTEX
  5
20F2
  8
0
 10
10851.8486488527905749
 20
5287.2558170503207293
 30
0.0
  0
VERTEX
  5
20F3
  8
0
 10
10865.3105358932207309
 20
5293.8722811596953761
 30
0.0
  0
SEQEND
  5
20F4
  8
0
  0
POLYLINE
  5
1DD2
  8
0
 66
     1
 10
0.0
 20
0.0
 30
0.0
 70
     1
  0
VERTEX
  5
20F5
  8
0
 10
10740.0522635218294454
 20
5380.3015968282288668
 30
0.0
  0
VERTEX
  5
20F6
  8
0
 10
10738.7851207253206667
 20
5365.3552143517508739
 30
0.0
  0
VERTEX
  5
20F7
  8
0
 10
10735.7958442300205206
 20
5365.608642911053721
 30
0.0
  0
VERTEX
  5
20F8
  8
0
 10
10737.0629870265292993
 20
5380.5550253875344424
 30
0.0
  0
SEQEND
  5
20F9
  8
0
  0
POLYLINE
  5
1DD3
  8
0
 66
     1
 10
0.0
 20
0.0
 30
0.0
 70
     1
  0
VERTEX
  5
20FA
  8
0
 10
10876.2904662599994481
 20
5430.0603735463928388
 30
0.0
  0
VERTEX
  5
20FB
  8
0
 10
10864.1665600377491501
 20
5438.8927513640683173
 30
0.0
  0
VERTEX
  5
20FC
  8
0
 10
10865.9330356012906122
 20
5441.3175326085183769
 30
0.0
  0
VERTEX
  5
20FD
  8
0
 10
10878.0569418235299963
 20
5432.4851547908428984
 30
0.0
  0
SEQEND
  5
20FE
  8
0
  0
POLYLINE
  5
1DD4
  8
0
 66
     1
 10
0.0
 20
0.0
 30
0.0
 70
     1
  0
VERTEX
  5
20FF
  8
0
 10
11012.1940780178993009
 20
5362.8781176099118966
 30
0.0
  0
VERTEX
  5
2100
  8
0
 10
11009.2235072856492479
 20
5362.458940410255309
 30
0.0
  0
VERTEX
  5
2101
  8
0
 10
11011.3193932839403715
 20
5347.606086749015958
 30
0.0
  0
VERTEX
  5
2102
  8
0
 10
11014.2899640161795105
 20
5348.0252639486725457
 30
0.0
  0
SEQEND
  5
2103
  8
0
  0
POLYLINE
  5
1DD5
  8
0
 66
     1
 10
0.0
 20
0.0
 30
0.0
 70
     1
  0
VERTEX
  5
2104
  8
0
 10
11153.9948679537992575
 20
5302.5008970652561402
 30
0.0
  0
VERTEX
  5
2105
  8
0
 10
11152.2291551295093086
 20
5304.9262337887139438
 30
0.0
  0
VERTEX
  5
2106
  8
0
 10
11140.1024715122202906
 20
5296.0976696672832986
 30
0.0
  0
VERTEX
  5
2107
  8
0
 10
11141.8681843365102395
 20
5293.672332943823676
 30
0.0
  0
SEQEND
  5
2108
  8
0
  0
POLYLINE
  5
1DD6
  8
0
 66
     1
 10
0.0
 20
0.0
 30
0.0
 70
     1
  0
VERTEX
  5
2109
  8
0
 10
11136.2613949852602673
 20
5439.3964896136685638
 30
0.0
  0
VERTEX
  5
210A
  8
0
 10
11137.4332222553293832
 20
5442.158159552156576
 30
0.0
  0
VERTEX
  5
210B
  8
0
 10
11123.624872562899327
 20
5448.0172959024712327
 30
0.0
  0
VERTEX
  5
210C
  8
0
 10
11122.4530452928302111
 20
5445.2556259639850396
 30
0.0
  0
SEQEND
  5
210D
  8
0
  0
POLYLINE
  5
1DD7
  8
0
 66
     1
 10
0.0
 20
0.0
 30
0.0
 70
     1
  0
VERTEX
  5
210E
  8
0
 10
11051.1898443207901437
 20
5291.1799037515920645
 30
0.0
  0
VERTEX
  5
210F
  8
0
 10
11064.6517313612293947
 20
5284.5634396422155987
 30
0.0
  0
VERTEX
  5
2110
  8
0
 10
11065.9750241831006861
 20
5287.2558170503034489
 30
0.0
  0
VERTEX
  5
2111
  8
0
 10
11052.51313714267053
 20
5293.8722811596790052
 30
0.0
  0
SEQEND
  5
2112
  8
0
  0
POLYLINE
  5
1DD8
  8
0
 66
     1
 10
0.0
 20
0.0
 30
0.0
 70
     1
  0
VERTEX
  5
2113
  8
0
 10
11177.7714095140599966
 20
5380.3015968282115864
 30
0.0
  0
VERTEX
  5
2114
  8
0
 10
11179.0385523105796892
 20
5365.355214351732684
 30
0.0
  0
VERTEX
  5
2115
  8
0
 10
11182.0278288058707403
 20
5365.6086429110373501
 30
0.0
  0
VERTEX
  5
2116
  8
0
 10
11180.7606860093601426
 20
5380.5550253875162525
 30
0.0
  0
SEQEND
  5
2117
  8
0
  0
POLYLINE
  5
1DD9
  8
0
 66
     1
 10
0.0
 20
0.0
 30
0.0
 70
     1
  0
VERTEX
  5
2118
  8
0
 10
11041.5332067758899939
 20
5430.0603735463755584
 30
0.0
  0
VERTEX
  5
2119
  8
0
 10
11053.6571129981402919
 20
5438.8927513640510369
 30
0.0
  0
VERTEX
  5
211A
  8
0
 10
11051.8906374346006487
 20
5441.3175326085010965
 30
0.0
  0
VERTEX
  5
211B
  8
0
 10
11039.7667312123594456
 20
5432.485154790825618
 30
0.0
  0
SEQEND
  5
211C
  8
0
  0
POLYLINE
  5
1DDA
  8
0
 66
     1
 10
0.0
 20
0.0
 30
0.0
 70
     1
  0
VERTEX
  5
211D
  8
0
 10
10913.4901292539507267
 20
5188.7605851616981454
 30
0.0
  0
VERTEX
  5
211E
  8
0
 10
10929.8626927483492182
 20
5188.7605851616981454
 30
0.0
  0
VERTEX
  5
211F
  8
0
 10
11004.3335437819296203
 20
5188.7605851616981454
 30
0.0
 42
-0.3833787276696106
  0
VERTEX
  5
2120
  8
0
 10
11013.6713483895491663
 20
5127.1476244950872569
 30
0.0
 42
2.9520539530668408
  0
VERTEX
  5
2121
  8
0
 10
11113.5419648842907918
 20
5175.0599484675267377
 30
0.0
 42
-0.3634389049935351
  0
VERTEX
  5
2122
  8
0
 10
11064.4011545865505468
 20
5226.2582727747712852
 30
0.0
 42
-0.363438905001184
  0
VERTEX
  5
2123
  8
0
 10
11113.541964884609115
 20
5277.4565970820503935
 30
0.0
 42
2.9520539530571042
  0
VERTEX
  5
2124
  8
0
 10
11013.6713483895491663
 20
5325.3689210544553134
 30
0.0
 42
-0.3833784612684648
  0
VERTEX
  5
2125
  8
0
 10
11004.333577228429931
 20
5263.7559878910142288
 30
0.0
  0
VERTEX
  5
2126
  8
0
 10
10929.8626927483492182
 20
5263.7559878910142288
 30
0.0
  0
VERTEX
  5
2127
  8
0
 10
10913.490095807450416
 20
5263.7559878910142288
 30
0.0
 42
-0.3833784612685028
  0
VERTEX
  5
2128
  8
0
 10
10904.1523246463293617
 20
5325.3689210544553134
 30
0.0
 42
2.952007001234441
  0
VERTEX
  5
2129
  8
0
 10
10804.2799835939604236
 20
5277.4569573231947288
 30
0.0
 42
-0.3634454750273156
  0
VERTEX
  5
212A
  8
0
 10
10853.4225184493298002
 20
5226.2582727747712852
 30
0.0
 42
-0.3634389052118581
  0
VERTEX
  5
212B
  8
0
 10
10804.2817081092107401
 20
5175.0599484629019571
 30
0.0
 42
2.9520539518981539
  0
VERTEX
  5
212C
  8
0
 10
10904.1523246463293617
 20
5127.1476244950872569
 30
0.0
 42
-0.3833787276695968
  0
SEQEND
  5
212D
  8
0
  0
POLYLINE
  5
1DDB
  8
0
 66
     1
 10
0.0
 20
0.0
 30
0.0
 70
     1
  0
VERTEX
  5
212E
  8
0
 10
10360.8742129012098303
 20
5125.81030314489999
 30
0.0
  0
VERTEX
  5
212F
  8
0
 10
10358.1497195519696106
 20
5127.1503430528337049
 30
0.0
  0
VERTEX
  5
2130
  8
0
 10
10353.8343161387401778
 20
5118.1294066612435927
 30
0.0
  0
VERTEX
  5
2131
  8
0
 10
10356.55023393223928
 20
5116.7934741082663095
 30
0.0
  0
SEQEND
  5
2132
  8
0
  0
POLYLINE
  5
1DDC
  8
0
 66
     1
 10
0.0
 20
0.0
 30
0.0
 70
     1
  0
VERTEX
  5
2133
  8
0
 10
10341.7149371930299822
 20
5092.7950088991019584
 30
0.0
  0
VERTEX
  5
2134
  8
0
 10
10346.0303406062594149
 20
5101.8159452906938895
 30
0.0
  0
VERTEX
  5
2135
  8
0
 10
10348.730750364740743
 20
5100.4874404784186481
 30
0.0
  0
VERTEX
  5
2136
  8
0
 10
10344.4067713957701926
 20
5091.4706114417849676
 30
0.0
  0
SEQEND
  5
2137
  8
0
  0
POLYLINE
  5
1DDD
  8
0
 66
     1
 10
0.0
 20
0.0
 30
0.0
 70
     1
  0
VERTEX
  5
2138
  8
0
 10
10370.2753287115392595
 20
5152.349427674405888
 30
0.0
  0
VERTEX
  5
2139
  8
0
 10
10365.9022677110297082
 20
5143.3563004382449435
 30
0.0
  0
VERTEX
  5
213A
  8
0
 10
10368.6942780907902488
 20
5142.1175496360838224
 30
0.0
  0
VERTEX
  5
213B
  8
0
 10
10373.0182570597698941
 20
5151.1343786727147744
 30
0.0
  0
SEQEND
  5
213C
  8
0
  0
POLYLINE
  5
1DDE
  8
0
 66
     1
 10
0.0
 20
0.0
 30
0.0
 70
     1
  0
VERTEX
  5
213D
  8
0
 10
10364.8176131417894794
 20
5039.2777448408132841
 30
0.0
  0
VERTEX
  5
213E
  8
0
 10
10367.3299485542102047
 20
5040.9826617714661552
 30
0.0
  0
VERTEX
  5
213F
  8
0
 10
10361.6247604918207799
 20
5049.1955071476304511
 30
0.0
  0
VERTEX
  5
2140
  8
0
 10
10359.1202367961905111
 20
5047.4960112502603806
 30
0.0
  0
SEQEND
  5
2141
  8
0
  0
POLYLINE
  5
1DDF
  8
0
 66
     1
 10
0.0
 20
0.0
 30
0.0
 70
     1
  0
VERTEX
  5
2142
  8
0
 10
10345.6023103374100174
 20
5072.2604621020518607
 30
0.0
  0
VERTEX
  5
2143
  8
0
 10
10351.3074983997994423
 20
5064.0476167258857458
 30
0.0
  0
VERTEX
  5
2144
  8
0
 10
10348.8171014128092793
 20
5062.3579242251062169
 30
0.0
  0
VERTEX
  5
2145
  8
0
 10
10343.1197250672194059
 20
5070.5761906345542229
 30
0.0
  0
SEQEND
  5
2146
  8
0
  0
POLYLINE
  5
1DE0
  8
0
 66
     1
 10
0.0
 20
0.0
 30
0.0
 70
     1
  0
VERTEX
  5
2147
  8
0
 10
10383.2317190045505413
 20
5017.9792281190675567
 30
0.0
  0
VERTEX
  5
2148
  8
0
 10
10377.5792209801893478
 20
5026.2284260245887708
 30
0.0
  0
VERTEX
  5
2149
  8
0
 10
10375.1215148841001792
 20
5024.4147264199700658
 30
0.0
  0
VERTEX
  5
214A
  8
0
 10
10380.8188912296900526
 20
5016.1964600105238787
 30
0.0
  0
SEQEND
  5
214B
  8
0
  0
POLYLINE
  5
1DE1
  8
0
 66
     1
 10
0.0
 20
0.0
 30
0.0
 70
     1
  0
VERTEX
  5
214C
  8
0
 10
10287.5347385058594227
 20
5078.9516251869308689
 30
0.0
  0
VERTEX
  5
214D
  8
0
 10
10287.7512380507505441
 20
5075.9231438988927039
 30
0.0
  0
VERTEX
  5
214E
  8
0
 10
10297.7174132634299895
 20
5076.7449417025145522
 30
0.0
  0
VERTEX
  5
214F
  8
0
 10
10297.5016906151195144
 20
5079.7639463375153355
 30
0.0
  0
SEQEND
  5
2150
  8
0
  0
POLYLINE
  5
1DE2
  8
0
 66
     1
 10
0.0
 20
0.0
 30
0.0
 70
     1
  0
VERTEX
  5
2151
  8
0
 10
10325.7064197307408904
 20
5079.0528786542072339
 30
0.0
  0
VERTEX
  5
2152
  8
0
 10
10315.740244518059626
 20
5078.2310808505853856
 30
0.0
  0
VERTEX
  5
2153
  8
0
 10
10315.5259268095105654
 20
5081.2329479062309474
 30
0.0
  0
VERTEX
  5
2154
  8
0
 10
10325.492878918770657
 20
5082.0452690568154139
 30
0.0
  0
SEQEND
  5
2155
  8
0
  0
POLYLINE
  5
1DE3
  8
0
 66
     1
 10
0.0
 20
0.0
 30
0.0
 70
     1
  0
VERTEX
  5
2156
  8
0
 10
10259.8759437294502277
 20
5073.6888140760956958
 30
0.0
  0
VERTEX
  5
2157
  8
0
 10
10269.8471753480207553
 20
5074.4467982506357657
 30
0.0
  0
VERTEX
  5
2158
  8
0
 10
10269.5091616482695827
 20
5077.482514352205726
 30
0.0
  0
VERTEX
  5
2159
  8
0
 10
10259.542209539009491
 20
5076.6701932016230785
 30
0.0
  0
SEQEND
  5
215A
  8
0
  0
POLYLINE
  5
1DE4
  8
0
 66
     1
 10
0.0
 20
0.0
 30
0.0
 70
     1
  0
VERTEX
  5
215B
  8
0
 10
10588.1374283502991602
 20
5125.8103031449172704
 30
0.0
  0
VERTEX
  5
215C
  8
0
 10
10590.8619216995502939
 20
5127.1503430528509853
 30
0.0
  0
VERTEX
  5
215D
  8
0
 10
10595.1773251127797266
 20
5118.1294066612617826
 30
0.0
  0
VERTEX
  5
215E
  8
0
 10
10592.4614073192806245
 20
5116.7934741082835899
 30
0.0
  0
SEQEND
  5
215F
  8
0
  0
POLYLINE
  5
1DE5
  8
0
 66
     1
 10
0.0
 20
0.0
 30
0.0
 70
     1
  0
VERTEX
  5
2160
  8
0
 10
10607.2967040584808274
 20
5092.7950088991201483
 30
0.0
  0
VERTEX
  5
2161
  8
0
 10
10602.9813006452604895
 20
5101.8159452907111699
 30
0.0
  0
VERTEX
  5
2162
  8
0
 10
10600.2808908867700666
 20
5100.4874404784359285
 30
0.0
  0
VERTEX
  5
2163
  8
0
 10
10604.6048698557406169
 20
5091.4706114418031575
 30
0.0
  0
SEQEND
  5
2164
  8
0
  0
POLYLINE
  5
1DE6
  8
0
 66
     1
 10
0.0
 20
0.0
 30
0.0
 70
     1
  0
VERTEX
  5
2165
  8
0
 10
10578.736312539969731
 20
5152.3494276744231684
 30
0.0
  0
VERTEX
  5
2166
  8
0
 10
10583.1093735404901963
 20
5143.3563004382631334
 30
0.0
  0
VERTEX
  5
2167
  8
0
 10
10580.3173631607205607
 20
5142.1175496361020123
 30
0.0
  0
VERTEX
  5
2168
  8
0
 10
10575.9933841917500104
 20
5151.1343786727329643
 30
0.0
  0
SEQEND
  5
2169
  8
0
  0
POLYLINE
  5
1DE7
  8
0
 66
     1
 10
0.0
 20
0.0
 30
0.0
 70
     1
  0
VERTEX
  5
216A
  8
0
 10
10584.1940281097304251
 20
5039.2777448408305645
 30
0.0
  0
VERTEX
  5
216B
  8
0
 10
10581.6816926973096997
 20
5040.9826617714834356
 30
0.0
  0
VERTEX
  5
216C
  8
0
 10
10587.3868807596900297
 20
5049.195507147646822
 30
0.0
  0
VERTEX
  5
216D
  8
0
 10
10589.8914044553293934
 20
5047.4960112502767515
 30
0.0
  0
SEQEND
  5
216E
  8
0
  0
POLYLINE
  5
1DE8
  8
0
 66
     1
 10
0.0
 20
0.0
 30
0.0
 70
     1
  0
VERTEX
  5
216F
  8
0
 10
10603.4093309141098871
 20
5072.2604621020691411
 30
0.0
  0
VERTEX
  5
2170
  8
0
 10
10597.7041428517204622
 20
5064.0476167259039357
 30
0.0
  0
VERTEX
  5
2171
  8
0
 10
10600.1945398386997113
 20
5062.3579242251244068
 30
0.0
  0
VERTEX
  5
2172
  8
0
 10
10605.8919161843004986
 20
5070.5761906345705938
 30
0.0
  0
SEQEND
  5
2173
  8
0
  0
POLYLINE
  5
1DE9
  8
0
 66
     1
 10
0.0
 20
0.0
 30
0.0
 70
     1
  0
VERTEX
  5
2174
  8
0
 10
10565.7799222469602682
 20
5017.9792281190839276
 30
0.0
  0
VERTEX
  5
2175
  8
0
 10
10571.4324202713305567
 20
5026.2284260246060512
 30
0.0
  0
VERTEX
  5
2176
  8
0
 10
10573.8901263674197253
 20
5024.4147264199873462
 30
0.0
  0
VERTEX
  5
2177
  8
0
 10
10568.192750021820757
 20
5016.1964600105411591
 30
0.0
  0
SEQEND
  5
2178
  8
0
  0
POLYLINE
  5
1DEA
  8
0
 66
     1
 10
0.0
 20
0.0
 30
0.0
 70
     1
  0
VERTEX
  5
2179
  8
0
 10
10661.4769027456604817
 20
5078.9516251869490588
 30
0.0
  0
VERTEX
  5
217A
  8
0
 10
10661.2604032007693604
 20
5075.9231438989099843
 30
0.0
  0
VERTEX
  5
217B
  8
0
 10
10651.2942279880808201
 20
5076.7449417025318326
 30
0.0
  0
VERTEX
  5
217C
  8
0
 10
10651.5099506363894761
 20
5079.7639463375317064
 30
0.0
  0
SEQEND
  5
217D
  8
0
  0
POLYLINE
  5
1DEB
  8
0
 66
     1
 10
0.0
 20
0.0
 30
0.0
 70
     1
  0
VERTEX
  5
217E
  8
0
 10
10623.3052215207699192
 20
5079.0528786542236048
 30
0.0
  0
VERTEX
  5
217F
  8
0
 10
10633.2713967334602785
 20
5078.231080850602666
 30
0.0
  0
VERTEX
  5
2180
  8
0
 10
10633.4857144420093391
 20
5081.2329479062482278
 30
0.0
  0
VERTEX
  5
2181
  8
0
 10
10623.5187623327401525
 20
5082.0452690568326943
 30
0.0
  0
SEQEND
  5
2182
  8
0
  0
POLYLINE
  5
1DEC
  8
0
 66
     1
 10
0.0
 20
0.0
 30
0.0
 70
     1
  0
VERTEX
  5
2183
  8
0
 10
10689.1356975220605818
 20
5073.6888140761129762
 30
0.0
  0
VERTEX
  5
2184
  8
0
 10
10679.1644659034900542
 20
5074.4467982506539556
 30
0.0
  0
VERTEX
  5
2185
  8
0
 10
10679.5024796032394079
 20
5077.4825143522239159
 30
0.0
  0
VERTEX
  5
2186
  8
0
 10
10689.4694317125104135
 20
5076.6701932016403589
 30
0.0
  0
SEQEND
  5
2187
  8
0
  0
POLYLINE
  5
1DED
  8
0
 66
     1
 10
0.0
 20
0.0
 30
0.0
 70
     1
  0
VERTEX
  5
2188
  8
0
 10
10360.8742129012098303
 20
5316.5971279724635679
 30
0.0
  0
VERTEX
  5
2189
  8
0
 10
10358.1497195519605157
 20
5315.257088064529853
 30
0.0
  0
VERTEX
  5
218A
  8
0
 10
10353.8343161387292639
 20
5324.2780244561199652
 30
0.0
  0
VERTEX
  5
218B
  8
0
 10
10356.55023393223928
 20
5325.6139570090981579
 30
0.0
  0
SEQEND
  5
218C
  8
0
  0
POLYLINE
  5
1DEE
  8
0
 66
     1
 10
0.0
 20
0.0
 30
0.0
 70
     1
  0
VERTEX
  5
218D
  8
0
 10
10341.7149371930299822
 20
5349.6124222182634185
 30
0.0
  0
VERTEX
  5
218E
  8
0
 10
10346.0303406062594149
 20
5340.5914858266705778
 30
0.0
  0
VERTEX
  5
218F
  8
0
 10
10348.730750364740743
 20
5341.9199906389449097
 30
0.0
  0
VERTEX
  5
2190
  8
0
 10
10344.4067713957701926
 20
5350.9368196755785902
 30
0.0
  0
SEQEND
  5
2191
  8
0
  0
POLYLINE
  5
1DEF
  8
0
 66
     1
 10
0.0
 20
0.0
 30
0.0
 70
     1
  0
VERTEX
  5
2192
  8
0
 10
10370.2753287115392595
 20
5290.0580034429576699
 30
0.0
  0
VERTEX
  5
2193
  8
0
 10
10365.9022677110206132
 20
5299.0511306791177049
 30
0.0
  0
VERTEX
  5
2194
  8
0
 10
10368.6942780907902488
 20
5300.2898814812797355
 30
0.0
  0
VERTEX
  5
2195
  8
0
 10
10373.0182570597607992
 20
5291.2730524446487834
 30
0.0
  0
SEQEND
  5
2196
  8
0
  0
POLYLINE
  5
1DF0
  8
0
 66
     1
 10
0.0
 20
0.0
 30
0.0
 70
     1
  0
VERTEX
  5
2197
  8
0
 10
10364.8176131417803845
 20
5403.1296862765511833
 30
0.0
  0
VERTEX
  5
2198
  8
0
 10
10367.3299485541992908
 20
5401.4247693458983122
 30
0.0
  0
VERTEX
  5
2199
  8
0
 10
10361.6247604918098659
 20
5393.2119239697340163
 30
0.0
  0
VERTEX
  5
219A
  8
0
 10
10359.1202367961795971
 20
5394.9114198671049962
 30
0.0
  0
SEQEND
  5
219B
  8
0
  0
POLYLINE
  5
1DF1
  8
0
 66
     1
 10
0.0
 20
0.0
 30
0.0
 70
     1
  0
VERTEX
  5
219C
  8
0
 10
10345.6023103373991034
 20
5370.1469690153116971
 30
0.0
  0
VERTEX
  5
219D
  8
0
 10
10351.3074983997903473
 20
5378.359814391477812
 30
0.0
  0
VERTEX
  5
219E
  8
0
 10
10348.8171014128092793
 20
5380.0495068922591599
 30
0.0
  0
VERTEX
  5
219F
  8
0
 10
10343.119725067210311
 20
5371.8312404828111539
 30
0.0
  0
SEQEND
  5
21A0
  8
0
  0
POLYLINE
  5
1DF2
  8
0
 66
     1
 10
0.0
 20
0.0
 30
0.0
 70
     1
  0
VERTEX
  5
21A1
  8
0
 10
10383.2317190045505413
 20
5424.4282029982969107
 30
0.0
  0
VERTEX
  5
21A2
  8
0
 10
10377.5792209801802528
 20
5416.179005092774787
 30
0.0
  0
VERTEX
  5
21A3
  8
0
 10
10375.1215148840892653
 20
5417.9927046973944016
 30
0.0
  0
VERTEX
  5
21A4
  8
0
 10
10380.8188912296791386
 20
5426.2109711068396791
 30
0.0
  0
SEQEND
  5
21A5
  8
0
  0
POLYLINE
  5
1DF3
  8
0
 66
     1
 10
0.0
 20
0.0
 30
0.0
 70
     1
  0
VERTEX
  5
21A6
  8
0
 10
10287.5347385058503278
 20
5363.4558059304335984
 30
0.0
  0
VERTEX
  5
21A7
  8
0
 10
10287.7512380507396301
 20
5366.4842872184717635
 30
0.0
  0
VERTEX
  5
21A8
  8
0
 10
10297.7174132634299895
 20
5365.6624894148490057
 30
0.0
  0
VERTEX
  5
21A9
  8
0
 10
10297.5016906151195144
 20
5362.6434847798491319
 30
0.0
  0
SEQEND
  5
21AA
  8
0
  0
POLYLINE
  5
1DF4
  8
0
 66
     1
 10
0.0
 20
0.0
 30
0.0
 70
     1
  0
VERTEX
  5
21AB
  8
0
 10
10325.7064197307408904
 20
5363.3545524631572334
 30
0.0
  0
VERTEX
  5
21AC
  8
0
 10
10315.740244518050531
 20
5364.1763502667790817
 30
0.0
  0
VERTEX
  5
21AD
  8
0
 10
10315.5259268095105654
 20
5361.1744832111326104
 30
0.0
  0
VERTEX
  5
21AE
  8
0
 10
10325.492878918770657
 20
5360.3621620605499629
 30
0.0
  0
SEQEND
  5
21AF
  8
0
  0
POLYLINE
  5
1DF5
  8
0
 66
     1
 10
0.0
 20
0.0
 30
0.0
 70
     1
  0
VERTEX
  5
21B0
  8
0
 10
10259.8759437294502277
 20
5368.7186170412687716
 30
0.0
  0
VERTEX
  5
21B1
  8
0
 10
10269.8471753480098414
 20
5367.9606328667287016
 30
0.0
  0
VERTEX
  5
21B2
  8
0
 10
10269.5091616482695827
 20
5364.9249167651578318
 30
0.0
  0
VERTEX
  5
21B3
  8
0
 10
10259.542209539000396
 20
5365.7372379157413889
 30
0.0
  0
SEQEND
  5
21B4
  8
0
  0
POLYLINE
  5
1DF6
  8
0
 66
     1
 10
0.0
 20
0.0
 30
0.0
 70
     1
  0
VERTEX
  5
21B5
  8
0
 10
10543.7468863767408038
 20
5195.908384490948265
 30
0.0
  0
VERTEX
  5
21B6
  8
0
 10
10543.7468863767408038
 20
5198.908384490948265
 30
0.0
  0
VERTEX
  5
21B7
  8
0
 10
10533.7468863767408038
 20
5198.908384490948265
 30
0.0
  0
VERTEX
  5
21B8
  8
0
 10
10533.7468863767408038
 20
5195.908384490948265
 30
0.0
  0
SEQEND
  5
21B9
  8
0
  0
POLYLINE
  5
1DF7
  8
0
 66
     1
 10
0.0
 20
0.0
 30
0.0
 70
     1
  0
VERTEX
  5
21BA
  8
0
 10
10495.7434295951497916
 20
5195.908384490948265
 30
0.0
  0
VERTEX
  5
21BB
  8
0
 10
10495.7434295951497916
 20
5198.908384490948265
 30
0.0
  0
VERTEX
  5
21BC
  8
0
 10
10485.7434295951497916
 20
5198.908384490948265
 30
0.0
  0
VERTEX
  5
21BD
  8
0
 10
10485.7434295951497916
 20
5195.908384490948265
 30
0.0
  0
SEQEND
  5
21BE
  8
0
  0
POLYLINE
  5
1DF8
  8
0
 66
     1
 10
0.0
 20
0.0
 30
0.0
  0
VERTEX
  5
21BF
  8
0
 10
10453.2682295951508422
 20
5195.908384490948265
 30
0.0
  0
VERTEX
  5
21C0
  8
0
 10
10453.2682295951508422
 20
5195.908384490948265
 30
0.0
  0
VERTEX
  5
21C1
  8
0
 10
10463.2674336368691002
 20
5195.7822158259132266
 30
0.0
  0
VERTEX
  5
21C2
  8
0
 10
10463.2674336368691002
 20
5198.7822158259141361
 30
0.0
  0
VERTEX
  5
21C3
  8
0
 10
10453.2674336368691002
 20
5198.7822158259141361
 30
0.0
  0
VERTEX
  5
21C4
  8
0
 10
10453.2674336368691002
 20
5195.9083945342472362
 30
0.0
  0
SEQEND
  5
21C5
  8
0
  0
POLYLINE
  5
1DF9
  8
0
 66
     1
 10
0.0
 20
0.0
 30
0.0
 70
     1
  0
VERTEX
  5
21C6
  8
0
 10
10415.2647908063609066
 20
5195.908384490948265
 30
0.0
  0
VERTEX
  5
21C7
  8
0
 10
10415.2647908063609066
 20
5198.908384490948265
 30
0.0
  0
VERTEX
  5
21C8
  8
0
 10
10405.2647908063609066
 20
5198.908384490948265
 30
0.0
  0
VERTEX
  5
21C9
  8
0
 10
10405.2647908063609066
 20
5195.908384490948265
 30
0.0
  0
SEQEND
  5
21CA
  8
0
  0
POLYLINE
  5
1DFA
  8
0
 66
     1
 10
0.0
 20
0.0
 30
0.0
 70
     1
  0
VERTEX
  5
21CB
  8
0
 10
10543.7468863767408038
 20
5243.4990844909480074
 30
0.0
  0
VERTEX
  5
21CC
  8
0
 10
10543.7468863767408038
 20
5246.4990844909480074
 30
0.0
  0
VERTEX
  5
21CD
  8
0
 10
10533.7468863767408038
 20
5246.4990844909480074
 30
0.0
  0
VERTEX
  5
21CE
  8
0
 10
10533.7468863767408038
 20
5243.4990844909480074
 30
0.0
  0
SEQEND
  5
21CF
  8
0
  0
POLYLINE
  5
1DFB
  8
0
 66
     1
 10
0.0
 20
0.0
 30
0.0
 70
     1
  0
VERTEX
  5
21D0
  8
0
 10
10495.7434295951497916
 20
5243.4990844909480074
 30
0.0
  0
VERTEX
  5
21D1
  8
0
 10
10495.7434295951497916
 20
5246.4990844909480074
 30
0.0
  0
VERTEX
  5
21D2
  8
0
 10
10485.7434295951497916
 20
5246.4990844909480074
 30
0.0
  0
VERTEX
  5
21D3
  8
0
 10
10485.7434295951497916
 20
5243.4990844909480074
 30
0.0
  0
SEQEND
  5
21D4
  8
0
  0
POLYLINE
  5
1DFC
  8
0
 66
     1
 10
0.0
 20
0.0
 30
0.0
  0
VERTEX
  5
21D5
  8
0
 10
10453.2682295951508422
 20
5243.4990844909480074
 30
0.0
  0
VERTEX
  5
21D6
  8
0
 10
10453.2682295951508422
 20
5243.4990844909480074
 30
0.0
  0
VERTEX
  5
21D7
  8
0
 10
10463.2674336368691002
 20
5243.372915825912969
 30
0.0
  0
VERTEX
  5
21D8
  8
0
 10
10463.2674336368691002
 20
5246.3729158259120595
 30
0.0
  0
VERTEX
  5
21D9
  8
0
 10
10453.2674336368691002
 20
5246.3729158259120595
 30
0.0
  0
VERTEX
  5
21DA
  8
0
 10
10453.2674336368691002
 20
5243.4990945342469786
 30
0.0
  0
SEQEND
  5
21DB
  8
0
  0
POLYLINE
  5
1DFD
  8
0
 66
     1
 10
0.0
 20
0.0
 30
0.0
 70
     1
  0
VERTEX
  5
21DC
  8
0
 10
10415.2647908063609066
 20
5243.4990844909480074
 30
0.0
  0
VERTEX
  5
21DD
  8
0
 10
10415.2647908063609066
 20
5246.4990844909480074
 30
0.0
  0
VERTEX
  5
21DE
  8
0
 10
10405.2647908063609066
 20
5246.4990844909480074
 30
0.0
  0
VERTEX
  5
21DF
  8
0
 10
10405.2647908063609066
 20
5243.4990844909480074
 30
0.0
  0
SEQEND
  5
21E0
  8
0
  0
POLYLINE
  5
1DFE
  8
0
 66
     1
 10
0.0
 20
0.0
 30
0.0
 70
     1
  0
VERTEX
  5
21E1
  8
0
 10
10397.305744249950294
 20
5201.7812761934801529
 30
0.0
  0
VERTEX
  5
21E2
  8
0
 10
10394.5812509006991604
 20
5203.1213161014129582
 30
0.0
  0
VERTEX
  5
21E3
  8
0
 10
10390.2658474874697276
 20
5194.100379709824665
 30
0.0
  0
VERTEX
  5
21E4
  8
0
 10
10392.9817652809706487
 20
5192.7644471568473818
 30
0.0
  0
SEQEND
  5
21E5
  8
0
  0
POLYLINE
  5
1DFF
  8
0
 66
     1
 10
0.0
 20
0.0
 30
0.0
 70
     1
  0
VERTEX
  5
21E6
  8
0
 10
10378.1464685417704459
 20
5168.7659819476821212
 30
0.0
  0
VERTEX
  5
21E7
  8
0
 10
10382.4618719549907837
 20
5177.7869183392740524
 30
0.0
  0
VERTEX
  5
21E8
  8
0
 10
10385.1622817134793877
 20
5176.458413526998811
 30
0.0
  0
VERTEX
  5
21E9
  8
0
 10
10380.8383027445106563
 20
5167.4415844903651305
 30
0.0
  0
SEQEND
  5
21EA
  8
0
  0
POLYLINE
  5
1E00
  8
0
 66
     1
 10
0.0
 20
0.0
 30
0.0
 70
     1
  0
VERTEX
  5
21EB
  8
0
 10
10397.305744249950294
 20
5240.6261549238934094
 30
0.0
  0
VERTEX
  5
21EC
  8
0
 10
10394.5812509006991604
 20
5239.2861150159596946
 30
0.0
  0
VERTEX
  5
21ED
  8
0
 10
10390.2658474874697276
 20
5248.3070514075488973
 30
0.0
  0
VERTEX
  5
21EE
  8
0
 10
10392.9817652809706487
 20
5249.6429839605261805
 30
0.0
  0
SEQEND
  5
21EF
  8
0
  0
POLYLINE
  5
1E01
  8
0
 66
     1
 10
0.0
 20
0.0
 30
0.0
 70
     1
  0
VERTEX
  5
21F0
  8
0
 10
10378.1464685417704459
 20
5273.6414491696914411
 30
0.0
  0
VERTEX
  5
21F1
  8
0
 10
10382.4618719549907837
 20
5264.6205127780986004
 30
0.0
  0
VERTEX
  5
21F2
  8
0
 10
10385.1622817134793877
 20
5265.9490175903747513
 30
0.0
  0
VERTEX
  5
21F3
  8
0
 10
10380.8383027445106563
 20
5274.9658466270084318
 30
0.0
  0
SEQEND
  5
21F4
  8
0
  0
POLYLINE
  5
1E02
  8
0
 66
     1
 10
0.0
 20
0.0
 30
0.0
 70
     1
  0
VERTEX
  5
21F5
  8
0
 10
10551.7058970015496016
 20
5201.7812761934801529
 30
0.0
  0
VERTEX
  5
21F6
  8
0
 10
10554.4303903507898212
 20
5203.1213161014129582
 30
0.0
  0
VERTEX
  5
21F7
  8
0
 10
10558.745793764019254
 20
5194.100379709824665
 30
0.0
  0
VERTEX
  5
21F8
  8
0
 10
10556.0298759705201519
 20
5192.7644471568473818
 30
0.0
  0
SEQEND
  5
21F9
  8
0
  0
POLYLINE
  5
1E03
  8
0
 66
     1
 10
0.0
 20
0.0
 30
0.0
 70
     1
  0
VERTEX
  5
21FA
  8
0
 10
10570.8651727097294497
 20
5168.7659819476821212
 30
0.0
  0
VERTEX
  5
21FB
  8
0
 10
10566.5497692965000169
 20
5177.7869183392740524
 30
0.0
  0
VERTEX
  5
21FC
  8
0
 10
10563.8493595380205079
 20
5176.458413526998811
 30
0.0
  0
VERTEX
  5
21FD
  8
0
 10
10568.1733385069892392
 20
5167.4415844903651305
 30
0.0
  0
SEQEND
  5
21FE
  8
0
  0
POLYLINE
  5
1E04
  8
0
 66
     1
 10
0.0
 20
0.0
 30
0.0
 70
     1
  0
VERTEX
  5
21FF
  8
0
 10
10551.7058970015496016
 20
5240.6261549238934094
 30
0.0
  0
VERTEX
  5
2200
  8
0
 10
10554.4303903507898212
 20
5239.2861150159596946
 30
0.0
  0
VERTEX
  5
2201
  8
0
 10
10558.745793764019254
 20
5248.3070514075488973
 30
0.0
  0
VERTEX
  5
2202
  8
0
 10
10556.0298759705201519
 20
5249.6429839605261805
 30
0.0
  0
SEQEND
  5
2203
  8
0
  0
POLYLINE
  5
1E05
  8
0
 66
     1
 10
0.0
 20
0.0
 30
0.0
 70
     1
  0
VERTEX
  5
2204
  8
0
 10
10570.8651727097294497
 20
5273.6414491696914411
 30
0.0
  0
VERTEX
  5
2205
  8
0
 10
10566.5497692965000169
 20
5264.6205127780986004
 30
0.0
  0
VERTEX
  5
2206
  8
0
 10
10563.8493595380205079
 20
5265.9490175903747513
 30
0.0
  0
VERTEX
  5
2207
  8
0
 10
10568.1733385069892392
 20
5274.9658466270084318
 30
0.0
  0
SEQEND
  5
2208
  8
0
  0
POLYLINE
  5
1E06
  8
0
 66
     1
 10
0.0
 20
0.0
 30
0.0
 70
     1
  0
VERTEX
  5
2209
  8
0
 10
10588.1374283502991602
 20
5316.597127972447197
 30
0.0
  0
VERTEX
  5
220A
  8
0
 10
10590.8619216995393799
 20
5315.2570880645125726
 30
0.0
  0
VERTEX
  5
220B
  8
0
 10
10595.1773251127706317
 20
5324.2780244561017753
 30
0.0
  0
VERTEX
  5
220C
  8
0
 10
10592.4614073192697106
 20
5325.6139570090808775
 30
0.0
  0
SEQEND
  5
220D
  8
0
  0
POLYLINE
  5
1E07
  8
0
 66
     1
 10
0.0
 20
0.0
 30
0.0
 70
     1
  0
VERTEX
  5
220E
  8
0
 10
10607.2967040584808274
 20
5349.6124222182452286
 30
0.0
  0
VERTEX
  5
220F
  8
0
 10
10602.9813006452495756
 20
5340.5914858266532974
 30
0.0
  0
VERTEX
  5
2210
  8
0
 10
10600.2808908867591526
 20
5341.9199906389276293
 30
0.0
  0
VERTEX
  5
2211
  8
0
 10
10604.6048698557406169
 20
5350.9368196755622193
 30
0.0
  0
SEQEND
  5
2212
  8
0
  0
POLYLINE
  5
1E08
  8
0
 66
     1
 10
0.0
 20
0.0
 30
0.0
 70
     1
  0
VERTEX
  5
2213
  8
0
 10
10578.736312539969731
 20
5290.0580034429422085
 30
0.0
  0
VERTEX
  5
2214
  8
0
 10
10583.1093735404792824
 20
5299.051130679101334
 30
0.0
  0
VERTEX
  5
2215
  8
0
 10
10580.3173631607205607
 20
5300.2898814812615456
 30
0.0
  0
VERTEX
  5
2216
  8
0
 10
10575.9933841917390964
 20
5291.2730524446324125
 30
0.0
  0
SEQEND
  5
2217
  8
0
  0
POLYLINE
  5
1E09
  8
0
 66
     1
 10
0.0
 20
0.0
 30
0.0
 70
     1
  0
VERTEX
  5
2218
  8
0
 10
10584.1940281097195111
 20
5403.1296862765339029
 30
0.0
  0
VERTEX
  5
2219
  8
0
 10
10581.6816926973006048
 20
5401.4247693458810318
 30
0.0
  0
VERTEX
  5
221A
  8
0
 10
10587.3868807596900297
 20
5393.2119239697158264
 30
0.0
  0
VERTEX
  5
221B
  8
0
 10
10589.8914044553202984
 20
5394.9114198670877158
 30
0.0
  0
SEQEND
  5
221C
  8
0
  0
POLYLINE
  5
1E0A
  8
0
 66
     1
 10
0.0
 20
0.0
 30
0.0
 70
     1
  0
VERTEX
  5
221D
  8
0
 10
10603.4093309141007921
 20
5370.1469690152953262
 30
0.0
  0
VERTEX
  5
221E
  8
0
 10
10597.7041428517095483
 20
5378.3598143914614411
 30
0.0
  0
VERTEX
  5
221F
  8
0
 10
10600.1945398386997113
 20
5380.04950689224097
 30
0.0
  0
VERTEX
  5
2220
  8
0
 10
10605.8919161842895846
 20
5371.8312404827938735
 30
0.0
  0
SEQEND
  5
2221
  8
0
  0
POLYLINE
  5
1E0B
  8
0
 66
     1
 10
0.0
 20
0.0
 30
0.0
 70
     1
  0
VERTEX
  5
2222
  8
0
 10
10565.7799222469493543
 20
5424.4282029982796303
 30
0.0
  0
VERTEX
  5
2223
  8
0
 10
10571.4324202713196428
 20
5416.1790050927584161
 30
0.0
  0
VERTEX
  5
2224
  8
0
 10
10573.8901263674106303
 20
5417.9927046973771212
 30
0.0
  0
VERTEX
  5
2225
  8
0
 10
10568.192750021820757
 20
5426.2109711068233082
 30
0.0
  0
SEQEND
  5
2226
  8
0
  0
POLYLINE
  5
1E0C
  8
0
 66
     1
 10
0.0
 20
0.0
 30
0.0
 70
     1
  0
VERTEX
  5
2227
  8
0
 10
10661.4769027456495678
 20
5363.455805930416318
 30
0.0
  0
VERTEX
  5
2228
  8
0
 10
10661.2604032007602655
 20
5366.4842872184553926
 30
0.0
  0
VERTEX
  5
2229
  8
0
 10
10651.2942279880808201
 20
5365.6624894148308158
 30
0.0
  0
VERTEX
  5
222A
  8
0
 10
10651.5099506363894761
 20
5362.6434847798318515
 30
0.0
  0
SEQEND
  5
222B
  8
0
  0
POLYLINE
  5
1E0D
  8
0
 66
     1
 10
0.0
 20
0.0
 30
0.0
 70
     1
  0
VERTEX
  5
222C
  8
0
 10
10623.3052215207699192
 20
5363.354552463139953
 30
0.0
  0
VERTEX
  5
222D
  8
0
 10
10633.2713967334493645
 20
5364.1763502667618013
 30
0.0
  0
VERTEX
  5
222E
  8
0
 10
10633.4857144420002442
 20
5361.1744832111162395
 30
0.0
  0
VERTEX
  5
222F
  8
0
 10
10623.5187623327401525
 20
5360.362162060531773
 30
0.0
  0
SEQEND
  5
2230
  8
0
  0
POLYLINE
  5
1E0E
  8
0
 66
     1
 10
0.0
 20
0.0
 30
0.0
 70
     1
  0
VERTEX
  5
2231
  8
0
 10
10689.1356975220605818
 20
5368.7186170412524007
 30
0.0
  0
VERTEX
  5
2232
  8
0
 10
10679.1644659034900542
 20
5367.9606328667114212
 30
0.0
  0
VERTEX
  5
2233
  8
0
 10
10679.5024796032394079
 20
5364.9249167651396419
 30
0.0
  0
VERTEX
  5
2234
  8
0
 10
10689.4694317124994996
 20
5365.7372379157241085
 30
0.0
  0
SEQEND
  5
2235
  8
0
  0
POLYLINE
  5
1E0F
  8
0
 66
     1
 10
0.0
 20
0.0
 30
0.0
 70
     1
  0
VERTEX
  5
2236
  8
0
 10
10477.0058405300005688
 20
5195.9083907504127637
 30
0.0
  0
VERTEX
  5
2237
  8
0
 10
10477.0058405300005688
 20
5198.9083907504127637
 30
0.0
  0
VERTEX
  5
2238
  8
0
 10
10472.0058405300005688
 20
5198.9083907504127637
 30
0.0
  0
VERTEX
  5
2239
  8
0
 10
10472.0058405300005688
 20
5195.9083907504127637
 30
0.0
  0
SEQEND
  5
223A
  8
0
  0
POLYLINE
  5
1E10
  8
0
 66
     1
 10
0.0
 20
0.0
 30
0.0
 70
     1
  0
VERTEX
  5
223B
  8
0
 10
10477.0058295951494074
 20
5246.4990844909480074
 30
0.0
  0
VERTEX
  5
223C
  8
0
 10
10477.0058295951494074
 20
5243.4990844909480074
 30
0.0
  0
VERTEX
  5
223D
  8
0
 10
10472.0058295951494074
 20
5243.4990844909480074
 30
0.0
  0
VERTEX
  5
223E
  8
0
 10
10472.0058295951494074
 20
5246.4990844909480074
 30
0.0
  0
SEQEND
  5
223F
  8
0
  0
POLYLINE
  5
1E11
  8
0
 66
     1
 10
0.0
 20
0.0
 30
0.0
 70
     1
  0
VERTEX
  5
2240
  8
0
 10
10425.5706548747493798
 20
5198.9083907504127637
 30
0.0
  0
VERTEX
  5
2241
  8
0
 10
10425.5706548747493798
 20
5195.9083907504127637
 30
0.0
  0
VERTEX
  5
2242
  8
0
 10
10444.5306405299998005
 20
5195.9083907504127637
 30
0.0
  0
VERTEX
  5
2243
  8
0
 10
10444.5306405299998005
 20
5198.9083907504127637
 30
0.0
  0
VERTEX
  5
2244
  8
0
 10
10438.5306405299998005
 20
5198.9083907504127637
 30
0.0
  0
SEQEND
  5
2245
  8
0
  0
POLYLINE
  5
1E12
  8
0
 66
     1
 10
0.0
 20
0.0
 30
0.0
 70
     1
  0
VERTEX
  5
2246
  8
0
 10
10510.4810116563494375
 20
5198.9083907504127637
 30
0.0
  0
VERTEX
  5
2247
  8
0
 10
10504.4810116563494375
 20
5198.9083907504127637
 30
0.0
  0
VERTEX
  5
2248
  8
0
 10
10504.4810116563494375
 20
5195.9083907504127637
 30
0.0
  0
VERTEX
  5
2249
  8
0
 10
10523.4409973115907633
 20
5195.9083907504127637
 30
0.0
  0
VERTEX
  5
224A
  8
0
 10
10523.4409973115907633
 20
5198.9083907504127637
 30
0.0
  0
SEQEND
  5
224B
  8
0
  0
POLYLINE
  5
1E13
  8
0
 66
     1
 10
0.0
 20
0.0
 30
0.0
 70
     1
  0
VERTEX
  5
224C
  8
0
 10
10523.4409863767396018
 20
5243.4990844909480074
 30
0.0
  0
VERTEX
  5
224D
  8
0
 10
10523.4409863767396018
 20
5246.4990844909480074
 30
0.0
  0
VERTEX
  5
224E
  8
0
 10
10504.4810007215000951
 20
5246.4990844909480074
 30
0.0
  0
VERTEX
  5
224F
  8
0
 10
10504.4810007215000951
 20
5243.4990844909480074
 30
0.0
  0
VERTEX
  5
2250
  8
0
 10
10510.4810007215000951
 20
5243.4990844909480074
 30
0.0
  0
SEQEND
  5
2251
  8
0
  0
POLYLINE
  5
1E14
  8
0
 66
     1
 10
0.0
 20
0.0
 30
0.0
 70
     1
  0
VERTEX
  5
2252
  8
0
 10
10438.530629595150458
 20
5243.4990844909480074
 30
0.0
  0
VERTEX
  5
2253
  8
0
 10
10444.530629595150458
 20
5243.4990844909480074
 30
0.0
  0
VERTEX
  5
2254
  8
0
 10
10444.530629595150458
 20
5246.4990844909480074
 30
0.0
  0
VERTEX
  5
2255
  8
0
 10
10425.5706439399000374
 20
5246.4990844909480074
 30
0.0
  0
VERTEX
  5
2256
  8
0
 10
10425.5706439399000374
 20
5243.4990844909480074
 30
0.0
  0
SEQEND
  5
2257
  8
0
  0
POLYLINE
  5
1E36
  8
0
 66
     1
 10
0.0
 20
0.0
 30
0.0
 70
     1
  0
VERTEX
  5
2258
  8
0
 10
10472.192845611820303
 20
5257.997693726892976
 30
0.0
  0
VERTEX
  5
2259
  8
0
 10
10512.192845611820303
 20
5257.997693726892976
 30
0.0
  0
VERTEX
  5
225A
  8
0
 10
10512.192845611820303
 20
5272.9976937268920665
 30
0.0
  0
VERTEX
  5
225B
  8
0
 10
10472.192845611820303
 20
5272.9976937268920665
 30
0.0
  0
SEQEND
  5
225C
  8
0
  0
POLYLINE
  5
1E37
  8
0
 66
     1
 10
0.0
 20
0.0
 30
0.0
 70
     1
  0
VERTEX
  5
225D
  8
0
 10
10487.3185364787004801
 20
5277.1379284801132599
 30
0.0
  0
VERTEX
  5
225E
  8
0
 10
10527.3185364787004801
 20
5277.1379284801132599
 30
0.0
  0
VERTEX
  5
225F
  8
0
 10
10527.3185364787004801
 20
5292.1379284801132599
 30
0.0
  0
VERTEX
  5
2260
  8
0
 10
10487.3185364787004801
 20
5292.1379284801132599
 30
0.0
  0
SEQEND
  5
2261
  8
0
  0
POLYLINE
  5
1E38
  8
0
 66
     1
 10
0.0
 20
0.0
 30
0.0
 70
     1
  0
VERTEX
  5
2262
  8
0
 10
10487.3185364787004801
 20
5296.9782642075479089
 30
0.0
  0
VERTEX
  5
2263
  8
0
 10
10527.3185364787004801
 20
5296.9782642075479089
 30
0.0
  0
VERTEX
  5
2264
  8
0
 10
10527.3185364787004801
 20
5311.9782642075479089
 30
0.0
  0
VERTEX
  5
2265
  8
0
 10
10487.3185364787004801
 20
5311.9782642075479089
 30
0.0
  0
SEQEND
  5
2266
  8
0
  0
POLYLINE
  5
1E39
  8
0
 66
     1
 10
0.0
 20
0.0
 30
0.0
 70
     1
  0
VERTEX
  5
2267
  8
0
 10
10478.6208984820495971
 20
5316.7719737882362097
 30
0.0
  0
VERTEX
  5
2268
  8
0
 10
10518.6208984820495971
 20
5316.7719737882362097
 30
0.0
  0
VERTEX
  5
2269
  8
0
 10
10518.6208984820495971
 20
5331.7719737882362097
 30
0.0
  0
VERTEX
  5
226A
  8
0
 10
10478.6208984820495971
 20
5331.7719737882362097
 30
0.0
  0
SEQEND
  5
226B
  8
0
  0
POLYLINE
  5
1E3A
  8
0
 66
     1
 10
0.0
 20
0.0
 30
0.0
 70
     1
  0
VERTEX
  5
226C
  8
0
 10
10426.8478874866505066
 20
5264.5813056474598852
 30
0.0
  0
VERTEX
  5
226D
  8
0
 10
10466.8478874866505066
 20
5264.5813056474598852
 30
0.0
  0
VERTEX
  5
226E
  8
0
 10
10466.8478874866505066
 20
5279.5813056474598852
 30
0.0
  0
VERTEX
  5
226F
  8
0
 10
10426.8478874866505066
 20
5279.5813056474598852
 30
0.0
  0
SEQEND
  5
2270
  8
0
  0
POLYLINE
  5
1E3B
  8
0
 66
     1
 10
0.0
 20
0.0
 30
0.0
 70
     1
  0
VERTEX
  5
2271
  8
0
 10
10416.8566200287496031
 20
5283.6422551049454341
 30
0.0
  0
VERTEX
  5
2272
  8
0
 10
10456.8566200287496031
 20
5283.6422551049454341
 30
0.0
  0
VERTEX
  5
2273
  8
0
 10
10456.8566200287496031
 20
5298.6422551049463436
 30
0.0
  0
VERTEX
  5
2274
  8
0
 10
10416.8566200287496031
 20
5298.6422551049463436
 30
0.0
  0
SEQEND
  5
2275
  8
0
  0
POLYLINE
  5
1E3C
  8
0
 66
     1
 10
0.0
 20
0.0
 30
0.0
 70
     1
  0
VERTEX
  5
2276
  8
0
 10
10425.0313110973202129
 20
5304.0646880474223508
 30
0.0
  0
VERTEX
  5
2277
  8
0
 10
10465.0313110973202129
 20
5304.0646880474223508
 30
0.0
  0
VERTEX
  5
2278
  8
0
 10
10465.0313110973202129
 20
5319.0646880474223508
 30
0.0
  0
VERTEX
  5
2279
  8
0
 10
10425.0313110973202129
 20
5319.0646880474223508
 30
0.0
  0
SEQEND
  5
227A
  8
0
  0
POLYLINE
  5
1E3D
  8
0
 66
     1
 10
0.0
 20
0.0
 30
0.0
 70
     1
  0
VERTEX
  5
227B
  8
0
 10
10431.8435374350301572
 20
5325.3947812790620446
 30
0.0
  0
VERTEX
  5
227C
  8
0
 10
10471.8435374350301572
 20
5325.3947812790620446
 30
0.0
  0
VERTEX
  5
227D
  8
0
 10
10471.8435374350301572
 20
5340.3947812790611351
 30
0.0
  0
VERTEX
  5
227E
  8
0
 10
10431.8435374350301572
 20
5340.3947812790611351
 30
0.0
  0
SEQEND
  5
227F
  8
0
  0
POLYLINE
  5
1E3E
  8
0
 66
     1
 10
0.0
 20
0.0
 30
0.0
 70
     1
  0
VERTEX
  5
2280
  8
0
 10
10475.1370617948305153
 20
5341.649934605731687
 30
0.0
  0
VERTEX
  5
2281
  8
0
 10
10515.1370617948305153
 20
5341.649934605731687
 30
0.0
  0
VERTEX
  5
2282
  8
0
 10
10515.1370617948305153
 20
5356.649934605731687
 30
0.0
  0
VERTEX
  5
2283
  8
0
 10
10475.1370617948305153
 20
5356.649934605731687
 30
0.0
  0
SEQEND
  5
2284
  8
0
  0
POLYLINE
  5
1E3F
  8
0
 66
     1
 10
0.0
 20
0.0
 30
0.0
 70
     1
  0
VERTEX
  5
2285
  8
0
 10
10432.227159441819822
 20
5344.8525880380348099
 30
0.0
  0
VERTEX
  5
2286
  8
0
 10
10472.227159441819822
 20
5344.8525880380348099
 30
0.0
  0
VERTEX
  5
2287
  8
0
 10
10472.227159441819822
 20
5359.8525880380348099
 30
0.0
  0
VERTEX
  5
2288
  8
0
 10
10432.227159441819822
 20
5359.8525880380348099
 30
0.0
  0
SEQEND
  5
2289
  8
0
  0
POLYLINE
  5
1E40
  8
0
 66
     1
 10
0.0
 20
0.0
 30
0.0
 70
     1
  0
VERTEX
  5
228A
  8
0
 10
10432.5832732918497641
 20
5364.0684947343343083
 30
0.0
  0
VERTEX
  5
228B
  8
0
 10
10472.583273291860678
 20
5364.0684947343343083
 30
0.0
  0
VERTEX
  5
228C
  8
0
 10
10472.583273291860678
 20
5379.0684947343343083
 30
0.0
  0
VERTEX
  5
228D
  8
0
 10
10432.5832732918497641
 20
5379.0684947343343083
 30
0.0
  0
SEQEND
  5
228E
  8
0
  0
POLYLINE
  5
1E41
  8
0
 66
     1
 10
0.0
 20
0.0
 30
0.0
 70
     1
  0
VERTEX
  5
228F
  8
0
 10
10475.8492894948994945
 20
5360.865841302032095
 30
0.0
  0
VERTEX
  5
2290
  8
0
 10
10515.8492894948994945
 20
5360.865841302032095
 30
0.0
  0
VERTEX
  5
2291
  8
0
 10
10515.8492894948994945
 20
5375.8658413020330045
 30
0.0
  0
VERTEX
  5
2292
  8
0
 10
10475.8492894948994945
 20
5375.8658413020330045
 30
0.0
  0
SEQEND
  5
2293
  8
0
  0
POLYLINE
  5
1E42
  8
0
 66
     1
 10
0.0
 20
0.0
 30
0.0
 70
     1
  0
VERTEX
  5
2294
  8
0
 10
10478.6208984820495971
 20
5380.5342787257095551
 30
0.0
  0
VERTEX
  5
2295
  8
0
 10
10518.6208984820495971
 20
5380.5342787257095551
 30
0.0
  0
VERTEX
  5
2296
  8
0
 10
10518.6208984820495971
 20
5395.5342787257113741
 30
0.0
  0
VERTEX
  5
2297
  8
0
 10
10478.6208984820495971
 20
5395.5342787257113741
 30
0.0
  0
SEQEND
  5
2298
  8
0
  0
POLYLINE
  5
1E43
  8
0
 66
     1
 10
0.0
 20
0.0
 30
0.0
 70
     1
  0
VERTEX
  5
2299
  8
0
 10
10429.9969226575503853
 20
5383.0296183760001441
 30
0.0
  0
VERTEX
  5
229A
  8
0
 10
10469.9969226575503853
 20
5383.0296183760001441
 30
0.0
  0
VERTEX
  5
229B
  8
0
 10
10469.9969226575503853
 20
5398.0296183760001441
 30
0.0
  0
VERTEX
  5
229C
  8
0
 10
10429.9969226575503853
 20
5398.0296183760001441
 30
0.0
  0
SEQEND
  5
229D
  8
0
  0
POLYLINE
  5
1E44
  8
0
 66
     1
 10
0.0
 20
0.0
 30
0.0
 70
     1
  0
VERTEX
  5
229E
  8
0
 10
10483.6839888288905058
 20
5399.9621919402270578
 30
0.0
  0
VERTEX
  5
229F
  8
0
 10
10523.6839888288905058
 20
5399.9621919402270578
 30
0.0
  0
VERTEX
  5
22A0
  8
0
 10
10523.6839888288905058
 20
5414.9621919402270578
 30
0.0
  0
VERTEX
  5
22A1
  8
0
 10
10483.6839888288905058
 20
5414.9621919402270578
 30
0.0
  0
SEQEND
  5
22A2
  8
0
  0
POLYLINE
  5
1E45
  8
0
 66
     1
 10
0.0
 20
0.0
 30
0.0
 70
     1
  0
VERTEX
  5
22A3
  8
0
 10
10422.6840673302594951
 20
5401.7445754193613539
 30
0.0
  0
VERTEX
  5
22A4
  8
0
 10
10462.6840673302594951
 20
5401.7445754193613539
 30
0.0
  0
VERTEX
  5
22A5
  8
0
 10
10462.6840673302594951
 20
5416.7445754193613539
 30
0.0
  0
VERTEX
  5
22A6
  8
0
 10
10422.6840673302594951
 20
5416.7445754193613539
 30
0.0
  0
SEQEND
  5
22A7
  8
0
  0
POLYLINE
  5
1E46
  8
0
 66
     1
 10
0.0
 20
0.0
 30
0.0
 70
     1
  0
VERTEX
  5
22A8
  8
0
 10
10494.9208437903107551
 20
5418.3206778467638287
 30
0.0
  0
VERTEX
  5
22A9
  8
0
 10
10534.9208437903107551
 20
5418.3206778467638287
 30
0.0
  0
VERTEX
  5
22AA
  8
0
 10
10534.9208437903107551
 20
5433.3206778467647382
 30
0.0
  0
VERTEX
  5
22AB
  8
0
 10
10494.9208437903107551
 20
5433.3206778467647382
 30
0.0
  0
SEQEND
  5
22AC
  8
0
  0
POLYLINE
  5
1E47
  8
0
 66
     1
 10
0.0
 20
0.0
 30
0.0
 70
     1
  0
VERTEX
  5
22AD
  8
0
 10
10451.5787908898291789
 20
5418.4989134151755934
 30
0.0
  0
VERTEX
  5
22AE
  8
0
 10
10491.5787908898291789
 20
5418.4989134151755934
 30
0.0
  0
VERTEX
  5
22AF
  8
0
 10
10491.5787908898291789
 20
5433.4989134151774124
 30
0.0
  0
VERTEX
  5
22B0
  8
0
 10
10451.5787908898291789
 20
5433.4989134151774124
 30
0.0
  0
SEQEND
  5
22B1
  8
0
  0
POLYLINE
  5
1E48
  8
0
 66
     1
 10
0.0
 20
0.0
 30
0.0
 70
     1
  0
VERTEX
  5
22B2
  8
0
 10
10408.9501659273792029
 20
5421.5289597706996574
 30
0.0
  0
VERTEX
  5
22B3
  8
0
 10
10448.9501659273792029
 20
5421.5289597706996574
 30
0.0
  0
VERTEX
  5
22B4
  8
0
 10
10448.9501659273792029
 20
5436.5289597706996574
 30
0.0
  0
VERTEX
  5
22B5
  8
0
 10
10408.9501659273792029
 20
5436.5289597706996574
 30
0.0
  0
SEQEND
  5
22B6
  8
0
  0
POLYLINE
  5
1E49
  8
0
 66
     1
 10
0.0
 20
0.0
 30
0.0
 70
     1
  0
VERTEX
  5
22B7
  8
0
 10
10637.2896658913305146
 20
5336.048598706633129
 30
0.0
  0
VERTEX
  5
22B8
  8
0
 10
10677.2896658913305146
 20
5336.048598706633129
 30
0.0
  0
VERTEX
  5
22B9
  8
0
 10
10677.2896658913305146
 20
5351.048598706633129
 30
0.0
  0
VERTEX
  5
22BA
  8
0
 10
10637.2896658913305146
 20
5351.048598706633129
 30
0.0
  0
SEQEND
  5
22BB
  8
0
  0
POLYLINE
  5
1E4A
  8
0
 66
     1
 10
0.0
 20
0.0
 30
0.0
 70
     1
  0
VERTEX
  5
22BC
  8
0
 10
10625.835827367969614
 20
5316.7719737882362097
 30
0.0
  0
VERTEX
  5
22BD
  8
0
 10
10665.835827367969614
 20
5316.7719737882362097
 30
0.0
  0
VERTEX
  5
22BE
  8
0
 10
10665.835827367969614
 20
5331.7719737882362097
 30
0.0
  0
VERTEX
  5
22BF
  8
0
 10
10625.835827367969614
 20
5331.7719737882362097
 30
0.0
  0
SEQEND
  5
22C0
  8
0
  0
POLYLINE
  5
1E4B
  8
0
 66
     1
 10
0.0
 20
0.0
 30
0.0
 70
     1
  0
VERTEX
  5
22C1
  8
0
 10
10606.1352186200292635
 20
5296.2170697784622462
 30
0.0
  0
VERTEX
  5
22C2
  8
0
 10
10646.1352186200292635
 20
5296.2170697784622462
 30
0.0
  0
VERTEX
  5
22C3
  8
0
 10
10646.1352186200292635
 20
5311.2170697784622462
 30
0.0
  0
VERTEX
  5
22C4
  8
0
 10
10606.1352186200292635
 20
5311.2170697784622462
 30
0.0
  0
SEQEND
  5
22C5
  8
0
  0
POLYLINE
  5
1E4C
  8
0
 66
     1
 10
0.0
 20
0.0
 30
0.0
 70
     1
  0
VERTEX
  5
22C6
  8
0
 10
10544.7426246715294837
 20
5331.4702585339109646
 30
0.0
  0
VERTEX
  5
22C7
  8
0
 10
10584.7426246715294837
 20
5331.4702585339109646
 30
0.0
  0
VERTEX
  5
22C8
  8
0
 10
10584.7426246715294837
 20
5346.4702585339109646
 30
0.0
  0
VERTEX
  5
22C9
  8
0
 10
10544.7426246715294837
 20
5346.4702585339109646
 30
0.0
  0
SEQEND
  5
22CA
  8
0
  0
POLYLINE
  5
1E4D
  8
0
 66
     1
 10
0.0
 20
0.0
 30
0.0
 70
     1
  0
VERTEX
  5
22CB
  8
0
 10
10545.2007911880100437
 20
5358.94027177523094
 30
0.0
  0
VERTEX
  5
22CC
  8
0
 10
10585.2007911880100437
 20
5358.94027177523094
 30
0.0
  0
VERTEX
  5
22CD
  8
0
 10
10585.2007911880100437
 20
5373.94027177523094
 30
0.0
  0
VERTEX
  5
22CE
  8
0
 10
10545.2007911880100437
 20
5373.94027177523094
 30
0.0
  0
SEQEND
  5
22CF
  8
0
  0
POLYLINE
  5
1E4E
  8
0
 66
     1
 10
0.0
 20
0.0
 30
0.0
 70
     1
  0
VERTEX
  5
22D0
  8
0
 10
10607.9678522470894677
 20
5384.5789545064662889
 30
0.0
  0
VERTEX
  5
22D1
  8
0
 10
10647.9678522470894677
 20
5384.5789545064662889
 30
0.0
  0
VERTEX
  5
22D2
  8
0
 10
10647.9678522470894677
 20
5399.5789545064653794
 30
0.0
  0
VERTEX
  5
22D3
  8
0
 10
10607.9678522470894677
 20
5399.5789545064653794
 30
0.0
  0
SEQEND
  5
22D4
  8
0
  0
POLYLINE
  5
1E4F
  8
0
 66
     1
 10
0.0
 20
0.0
 30
0.0
 70
     1
  0
VERTEX
  5
22D5
  8
0
 10
10592.3906123920005484
 20
5409.759797661423363
 30
0.0
  0
VERTEX
  5
22D6
  8
0
 10
10632.3906123920005484
 20
5409.759797661423363
 30
0.0
  0
VERTEX
  5
22D7
  8
0
 10
10632.3906123920005484
 20
5424.759797661423363
 30
0.0
  0
VERTEX
  5
22D8
  8
0
 10
10592.3906123920005484
 20
5424.759797661423363
 30
0.0
  0
SEQEND
  5
22D9
  8
0
  0
ARC
  5
1E50
  8
0
 10
10509.6416829090903775
 20
5164.6412766329531223
 30
0.0
 40
4.8814708531992581
 50
358.5923953886186837
 51
91.3648461012161164
  0
POLYLINE
  5
1E51
  8
0
 66
     1
 10
0.0
 20
0.0
 30
0.0
  0
VERTEX
  5
22DA
  8
0
 10
10509.7579537137207808
 20
5169.5213625738588235
 30
0.0
  0
VERTEX
  5
22DB
  8
0
 10
10505.5254121044508793
 20
5169.5213625738588235
 30
0.0
  0
VERTEX
  5
22DC
  8
0
 10
10502.525601802919482
 20
5169.5550991238533243
 30
0.0
  0
VERTEX
  5
22DD
  8
0
 10
10502.5139562990007107
 20
5159.555105904742959
 30
0.0
  0
VERTEX
  5
22DE
  8
0
 10
10505.5232750430004671
 20
5159.5213628022065677
 30
0.0
  0
VERTEX
  5
22DF
  8
0
 10
10505.5194103810808883
 20
5141.4373632151591664
 30
0.0
  0
VERTEX
  5
22E0
  8
0
 10
10502.4928965697108652
 20
5141.4711181673037572
 30
0.0
  0
VERTEX
  5
22E1
  8
0
 10
10502.4812510657993698
 20
5131.4711249481961204
 30
0.0
  0
VERTEX
  5
22E2
  8
0
 10
10505.5172733196304762
 20
5131.4373634435105487
 30
0.0
  0
VERTEX
  5
22E3
  8
0
 10
10505.5134341254106403
 20
5113.4725355011951251
 30
0.0
  0
VERTEX
  5
22E4
  8
0
 10
10502.4601897700595146
 20
5113.3857921031685692
 30
0.0
  0
VERTEX
  5
22E5
  8
0
 10
10502.4485442661407433
 20
5103.3857988840618418
 30
0.0
  0
VERTEX
  5
22E6
  8
0
 10
10505.4472837940393219
 20
5103.4727542969076239
 30
0.0
  0
VERTEX
  5
22E7
  8
0
 10
10505.4272933244792512
 20
5085.2667745975113576
 30
0.0
  0
VERTEX
  5
22E8
  8
0
 10
10502.4274830229496729
 20
5085.3005111475049489
 30
0.0
  0
VERTEX
  5
22E9
  8
0
 10
10502.4158375190309016
 20
5075.3005179283936741
 30
0.0
  0
VERTEX
  5
22EA
  8
0
 10
10505.425156263030658
 20
5075.2667748258600113
 30
0.0
  0
VERTEX
  5
22EB
  8
0
 10
10505.4212916011001653
 20
5057.1827752388098816
 30
0.0
  0
VERTEX
  5
22EC
  8
0
 10
10502.3947777897392371
 20
5057.2165301909562913
 30
0.0
  0
VERTEX
  5
22ED
  8
0
 10
10502.3831322858204658
 20
5047.2165369718468355
 30
0.0
  0
VERTEX
  5
22EE
  8
0
 10
10505.4191545396497531
 20
5047.1827754671621733
 30
0.0
  0
VERTEX
  5
22EF
  8
0
 10
10505.4191545396497531
 20
5028.6378027407736226
 30
0.0
  0
VERTEX
  5
22F0
  8
0
 10
10514.4202739547308738
 20
5028.6378027407736226
 30
0.0
  0
VERTEX
  5
22F1
  8
0
 10
10514.5218542612601595
 20
5164.7539055107026797
 30
0.0
  0
SEQEND
  5
22F2
  8
0
  0
ARC
  5
1E52
  8
0
 10
10490.3539235844800714
 20
5170.6824826276306339
 30
0.0
 40
4.8814708531992581
 50
358.5923953886186837
 51
91.3648461012161164
  0
POLYLINE
  5
1E53
  8
0
 66
     1
 10
0.0
 20
0.0
 30
0.0
  0
VERTEX
  5
22F3
  8
0
 10
10490.4701943891104747
 20
5175.5625685685372446
 30
0.0
  0
VERTEX
  5
22F4
  8
0
 10
10486.2376527798496681
 20
5175.5625685685372446
 30
0.0
  0
VERTEX
  5
22F5
  8
0
 10
10483.2378424783091759
 20
5175.5963051185308359
 30
0.0
  0
VERTEX
  5
22F6
  8
0
 10
10483.2261969743994996
 20
5165.5963118994213801
 30
0.0
  0
VERTEX
  5
22F7
  8
0
 10
10486.235515718399256
 20
5165.5625687968849888
 30
0.0
  0
VERTEX
  5
22F8
  8
0
 10
10486.2316510564705823
 20
5147.4785692098366781
 30
0.0
  0
VERTEX
  5
22F9
  8
0
 10
10483.205137245109654
 20
5147.5123241619812688
 30
0.0
  0
VERTEX
  5
22FA
  8
0
 10
10483.1934917411908827
 20
5137.512330942873632
 30
0.0
  0
VERTEX
  5
22FB
  8
0
 10
10486.2295139950201701
 20
5137.4785694381889698
 30
0.0
  0
VERTEX
  5
22FC
  8
0
 10
10486.2256748008094291
 20
5119.5137414958726367
 30
0.0
  0
VERTEX
  5
22FD
  8
0
 10
10483.1724304454601224
 20
5119.4269980978460808
 30
0.0
  0
VERTEX
  5
22FE
  8
0
 10
10483.1607849415395322
 20
5109.4270048787393534
 30
0.0
  0
VERTEX
  5
22FF
  8
0
 10
10486.1595244694399298
 20
5109.5139602915851356
 30
0.0
  0
VERTEX
  5
2300
  8
0
 10
10486.1395339998707641
 20
5091.3079805921888692
 30
0.0
  0
VERTEX
  5
2301
  8
0
 10
10483.1397236983393668
 20
5091.34171714218337
 30
0.0
  0
VERTEX
  5
2302
  8
0
 10
10483.1280781944205955
 20
5081.3417239230720952
 30
0.0
  0
VERTEX
  5
2303
  8
0
 10
10486.1373969384203519
 20
5081.3079808205366135
 30
0.0
  0
VERTEX
  5
2304
  8
0
 10
10486.1335322765007732
 20
5063.2239812334883027
 30
0.0
  0
VERTEX
  5
2305
  8
0
 10
10483.1070184651398449
 20
5063.257736185633803
 30
0.0
  0
VERTEX
  5
2306
  8
0
 10
10483.0953729612192546
 20
5053.2577429665252566
 30
0.0
  0
VERTEX
  5
2307
  8
0
 10
10486.131395215050361
 20
5053.2239814618396849
 30
0.0
  0
VERTEX
  5
2308
  8
0
 10
10486.131395215050361
 20
5034.6790087354520438
 30
0.0
  0
VERTEX
  5
2309
  8
0
 10
10495.1325146301205677
 20
5034.6790087354520438
 30
0.0
  0
VERTEX
  5
230A
  8
0
 10
10495.2340949366498535
 20
5170.7951115053801914
 30
0.0
  0
SEQEND
  5
230B
  8
0
  0
ARC
  5
1E54
  8
0
 10
10470.202511942210549
 20
5170.9701610889251242
 30
0.0
 40
4.8814708531992581
 50
358.5923953886186837
 51
91.3648461012161164
  0
POLYLINE
  5
1E55
  8
0
 66
     1
 10
0.0
 20
0.0
 30
0.0
  0
VERTEX
  5
230C
  8
0
 10
10470.3187827468391333
 20
5175.8502470298308253
 30
0.0
  0
VERTEX
  5
230D
  8
0
 10
10466.0862411375692318
 20
5175.8502470298308253
 30
0.0
  0
VERTEX
  5
230E
  8
0
 10
10463.0864308360396535
 20
5175.8839835798262357
 30
0.0
  0
VERTEX
  5
230F
  8
0
 10
10463.0747853321208822
 20
5165.8839903607158703
 30
0.0
  0
VERTEX
  5
2310
  8
0
 10
10466.0841040761206386
 20
5165.8502472581785696
 30
0.0
  0
VERTEX
  5
2311
  8
0
 10
10466.0802394141992409
 20
5147.7662476711320778
 30
0.0
  0
VERTEX
  5
2312
  8
0
 10
10463.0537256028292177
 20
5147.8000026232748496
 30
0.0
  0
VERTEX
  5
2313
  8
0
 10
10463.0420800989195413
 20
5137.8000094041681223
 30
0.0
  0
VERTEX
  5
2314
  8
0
 10
10466.0781023527506477
 20
5137.7662478994843696
 30
0.0
  0
VERTEX
  5
2315
  8
0
 10
10466.0742631585308118
 20
5119.801419957167127
 30
0.0
  0
VERTEX
  5
2316
  8
0
 10
10463.0210188031796861
 20
5119.714676559140571
 30
0.0
  0
VERTEX
  5
2317
  8
0
 10
10463.0093732992700097
 20
5109.7146833400329342
 30
0.0
  0
VERTEX
  5
2318
  8
0
 10
10466.0081128271594935
 20
5109.8016387528787163
 30
0.0
  0
VERTEX
  5
2319
  8
0
 10
10465.9881223575994227
 20
5091.5956590534833595
 30
0.0
  0
VERTEX
  5
231A
  8
0
 10
10462.9883120560698444
 20
5091.6293956034778603
 30
0.0
  0
VERTEX
  5
231B
  8
0
 10
10462.9766665521492541
 20
5081.6294023843665855
 30
0.0
  0
VERTEX
  5
231C
  8
0
 10
10465.9859852961508295
 20
5081.5956592818320132
 30
0.0
  0
VERTEX
  5
231D
  8
0
 10
10465.9821206342203368
 20
5063.5116596947818834
 30
0.0
  0
VERTEX
  5
231E
  8
0
 10
10462.9556068228594086
 20
5063.5454146469282932
 30
0.0
  0
VERTEX
  5
231F
  8
0
 10
10462.9439613189497322
 20
5053.5454214278188374
 30
0.0
  0
VERTEX
  5
2320
  8
0
 10
10465.9799835727699246
 20
5053.5116599231350847
 30
0.0
  0
VERTEX
  5
2321
  8
0
 10
10465.9799835727699246
 20
5034.9666871967456245
 30
0.0
  0
VERTEX
  5
2322
  8
0
 10
10474.9811029878492263
 20
5034.9666871967456245
 30
0.0
  0
VERTEX
  5
2323
  8
0
 10
10475.0826832943803311
 20
5171.0827899666746816
 30
0.0
  0
SEQEND
  5
2324
  8
0
  0
ARC
  5
1E56
  8
0
 10
10447.1723457446805696
 20
5169.2441042186619597
 30
0.0
 40
4.8814708531992581
 50
358.5923953886186837
 51
91.3648461012161164
  0
POLYLINE
  5
1E57
  8
0
 66
     1
 10
0.0
 20
0.0
 30
0.0
  0
VERTEX
  5
2325
  8
0
 10
10447.2886165493091539
 20
5174.1241901595676609
 30
0.0
  0
VERTEX
  5
2326
  8
0
 10
10443.0560749400392524
 20
5174.1241901595676609
 30
0.0
  0
VERTEX
  5
2327
  8
0
 10
10440.0562646385096741
 20
5174.1579267095630712
 30
0.0
  0
VERTEX
  5
2328
  8
0
 10
10440.0446191345909028
 20
5164.1579334904536154
 30
0.0
  0
VERTEX
  5
2329
  8
0
 10
10443.0539378785906592
 20
5164.1241903879181336
 30
0.0
  0
VERTEX
  5
232A
  8
0
 10
10443.0500732166692615
 20
5146.0401908008689134
 30
0.0
  0
VERTEX
  5
232B
  8
0
 10
10440.0235594052992383
 20
5146.0739457530144136
 30
0.0
  0
VERTEX
  5
232C
  8
0
 10
10440.0119139013895619
 20
5136.0739525339049578
 30
0.0
  0
VERTEX
  5
232D
  8
0
 10
10443.0479361552206683
 20
5136.0401910292212051
 30
0.0
  0
VERTEX
  5
232E
  8
0
 10
10443.0440969610008324
 20
5118.075363086904872
 30
0.0
  0
VERTEX
  5
232F
  8
0
 10
10439.9908526056497067
 20
5117.9886196888801351
 30
0.0
  0
VERTEX
  5
2330
  8
0
 10
10439.9792071017291164
 20
5107.9886264697715887
 30
0.0
  0
VERTEX
  5
2331
  8
0
 10
10442.9779466296295141
 20
5108.0755818826182804
 30
0.0
  0
VERTEX
  5
2332
  8
0
 10
10442.9579561600694433
 20
5089.8696021832211045
 30
0.0
  0
VERTEX
  5
2333
  8
0
 10
10439.958145858539865
 20
5089.9033387332156053
 30
0.0
  0
VERTEX
  5
2334
  8
0
 10
10439.9465003546192747
 20
5079.9033455141043305
 30
0.0
  0
VERTEX
  5
2335
  8
0
 10
10442.9558190986208501
 20
5079.8696024115688488
 30
0.0
  0
VERTEX
  5
2336
  8
0
 10
10442.9519544366903574
 20
5061.7856028245196285
 30
0.0
  0
VERTEX
  5
2337
  8
0
 10
10439.9254406253294292
 20
5061.8193577766660383
 30
0.0
  0
VERTEX
  5
2338
  8
0
 10
10439.9137951214106579
 20
5051.8193645575556729
 30
0.0
  0
VERTEX
  5
2339
  8
0
 10
10442.9498173752399452
 20
5051.7856030528719202
 30
0.0
  0
VERTEX
  5
233A
  8
0
 10
10442.9498173752399452
 20
5033.2406303264851886
 30
0.0
  0
VERTEX
  5
233B
  8
0
 10
10451.9509367903192469
 20
5033.2406303264851886
 30
0.0
  0
VERTEX
  5
233C
  8
0
 10
10452.0525170968503517
 20
5169.3567330964133362
 30
0.0
  0
SEQEND
  5
233D
  8
0
  0
POLYLINE
  5
1E58
  8
0
 66
     1
 10
0.0
 20
0.0
 30
0.0
  0
VERTEX
  5
233E
  8
0
 10
10609.7303310430106649
 20
5248.7010800938960529
 30
0.0
 42
0.4284582666080078
  0
VERTEX
  5
233F
  8
0
 10
10604.7340624265907536
 20
5253.7010787015706228
 30
0.0
  0
VERTEX
  5
2340
  8
0
 10
10600.7340624265907536
 20
5253.7010787015706228
 30
0.0
  0
VERTEX
  5
2341
  8
0
 10
10597.7342168426803255
 20
5253.7315167153647053
 30
0.0
  0
VERTEX
  5
2342
  8
0
 10
10597.7335670863303676
 20
5243.7315167364713488
 30
0.0
  0
VERTEX
  5
2343
  8
0
 10
10600.7429211141607084
 20
5243.7010826253881532
 30
0.0
  0
VERTEX
  5
2344
  8
0
 10
10600.7429211141607084
 20
5225.6172507769051663
 30
0.0
  0
VERTEX
  5
2345
  8
0
 10
10597.7323920669405197
 20
5225.6475167746457373
 30
0.0
  0
VERTEX
  5
2346
  8
0
 10
10597.7317423105996568
 20
5215.6475167957551093
 30
0.0
  0
VERTEX
  5
2347
  8
0
 10
10600.7837143325195939
 20
5215.61709364503713
 30
0.0
  0
VERTEX
  5
2348
  8
0
 10
10600.7837143325195939
 20
5197.6522723415691871
 30
0.0
  0
VERTEX
  5
2349
  8
0
 10
10597.730567203820101
 20
5197.5621717254325631
 30
0.0
  0
VERTEX
  5
234A
  8
0
 10
10597.7299174474701431
 20
5187.5621717465428446
 30
0.0
  0
VERTEX
  5
234B
  8
0
 10
10600.728559548550038
 20
5187.6524244452366474
 30
0.0
  0
VERTEX
  5
234C
  8
0
 10
10609.728559548550038
 20
5187.6524244452366474
 30
0.0
  0
VERTEX
  5
234D
  8
0
 10
10609.7336458489899087
 20
5248.7010787189256007
 30
0.0
  0
SEQEND
  5
234E
  8
0
  0
POLYLINE
  5
1E59
  8
0
 66
     1
 10
0.0
 20
0.0
 30
0.0
  0
VERTEX
  5
234F
  8
0
 10
10633.5041359019705851
 20
5249.4026625514015905
 30
0.0
 42
0.4284582666080078
  0
VERTEX
  5
2350
  8
0
 10
10628.5078672855506738
 20
5254.4026611590770699
 30
0.0
  0
VERTEX
  5
2351
  8
0
 10
10624.5078672855506738
 20
5254.4026611590770699
 30
0.0
  0
VERTEX
  5
2352
  8
0
 10
10621.5080217016402457
 20
5254.4330991728711524
 30
0.0
  0
VERTEX
  5
2353
  8
0
 10
10621.5073719452902878
 20
5244.4330991939768865
 30
0.0
  0
VERTEX
  5
2354
  8
0
 10
10624.5167259731206286
 20
5244.4026650828927814
 30
0.0
  0
VERTEX
  5
2355
  8
0
 10
10624.5167259731206286
 20
5226.3188332344107039
 30
0.0
  0
VERTEX
  5
2356
  8
0
 10
10621.5061969259095349
 20
5226.3490992321521844
 30
0.0
  0
VERTEX
  5
2357
  8
0
 10
10621.505547169559577
 20
5216.3490992532597375
 30
0.0
  0
VERTEX
  5
2358
  8
0
 10
10624.5575191914795141
 20
5216.3186761025426676
 30
0.0
  0
VERTEX
  5
2359
  8
0
 10
10624.5575191914904281
 20
5198.3538547990747247
 30
0.0
  0
VERTEX
  5
235A
  8
0
 10
10621.5043720627800212
 20
5198.2637541829390102
 30
0.0
  0
VERTEX
  5
235B
  8
0
 10
10621.5037223064300633
 20
5188.2637542040492917
 30
0.0
  0
VERTEX
  5
235C
  8
0
 10
10624.5023644075099583
 20
5188.354006902742185
 30
0.0
  0
VERTEX
  5
235D
  8
0
 10
10633.5023644075099583
 20
5188.354006902742185
 30
0.0
  0
VERTEX
  5
235E
  8
0
 10
10633.5074507079498289
 20
5249.4026611764311383
 30
0.0
  0
SEQEND
  5
235F
  8
0
  0
POLYLINE
  5
1E5A
  8
0
 66
     1
 10
0.0
 20
0.0
 30
0.0
  0
VERTEX
  5
2360
  8
0
 10
10654.8675007964793622
 20
5250.0331111536415847
 30
0.0
 42
0.4284582666080078
  0
VERTEX
  5
2361
  8
0
 10
10649.8712321800703648
 20
5255.0331097613179736
 30
0.0
  0
VERTEX
  5
2362
  8
0
 10
10645.8712321800703648
 20
5255.0331097613179736
 30
0.0
  0
VERTEX
  5
2363
  8
0
 10
10642.8713865961508418
 20
5255.0635477751120561
 30
0.0
  0
VERTEX
  5
2364
  8
0
 10
10642.8707368398099788
 20
5245.0635477962177902
 30
0.0
  0
VERTEX
  5
2365
  8
0
 10
10645.8800908676403196
 20
5245.0331136851336851
 30
0.0
  0
VERTEX
  5
2366
  8
0
 10
10645.8800908676403196
 20
5226.9492818366516076
 30
0.0
  0
VERTEX
  5
2367
  8
0
 10
10642.869561820420131
 20
5226.9795478343930881
 30
0.0
  0
VERTEX
  5
2368
  8
0
 10
10642.868912064079268
 20
5216.9795478555006412
 30
0.0
  0
VERTEX
  5
2369
  8
0
 10
10645.9208840859992051
 20
5216.9491247047826619
 30
0.0
  0
VERTEX
  5
236A
  8
0
 10
10645.9208840859992051
 20
5198.9843034013147189
 30
0.0
  0
VERTEX
  5
236B
  8
0
 10
10642.8677369572906173
 20
5198.8942027851790044
 30
0.0
  0
VERTEX
  5
236C
  8
0
 10
10642.8670872009497543
 20
5188.8942028062901954
 30
0.0
  0
VERTEX
  5
236D
  8
0
 10
10645.8657293020296493
 20
5188.9844555049830888
 30
0.0
  0
VERTEX
  5
236E
  8
0
 10
10654.8657293020296493
 20
5188.9844555049830888
 30
0.0
  0
VERTEX
  5
236F
  8
0
 10
10654.8708156024695199
 20
5250.033109778672042
 30
0.0
  0
SEQEND
  5
2370
  8
0
  0
POLYLINE
  5
1E5B
  8
0
 66
     1
 10
0.0
 20
0.0
 30
0.0
  0
VERTEX
  5
2371
  8
0
 10
10676.2744356355105992
 20
5250.6648455369740986
 30
0.0
 42
0.4284582666080078
  0
VERTEX
  5
2372
  8
0
 10
10671.2781670190997829
 20
5255.6648441446495781
 30
0.0
  0
VERTEX
  5
2373
  8
0
 10
10667.2781670190997829
 20
5255.6648441446495781
 30
0.0
  0
VERTEX
  5
2374
  8
0
 10
10664.2783214351802599
 20
5255.6952821584427511
 30
0.0
  0
VERTEX
  5
2375
  8
0
 10
10664.277671678830302
 20
5245.6952821795503041
 30
0.0
  0
VERTEX
  5
2376
  8
0
 10
10667.2870257066697377
 20
5245.6648480684652895
 30
0.0
  0
VERTEX
  5
2377
  8
0
 10
10667.2870257066697377
 20
5227.5810162199832121
 30
0.0
  0
VERTEX
  5
2378
  8
0
 10
10664.276496659449549
 20
5227.6112822177246926
 30
0.0
  0
VERTEX
  5
2379
  8
0
 10
10664.2758469031105051
 20
5217.6112822388331551
 30
0.0
  0
VERTEX
  5
237A
  8
0
 10
10667.3278189250304422
 20
5217.5808590881160853
 30
0.0
  0
VERTEX
  5
237B
  8
0
 10
10667.3278189250304422
 20
5199.6160377846472329
 30
0.0
  0
VERTEX
  5
237C
  8
0
 10
10664.2746717963200354
 20
5199.5259371685124279
 30
0.0
  0
VERTEX
  5
237D
  8
0
 10
10664.2740220399700775
 20
5189.5259371896208904
 30
0.0
  0
VERTEX
  5
237E
  8
0
 10
10667.2726641410608863
 20
5189.6161898883146932
 30
0.0
  0
VERTEX
  5
237F
  8
0
 10
10676.2726641410499724
 20
5189.6161898883146932
 30
0.0
  0
VERTEX
  5
2380
  8
0
 10
10676.2777504414898431
 20
5250.664844162002737
 30
0.0
  0
SEQEND
  5
2381
  8
0
  0
POLYLINE
  5
1E5C
  8
0
 66
     1
 10
0.0
 20
0.0
 30
0.0
  0
VERTEX
  5
2382
  8
0
 10
10347.4519939081492339
 20
5250.6648455369740986
 30
0.0
 42
0.4284582666080078
  0
VERTEX
  5
2383
  8
0
 10
10342.4557252917402366
 20
5255.6648441446495781
 30
0.0
  0
VERTEX
  5
2384
  8
0
 10
10338.4557252917402366
 20
5255.6648441446495781
 30
0.0
  0
VERTEX
  5
2385
  8
0
 10
10335.4558797078298085
 20
5255.6952821584427511
 30
0.0
  0
VERTEX
  5
2386
  8
0
 10
10335.4552299514798506
 20
5245.6952821795503041
 30
0.0
  0
VERTEX
  5
2387
  8
0
 10
10338.4645839793101914
 20
5245.6648480684652895
 30
0.0
  0
VERTEX
  5
2388
  8
0
 10
10338.4645839793101914
 20
5227.5810162199832121
 30
0.0
  0
VERTEX
  5
2389
  8
0
 10
10335.4540549320900027
 20
5227.6112822177246926
 30
0.0
  0
VERTEX
  5
238A
  8
0
 10
10335.4534051757491397
 20
5217.6112822388331551
 30
0.0
  0
VERTEX
  5
238B
  8
0
 10
10338.5053771976708958
 20
5217.5808590881160853
 30
0.0
  0
VERTEX
  5
238C
  8
0
 10
10338.5053771976708958
 20
5199.6160377846472329
 30
0.0
  0
VERTEX
  5
238D
  8
0
 10
10335.452230068969584
 20
5199.5259371685124279
 30
0.0
  0
VERTEX
  5
238E
  8
0
 10
10335.4515803126196261
 20
5189.5259371896208904
 30
0.0
  0
VERTEX
  5
238F
  8
0
 10
10338.450222413699521
 20
5189.6161898883146932
 30
0.0
  0
VERTEX
  5
2390
  8
0
 10
10347.450222413699521
 20
5189.6161898883146932
 30
0.0
  0
VERTEX
  5
2391
  8
0
 10
10347.4553087141302967
 20
5250.664844162002737
 30
0.0
  0
SEQEND
  5
2392
  8
0
  0
POLYLINE
  5
1E5D
  8
0
 66
     1
 10
0.0
 20
0.0
 30
0.0
  0
VERTEX
  5
2393
  8
0
 10
10320.1159577683592943
 20
5250.6648455369740986
 30
0.0
 42
0.4284582666080078
  0
VERTEX
  5
2394
  8
0
 10
10315.1196891519502969
 20
5255.6648441446495781
 30
0.0
  0
VERTEX
  5
2395
  8
0
 10
10311.119689151939383
 20
5255.6648441446495781
 30
0.0
  0
VERTEX
  5
2396
  8
0
 10
10308.1198435680307739
 20
5255.6952821584427511
 30
0.0
  0
VERTEX
  5
2397
  8
0
 10
10308.119193811680816
 20
5245.6952821795503041
 30
0.0
  0
VERTEX
  5
2398
  8
0
 10
10311.1285478395202517
 20
5245.6648480684652895
 30
0.0
  0
VERTEX
  5
2399
  8
0
 10
10311.1285478395202517
 20
5227.5810162199832121
 30
0.0
  0
VERTEX
  5
239A
  8
0
 10
10308.1180187923000631
 20
5227.6112822177246926
 30
0.0
  0
VERTEX
  5
239B
  8
0
 10
10308.1173690359501052
 20
5217.6112822388331551
 30
0.0
  0
VERTEX
  5
239C
  8
0
 10
10311.1693410578791372
 20
5217.5808590881160853
 30
0.0
  0
VERTEX
  5
239D
  8
0
 10
10311.1693410578791372
 20
5199.6160377846472329
 30
0.0
  0
VERTEX
  5
239E
  8
0
 10
10308.1161939291705494
 20
5199.5259371685124279
 30
0.0
  0
VERTEX
  5
239F
  8
0
 10
10308.1155441728205915
 20
5189.5259371896208904
 30
0.0
  0
VERTEX
  5
23A0
  8
0
 10
10311.1141862739004864
 20
5189.6161898883146932
 30
0.0
  0
VERTEX
  5
23A1
  8
0
 10
10320.1141862739004864
 20
5189.6161898883146932
 30
0.0
  0
VERTEX
  5
23A2
  8
0
 10
10320.1192725743403571
 20
5250.664844162002737
 30
0.0
  0
SEQEND
  5
23A3
  8
0
  0
POLYLINE
  5
1E5E
  8
0
 66
     1
 10
0.0
 20
0.0
 30
0.0
  0
VERTEX
  5
23A4
  8
0
 10
10293.5187167583299015
 20
5250.6648455369740986
 30
0.0
 42
0.4284582666080078
  0
VERTEX
  5
23A5
  8
0
 10
10288.5224481419099902
 20
5255.6648441446495781
 30
0.0
  0
VERTEX
  5
23A6
  8
0
 10
10284.5224481419099902
 20
5255.6648441446495781
 30
0.0
  0
VERTEX
  5
23A7
  8
0
 10
10281.5226025579995621
 20
5255.6952821584427511
 30
0.0
  0
VERTEX
  5
23A8
  8
0
 10
10281.5219528016496042
 20
5245.6952821795503041
 30
0.0
  0
VERTEX
  5
23A9
  8
0
 10
10284.5313068294908589
 20
5245.6648480684652895
 30
0.0
  0
VERTEX
  5
23AA
  8
0
 10
10284.5313068294908589
 20
5227.5810162199832121
 30
0.0
  0
VERTEX
  5
23AB
  8
0
 10
10281.5207777822706703
 20
5227.6112822177246926
 30
0.0
  0
VERTEX
  5
23AC
  8
0
 10
10281.5201280259207124
 20
5217.6112822388331551
 30
0.0
  0
VERTEX
  5
23AD
  8
0
 10
10284.5721000478497444
 20
5217.5808590881160853
 30
0.0
  0
VERTEX
  5
23AE
  8
0
 10
10284.5721000478497444
 20
5199.6160377846472329
 30
0.0
  0
VERTEX
  5
23AF
  8
0
 10
10281.5189529191393376
 20
5199.5259371685124279
 30
0.0
  0
VERTEX
  5
23B0
  8
0
 10
10281.5183031627893797
 20
5189.5259371896208904
 30
0.0
  0
VERTEX
  5
23B1
  8
0
 10
10284.5169452638692746
 20
5189.6161898883146932
 30
0.0
  0
VERTEX
  5
23B2
  8
0
 10
10293.5169452638692746
 20
5189.6161898883146932
 30
0.0
  0
VERTEX
  5
23B3
  8
0
 10
10293.5220315643091453
 20
5250.664844162002737
 30
0.0
  0
SEQEND
  5
23B4
  8
0
  0
POLYLINE
  5
1E5F
  8
0
 66
     1
 10
0.0
 20
0.0
 30
0.0
  0
VERTEX
  5
23B5
  8
0
 10
10268.3990984467000089
 20
5250.9159679881977354
 30
0.0
 42
0.4284582666080078
  0
VERTEX
  5
23B6
  8
0
 10
10263.4028298302891926
 20
5255.9159665958750338
 30
0.0
  0
VERTEX
  5
23B7
  8
0
 10
10259.4028298302891926
 20
5255.9159665958750338
 30
0.0
  0
VERTEX
  5
23B8
  8
0
 10
10256.4029842463696696
 20
5255.9464046096672973
 30
0.0
  0
VERTEX
  5
23B9
  8
0
 10
10256.4023344900197117
 20
5245.9464046307748504
 30
0.0
  0
VERTEX
  5
23BA
  8
0
 10
10259.4116885178591474
 20
5245.9159705196889263
 30
0.0
  0
VERTEX
  5
23BB
  8
0
 10
10259.4116885178591474
 20
5227.8321386712077583
 30
0.0
  0
VERTEX
  5
23BC
  8
0
 10
10256.4011594706407777
 20
5227.8624046689492388
 30
0.0
  0
VERTEX
  5
23BD
  8
0
 10
10256.4005097142908198
 20
5217.8624046900577014
 30
0.0
  0
VERTEX
  5
23BE
  8
0
 10
10259.4524817362198519
 20
5217.8319815393397221
 30
0.0
  0
VERTEX
  5
23BF
  8
0
 10
10259.4524817362198519
 20
5199.8671602358708697
 30
0.0
  0
VERTEX
  5
23C0
  8
0
 10
10256.399334607509445
 20
5199.7770596197360646
 30
0.0
  0
VERTEX
  5
23C1
  8
0
 10
10256.3986848511594872
 20
5189.7770596408463462
 30
0.0
  0
VERTEX
  5
23C2
  8
0
 10
10259.3973269522393821
 20
5189.8673123395392395
 30
0.0
  0
VERTEX
  5
23C3
  8
0
 10
10268.3973269522393821
 20
5189.8673123395392395
 30
0.0
  0
VERTEX
  5
23C4
  8
0
 10
10268.4024132526792528
 20
5250.9159666132281927
 30
0.0
  0
SEQEND
  5
23C5
  8
0
  0
POLYLINE
  5
1E60
  8
0
 66
     1
 10
0.0
 20
0.0
 30
0.0
 70
     1
  0
VERTEX
  5
23C6
  8
0
 10
10547.2741415768705338
 20
5089.2606654964338304
 30
0.0
  0
VERTEX
  5
23C7
  8
0
 10
10565.2741415768705338
 20
5089.2606654964329209
 30
0.0
  0
VERTEX
  5
23C8
  8
0
 10
10547.2741415768705338
 20
5071.2606654964338304
 30
0.0
  0
SEQEND
  5
23C9
  8
0
  0
POLYLINE
  5
1E61
  8
0
 66
     1
 10
0.0
 20
0.0
 30
0.0
 70
     1
  0
VERTEX
  5
23CA
  8
0
 10
10569.2435243563304539
 20
5068.9697153301140133
 30
0.0
  0
VERTEX
  5
23CB
  8
0
 10
10551.2435243563304539
 20
5068.9697153301140133
 30
0.0
  0
VERTEX
  5
23CC
  8
0
 10
10569.2435243563304539
 20
5086.9697153301140133
 30
0.0
  0
SEQEND
  5
23CD
  8
0
  0
POLYLINE
  5
1E62
  8
0
 66
     1
 10
0.0
 20
0.0
 30
0.0
 70
     1
  0
VERTEX
  5
23CE
  8
0
 10
10547.0463043418603775
 20
5063.9948996746979901
 30
0.0
  0
VERTEX
  5
23CF
  8
0
 10
10565.0463043418603775
 20
5063.9948996746970806
 30
0.0
  0
VERTEX
  5
23D0
  8
0
 10
10547.0463043418603775
 20
5045.9948996746979901
 30
0.0
  0
SEQEND
  5
23D1
  8
0
  0
POLYLINE
  5
1E63
  8
0
 66
     1
 10
0.0
 20
0.0
 30
0.0
 70
     1
  0
VERTEX
  5
23D2
  8
0
 10
10569.0156871213293925
 20
5043.7039495083781731
 30
0.0
  0
VERTEX
  5
23D3
  8
0
 10
10551.0156871213293925
 20
5043.7039495083781731
 30
0.0
  0
VERTEX
  5
23D4
  8
0
 10
10569.0156871213293925
 20
5061.7039495083781731
 30
0.0
  0
SEQEND
  5
23D5
  8
0
  0
POLYLINE
  5
1E64
  8
0
 66
     1
 10
0.0
 20
0.0
 30
0.0
 70
     1
  0
VERTEX
  5
23D6
  8
0
 10
10609.5548520623196964
 20
5151.5413759818848121
 30
0.0
  0
VERTEX
  5
23D7
  8
0
 10
10627.5548520623196964
 20
5151.5413759818848121
 30
0.0
  0
VERTEX
  5
23D8
  8
0
 10
10609.5548520623196964
 20
5133.5413759818848121
 30
0.0
  0
SEQEND
  5
23D9
  8
0
  0
POLYLINE
  5
1E65
  8
0
 66
     1
 10
0.0
 20
0.0
 30
0.0
 70
     1
  0
VERTEX
  5
23DA
  8
0
 10
10631.5242348417796165
 20
5131.2504258155659045
 30
0.0
  0
VERTEX
  5
23DB
  8
0
 10
10613.5242348417796165
 20
5131.2504258155659045
 30
0.0
  0
VERTEX
  5
23DC
  8
0
 10
10631.5242348417796165
 20
5149.2504258155659045
 30
0.0
  0
SEQEND
  5
23DD
  8
0
  0
POLYLINE
  5
1E66
  8
0
 66
     1
 10
0.0
 20
0.0
 30
0.0
 70
     1
  0
VERTEX
  5
23DE
  8
0
 10
10609.3270148273204541
 20
5126.2756101601489718
 30
0.0
  0
VERTEX
  5
23DF
  8
0
 10
10627.3270148273204541
 20
5126.2756101601489718
 30
0.0
  0
VERTEX
  5
23E0
  8
0
 10
10609.3270148273204541
 20
5108.2756101601489718
 30
0.0
  0
SEQEND
  5
23E1
  8
0
  0
POLYLINE
  5
1E67
  8
0
 66
     1
 10
0.0
 20
0.0
 30
0.0
 70
     1
  0
VERTEX
  5
23E2
  8
0
 10
10631.2963976067803742
 20
5105.9846599938300642
 30
0.0
  0
VERTEX
  5
23E3
  8
0
 10
10613.2963976067803742
 20
5105.9846599938300642
 30
0.0
  0
VERTEX
  5
23E4
  8
0
 10
10631.2963976067803742
 20
5123.9846599938300642
 30
0.0
  0
SEQEND
  5
23E5
  8
0
  0
POLYLINE
  5
1E68
  8
0
 66
     1
 10
0.0
 20
0.0
 30
0.0
 70
     1
  0
VERTEX
  5
23E6
  8
0
 10
10640.609836460549559
 20
5135.8959012143259315
 30
0.0
  0
VERTEX
  5
23E7
  8
0
 10
10658.609836460549559
 20
5135.895901214325022
 30
0.0
  0
VERTEX
  5
23E8
  8
0
 10
10640.609836460549559
 20
5117.895901214326841
 30
0.0
  0
SEQEND
  5
23E9
  8
0
  0
POLYLINE
  5
1E69
  8
0
 66
     1
 10
0.0
 20
0.0
 30
0.0
 70
     1
  0
VERTEX
  5
23EA
  8
0
 10
10662.5792192400094791
 20
5115.6049510480070239
 30
0.0
  0
VERTEX
  5
23EB
  8
0
 10
10644.5792192400094791
 20
5115.6049510480070239
 30
0.0
  0
VERTEX
  5
23EC
  8
0
 10
10662.5792192400094791
 20
5133.6049510480070239
 30
0.0
  0
SEQEND
  5
23ED
  8
0
  0
POLYLINE
  5
1E6A
  8
0
 66
     1
 10
0.0
 20
0.0
 30
0.0
 70
     1
  0
VERTEX
  5
23EE
  8
0
 10
10640.3819992255503166
 20
5110.6301353925910007
 30
0.0
  0
VERTEX
  5
23EF
  8
0
 10
10658.3819992255503166
 20
5110.6301353925900912
 30
0.0
  0
VERTEX
  5
23F0
  8
0
 10
10640.3819992255503166
 20
5092.6301353925910007
 30
0.0
  0
SEQEND
  5
23F1
  8
0
  0
POLYLINE
  5
1E6B
  8
0
 66
     1
 10
0.0
 20
0.0
 30
0.0
 70
     1
  0
VERTEX
  5
23F2
  8
0
 10
10662.3513820050102368
 20
5090.3391852262711836
 30
0.0
  0
VERTEX
  5
23F3
  8
0
 10
10644.3513820050102368
 20
5090.3391852262711836
 30
0.0
  0
VERTEX
  5
23F4
  8
0
 10
10662.3513820050102368
 20
5108.3391852262711836
 30
0.0
  0
SEQEND
  5
23F5
  8
0
  0
POLYLINE
  5
1E6C
  8
0
 66
     1
 10
0.0
 20
0.0
 30
0.0
 70
     1
  0
VERTEX
  5
23F6
  8
0
 10
10843.3641027062894864
 20
5150.6314239880593959
 30
0.0
  0
VERTEX
  5
23F7
  8
0
 10
10843.3641027062894864
 20
5128.6314239880603054
 30
0.0
  0
VERTEX
  5
23F8
  8
0
 10
10796.3641027062894864
 20
5128.6314239880603054
 30
0.0
  0
VERTEX
  5
23F9
  8
0
 10
10796.3641027062894864
 20
5150.6314239880593959
 30
0.0
  0
SEQEND
  5
23FA
  8
0
  0
POLYLINE
  5
1E6D
  8
0
 66
     1
 10
0.0
 20
0.0
 30
0.0
 70
     1
  0
VERTEX
  5
23FB
  8
0
 10
10876.2161081745507545
 20
5122.2790578236654255
 30
0.0
  0
VERTEX
  5
23FC
  8
0
 10
10876.2161081745507545
 20
5100.279057823666335
 30
0.0
  0
VERTEX
  5
23FD
  8
0
 10
10829.2161081745507545
 20
5100.279057823666335
 30
0.0
  0
VERTEX
  5
23FE
  8
0
 10
10829.2161081745507545
 20
5122.2790578236654255
 30
0.0
  0
SEQEND
  5
23FF
  8
0
  0
POLYLINE
  5
1E6F
  8
0
 66
     1
 10
0.0
 20
0.0
 30
0.0
 70
     1
  0
VERTEX
  5
2400
  8
0
 10
10882.9358188718597376
 20
5086.4655492516703816
 30
0.0
  0
VERTEX
  5
2401
  8
0
 10
10882.9358188718597376
 20
5064.4655492516712911
 30
0.0
  0
VERTEX
  5
2402
  8
0
 10
10835.9358188718597376
 20
5064.4655492516712911
 30
0.0
  0
VERTEX
  5
2403
  8
0
 10
10835.9358188718597376
 20
5086.4655492516703816
 30
0.0
  0
SEQEND
  5
2404
  8
0
  0
POLYLINE
  5
1E70
  8
0
 66
     1
 10
0.0
 20
0.0
 30
0.0
 70
     1
  0
VERTEX
  5
2405
  8
0
 10
10850.0838134036002884
 20
5052.1442719406968536
 30
0.0
  0
VERTEX
  5
2406
  8
0
 10
10850.0838134036002884
 20
5030.1442719406968536
 30
0.0
  0
VERTEX
  5
2407
  8
0
 10
10803.0838134036002884
 20
5030.1442719406968536
 30
0.0
  0
VERTEX
  5
2408
  8
0
 10
10803.0838134036002884
 20
5052.1442719406968536
 30
0.0
  0
SEQEND
  5
2409
  8
0
  0
POLYLINE
  5
1E71
  8
0
 66
     1
 10
0.0
 20
0.0
 30
0.0
 70
     1
  0
VERTEX
  5
240A
  8
0
 10
10809.018806568279615
 20
5115.5640310465769289
 30
0.0
  0
VERTEX
  5
240B
  8
0
 10
10809.018806568279615
 20
5093.5640310465769289
 30
0.0
  0
VERTEX
  5
240C
  8
0
 10
10762.018806568279615
 20
5093.5640310465769289
 30
0.0
  0
VERTEX
  5
240D
  8
0
 10
10762.018806568279615
 20
5115.5640310465769289
 30
0.0
  0
SEQEND
  5
240E
  8
0
  0
POLYLINE
  5
1E72
  8
0
 66
     1
 10
0.0
 20
0.0
 30
0.0
 70
     1
  0
VERTEX
  5
240F
  8
0
 10
10809.018806568279615
 20
5084.9733179906479563
 30
0.0
  0
VERTEX
  5
2410
  8
0
 10
10809.018806568279615
 20
5062.9733179906488658
 30
0.0
  0
VERTEX
  5
2411
  8
0
 10
10762.018806568279615
 20
5062.9733179906488658
 30
0.0
  0
VERTEX
  5
2412
  8
0
 10
10762.018806568279615
 20
5084.9733179906479563
 30
0.0
  0
SEQEND
  5
2413
  8
0
  0
ENDSEC
  0
EOF
